<svg xmlns="http://www.w3.org/2000/svg" xmlns:xlink="http://www.w3.org/1999/xlink" width="298" height="1650" viewBox="0 0 298 1650"><svg viewBox="-1 -1 155.9 54.8" enable-background="new 0 0 153.9 52.8" width="155.9" height="54.8" id="abcnews-blue" y="0"><g fill="#0391D8"><path d="M25.1 2.6C11.2 2.6 0 13.8 0 27.7c0 13.8 11.3 25.1 25.1 25 13.9 0 25.1-11.2 25.1-25.1 0-13.8-11.3-25.1-25.1-25zm-8.5 33.9h-5v-2.2c-2 .7-1.9 1.2-3.4 1.2-4.3 0-7.4-3.5-7.4-7.7 0-4.3 3.6-7.8 8-7.8 4.2 0 7.8 3.9 7.8 8.2v8.3zm8.6-.7c-4.4 0-7.9-3-7.9-7.3l-.1-11h3.6l.1 4.4c1.2-.8 2.7-1.6 4.2-1.6 4.3 0 7.8 3.4 7.8 7.7.2 4.4-3.3 7.8-7.7 7.8zm23.7-7.3h-3.4c-.4-2-2.1-4-4.2-4-2.4 0-4.3 1.6-4.3 4s1.9 4.2 4.3 4.2c1.8 0 3.4-1.2 4-2.9l3.5-.1c-.7 3.5-3.8 6.1-7.5 6.1-4.2 0-7.6-3.4-7.6-7.6 0-4.2 3.4-6.9 7.6-6.9 3.9-.1 7.1 3.2 7.6 7.2zM8.9 23.5c-2.4 0-4.3 1.9-4.3 4.2 0 2.3 1.9 4.2 4.3 4.2 2.3 0 4.2-1.9 4.2-4.2 0-2.3-1.9-4.2-4.2-4.2zM25.4 23.6c-2.4 0-4.3 1.9-4.3 4.3s1.9 4.3 4.3 4.3 4.3-1.9 4.3-4.3-2-4.3-4.3-4.3zM79.7 16.5c-.5 0-2.9.2-3.4.2-.3 0-3.9-.2-4-.2h-2.7v1h2.6c2.5 0 1.4-.2 1.4 1.9v14.1l-14.2-17h-.7c-.3 0-1.9.2-2.5.2-.4 0-3.9-.2-4.2-.2h-2.4v1h2.5c.8 0 .5-.4 2.5.8v19.2c0 2-2 2.5-4 2.8v1.2h2c.6 0 3.4-.1 3.8-.1.7 0 3.6.1 4.2.1h1.1-1c-2.8 0-5-2.1-5-5.5V20l20.9 21.5h-.9V19.1c0-2 1.4-2.2 3.7-2.3l.8-.3h-.5zM96 40.5h-4.3c-1.5 0-4.1-1.8-4.1-3.3v-7.7h6c3 0 4.3 1 4.5 3h-.6V24l-.1.7c-.2 2-.7 3.7-2.8 3.7h-7.1v-10h7.9c3 0 4.3 1 4.4 4h.6l-.1-6h-1.7c-1.2 0-7.2.2-8.1.2 0 0-6.3-.2-7.4-.2h-3.7v1H82c2 0 1.4-.6 1.4 1.1V38c0 1.7.6 2.5-1.4 3.5h-.8 1.3c1.4 0 7.9-.4 9.2-.4 2 0 7.9.4 9.1.4l1.8-5h-.8c-1 3-3.1 4-5.8 4zM134.6 16.5h.8c-.8 0-2.5.2-2.9.2-.9 0-2.4-.2-3-.2h-1.9v1h2.4c1.3 0 1.9-.1 1.9 1.1 0 .7-.3 1.6-.8 3.3l-4.5 13.2-5.6-15.9c-.3-.6-.4-.8-.4-1.2 0-.8.7-.5 2.1-.5h-1v-1h1c-.6 0-3.8.2-4.3.2-.7 0-3.8-.2-4.4-.2h-2.3v-.1c2 .1 3.7.7 4.6 3.3l2.6 6.1-3.2 9-5.8-15.8c-.2-.6-1.2-1.2-1.2-1.6 0-.7-.1-1 .9-1v.1h1c-.5 0-2.9.2-3.4.2-.6 0-2.9-.2-3.4-.2h-2.2v-.1c1 .2 2.5 1 3.1 2.7l9.1 22.4h1.2l5-13.3 4.9 13.3h1.2l6.7-21.4c.7-2.6.8-3.4 1.8-3.6zM145.1 24.9c-4.1-1.9-5.2-2.9-5.2-4.9 0-2.1 2-3.6 5.1-3.6 2.4 0 4.3 1.5 5.5 2.8.6.7.8 2.2 1.2 3.2h.6l-.1-6h-.7c-.1 1-.3 0-.6 0-.4 0-1.1-.2-1.8-.4-1.7-.4-3.3-.7-4.8-.7-4.8 0-8 2.5-8 6.5 0 1.7.6 3 1.9 4.4.9.8 1.9 1.9 6.2 3.9 4.5 2.1 5.6 3.2 5.6 5.3 0 2.8-2.5 4.7-6.1 4.7-2.2 0-4-.5-5.5-1.6-1.2-.8-1.8-1.7-2.4-3.2l-.7.2c.3 1.2.7 3.3 1.1 5.3l.1.8h.7c.3 0 .5-.7 1-.7.3 0 .9 0 1.5.1 1.7.4 3.1.5 4.5.5 5.6 0 9.4-3.1 9.4-7.7-.1-4.3-3.3-6.5-8.5-8.9z"/></g></svg><svg viewBox="-1 -1 159.3 54" enable-background="new 0 0 157.3 52" width="159.3" height="54" id="abcnews-drk" y="55"><g fill="#434952"><path d="M26.7 1.9C12.9 1.9 1.6 13.1 1.7 27c0 13.8 11.3 25.1 25.1 25 13.9 0 25.1-11.2 25.1-25.1-.1-13.9-11.3-25.1-25.2-25zm-8.4 33.9h-5v-2.2c-2 .7-1.9 1.2-3.4 1.2-4.3 0-7.4-3.5-7.4-7.7 0-4.3 3.6-7.8 8-7.8 4.2 0 7.8 3.9 7.8 8.2v8.3zm8.6-.7c-4.4 0-7.9-3-7.9-7.3l-.1-11h3.6l.1 4.4c1.2-.8 2.7-1.6 4.2-1.6 4.3 0 7.8 3.4 7.8 7.7.1 4.4-3.4 7.8-7.7 7.8zm23.7-7.3h-3.4c-.4-2-2.1-4-4.2-4-2.4 0-4.3 1.6-4.3 4S40.6 32 43 32c1.8 0 3.4-1.2 4-2.9l3.5-.1c-.7 3.5-3.8 6-7.5 6-4.2 0-7.6-3.4-7.6-7.6 0-4.2 3.4-6.9 7.6-6.9 3.9 0 7 3.3 7.6 7.3zM10.5 22.7c-2.4 0-4.3 1.9-4.3 4.2 0 2.3 1.9 4.2 4.3 4.2 2.3 0 4.2-1.9 4.2-4.2.1-2.3-1.8-4.2-4.2-4.2zM27 22.9c-2.4 0-4.3 1.9-4.3 4.3s1.9 4.3 4.3 4.3 4.3-1.9 4.3-4.3-1.9-4.3-4.3-4.3zM81.3 15.8c-.5 0-2.9.2-3.4.2-.3 0-3.9-.2-4-.2h-2.7v1h2.6c2.5 0 1.4-.2 1.4 1.9v14.1L61 15.8h-.7c-.3 0-1.9.2-2.5.2-.4 0-3.9-.2-4.2-.2h-2.4v1h2.5c.8 0 .5-.4 2.5.8v19.2c0 2-2 2.5-4 2.8v1.2h2c.6 0 3.4-.1 3.8-.1.7 0 3.6.1 4.2.1h1.1-1c-2.8 0-5-2.1-5-5.5v-16l20.9 21.5h-.9V18.4c0-2 1.4-2.2 3.7-2.3l.8-.3h-.5zM97.6 39.8h-4.3c-1.5 0-4.1-1.8-4.1-3.3v-7.7h6c3 0 4.3 1 4.5 3h-.6v-8.5.7c-.2 2-.7 3.7-2.8 3.7h-7.1v-10h7.9c3 0 4.3 1 4.4 4h.6l-.1-6h-1.7c-1.2 0-7.2.2-8.1.2 0 0-6.3-.2-7.4-.2h-3.7v1h2.6c2 0 1.4-.6 1.4 1.1v19.5c0 1.7.6 2.5-1.4 3.5H83h1.3c1.4 0 7.9-.4 9.2-.4 2 0 7.9.4 9.1.4l1.8-5h-.8c-1.2 3-3.2 4-6 4zM136.2 15.8h.8c-.8 0-2.5.2-2.9.2-.9 0-2.4-.2-3-.2h-1.9v1h2.4c1.3 0 1.9-.1 1.9 1.1 0 .7-.3 1.6-.8 3.3l-4.5 13.2-5.7-15.9c-.3-.6-.4-.8-.4-1.2 0-.8.7-.5 2.1-.5h-1v-1h1c-.6 0-3.8.2-4.3.2-.7 0-3.8-.2-4.4-.2h-2.3v-.1c2 .1 3.7.7 4.6 3.3l2.6 6.1-3.2 9-5.7-15.8c-.2-.6-1.2-1.2-1.2-1.6 0-.7-.1-1 .9-1v.1h1c-.5 0-2.9.2-3.4.2-.6 0-2.9-.2-3.4-.2h-2.2v-.1c1 .2 2.5 1 3.1 2.7l9.1 22.4h1.2l5-13.3 4.9 13.3h1.2l6.7-21.4c.8-2.6.8-3.5 1.8-3.6zM146.8 24.2c-4.1-1.9-5.2-2.9-5.2-4.9 0-2.1 2-3.6 5.1-3.6 2.4 0 4.3 1.5 5.5 2.8.6.7.8 2.2 1.2 3.2h.6l-.1-6h-.7c-.1 1-.3 0-.6 0-.4 0-1.1-.2-1.8-.4-1.7-.4-3.3-.7-4.8-.7-4.8 0-8 2.5-8 6.5 0 1.7.6 3 1.9 4.4.9.8 1.9 1.9 6.2 3.9 4.5 2.1 5.6 3.2 5.6 5.3 0 2.8-2.5 4.7-6.1 4.7-2.2 0-4-.5-5.5-1.6-1.2-.8-1.8-1.7-2.4-3.2l-.7.2c.3 1.2.7 3.3 1.1 5.3l.1.8h.7c.3 0 .5-.7 1-.7.3 0 .9 0 1.5.1 1.7.4 3.1.5 4.5.5 5.6 0 9.4-3.1 9.4-7.7-.1-4.3-3.3-6.5-8.5-8.9z"/></g></svg><svg viewBox="-1 -1 115.7 35.5" enable-background="new 0 0 113.7 33.5" width="115.7" height="35.5" id="aetna" y="109"><g fill="#7D3D8F"><path d="M62.5 26c-6.9 2.8-5-7.5-4.9-12.4h4.3V8.9h-4.3c0-2 0-3.9.2-5.7-.8-.1-3.3 0-4.1 0-.4 3.6-1.7 6.4-5.4 6.8v3.7c.7.1 2-.3 2.4.2.7 5.5-1.4 11.6 1 15 2 2.8 6.7 2.5 11 1.8-.1-1.6-.3-3-.2-4.7zM44 9.7c-2.3-1.5-5.7-1.7-8.5-1.4-5.6.5-8.9 4-9.5 9.3-1.2-.1-3 .3-3.9-.2 2-10.3-10.3-10.3-17.2-7.9.3 1.3.2 3 .2 4.7 3.1-1.7 11.3-3.4 10.1 3.2-5.5.3-10.8.5-12 4.7-3 10.6 9.6 9.3 18.9 8.5-.1-2.9-.5-6.5 0-9.3h4.1C25.5 31.1 37 32.6 45.5 30c0-1.6-.3-2.9-.2-4.7-3.9 2-12.3 2.5-11.8-3.9 4.6 0 9.8 0 12-2.8 1.9-2.5 1.3-7-1.5-8.9zM15.2 26.8c-1.7.4-4 .3-5.1-.6-1.8-3.5 1.7-5.9 5.1-4.9v5.5zm18.1-9.1c-1-4.1 4.3-7.3 6.3-4.5 2.1 3-2.5 5.9-6.3 4.5zM83.4 10c-4.2-3.3-11.3-.7-17.9-1 .3 6.9.3 14.8 0 21.7h7.3c-.4-5.8-.3-11.7-.1-17.7 9.7-3.9 5.2 11.9 6.1 17.7h7.1C84.4 23.6 88 13.6 83.4 10zM104.3 9.1c-3.4-1.6-9.9-.9-13.8.4.3 1.3.2 3.1.2 4.7 3.2-1.7 11.2-3.4 10.1 3.2-5.6.1-11.3.9-12.2 4.9-2.3 10.5 10.5 9.1 19.3 8.1-1.8-7.2 2.8-18.3-3.6-21.3zm-3.4 17.7c-1.7.4-4 .3-5.1-.6-1.8-3.5 1.7-5.9 5.1-4.9v5.5z"/></g></svg><svg viewBox="-1 -1 135.8 24.8" enable-background="new 0 0 133.8 22.8" width="135.8" height="24.8" id="anthem" y="145"><g><path fill="none" d="M3 1.5h125.8v19.4H3zM3 1.5h125.8v19.4H3z"/><path fill="#fff" d="M121.3 4.2s3.9-.1 5.7-1.3c0 0 .8 1 .8 4.2 0 3.3-1.3 9.3-6.5 12 0 0-5.9-2.2-6.4-12.1 0 0-.2-2.2.9-4.1 0-.1 2.2 1 5.5 1.3"/><path fill="#0079B4" d="M107.1 19.1c0-.8.6-1.4 1.4-1.4.8 0 1.4.6 1.4 1.4 0 .8-.6 1.4-1.4 1.4-.7 0-1.4-.6-1.4-1.4m2.7 0c0-.7-.5-1.2-1.2-1.2s-1.2.5-1.2 1.2.5 1.2 1.2 1.2 1.2-.5 1.2-1.2m-1.6.8h-.2v-1.6h.7c.4 0 .6.2.6.5s-.2.4-.5.5l.5.7h-.2l-.5-.7h-.3v.6zm.3-.9c.2 0 .5 0 .5-.3 0-.2-.2-.3-.4-.3h-.4v.6h.3z"/><path fill="#fff" d="M102.1 16.5c3.1 0 5.5-2.5 5.5-5.5 0-3.1-2.5-5.5-5.5-5.5S96.5 8 96.5 11c0 3.1 2.5 5.5 5.6 5.5"/><path fill="#0079B4" d="M103 8.2c0-.4.5-.5.3-1.4.8.2 1.5.8 2.1 1.4H103zM101 8.2h-2.4c.5-.7 1.3-1.2 2.1-1.4-.3.9.3 1 .3 1.4M106.4 10c.3 1.7-.2 2.9-1 3.9 0 0-1.6-3-1.8-3.3-.2-.3 0-.4.2-.4s2.6-.2 2.6-.2M97.6 10s2.4.2 2.6.2c.2 0 .4 0 .2.4-.2.3-1.8 3.3-1.8 3.3-.8-1-1.3-2.2-1-3.9M103.9 15.1c-.5.3-1.1.4-1.9.4-.7 0-1.4-.1-1.9-.4 0 0 1.7-2.7 1.9-2.7.2 0 1.9 2.7 1.9 2.7M111.5 6.9h-5.2V1.6H98v5.2h-5.2v8.4H98v5.2h8.3v-5.2h5.2V6.9zm-13.1.5c.9-.9 2.2-1.5 3.7-1.5 1.4 0 2.6.5 3.6 1.4.5.4.9 1 1.1 1.6h-3.6c-.3 0-.6-.1-.8-.3-.2-.2-.2-.5.1-.9.5-.6.1-1.2-.5-1.2-.5 0-1 .6-.5 1.2.3.3.3.7.1.9-.2.2-.4.3-.8.3h-3.5c.3-.6.7-1.1 1.1-1.5M96.9 11c0-.6.1-1.2.3-1.8 1.3 0 2.4.2 3.1.3.7 0 1.3.4.8 1.4-.5.8-1.9 3.5-2.2 4.2-1.3-1-2-2.4-2-4.1m5.2 5.2c-1.1 0-2.1-.3-2.9-.9.4-.6 2.3-3.3 2.4-3.5.1-.2.2-.4.5-.4.2 0 .3.1.5.4.1.2 2.5 3.6 2.5 3.6-1 .5-2 .8-3 .8m3.1-1.1c-.1-.1-1.7-3.3-2.3-4.2-.5-.9 0-1.3.8-1.4.7 0 1.9-.2 3.2-.3.2.6.3 1.1.3 1.8 0 1.7-.7 3.2-2 4.1"/><path fill="#0079B4" d="M125.1 19.1c0-.8.6-1.4 1.4-1.4.8 0 1.4.6 1.4 1.4 0 .8-.6 1.4-1.4 1.4-.7 0-1.4-.6-1.4-1.4m2.7 0c0-.7-.5-1.2-1.2-1.2s-1.2.5-1.2 1.2.5 1.2 1.2 1.2 1.2-.5 1.2-1.2m-1.6.8h-.2v-1.6h.7c.4 0 .6.2.6.5s-.2.4-.5.5l.5.7h-.2l-.5-.7h-.3v.6zm.3-.9c.2 0 .5 0 .5-.3 0-.2-.2-.3-.4-.3h-.4v.6h.3zM127.7 1.5c-1.8 1-3.6 1.5-6.3 1.5-2.7 0-4.5-.5-6.3-1.5-.7 1.3-1.2 3.1-1.2 5.4 0 6.1 3.4 10.2 4.3 11.1.8.9 2.5 2.3 3.2 2.4.6-.1 2.3-1.5 3.2-2.4.8-.9 4.3-5 4.3-11.1 0-2.3-.5-4.1-1.2-5.4m-3.4 14.9c-.5.6-2.5 2.4-2.8 2.5-.4-.1-2.3-1.8-2.8-2.5-.4-.5-3.3-4-3.3-9.5 0-1.2.2-2.9.6-3.5 1.1.6 3.2 1.1 5.5 1.1s4.4-.6 5.5-1.1c.4.6.6 2.3.6 3.5-.1 5.4-2.9 9-3.3 9.5M120.7 6.6s0 .1-.1.1-.1 0-.2-.1c-.2-.1-.3-.1-.3-.1s.3 0 .6.1M126.6 4.3c-1 .5-3.1.8-5.2.8-2 0-4.2-.3-5.2-.8-.4.6-.4 2-.4 3 .2 5.5 2.7 8.1 3 8.6.5.6 2.2 2.2 2.6 2.3.3-.1 2.1-1.7 2.6-2.3.4-.4 2.9-3.1 3-8.6 0-1.1 0-2.5-.4-3m-5.8 12.4c-.1 0-.1 0 0 0-.2 0-.2-.3-.2-.3 0-.3.2-.6.4-.7v.5c-.2.1-.2.4-.2.5m.8.3s-.2.1-.4 0v-.8c0-.3 0-.9-.1-1.4.1 0 .1 0 .2.1.2 0 .3.1.3.2.1.1.1.6.1.9-.1.5-.1 1-.1 1m.1-1.2v-.6c0-.1-.1-.2-.1-.3-.1-.1-.1-.1-.3-.2-.1 0-.1-.1-.3-.1-1.3-.3-1-1.6-.2-1.6v.7c-.2.1-.1.1 0 .2.1 0 .3.2.5.2.1 0 .3.1.4.2.9.2.8 1.1 0 1.5M121 13v-.5h.7v1.4c-.1 0-.2-.1-.4-.1-.2-.1-.2-.1-.3-.2V13zm.8.6v-.7c.1-.1.3-.1.1-.3-.1-.1-.4-.1-.6-.1-.1 0-.3 0-.7-.1-1.1-.2-1-1.6-.3-1.8l.2.5.2.4c.3 0 .4 0 .8.1.1 0 .2 0 .4.1 1.4.2 1 1.8-.1 1.9m-1.4-3.4l.3-.5.9.1v1.6l-.8-.1-.2-.5-.2-.6zm1.5 1c-.1-.5-.1-1-.1-1 .4 0 .1-.5 0-.5-.2 0-.3 0-.6-.1-.2 0-.5 0-.7-.1-2.8-.4-2.4-2.9-1-3.1 1-.2 1.5.2 1.7.6 0 0-.3.1-.5.1-.5-.1-.7 0-.7 0 .2.1.7.2.9.4-.2.1-.5.1-.7.1-.2 0-.4-.1-.6-.2-.1.3-.2.8 1 1.1.2 0 .4.1.6.1.2 0 .5.1.6.1.1 0 .2.1.2.1 1.7.4 1.2 2.4-.1 2.4m1.3-4.2l-1.3 1.3s-.1.2-.2.2l-1-.2v-.7c.2 0 .3 0 .4-.1v-.1c.3.1.6.1.7.1l-.1-.1c-.1 0-.3-.1-.5-.2.2 0 .3-.1.3-.1s0-.1-.1-.3c-.2-.3-.5-.5-.5-.5-.1-.1 0-.2 0-.2 0-.4.2-.3.6-.2.1 0 .1.1.1.1.2.1.5.2.5.3 0 0 0 .9.1.8.2-.1.6-.5.8-.6 0-.1.4.3.2.5"/><path fill="#231F20" d="M86.4 19.1c0-.8.6-1.4 1.4-1.4.8 0 1.4.6 1.4 1.4 0 .8-.6 1.4-1.4 1.4-.8 0-1.4-.6-1.4-1.4m2.6 0c0-.7-.5-1.2-1.2-1.2s-1.2.5-1.2 1.2.5 1.2 1.2 1.2 1.2-.5 1.2-1.2m-1.5.8h-.2v-1.6h.7c.4 0 .6.2.6.5s-.2.4-.5.5l.5.7h-.2l-.5-.7h-.3v.6zm.3-.9c.2 0 .5 0 .5-.3 0-.2-.2-.3-.4-.3h-.4v.6h.3zM63.6 10.4c-.9-.8-2.1-1.2-3.6-1.2-1.3 0-2.6.6-3.6 1.6-1 1.1-1.6 2.6-1.6 4.3 0 1.6.6 3.1 1.7 4.2 1 1 2.4 1.6 3.9 1.6 2.8 0 4.4-2.1 4.7-4v-.1H64.2v.1c-.2 1.6-1.5 3.2-3.6 3.2-1.7 0-2.6-1.1-2.6-3.1v-2.6h7.3v-.1c-.2-1.7-.7-3-1.7-3.9m-1.5 3.1h-4.2v-1.2c0-.8.2-1.4.6-1.8.4-.4.9-.6 1.4-.6 1.3 0 2.1.9 2.1 2.4v1.2zM40.7 18.4H39.9v.1c-.1.5-.4 1.4-1.5 1.4-.8 0-1.2-.6-1.2-1.7v-7.9h2.7V9.5h-2.7V6.1h-.1c-.6.1-1.9.2-2.6.2h-.1v3.2h-1.8V10.3h1.8v6.9c0 2.5 1.1 3.8 3.2 3.8 2.4 0 3-1.9 3.1-2.4v-.2zM31 19.8v-7c0-1.1-.3-2-1-2.7-.7-.7-1.6-1-2.7-1-1.5 0-2.6.6-3.5 1.8V9.4H19.4V10.2H21.1v9.6H18L11.7 1.7v-.1H10.9v.1L4.7 19.8H3V20.6H8.2V19.8H5.8l1.7-5.2H13l1.7 5.2h-2.4V20.6h13.2V19.8H23.8v-5.3c0-3.2 1.7-4.3 2.8-4.3 1.1 0 1.7.7 1.7 2.1v7.5h-1.6V20.6h6.1V19.8H31zM10.2 6.5l2.6 7.4h-5l2.4-7.4zM52.7 19.8v-7.1c0-1.7-1-3.6-3.8-3.6-2.2 0-3.3 1.1-3.8 1.6v-9H40.7V2.5H42.4v17.4h-1.8V20.7H46.8V19.9H45v-5.4c0-1.9.6-2.9 1.2-3.4.5-.5 1.2-.8 1.9-.8 1.5 0 1.8 1.2 1.8 2.3v7.3H48.2V20.7H54.4V19.9H52.7zM85.6 19.8h-1.7v-7.5c0-1.9-1.3-3.2-3.5-3.2-2 0-3.1 1-3.6 1.7-.6-1.1-1.6-1.7-3.2-1.7-1.4 0-2.7.5-3.6 1.5V9.4H65.5V10.2h1.8v9.6h-1.8V20.6h6.1V19.8H70v-5.3c.1-1.5.1-2.5.7-3.3.5-.6 1.2-1 2-1 .9 0 1.2.7 1.3.8.2.4.2 1.2.2 1.9v6.9h-1.6V20.6H78.6V19.8H77v-5.3c.1-1.5.1-2.5.7-3.3.5-.6 1.2-1 2-1 .9 0 1.2.7 1.3.8.2.4.2 1.2.2 1.9v6.9h-1.6V20.6h6.1v-.1l-.1-.7z"/></g></svg><svg viewBox="-1 -1 72.5 64" enable-background="new 0 0 70.5 62" width="72.5" height="64" id="bcbs" y="170"><g><path d="M3.5 46.8h1.2v-8.3H3.5v-.4h4.8c1.6 0 2.8.3 2.8 1.9 0 1.4-1.1 2.1-2.4 2.2 1.5 0 3 .8 3 2.5 0 1.4-1 2.5-3.1 2.5H3.5v-.4zm3.2 0h.7c1.4 0 2.2-.6 2.2-2.3 0-1.5-.5-2.1-1.9-2.1h-1v4.4zm0-4.8h.8c1.1 0 1.5-.5 1.5-1.8s-.4-1.8-1.6-1.8h-.7V42zM11.9 46.8h.9v-8.3h-.9v-.4h.8c.6 0 1.3 0 2-.1v8.8h.9v.4h-3.7v-.4zM22.4 46.8h.9v.4c-1.2 0-2 0-2.7.1v-1c-.4.7-1.2 1-2 1-1.3 0-2.2-.5-2.2-2.1v-3.9h-.9v-.4h.8c.6 0 1.3 0 2-.1v4.7c0 1 .5 1.1 1 1.1.8 0 1.4-.7 1.4-2v-3.3h-.9v-.4h.8c.6 0 1.3 0 2-.1v6zM25.5 43.7v.5c0 1.1.2 2.5 1.6 2.5 1.1 0 1.7-.6 2.2-1.5l.3.2c-.5 1.3-1.5 1.9-2.8 1.9-2 0-3.3-1.3-3.3-3.3 0-1.9 1.4-3.3 3.3-3.3 1.6 0 2.9 1.1 2.9 2.9h-4.2zm2.3-.4v-.6c0-.7-.2-1.6-1-1.6-1.2 0-1.2 1.4-1.2 2.2h2.2zM38.4 41.2H38c-.1-1.6-1.4-2.9-2.9-2.9-2.5 0-2.8 2.5-2.8 4.3 0 1.6.2 4.3 2.7 4.3 1.5 0 2.8-1.4 3-2.9h.4v2.6c-1 .4-2.3.7-3.4.7-2.9 0-4.8-2-4.8-4.7s1.9-4.7 4.8-4.7c1.1 0 2.2.3 3.4.7v2.6zM38.8 46.8h.9v-5.5h-.9v-.4h.8c.6 0 1.3 0 2-.1v1c.3-.6.9-1.1 1.6-1.1.8 0 1.2.6 1.2 1.3 0 .5-.3.8-.8.8s-.8-.3-.8-.7v-.6c0-.2-.1-.3-.2-.3-.7 0-1 1.7-1 2.7v2.7h.9v.4h-3.7v-.2zM47.6 47.3c-2 0-3.3-1.3-3.3-3.3 0-1.9 1.4-3.3 3.3-3.3s3.3 1.4 3.3 3.3-1.4 3.3-3.3 3.3zm0-6.1c-1.3 0-1.3 1.4-1.3 2.9s0 2.9 1.3 2.9 1.3-1.4 1.3-2.9 0-2.9-1.3-2.9zM51.3 44.8h.4c.1 1.1.8 2.1 1.9 2.1.6 0 1.3-.3 1.3-.9 0-1.5-3.5-.8-3.5-3.3 0-1.3 1-2 2.2-2 1 0 1.5.2 2 .4v1.6h-.4c-.1-.9-.8-1.7-1.7-1.7-.5 0-.9.3-.9.8 0 1.3 3.5.7 3.5 3.2 0 1.4-1.3 2.2-2.5 2.2-1 0-1.8-.3-2.2-.4v-2zM56.5 44.8h.4c.1 1.1.8 2.1 1.9 2.1.6 0 1.3-.3 1.3-.9 0-1.5-3.5-.8-3.5-3.3 0-1.3 1-2 2.2-2 1 0 1.5.2 2 .4v1.6h-.4c-.1-.9-.8-1.7-1.7-1.7-.5 0-.9.3-.9.8 0 1.3 3.5.7 3.5 3.2 0 1.4-1.3 2.2-2.5 2.2-1 0-1.8-.3-2.2-.4v-2zM3.5 59.4h1.2v-8.3H3.5v-.4h4.8c1.6 0 2.8.3 2.8 1.9 0 1.4-1.1 2.1-2.4 2.2 1.5 0 3 .8 3 2.5 0 1.4-1 2.5-3.1 2.5H3.5v-.4zm3.2 0h.7c1.4 0 2.2-.6 2.2-2.3 0-1.5-.5-2.1-1.9-2.1h-1v4.4zm0-4.7h.8c1.1 0 1.6-.5 1.6-1.8s-.4-1.8-1.6-1.8h-.8v3.6zM11.9 59.4h.9v-8.3h-.9v-.4h.8c.6 0 1.3 0 2-.1v8.8h.9v.4h-3.7v-.4zM22.4 59.4h.9v.4c-1.2 0-2 0-2.7.1v-1c-.4.7-1.2 1-2 1-1.3 0-2.2-.5-2.2-2.1V54h-.9v-.4h.8c.6 0 1.3 0 2-.1v4.7c0 1 .5 1.1 1 1.1.8 0 1.4-.7 1.4-2V54h-.9v-.4h.8c.6 0 1.3 0 2-.1v5.9zM25.5 56.4v.5c0 1.1.2 2.5 1.6 2.5 1.1 0 1.7-.6 2.2-1.5l.3.2c-.5 1.3-1.5 1.9-2.8 1.9-2 0-3.3-1.3-3.3-3.3 0-1.9 1.4-3.3 3.3-3.3 1.6 0 2.9 1.1 2.9 2.9h-4.2zm2.3-.4v-.6c0-.7-.2-1.6-1-1.6-1.2 0-1.2 1.4-1.2 2.2h2.2zM30.1 56.8h.4c.1 1.3 1.1 2.8 2.7 2.8 1 0 2-.4 2-1.5 0-2.2-5-1.5-5-4.7 0-1.9 1.6-2.7 3-2.7.7 0 1.4.1 2.6.6l.1 2.2h-.4c-.2-1.2-1.2-2.3-2.4-2.3-.8 0-1.4.6-1.4 1.4 0 2 4.9 1.2 4.9 4.8 0 1.6-1.4 2.8-3.3 2.8-1 0-2-.2-3-.6l-.2-2.8zM36.7 59.4h.9v-8.3h-.9v-.4h.8c.6 0 1.3 0 2-.1v3.8c.4-.7 1.1-1 2-1 1.3 0 2.2.7 2.2 2.1v3.9h.9v.4h-3.7v-.4h.9v-4.1c0-1-.5-1.2-1-1.2-.7 0-1.4.7-1.4 1.7v3.6h.9v.4h-3.7v-.4zM44.5 59.4h.9V54h-.9v-.4h.8c.6 0 1.3 0 2-.1v5.9h.9v.4h-3.7v-.4zm1.8-8.8c.5 0 1 .4 1 1 0 .5-.4 1-1 1-.5 0-1-.4-1-1s.5-1 1-1zM50.3 56.4v.5c0 1.1.2 2.5 1.6 2.5 1.1 0 1.7-.6 2.2-1.5l.3.2C54 59.3 53 60 51.7 60c-2 0-3.3-1.3-3.3-3.3 0-1.9 1.4-3.3 3.3-3.3 1.6 0 2.9 1.1 2.9 2.9h-4.3zm2.3-.4v-.6c0-.7-.2-1.6-1-1.6-1.2 0-1.2 1.4-1.2 2.2h2.2zM54.7 59.4h.9v-8.3h-.9v-.4h.8c.6 0 1.3 0 2-.1v8.8h.9v.4h-3.7v-.4zM63.2 59.1c-.5.7-1.2.9-1.9.9-1.9 0-2.7-1.5-2.7-3.3 0-1.7 1-3.3 2.8-3.3.8 0 1.5.3 1.8.9v-3.2h-.9v-.4h.8c.6 0 1.3 0 2-.1v8.8h.9v.4c-1.2 0-2 0-2.7.1v-.8zM61.8 54c-1.3 0-1.3 1.2-1.3 2.7 0 1.8.3 2.7 1.3 2.7 1.3 0 1.4-1.5 1.4-2.7 0-1-.1-2.7-1.4-2.7z"/><path fill="#fff" d="M53.2 33.5s9.8-5.2 12-17.9c.2-1.1 1.3-6.3-1.7-13.3 0 0-4.3 2.2-10.8 2.5C46.2 4.8 42 2.3 42 2.3c-1.5 3.8-1.9 7.1-1.9 9.4M39.9 11.7c0 2.3.4 3.8.5 4.4 2.7 12.7 12.7 17.4 12.7 17.4"/><g fill="#fff"><circle cx="19.7" cy="18.3" r="8.4"/><path d="M19.7 18.3"/></g><path d="M19.8 18.4M19.8 12.2M19.8 18.4M19.8 18.4M19.8 18.4M19.8 18.4M19.8 18.4M19.8 18.4"/><path fill="#0080B6" d="M17.6 11.7c-1.5.4-2.4.9-3.3 2.1h3.8c0-.2-.3-.2-.4-.5-.2-.5-.2-.8-.1-1.1.2-.5 0-.5 0-.5z"/><path d="M19.8 18.4"/><path fill="#0080B6" d="M26.7 16.6c.1.4.1.9.2 1.3v.4c0 1.9-.5 3.3-1.7 4.6 0 0-2.5-4.9-2.6-5.3-.2-.4-.5-.5.3-.6.4 0 3.8-.4 3.8-.4zM19.8 25.4c1.1 0 1.8-.2 2.8-.7 0 0-2.1-3.2-2.3-3.5-.1-.2-.3-.5-.4-.5-.1 0-.3.3-.4.5-.2.3-2.3 3.5-2.3 3.5.8.5 1.5.7 2.6.7zM26.7 10.6v.9h8.6v13.8h-8l-.9-1.8c1.2-1.5 1.8-3.4 1.7-5.5 0-.9-.3-1.7-.6-2.5l-5.8.5c-.9.1-1 .8 0 2.6l3.2 6.4c.5-.4 1.1-1 1.6-1.6l.9 1.8h-.6v8.6H12.9V26l3-.2c1 .5 2.2.9 3.4.9h.8c1.5-.1 2.9-.6 4.1-1.3l-3.4-5.5c-.2-.2-.7-1-1.1-1-.5 0-.9.7-1.1.9l-3.5 5.5c.2.1.5.3.7.4l-3 .2v-.7H12l1-2c.4.6 1.1 1.2 1.7 1.7 0 0 2.5-4.9 3.2-6.4.9-1.9.9-2.5 0-2.6l-5.9-.5c-.3.8-.5 1.6-.6 2.5-.1 2 .5 3.9 1.6 5.4l-1 2H4.3V11.5h7.8l1.2 1.7c-.4.5-.9 1.1-1.1 1.7h6.3c.7 0 .9-.7.9-.9 0-.2-.1-.7-.3-.9-.1-.2-.3-.5-.3-.7 0-.7.4-1 1-1s1 .4 1 1c0 .3-.1.5-.3.7-.3.2-.3.7-.3.9 0 .2.1.9.9.9h6.3c-.5-1.1-1.4-2.2-2.4-3-1.4-1.1-3.2-1.8-5.2-1.8-2.6 0-4.9 1.2-6.4 3.1l-1.2-1.7h.8V2.8h13.8v7.8zM13 16.7c-.1.4-.2.9-.2 1.4v.3c0 1.9.5 3.3 1.7 4.6 0 0 2.4-4.9 2.6-5.3.2-.4.5-.5-.3-.6-.5-.1-3.8-.4-3.8-.4M53.1 33.9s10.1-5.3 12.2-18.3c.2-1.1 1.4-6.4-1.8-13.5 0 0-4.4 2.2-11.1 2.5-6.7 0-10.9-2.5-10.9-2.5-1.6 3.9-2 7.2-2 9.6l2.4.2c-.1-2.2.2-4.9 1.1-6.4 0 0 4.1 1.6 9.4 1.6 5.4-.2 9.4-1.7 9.4-1.7 1.6 3.6 1.5 7 .8 10.9-2 10.6-9.7 14.9-9.7 14.9s-7.9-4-10.3-14.5c-.4-1.6-.6-3.2-.7-4.7l-2.4-.2c0 2.4.4 3.9.5 4.5 2.8 12.8 13.1 17.6 13.1 17.6"/><path fill="#0080B6" d="M51.3 10.8c.1 0 .2 0 .2-.1s-.1-.2-.2-.2-.2.1-.2.2c0 0 .1.1.2.1h.2c-.1.1-.2.1-.3 0-.1-.2-.1-.2-.2-.2h-.2c-.2 0 0-.1 0-.1.4 0 .7 0 .8.1.1.1 0 .2-.1.3l-.2-.1z"/><path fill="#fff" d="M51.3 10.6"/><path fill="#0080B6" d="M61 18.2c.6-2.4 1.7-6.5.3-11.4 0 0-4.7 1.5-8.7 1.5l.6 1.3c.2.1.3.1.3.1.1 0 .2.1.2.4v.9c0 .3.1.4.4.2.3-.2.9-.7 1.2-.9.2-.2.5 0 .7.1.1.1.4.6.1.9-.4.4-2 1.9-2.1 2.1-.1.1 0 .3 0 .3s-.2.1-.3.1c-.1 0-1.7-.2-1.9-.3-.1 0-.1 0-.1-.2v-.8c0-.1.1-.1.3-.1.1 0 .2-.1.3-.1.1 0 0-.2 0-.2s-.3-.2-.1-.2c.2 0 .5.1.6.1h.5c-.1-.1-.5-.2-.6-.2-.2-.1-.4-.1-.5-.1-.1 0 0-.1.1-.1s.3-.1.3-.1h.2c.1 0 0-.1 0-.2s-.3-.3-.5-.6c-.2-.2-.4-.5-.5-.6-.1-.1-.1-.2-.1-.3v-.2c0-.3.3-.4.5-.3.3.1.6.2 1.1.4l-.6-1.3c-.7 0-1.5 0-2.2-.1l-.1 1.9h.4c.1 0 .7.1 1 .2.3.1.5.5.9.8.2.1.1.2-.1.2-.4.1-1.3 0-1.6 0-.3 0 0 .1.1.2s.5.2.9.4.1.3-.6.3c-.5 0-1-.2-1.3-.2-.2-.1-.7-.1-.4.6.4.8 1 .9 3.7 1.3s2.7 2 2.7 2.3c0 .3-.3 2-2.2 2v-1.6c.2-.2.4-.4.3-.5-.1-.3-.1-.5-2-.6-2.7-.1-4.3-1.2-4.3-3.2 0-1.7 1.5-2.2 2.4-2.3l.1-1.9C47 7.8 43.9 7 43.9 7c-.6 1.5-.6 3.2-.6 4.8.1 2.5.7 4.8 1.2 6.4h5.8c.1-.5.5-.9.8-1.1.2-.2.3 0 .3.1l.2.4.2-.1c-.1-.4-.3-.7-.3-.8-.1-.2-.1-.2-.1-.4s.3-.3.4-.3v-.1c0-.2.1-.1.2-.1.2 0 1 0 1.5.1.1 0 .1 0 .1.1v2.2H61zM51.9 18.2c-.1-.2-.2-.4-.3-.7l-.2.1c.1.2.1.5.2.6h.3zM44.4 18.2c.1.2.1.3.1.5 2.1 6.6 8.4 11 8.4 11s.3-.3.7-.6l-.4-.8c-.1 0-.4.1-.5 0-.1 0-.3-.2-.3-.4V26l-.2.1v.5s-.2.1-.2.3v.6c0 .4-.6 0-.6-.6 0-.9.5-1.3.8-1.3v.5l.2-.1v-1.4c0-.2.1-.2.1-.2h.3c.1 0 .7.3.7.4v.7l.2-.1v-.7c0-.2-.1-.3-1.5-.8s-1.4-1.5-1.4-1.6.1-1.2 1.3-1.2v.5h.2v-1c0-.1 0-.1.1-.1h1.1c.1 0 .1 0 .1.1v.9l.2-.1v-.6c.1 0 .2-.2.2-.3 0-.1-.1-.2-1.3-.2-1.7 0-2.3-.8-2.5-1.6-.1-.2-.1-.3 0-.5h-5.8zM51.7 18.2s0 .1 0 0c-.1.1-.1.2-.1.3 0 .2 0 .4 1.3.4 2.6 0 2.6 1.5 2.6 1.8 0 .3-.1 1.4-1.6 1.4v-.6l-.2.1v1.2c0 .1 0 0-.1 0s-1-.3-1.1-.3c-.1 0-.1 0-.1-.1v-.8h-.2v.5l-.1.1c-.1.1 0 .3.1.4.1.1.8.2 1.4.5.6.3 1.1.8 1.1 1.5 0 .6-.3 1.1-1 1.4v-.6l-.2.1c0 1-.1 2.5-.1 2.6 0 .1-.1.1-.2.1l.4.8c1.7-1.4 5.9-5.4 7.2-10.6v-.2h-7.4v.2c0 .2 0 .2-.1.2H52c-.1 0-.1 0-.1-.2 0 0 0-.1-.1-.2h-.1zM22 11.7c1.5.4 2.4.9 3.3 2.1h-3.8c0-.2.3-.2.4-.5.2-.5.2-.8.1-1.1-.2-.5 0-.5 0-.5z"/><path d="M58.9 32.7c0-.5.4-.9.9-.9s.9.4.9.9-.4.9-.9.9-.9-.4-.9-.9zm.9 1.1c.6 0 1.1-.4 1.1-1.1 0-.6-.5-1.1-1.1-1.1-.6 0-1.1.4-1.1 1.1 0 .6.5 1.1 1.1 1.1zm-.2-1h.2l.3.5h.2l-.3-.5c.2 0 .3-.1.3-.3 0-.2-.1-.3-.4-.3h-.5v1.2h.2v-.6zm0-.2v-.4h.3c.1 0 .3 0 .3.2s-.1.2-.3.2h-.3zM28.8 32.9c0-.5.4-.9.9-.9s.9.4.9.9-.4.9-.9.9-.9-.4-.9-.9zm.9 1.1c.6 0 1.1-.4 1.1-1.1 0-.6-.5-1.1-1.1-1.1-.6 0-1.1.4-1.1 1.1 0 .6.5 1.1 1.1 1.1zm-.2-1h.2l.3.5h.2l-.3-.5c.2 0 .3-.1.3-.3 0-.2-.1-.3-.4-.3h-.5v1.2h.2V33zm0-.1v-.4h.3c.1 0 .3 0 .3.2s-.1.2-.3.2h-.3z"/></g></svg><svg viewBox="-1 -1 87.9 49.9" enable-background="new 0 0 85.9 47.9" width="87.9" height="49.9" id="cnn-blue" y="234"><g fill="#0391D8"><path d="M30.6 11.4h-5.4c-8.1 0-14.6 6.5-14.6 14.6s6.5 14.6 14.6 14.6h10.2c2.6 0 4.7-2.1 4.7-4.6v-8.9l7.1 11.2c1 1.4 2.6 2.4 4.5 2.4 3 0 5.4-2.4 5.4-5.4v-8.2l7.1 11.2c1 1.4 2.6 2.4 4.5 2.4 3 0 5.4-2.4 5.4-5.4V11.4h-3.6v23.9c0 .9-.8 1.7-1.7 1.7-.6 0-1.1-.3-1.4-.8L54.5 16.4c-.1-.2-.3-.3-.5-.3-.4 0-.6.3-.6.6v18.5c0 .9-.8 1.7-1.7 1.7-.6 0-1.1-.3-1.4-.8L37.6 16.4c-.1-.2-.3-.3-.5-.3-.4 0-.6.3-.6.6v19.2c0 .6-.5 1-1 1H25.3c-6 0-11-4.9-11-11 0-6 4.9-11 11-11h5.4v-3.5zM31.2 32.3c.3 0 .5-.2.5-.5v-15c0-3 2.4-5.4 5.4-5.4 1.9 0 3.5 1 4.5 2.4l7.1 11.1v-8.1c0-3 2.4-5.4 5.4-5.4 1.9 0 3.5 1 4.5 2.4l7.1 11.1V11.4h3.7v23.9c0 .4-.3.6-.6.6-.2 0-.4-.1-.5-.3L55.4 15.8c-.3-.5-.8-.8-1.4-.8-.9 0-1.7.8-1.7 1.7v18.5c0 .4-.3.6-.6.6-.2 0-.4-.1-.5-.3L38.5 15.8c-.3-.5-.8-.8-1.4-.8-.9 0-1.7.8-1.7 1.7v18.7c0 .3-.2.5-.5.5h-9.7c-5.5 0-9.9-4.5-9.9-9.9s4.4-9.9 9.9-9.9h5.4v3.7h-5.4c-3.5 0-6.2 2.8-6.2 6.2s2.8 6.3 6.2 6.3h6z"/></g></svg><svg viewBox="-1 -1 67.5 32.8" enable-background="new 0 0 65.5 30.8" width="67.5" height="32.8" id="cnn-dark" y="284"><g fill="#434952"><path d="M21.1 1.5h-5.4C7.6 1.5 1 8.1 1 16.1c0 8.1 6.5 14.6 14.6 14.6h10.2c2.6 0 4.7-2.1 4.7-4.6v-8.9l7.1 11.2c1 1.4 2.6 2.4 4.5 2.4 3 0 5.4-2.4 5.4-5.4v-8.2l7.1 11.2c1 1.4 2.6 2.4 4.5 2.4 3 0 5.4-2.4 5.4-5.4V1.5h-3.6v23.9c0 .9-.8 1.7-1.7 1.7-.6 0-1.1-.3-1.4-.8L44.9 6.5c-.1-.2-.3-.3-.5-.3-.4 0-.6.3-.6.6v18.5c0 .9-.8 1.7-1.7 1.7-.6 0-1.1-.3-1.4-.8L28 6.5c-.1-.2-.3-.3-.5-.3-.4 0-.6.3-.6.6V26c0 .6-.5 1-1 1H15.7c-6 0-11-4.9-11-11 0-6 4.9-11 11-11h5.4V1.5zM21.6 22.4c.3 0 .5-.2.5-.5v-15c0-3 2.4-5.4 5.4-5.4 1.9 0 3.5 1 4.5 2.4L39 15V6.9c0-3 2.4-5.4 5.4-5.4 1.9 0 3.5 1 4.5 2.4l7 11.1V1.5h3.7v23.9c0 .4-.3.6-.6.6-.2 0-.4-.1-.5-.3L45.8 5.9c-.3-.5-.8-.8-1.4-.8-.9 0-1.7.8-1.7 1.7v18.5c0 .4-.3.6-.6.6-.2 0-.4-.1-.5-.3L28.9 5.9c-.3-.5-.8-.8-1.4-.8-.9 0-1.7.8-1.7 1.7v18.7c0 .3-.2.5-.5.5h-9.7c-5.5 0-9.9-4.5-9.9-9.9s4.4-9.9 9.9-9.9H21v3.7h-5.4c-3.5 0-6.2 2.8-6.2 6.2s2.8 6.3 6.2 6.3h6z"/></g></svg><svg viewBox="-1 -1 129.2 38" enable-background="new 0 0 127.2 36" width="129.2" height="38" id="forbes-blue" y="317"><g fill-rule="evenodd" clip-rule="evenodd" fill="#0391D8"><path d="M75.5 13.8c-1.9 0-3.4.4-5 1.2 0-4.4 0-8.4.1-9.8l-9.2 1.7v.8l1 .1c1.2.3 1.7 1 1.9 2.6.3 3.3.1 20.9 0 23.8 2.5.6 5.1 1 7.7 1 7.3 0 11.7-4.5 11.7-11.7.1-5.6-3.5-9.7-8.2-9.7zm-3.2 19.9c-.6 0-1.2 0-1.7-.1-.1-1.9-.3-10.1-.1-17.2.8-.3 1.4-.4 2.1-.4 3 0 4.7 3.6 4.7 8 0 5.5-2.1 9.7-5 9.7zM26.7 5.8H2.5V7l1.4.1c1.8.3 2.5 1.4 2.8 4 .4 5 .3 13.9 0 18.2-.3 2.6-1 3.9-2.8 4l-1.4.3v1.1H18v-1.1l-1.7-.3c-1.8-.1-2.5-1.4-2.8-4-.1-1.8-.3-4.7-.3-8.3l3.3.1c2.1 0 3 1.7 3.4 4h1.2v-9.8h-1.2c-.4 2.3-1.4 4-3.4 4l-3.3.1c0-4.7.1-9.1.3-11.7h4.8c3.7 0 5.6 2.3 7 6.5l1.4-.4v-8zM34.6 13.5c6.9 0 10.3 4.7 10.3 10.9 0 5.9-3.9 10.9-10.7 10.9-6.9 0-10.3-4.7-10.3-10.9-.1-5.9 3.8-10.9 10.7-10.9zm-.4 1.4c-3 0-3.9 4.1-3.9 9.5 0 5.2 1.4 9.5 4.1 9.5 3.2 0 4-4.1 4-9.5 0-5.3-1.4-9.5-4.2-9.5zM85.5 24.5c0-5.6 3.6-11 10.6-11 5.8 0 8.5 4.3 8.5 9.9H91.9c-.1 5.1 2.3 8.8 7.3 8.8 2.2 0 3.3-.6 4.7-1.5l.6.7c-1.4 1.9-4.4 3.9-8.3 3.9-6.2 0-10.7-4.4-10.7-10.8zm6.4-2.6l6.5-.1c0-2.8-.4-6.9-2.8-6.9-2.3 0-3.6 3.8-3.7 7zM121.1 14.6c-1.7-.7-3.9-1.1-6.3-1.1-5.1 0-8.3 3-8.3 6.6 0 3.6 2.3 5.1 5.6 6.2 3.4 1.2 4.4 2.2 4.4 3.9 0 1.7-1.2 3.2-3.4 3.2-2.6 0-4.5-1.5-6.1-5.6l-1 .3.1 6.1c1.7.7 4.7 1.2 7.3 1.2 5.4 0 8.8-2.8 8.8-7 0-2.9-1.5-4.5-5.1-5.9-3.9-1.5-5.2-2.5-5.2-4.3 0-1.8 1.2-3 2.9-3 2.5 0 4.1 1.5 5.4 5.2l1-.3-.1-5.5zM62.8 14c-2.3-1.4-6.5-.7-8.7 4.3l.1-4.8-9.2 1.8v.8l1 .1c1.2.1 1.8.8 1.9 2.6.3 3.3.1 9.1 0 12-.1 1.7-.7 2.5-1.9 2.6l-1 .1v1.1h12.8v-1.1l-1.7-.1c-1.4-.1-1.8-1-1.9-2.6-.2-2.6-.2-7.8-.1-11.1.7-1 3.7-1.8 6.5 0l2.2-5.7z"/></g></svg><svg viewBox="-1 -1 124.8 35" enable-background="new 0 0 122.8 33" width="124.8" height="35" id="forbes-dark" y="355"><g fill-rule="evenodd" clip-rule="evenodd" fill="#434952"><path d="M74.8 10c-1.9 0-3.4.4-5 1.2 0-4.4 0-8.4.1-9.8l-9.2 1.7v.8l1 .1c1.2.3 1.7 1 1.9 2.6.3 3.3.1 20.9 0 23.8 2.5.6 5.1 1 7.7 1 7.3 0 11.7-4.5 11.7-11.7.1-5.6-3.5-9.7-8.2-9.7zm-3.1 20c-.6 0-1.2 0-1.7-.1-.1-1.9-.3-10.1-.1-17.2.8-.3 1.4-.4 2.1-.4 3 0 4.7 3.6 4.7 8-.1 5.4-2.1 9.7-5 9.7zM26.1 2H1.8v1.2l1.4.1c1.8.3 2.5 1.4 2.8 4 .4 5 .3 13.9 0 18.2-.3 2.6-1 3.9-2.8 4l-1.4.3v1.1h15.6v-1.1l-1.7-.3c-1.8-.1-2.5-1.4-2.8-4-.1-1.8-.3-4.7-.3-8.3l3.3.1c2.1 0 3 1.7 3.4 4h1.2v-9.8h-1.2c-.4 2.3-1.4 4-3.4 4l-3.3.1c0-4.7.1-9.1.3-11.7h4.8c3.7 0 5.6 2.3 7 6.5l1.4-.4V2zM33.9 9.7c6.9 0 10.3 4.7 10.3 10.9 0 5.9-3.9 10.9-10.7 10.9-6.9 0-10.3-4.7-10.3-10.9 0-5.9 3.8-10.9 10.7-10.9zm-.4 1.4c-3 0-3.9 4.1-3.9 9.5 0 5.2 1.4 9.5 4.1 9.5 3.2 0 4-4.1 4-9.5.1-5.2-1.3-9.5-4.2-9.5zM84.9 20.8c0-5.6 3.6-11 10.6-11 5.8 0 8.5 4.3 8.5 9.9H91.2c-.1 5.1 2.3 8.8 7.3 8.8 2.2 0 3.3-.6 4.7-1.5l.6.7c-1.4 1.9-4.4 3.9-8.3 3.9-6.2-.1-10.6-4.5-10.6-10.8zm6.3-2.7l6.5-.1c0-2.8-.4-6.9-2.8-6.9-2.3 0-3.5 3.9-3.7 7zM120.4 10.8c-1.7-.7-3.9-1.1-6.3-1.1-5.1 0-8.3 3-8.3 6.6 0 3.6 2.3 5.1 5.6 6.2 3.4 1.2 4.4 2.2 4.4 3.9 0 1.7-1.2 3.2-3.4 3.2-2.6 0-4.5-1.5-6.1-5.6l-1 .3.1 6.1c1.7.7 4.7 1.2 7.3 1.2 5.4 0 8.8-2.8 8.8-7 0-2.9-1.5-4.5-5.1-5.9-3.9-1.5-5.2-2.5-5.2-4.3 0-1.8 1.2-3 2.9-3 2.5 0 4.1 1.5 5.4 5.2l1-.3-.1-5.5zM62.2 10.3c-2.3-1.4-6.5-.7-8.7 4.3l.1-4.8-9.2 1.8v.8l1 .1c1.2.1 1.8.8 1.9 2.6.3 3.3.1 9.1 0 12-.1 1.7-.7 2.5-1.9 2.6l-1 .1v1.1h12.8v-1.1l-1.7-.1c-1.4-.1-1.8-1-1.9-2.6-.3-2.6-.3-7.9-.1-11.2.7-1 3.7-1.8 6.5 0l2.2-5.6z"/></g></svg><svg viewBox="-1 -1 33.5 27.5" enable-background="new 0 0 31.5 25.5" width="33.5" height="27.5" id="health-accident" y="390"><g fill="#fff"><path d="M30.1 3.7H18.4v-.6C18.4 1.4 17 0 15.3 0s-3.1 1.4-3.1 3.1v3H7.4c-.2 0-.4.1-.5.3l-3 5.5-2.4 2.4c-.1.1-.2.3-.2.4v6.8c0 .3.3.6.6.6h2.5c.3 1.4 1.5 2.5 3 2.5s2.7-1.1 3-2.5h11.2c.3 1.4 1.5 2.5 3 2.5s2.7-1.1 3-2.5h2.5c.3 0 .6-.3.6-.6V4.3c0-.3-.3-.6-.6-.6zm-.6 14.7h-16V4.9h16v13.5zm-8 2.5H10.4c-.1-.5-.3-.9-.6-1.2h12.3c-.3.3-.5.7-.6 1.2zm-8-17.8c0-1 .8-1.8 1.8-1.8s1.8.8 1.8 1.8v.6h-3.7v-.6zm-8.8 9.6l.1-.1 2.9-5.2h4.6v11.1H2.4V15l2.3-2.3zm-2.3 7h2.5c-.3.4-.5.8-.6 1.2H2.4v-1.2zm5 3.6c-1 0-1.8-.8-1.8-1.8s.8-1.8 1.8-1.8 1.8.8 1.8 1.8-.8 1.8-1.8 1.8zm17.2 0c-1 0-1.8-.8-1.8-1.8s.8-1.8 1.8-1.8 1.8.8 1.8 1.8-.8 1.8-1.8 1.8zm3-2.4c-.1-.5-.3-.9-.6-1.2h2.5v1.2h-1.9zM6.5 13.5c.1 0 .2.1.3.1.2 0 .4-.1.6-.3L9 9.8h1.5c.3 0 .6-.3.6-.6s-.3-.6-.6-.6H8.6c-.3 0-.5.1-.6.3l-1.8 3.7c-.2.3 0 .7.3.9zM17.2 10.4v2.5c0 .3.3.6.6.6h1.8v1.8c0 .3.3.6.6.6h2.5c.3 0 .6-.3.6-.6v-1.8h1.8c.3 0 .6-.3.6-.6v-2.5c0-.3-.3-.6-.6-.6h-1.8V8c0-.3-.3-.6-.6-.6h-2.5c-.3 0-.6.3-.6.6v1.8h-1.8c-.3 0-.6.3-.6.6zm1.2.7h1.8c.3 0 .6-.3.6-.6V8.6H22v1.8c0 .3.3.6.6.6h1.8v1.2h-1.8c-.3 0-.6.3-.6.6v1.8h-1.2v-1.8c0-.3-.3-.6-.6-.6h-1.8v-1.1z"/></g></svg><svg viewBox="-1 -1 29.2 31.7" enable-background="new 0 0 27.2 29.7" width="29.2" height="31.7" id="health-dental" y="418"><g fill="#fff"><path d="M9.1 29.7c-.7 0-1.6-.6-2.8-1.8C4 25.5 4 23.8 4 22.1v-1c-.1-1.9-1-3.8-2-6.1l-.2-.5C.8 12.2-.8 8.8.6 4.9 1.9 1.2 5.4.6 8.3 1.6c1.3.5 2.1 1.2 2.8 1.9.7.7 1.3 1.3 2.2 1.4 2.3.4 4.4-.8 4.4-.9.2-.1.5-.1.7.2.1.2.1.5-.2.7-.1.1-2.4 1.4-5.1 1-1.2-.2-2-1-2.7-1.7C9.7 3.7 9 3 7.9 2.6 5.7 1.8 2.6 2 1.4 5.3c-1.2 3.5.3 6.7 1.2 8.8l.2.5c1.1 2.3 2 4.3 2.1 6.4v1c0 1.7 0 3 2 5.1 1.7 1.7 2.2 1.5 2.2 1.5.1 0 .3-.4.3-1.2 0-.4 0-.8-.1-1.3-.1-1.5-.1-3 .1-4.6.1-1.2.9-2.2 2-2.8 1.3-.7 2.9-.6 4.3.2 2.5 1.3 1.9 4 1.5 6.1-.1.6-.3 1.2-.3 1.7-.1 1.2 0 1.6 0 1.7.1 0 .4-.1 1-.6 1.4-1 2.9-4.1 3.7-6.4.3-1 .3-1.6.3-2.3 0-.9 0-1.8.6-3.4.3-.8.7-1.6 1-2.3.9-1.9 1.8-3.9 1.9-6.5.1-2.6-1.7-3.9-5.8-4.4-1.8-.2-3.2.2-4 .5-.9.4-1.4.8-1.4.8-.2.2-.5.2-.7 0-.2-.2-.2-.5 0-.7.1-.1 2.2-2 6.1-1.6 1.7.2 6.8.7 6.6 5.3-.1 2.8-1.1 4.8-2 6.8-.4.8-.7 1.5-1 2.3-.6 1.5-.6 2.2-.5 3.1 0 .7 0 1.5-.3 2.6-.8 2.4-2.4 5.6-4 6.9-.7.5-1.4 1-2.1.7-.6-.3-.6-1.3-.5-2.6l.3-1.8c.5-2.5.7-4.2-1-5.1-1.2-.6-2.4-.7-3.4-.2-.8.4-1.4 1.2-1.5 2.1-.2 1.6-.1 3 0 4.5 0 .4 0 .9.1 1.3 0 1.2-.2 1.9-.8 2.1-.1.1-.3.2-.4.2zM3.5 6.3c-.6 2-.1 4.2 1.5 5.6.5.4 1.1-.3.7-.7-1.3-1.2-1.8-3-1.2-4.6.1-.7-.8-.9-1-.3z"/></g></svg><svg viewBox="-1 -1 28.4 27" enable-background="new 0 0 26.4 25" width="28.4" height="27" id="health-major-medical" y="450"><g fill="#fff"><path d="M25.9 14.6H18c-.2 0-.4.1-.5.3l-1 1.9-1.7-6.1c-.1-.2-.2-.4-.5-.4-.2 0-.4.1-.5.3l-2.2 4.5-1.6-2.4c-.1-.1-.3-.2-.4-.2-.2 0-.3.1-.4.2l-1.4 1.9H1.7c-.3 0-.5.2-.5.5s.2.5.5.5H8c.2 0 .3-.1.4-.2l1.1-1.5 1.7 2.5c.1.2.3.2.5.2s.4-.1.4-.3l2-4.1 1.7 6.1c.1.2.2.4.5.4.2 0 .4-.1.5-.3l1.4-2.9h7.6c.3 0 .5-.2.5-.5.1-.2-.1-.4-.4-.4zM3.7 13.5h.2c.3-.1.4-.4.3-.7-.6-1.5-.9-3-.9-4.4 0-4.2 2.3-6.2 4.6-6.4 2.2-.2 4.8 1.4 5.4 5.2 0 .3.3.4.5.4.3 0 .5-.2.5-.4.6-3.9 3.2-5.5 5.5-5.3 2.2.2 4.5 2 4.5 5.9 0 1.5-.4 3.2-1.3 5-.1.3 0 .6.3.7.3.1.6 0 .7-.3.9-1.9 1.4-3.7 1.4-5.4 0-3.1-1.7-6.6-5.5-6.9C17.6.7 15 2 13.8 5.1 12.6 2 10 .8 7.8.9 5 1.2 2.2 3.6 2.2 8.4c0 1.5.3 3.1 1 4.8.1.2.3.3.5.3zM20.5 16.9c-2.6 3.4-5.8 6.1-6.7 6.9-1.1-.7-4.5-3.4-7.2-6.9-.2-.2-.5-.3-.7-.1-.2.2-.3.5-.1.7 3.3 4.4 7.6 7.3 7.8 7.4.1.1.2.1.3.1.1 0 .2 0 .3-.1.2-.1 4-3.2 7.2-7.4.2-.2.1-.6-.1-.7-.3-.2-.6-.2-.8.1z"/></g></svg><svg viewBox="-1 -1 24.5 36.8" enable-background="new 0 0 22.5 34.8" width="24.5" height="36.8" id="health-short-term" y="477"><g fill="#fff"><path d="M21.7 17.3c0-3.7-1.9-6.9-4.8-8.8v-7c0-.4-.3-.7-.7-.7H6.5c-.4 0-.7.3-.7.7v7.1C2.9 10.4 1 13.7 1 17.4s1.9 6.9 4.8 8.8v7.1c0 .4.3.7.7.7h9.7c.4 0 .7-.3.7-.7v-7.1c2.8-1.9 4.8-5.2 4.8-8.9zM7.1 2.1h8.3v5.7c-1.2-.5-2.6-.8-4.1-.8-1.5 0-2.9.3-4.2.8V2.1zm8.3 30.4H7.1v-5.7c1.3.6 2.7.9 4.1.9 1.5 0 2.9-.3 4.1-.9v5.7zm-4.1-6.2c-5 0-9-4-9-9s4-9 9-9 9 4 9 9-4.1 9-9 9zM11.3 17v-3.8c0-.4-.3-.7-.7-.7-.4 0-.7.3-.7.7v4.1c0 .2.1.4.2.5L15 22c.1.1.3.2.4.2.2 0 .4-.1.5-.2.2-.3.2-.7-.1-1l-4.5-4z"/></g></svg><svg viewBox="-1 -1 31 33.4" enable-background="new 0 0 29 31.4" width="31" height="33.4" id="health-vision" y="514"><g fill="#fff"><path d="M19.8 22.3c-1.9 0-3.5 1.2-4.1 2.9-.3-.3-.8-.5-1.2-.5-.5 0-.9.2-1.2.5-.6-1.7-2.2-2.9-4.1-2.9-2.4 0-4.4 2-4.4 4.4 0 2.4 2 4.4 4.4 4.4s4.4-2 4.4-4.4c0-.5.4-1 1-1s1 .4 1 1c0 2.4 2 4.4 4.4 4.4s4.4-2 4.4-4.4c-.3-2.5-2.2-4.4-4.6-4.4zM9 30.1c-1.9 0-3.4-1.5-3.4-3.4s1.5-3.4 3.4-3.4 3.4 1.5 3.4 3.4c.1 1.8-1.5 3.4-3.4 3.4zm10.8 0c-1.9 0-3.4-1.5-3.4-3.4s1.5-3.4 3.4-3.4 3.4 1.5 3.4 3.4c0 1.8-1.6 3.4-3.4 3.4zM3.9 23.8c-.2-.1-.5 0-.6.2-.4.8-.6 1.7-.6 2.6 0 .3.2.5.5.5s.5-.2.5-.5c0-.8.2-1.5.5-2.2.1-.2 0-.5-.3-.6zM25.5 24c-.1-.2-.4-.4-.6-.2-.2.1-.4.4-.2.6.3.7.5 1.5.5 2.2 0 .3.2.5.5.5s.5-.2.5-.5c-.1-.9-.3-1.7-.7-2.6zM27.3 12.6c-.3 0-.6.3-.6.6 0 2.1-1.4 3.9-3.4 4.4V9.8c0-5-4-9-9-9s-9 4-9 9v7.7C3.5 17 2 15.3 2 13.2c0-.3-.3-.6-.6-.6s-.6.3-.6.6c0 3.1 2.5 5.6 5.6 5.6h15.8c3.1 0 5.6-2.5 5.6-5.6.1-.3-.1-.6-.5-.6zM14.4 1.9c4.3 0 7.9 3.5 7.9 7.9v4.5H6.5V9.8c0-4.3 3.6-7.9 7.9-7.9zM6.5 17.7v-2.3h15.8v2.3H6.5z"/></g></svg><svg viewBox="-1 -1 125.3 39.3" enable-background="new 0 0 123.3 37.3" width="125.3" height="39.3" id="humana" y="548"><path fill="#87C546" d="M121.5 29.5c0 1.1-.8 1.9-1.9 1.9-1 0-1.9-.8-1.9-1.9 0-1.1.8-1.9 1.9-1.9 1.1 0 1.9.9 1.9 1.9m-3.4 0c0 .9.6 1.6 1.5 1.6.8 0 1.5-.7 1.5-1.6 0-.9-.6-1.6-1.5-1.6-.8 0-1.5.7-1.5 1.6m1.5-1c.5 0 .8.1.8.6 0 .3-.1.5-.4.6l.1.2c.1.2.2.4.4.6 0 0 0 .1-.1.1H120.1c-.1-.1-.2-.3-.3-.4l-.2-.3h-.3v.7h-.4v-2h.7zm-.3.9h.3c.3 0 .4-.1.4-.3 0-.2-.2-.3-.4-.3h-.3v.6zm-77.4-14c-.3 0-.6.2-.6.6v12c-.9.2-1.8.3-2.8.3-2.1 0-2.8-.8-2.8-3V16c0-.4-.3-.6-.6-.6H32v9.9c0 4.6 2.4 6.1 6.4 6.1 3.2 0 6.3-.9 6.6-1v-15h-3.1zm48.2 15.9c.3 0 .6-.2.6-.6V18.6c.9-.2 1.8-.3 2.8-.3 2.1 0 2.8.8 2.8 3v9.4c0 .4.3.6.6.6h3.2v-10c0-4.6-2.4-6.1-6.4-6.1-3.2 0-6.3.9-6.6 1v15.1h3zM77.5 15.2c-4.1 0-6.7 2.2-6.7 6.9v2.4c0 5.2 2.8 6.9 5.8 6.9 1.5 0 3-1 3.5-1.7v1c0 .3.2.6.6.6h3.1V16.1s-3.1-.9-6.3-.9m2.6 12.2c-.7.6-1.2.9-2.7 1-2.1 0-3-1.3-3-4v-2.2c0-3.1 1.1-4 3-4 1.5 0 2.4.1 2.7.2v9zm29.1-12.2c-4.1 0-6.7 2.2-6.7 6.9v2.4c0 5.2 2.8 6.9 5.8 6.9 1.5 0 3-1 3.5-1.7v1c0 .3.2.6.6.6h3.1V16.1s-3.1-.9-6.3-.9m2.6 12.2c-.7.6-1.2.9-2.7 1-2.1 0-3-1.3-3-4v-2.2c0-3.1 1.1-4 3-4 1.5 0 2.4.1 2.7.2v9zm-98.4 3.9h3.3c.2 0 .6-.2.6-.6V22h6.1c1 0 1.8.8 1.8 1.7v7.1c0 .3.3.6.6.6H29V10.5h-3.3c-.3 0-.6.2-.6.5v7.8h-6.4c-.8 0-1.5-.7-1.5-1.5V11c0-.2-.2-.5-.6-.5h-3.3v20.8zm49.2-16.1c-1.8 0-3.4.7-4.2 1.2-1.1-.9-2.7-1.2-4.6-1.2-2.9 0-5.3.9-5.7 1v15.1h3.1c.3 0 .6-.3.6-.6V18.6c.7-.2 1.3-.3 1.8-.3 2.2 0 2.7.9 2.7 3v9.4c0 .3.2.6.6.6h2.6c.4 0 .6-.3.6-.6V19c.6-.5 1.4-.7 2.2-.7 1.7 0 2.4.8 2.4 2.8v9.6c0 .2.2.6.6.6h3.1V20.6c-.1-4-2.7-5.4-5.8-5.4"/></svg><svg viewBox="-1 -1 69.3 55.6" enable-background="new 0 0 67.3 53.6" width="69.3" height="55.6" id="icon-build" y="588"><g><path fill="#0391D8" d="M11.4 29.1c.8.3.7.8-.3 1.4-1.7 1.2-2.7.2-3.7-.8l-2.8-2.8c-.6-.6-3-2-2.1-3.1.6-.8 1.7-1.5 2.5-2.1H3.4c.4.3.9.7 1.4 1 1 .8 2.6-.6 1.6-1.6-.4-.3-.9-.7-1.4-1-.5-.4-1-.4-1.6 0-1.8 1.4-3.8 2.7-3.3 5.2.2.9 1.1 1.6 1.9 2.1 1.5 1.1 2.7 2.5 3.9 3.8 1.9 2 3.9 2.7 6.3 1.2 2-1.2 2.7-3.2.7-4.8-1.1-.9-2.6.7-1.5 1.5zM6.8 21.6c2.7-2.7 5.4-5.3 8.1-8 .9-.9 2-2 2.8-3 1-1.2 2.2-2.5 3.4-3.6-.9.8 4.8-4.7 4.3-2.1-.3 1.6-.9 2.9-.6 4.6.6 3.3 1.7 3.6-1 6.2-4.1 3.9-8.9 6.8-12.5 11.3-.8 1 .6 2.6 1.6 1.6 4.5-5.6 11-8.9 15.5-14.6.3-.4.4-.9.2-1.4-2.1-3.1-.7-5.3-.7-8.5 0-1.4-.4-1.8-1.2-2.6-.3-.3-.9-.4-1.4-.2-7.7 4.6-13.8 12.4-19.9 18.8-1.1 1 .5 2.6 1.4 1.5zM20.8 21c2.1 1.7 3.4 4.1 5.2 5.9 2.1 2.1 4.4 4.1 6.4 6.1 1 .9 2.6-.5 1.6-1.6-2-1.9-3.9-3.7-5.9-5.6-2.1-2-3.5-4.7-5.8-6.4-1.1-.8-2.7.8-1.5 1.6zM17 24.3c2.2 2.4 4.4 4.8 6.7 7.2 2 2.1 3.7 4.2 6.2 5.6 1.2.7 2.3-1.1 1.1-1.9-2.3-1.4-4.1-3.3-5.8-5.3-2.2-2.4-4.4-4.8-6.7-7.2-1-1-2.4.6-1.5 1.6zM29 39.5c2.8-1.6 4.4-4.5 6.8-6.4 1-.9-.5-2.4-1.6-1.6-2.3 1.9-3.6 4.7-6.3 6.1-1.3.8-.2 2.6 1.1 1.9zM27.4 39.2c4.1 5.6 10 10.1 15.5 14.2.4.3.9.1 1.4-.2 2.4-1.9 4.7-3.7 6.5-6 .9-1-.6-2.6-1.6-1.6-1.1 1.4-2.3 2.5-3.6 3.6-.6.6-1.4 1.1-2.1 1.7-.5.4-3.3-2.4-4.1-2.9-3.6-2.9-7.5-6.2-10.2-10-.7-1.1-2.6.1-1.8 1.2zM34.4 33.1c5.1 4.5 10.2 9.1 14.9 14.1.9 1 2.5-.5 1.6-1.6-4.6-5-9.8-9.7-14.9-14.1-1.1-.9-2.7.6-1.6 1.6zM26.6 33.7c-2.9 3-12.7 11.7-8.8 16.7 4.7 6 12.7-2.4 15.4-6.2.8-1.1-1-2.2-1.9-1.1-1.1 1.7-2.6 3-4.1 4.4-1 1-2.2 1.8-3.5 2.4-3.1 1.2-5-1.6-3.8-4.4 1.6-3.7 5.4-7.4 8.3-10.2.9-1.1-.7-2.6-1.6-1.6zM32.6 30.2c2.8-2.7 5.8-5.2 8.8-7.7.3-.2.4-.7.3-1-1.1-4.1-1.2-8-.5-12.2C42.7 1 52.6 1.5 58.9 3c-.2-.6-.3-1.2-.5-1.9-1.7 1.8-6.8 5.3-7.2 7.6-.5 2.4-.3 5-.4 7.4 0 .6.5 1 1.1 1.1 2.1.2 4.8.4 6.9-.1 2.5-.7 6-5.3 8.1-6.9-.5-.3-1.1-.6-1.7-.9 0 2.4 0 4.8-.1 7.3-.1 3.5-.3 6.4-3.6 8.8-3.1 2.2-10.3 3-13.6 1.4-.4-.2-.9-.2-1.4.2-2.6 2.7-5.2 5.5-7.8 8.1-.9 1 .5 2.6 1.6 1.6 1.7-1.7 3.3-3.4 5-5.2 1.9-2 2.2-2.2 4.8-1.7 3.8.7 9.3-.8 12.6-2.5 5.8-3 4.6-12.3 4.5-17.9 0-.7-.9-1.5-1.7-.9-2 1.5-3.7 3-5.5 4.7-2.5 2.3-5 2.4-8.2 2.1l1 1 .3-5.1c.2-3 4.8-6.3 6.8-8.3.5-.6.3-1.7-.5-1.9-7.6-1.9-16.9-2.1-20 6.2-1.4 3.8-1 8.4-.4 12.4.5 3.3-5.6 6.7-8 8.9-1 1.1.6 2.7 1.6 1.7z"/></g></svg><svg viewBox="-1 -1 110.3 69.1" enable-background="new 0 0 108.3 67.1" width="110.3" height="69.1" id="icon-usa" y="644"><path fill="#387C42" d="M95.5 27.6c-.1 1.6-.7 4.1.1 5.6.7 1.4 1 2.3-.2 3.6-.7.8-1.5 1.6-2.1 2.5-2.1 2.8-4.8 5.5-5.6 9.1-1.1 4.8 3.3 8 3.7 12.6.2 2.4-2.3.8-3.1-.2-.8-1.1-.5-2.8-.7-4.1-.2-1.5-1.2-2.5-2.4-3.2-1.5-.9-3.4-.7-5-.5-1.2 0-2.2-.6-3.4-.6-1.2-.1-2.4-.1-3.6.1-1.1.2-2.5.6-2.9 1.7-1.2 3.3-4.5 1.2-7 1-1.4-.1-2.8 0-4 .9-.8.6-.2.9-1.4 1.2-.9.2-2.2.3-3 .8-1.1.6-1 2.1-1.7 3-1.1 1.5-.9 3.1-.5 4.9.3-.4.5-.7.8-1.1-1.9.1-4.2.1-4.4-2.6 0-.6-.2-1.2-.7-1.6-.9-.9-1.3-1.6-1.9-2.9-.3-.6-.7-1.4-1.3-1.8-1-.8-2.9-1.3-3.9-.2-.5.6-1 1.8-1.6 2.1.1 0-1.2-1.8-1.4-2.4-.1-.5-.3-.8-.5-1.3-.6-1-1.9-.9-2.2-2.3-.1-.6-.7-1-1.1-1.2-1.3-.8-3.8-.8-5.2-.3-1.1.4-3.1 0-4.3-.1-1.8-.1-3.1-.4-4.7-1.4-1.2-.8-2.4-1.5-3.7-2.3-.7-.5-4.9-1.6-4.9-2.3H10v.2l1.5-.6c-1.1-1.3-2.3-2.3-3.8-3.2-1.3-.8-2.2-1.1-1.9-2.9.1-.7-.2-1.3-.4-2-.7-2-1.6-3.7-2.1-5.8-.4-1.7-2-7.1-.6-8.5.8-.8.8-1.9.6-2.9-.3-2.4 1.4-4.7 2.3-6.8.6-1.4.9-3 1-4.5.1-.9 0-1.9-.1-2.8 0-.8 2.1.5 2.5.7.5.2 1.1.1 1.2-.5.2-.9.2-1.6.1-2.5-.3.4-.5.8-.8 1.1 4.5.4 8.8 1.7 13.3 2.4 4.9.8 9.8 1.2 14.8 1.5 4.9.3 9.8.2 14.6 0 1 0 2.8-.5 3.8-.2.9.3 1.8.5 2.8.8 2.3.6 4.6 1 7 1.4V7.6c-1.9.7-3.4 1.7-4.7 3.3-.3.4-.4 1.1.2 1.3.4.2 2.2.1 2.2.1.3.3.5.5 1 .4.7-.1.8-.2 1.5-.6.2-.1 4.6-2.4 4.3-1.2-.2.6.1 1.1.7 1.1 1.2 0 2.3-.1 3.5-.1-.1-.7-.4-.9-1-.6-.4 0-.8.1-1.1.3-1.5.7-2.3 1.8-2.4 3.5 0 .4.4.9.8.9.2 0 .5-.1.7-.1-.2-.4-.5-.9-.7-1.3-.9 2-1.6 4.2-1.3 6.4.2 1.3.9 3.9 2.7 3.6 1.3-.2 2-.9 2.1-2.2.2-1.8-1.7-3.2-.7-5.1.5-.9 1.8-3 3.1-2.4.9.4.6 2 .4 2.7-.2.8.8 1.4 1.4.8 1-.9.5 1.7.4 1.8-.2.8-.5 1.5-.8 2.3-.2.5-.1 1.1.5 1.2 2 .7 4.1.5 6-.5 1.2-.6 3.2-2.7 3.1-4.2-.1-1.1 0-1.3 1.3-1.4.7-.1 1.5-.4 1.9-.9.8-1.2.8-2.7-.7-3.1.2.4.3.8.5 1.2 1.1-1.7 2.6-2.8 4.5-3.5 1-.3 2.2-.4 3-1.1.9-.7 1.4-1.5 1.8-2.5.3-.8.8-3.7.3-4.4.5.5 1.3.4 1.8.2 1.5-.4 1.2 1.6 1.8 2.4.4.4.8.8 1.1 1.2 1 1-1.2 2.2-1.7 2.6-1.2.9-2 2.1-2.5 3.5-.1.3-.2.8.1 1l-.1-.1c-.1.3-.1.7 0 1 .2.8.4 1.3.9 1.9.4.4.4.4.1 0-.4 0-.7.3-1 .5-.9.5-1.5 1.3-2.5 1.7-1.3.6-2.3 1.9-1.9 3.4.4 1.5.4 2.5-.7 3.7-.2.5-.2.9-.2 1.3-.1 1.1 1.6 1.1 1.7 0 0-.2 1-1.4 1.2-2.2.1-.5.1-1.2 0-1.7-.4-2.2 1-2.7 2.4-3.5.7-.4 1.1-1 1.9-1.1.5-.1.9-.2 1.1-.7.6-1.7-1.7-2.1-1.1-4 .1-.3 0-.7-.2-.8-.1-.1-.2-.2-.3-.2 0 .3.1.7.1 1 .9-2.1 2.6-3.1 4.2-4.6.9-.8.8-2 .3-3-.3-.5-.8-1-1.2-1.4-.7-.7-.5-1.8-1-2.6-.7-1.1-1.8-1.1-2.8-.7-.7.3-1.3-1.1-2.2-.3-1.3 1.1-.7 3.4-.9 5-.4 2.8-3.3 2.8-5.4 3.7-1.7.7-3 2.2-4 3.7-.3.5 0 1.1.5 1.2.9.2-2.4.9-2.8 1-.5.1-1 .7-1.1 1.3-.2 1.5.1 2.4-1.1 3.6-1.4 1.5-3.7 1.6-5.5 1 .2.4.3.8.5 1.2.6-1.5 1.8-3.8 1.3-5.5-.5-1.6-2.4-1.7-3.5-.6.5.3.9.6 1.4.8.3-1.4.5-3.1-.6-4.3-1.4-1.5-3.2-.6-4.5.5-1.7 1.5-2.3 3.5-1.8 5.6.2.9.6 1.6.7 2.5.2 1.3-1.3-.8-1.4-1.3-.4-1.9.3-4 1.1-5.7.2-.5 0-1.4-.7-1.3-.2 0-.5.1-.7.1.3.3.6.6.9.8 0-2.5 2.7-2.1 4.1-2.3.3 0 .5-.3.6-.6.9-2.9-3.9-2-5.3-1.9.3.4.5.7.8 1.1.3-1.4-.4-2.2-1.7-2.7-2-.8-4.4 2.1-6.2 2.4.3.1.6.3 1 .4-.3-.4-.6-.8-1.2-1-.5-.1-1.2.4-1.7.2.1.4.1.9.2 1.3 1.1-1.4 2.3-2.3 4-2.9.7-.3.9-1.5 0-1.6-4-.6-8.1-2.4-12.1-2.1-5.2.3-10.4.4-15.6.1-5.4-.2-10.9-.8-16.3-1.6C18 3.3 13.9 2 9.5 1.6c-.6 0-.9.6-.8 1.1 0 .5 0 1-.1 1.6.4-.2.9-.4 1.3-.5-.9-.5-3.3-2.3-4.3-1.7C4.1 3 5 5 5.1 6.3c.1 3.2-1.6 5.7-2.7 8.5-.7 1.8-.3 4.4-1.4 5.9-1.1 1.5-.3 3.4 0 5.1.5 2.7.7 5.6 1.8 8.2.7 1.6 1.6 2.8 1.1 4.6-.2.5 0 1.2.3 1.6.8.9 1.7 1.2 2.7 1.8 1.4.7 2.5 1.8 3.4 3 .5.5 1.5.1 1.5-.6v-.2c-.1-1.1-1.7-1.1-1.7 0 0 1.8 1.3 2.7 3 2.9 3.6.4 6 3.7 9.4 4.6 2.2.5 5 .7 7.2.3 1.1-.2 4-.7 4.4 1 .1.8 1 1.3 1.6 1.6 1 .6 1.3 2.4 1.9 3.3.5.7 1.4 1.3 2.2 1.6.4.1.7-.1 1-.3 1.6-1.3 2.7-4.3 4.4-.2.3.8.5 2 1.3 2.5 1.2.7.6 2 1.2 3 1.4 2 3.4 2.2 5.6 2.1.6 0 .9-.5.8-1.1-.3-1.6-.1-2.7.7-4 .3-.4.6-.9.6-1.4.1-1.1 3.2-1.3 4-1.7.8-.4.5-1.3 1.8-1.5 1.4-.2 2.8 0 4.1.5 1.7.6 3.7.6 5.1-.1 1.8-.8 1.3-3.1 3.7-3.3 2.4-.2 4.6.7 7 .4 1.5-.1 2.9 0 4.1 1 1.1.9.7 2.7.9 3.9.2 1.5.9 3.1 2.4 3.9 2.6 1.5 4.6.8 4.6-2.3 0-4.9-4.8-8-3.6-12.9.5-2 2.1-4.4 3.7-5.6.5-.4.8-1.1 1.1-1.6.6-1 1.5-1.9 2.3-2.8.8-.8 1.7-2.1 1.5-3.3-.1-.8-.4-1.2-.8-1.9-.8-1.1-.2-3.9-.1-5.2.1-1.1-1.6-1.1-1.7 0z"/></svg><svg viewBox="-1 -1 35.5 32.2" enable-background="new 0 0 33.5 30.2" width="35.5" height="32.2" id="icon_contact" y="714"><g fill="#0391D8"><path d="M1.1 14.4c9.7-3.1 19.2-6.7 28.5-10.8.8-.4.1-1.6-.7-1.2C19.7 6.5 10.3 10 .7 13.1c-.8.2-.5 1.6.4 1.3zM28.8 3.1c-1.3 7.1-3.1 14.1-5.4 21-.3.9 1.1 1.2 1.4.4 2.3-6.9 4.1-13.9 5.4-21 .1-.9-1.3-1.2-1.4-.4zM.8 14.8c7.6 3.4 15.2 6.8 22.8 10.1.8.4 1.5-.9.7-1.2C16.7 20.4 9.1 17 1.5 13.6c-.8-.4-1.6.8-.7 1.2zM12.5 18.8c6.2-4.4 11-10.8 17.2-15.2.7-.5 0-1.7-.7-1.2-6.2 4.4-11 10.8-17.2 15.2-.8.5-.1 1.7.7 1.2zM7.1 22.1v6.3c0 .6 2.9 1 3.3.5 1.8-2.2 4.5-4.4 5.5-7 .3-.8-.5-1.2-.8-.4-.9 2.4-4 4.4-5.6 6.4.4.2-.3.3-.3.5v-6.3c-.1-1-2.1-1-2.1 0 0 0 0-1 0 0z"/></g></svg><svg viewBox="-1 -1 205.4 168.4" enable-background="new 0 0 203.4 166.4" width="205.4" height="168.4" id="icon_giman-build" y="747"><g><path fill="#E5E5E5" d="M172 158.5c-24.3-.3-48.2-.7-73.2-1.2 0 1.7.1 3.3.1 5 21 0 41.8-.5 62.6-1.6 3.2-.2 3.2-5 0-5h-4.7c-3.2 0-3 5 .2 5h4.8c0-1.7-.1-3.3-.1-5-21 1-41.7 1.5-62.5 1.5-3.2 0-3.1 4.9.1 5 24.3.5 48.6.9 72.9 1.2 3.3.2 3-4.8-.2-4.9zM81.9 159.9c-6.8 0-13.5-.1-20.3-.3 0-.7-.5-1.4-1.5-1.5-6.1-.3-12.2-.5-18.4-.7-.9 0-1.4.7-1.5 1.4h-.5c-1.9.1-1.9 2.9.1 3 14 .6 28 1 42 1 2 .1 2-2.9.1-2.9z"/><path fill="#115175" d="M28.6 37.6c-.1.2-.2.4-.2.6"/><path fill="#B1B5B6" d="M27.4 37.3c-.1.2-.2.4-.2.6-.2.6.3 1.4.9 1.5.7.2 1.3-.2 1.5-.9.1-.2.2-.4.2-.6.2-.6-.3-1.4-.9-1.5-.7-.2-1.3.3-1.5.9z"/><path fill="#115175" d="M34.6 38.6c-.1.2-.2.4-.2.6"/><path fill="#B1B5B6" d="M33.4 38.3c-.1.2-.2.4-.2.6-.2.6.3 1.4.9 1.5.7.2 1.3-.2 1.5-.9.1-.2.2-.4.2-.6.2-.6-.3-1.4-.9-1.5-.7-.2-1.3.3-1.5.9z"/><path fill="#778386" d="M193 117l-.2-.4c2.7.1 5.4-.5 8.1-.6-.1-3.2-1-6.5-.9-9.8l-.4-.6c-1.6-.1-3.2.1-4.8.1-.9 0-3.2.7-3.7-.4-.3-.6-.4-2.7-.5-3.5-.3-1.4-.9-2.5-1.3-3.8 1.3-1.5 3.6-3.3 5.3-3.9l.1-.3c-1.5-1.8-2.9-5.8-4.6-6.8-.9-.6-1.9.6-2.8 1-1.2.7-2.9 1.1-3.9 2.1l.1-.3c-2.1-1.4-4-4.5-6.3-5.6l.3-.9c-.1.1-.3.2-.4.4.4-.8.8-1.7 1.2-2.5.6-1.1 2.2-3 2.7-4.1-1.1-.8-2.4-.9-3.5-1.6-1.5-1-3.1-1.8-4.6-2.8-1.4 2.7-3.6 6.2-5.5 8.2l-.1.3c.1.3-1-.4-1.4-.6-.9-.3-1.8-.7-2.7-1.2-1.5-.8-2.8-.9-4.4-1.1-.3-2 .9-6.6.8-8.7-1.1-.3-7.1-.6-8.9-.9-.2.8-1 3.8-1 4.7-.1 1.9-.4 3.8-.5 5.7 0 0-2.9.3-4 .9-.7.4-1.9 1.5-2.5.9-.3-.3-.4-1.1-.6-1.5-.9-2-3.9-4.5-5.4-5.1l-.2-.1c-.5-.2-2.7 2-3.5 2.5-1.3 1-2.7 2.4-3.8 3.7.6 1.5 3.3 4.7 4.2 5.3 0 0-3.4 4.5-5.2 6.2l-.5-.1h-.1c-1.3-.5-4.6-2.2-5.9-2.8-.6-.3-1.4-1.1-2-1.1-1 0-1.6 2.1-2.3 3.5-.9 1.9-1.3 4.7-2.3 6.4 2.1.9 6.1.5 8.2 2-.7 2.1-1.2 6.3-1.1 8.2-2.1.7-4.1 1.1-6.4 1.3-.9.1-2.1.3-3 0 0 0 .3 8.2.6 12 1.7-.9 6.9-2.1 7.5-1.6.3-.1.9 3.3 1.2 4.1.4 1 1 2 1.5 2.8-1.8.5-3.5 2.4-5.1 3.8-.9.8-2.3 1.4-3.1 2.4.5 1.6 3.8 8.3 4.8 9.1.9.8 1.8-.8 2.7-1.5 1.3-1 2.6-2.1 3.9-3.1.4-.3 1.2-1.2 1.6-1.2.8 0 2 1.8 2.7 2.3 1.2 1.1 2.7 2.7 3.7 4.3-1.2.9-2.1 3.1-3.1 4.5s-1.9 3.1-3 4.3c.7 1.4 8.8 7.4 10.3 8.6.4-1.4 3.1-5.6 3.8-6.7.9-1.5 1.7-4.3 3-4.5 1.1-.2 2.4.5 3.4.7 1.6.4 3.2.7 4.8.7.1 3.4.3 7.3.6 10.4 0 0 7.5-.2 10.9-.8.1-1.7-.1-3.5-.1-5.2 0-1.2-.2-2.7-.1-3.8.1-1.3.2-1.2.8-1.4.9-.2 1.9.4 2.9.2 1.4-.3 2.7-1.3 4.1-1.9h.2v.1l.3.2c.9 1.4 1.9 2.6 2.7 4 .6 1 1 2.1 1.7 3 .6.9.4.8 1.2.4 2.7-1.1 6.4-3.9 8.4-7.2-1.2-2.6-3-4.8-4.4-7.1 1.8-.9 3.1-4.7 4.3-7l.2-.4c.5 1.6 2.3 2.7 3.4 3.4 1.5 1 3.1 1.7 4.6 2.3.4-1.6 1.5-3 2-4.6.6-1.9 2.7-6.4 2.7-6.4-2.5-2.2-5.3-3.3-7.9-5.1.4-2.1.5-4.3.5-6.4zm-21.7 6.5c-1.1 2-6.6 6.9-8.4 7.1-3.3.3-6.8.9-10-.5-10.1-4.5-12.8-8.9-12.8-8.9-.4-.9-.7-.9-1.1-2.4-.3-1.5-.7-6.6.4-9.7 3.2-9 10.2-12.7 12.8-13.2 3.1-.6 6.9-.5 9.9.5 4.7 1.5 10.8 5.7 12.7 11 2 5.7-1.2 11.9-3.5 16.1zM142.4 50.9l-.2-.4c2.7.1 5.4-.5 8.1-.6-.1-3.2-1-6.5-.9-9.8l-.4-.6c-1.6-.1-3.2.1-4.8.1-.9 0-3.2.7-3.7-.4-.3-.6-.4-2.7-.5-3.5-.3-1.4-.9-2.5-1.3-3.8 1.3-1.5 3.6-3.3 5.3-3.9l.1-.3c-1.5-1.8-2.9-5.8-4.6-6.8-.9-.6-1.9.6-2.8 1-1.2.7-2.9 1.1-3.9 2.1l.1-.3c-2.1-1.4-4-4.5-6.3-5.6l.3-.9c-.1.1-.3.2-.4.4.4-.8.8-1.7 1.2-2.5.6-1.1 2.2-3 2.7-4.1-1.1-.8-2.4-.9-3.5-1.6-1.5-1-3.1-1.8-4.6-2.8-1.4 2.7-3.6 6.2-5.5 8.2l-.1.3c.1.3-1-.4-1.4-.6-.9-.3-1.8-.7-2.7-1.2-1.5-.8-2.8-.9-4.4-1.1-.3-2 .9-6.6.8-8.7-1.1-.3-7.1-.6-8.9-.9-.2.8-1 3.8-1 4.7-.1 1.9-.4 3.8-.5 5.7 0 0-2.9.3-4 .9-.7.4-1.9 1.5-2.5.9-.3-.3-.4-1.1-.6-1.5-.9-2-3.9-4.5-5.4-5.1l-.2-.1c-.5-.2-2.7 2-3.5 2.5-1.3 1-2.7 2.4-3.8 3.7.6 1.5 3.3 4.7 4.2 5.3 0 0-3.4 4.5-5.2 6.2l-.5-.1H77c-1.3-.5-4.6-2.2-5.9-2.8-.6-.3-1.4-1.1-2-1.1-1 0-1.6 2.1-2.3 3.5-.9 1.9-1.3 4.7-2.3 6.4 2.1.9 6.1.5 8.2 2-.7 2.1-1.2 6.3-1.1 8.2-2.1.7-4.1 1.1-6.4 1.3-.9.1-2.1.3-3 0 0 0 .3 8.2.6 12 1.7-.9 6.9-2.1 7.5-1.6.3-.1.9 3.3 1.2 4.1.4 1 1 2 1.5 2.8-1.8.5-3.5 2.4-5.1 3.8-.9.8-2.3 1.4-3.1 2.4.5 1.6 3.8 8.3 4.8 9.1.9.8 1.8-.8 2.7-1.5 1.3-1 2.6-2.1 3.9-3.1.4-.3 1.2-1.2 1.6-1.2.8 0 2 1.8 2.7 2.3 1.2 1.1 2.7 2.7 3.7 4.3-1.2.9-2.1 3.1-3.1 4.5s-1.9 3.1-3 4.3c.7 1.4 8.8 7.4 10.3 8.6.4-1.4 3.1-5.6 3.8-6.7.9-1.5 1.7-4.3 3-4.5 1.1-.2 2.4.5 3.4.7 1.6.4 3.2.7 4.8.7.1 3.4.3 7.3.6 10.4 0 0 7.5-.2 10.9-.8.1-1.7-.1-3.5-.1-5.2 0-1.2-.2-2.7-.1-3.8.1-1.3.2-1.2.8-1.4.9-.2 1.9.4 2.9.2 1.4-.3 2.7-1.3 4.1-1.9h.2v.1l.3.2c.9 1.4 1.9 2.6 2.7 4 .6 1 1 2.1 1.7 3 .6.9.4.8 1.2.4 2.7-1.1 6.4-3.9 8.4-7.2-1.2-2.6-3-4.8-4.4-7.1 1.8-.9 3.1-4.7 4.3-7l.2-.4c.5 1.6 2.3 2.7 3.4 3.4 1.5 1 3.1 1.7 4.6 2.3.4-1.6 1.5-3 2-4.6.6-1.9 2.7-6.4 2.7-6.4-2.5-2.2-5.3-3.3-7.9-5.1.4-2 .5-4.2.5-6.4zm-21.7 6.6c-1.1 2-6.6 6.9-8.4 7.1-3.3.3-6.8.9-10-.5-10.1-4.5-12.8-8.9-12.8-8.9-.4-.9-.7-.9-1.1-2.4-.3-1.5-.7-6.6.4-9.7C92 34 99 30.3 101.6 29.8c3.1-.6 6.9-.5 9.9.5 4.7 1.5 10.8 5.7 12.7 11 2 5.7-1.2 12-3.5 16.2z"/><path fill="#B1B5B6" d="M6.6 28.4c-3.1 4.2-5 8.7-4.5 14 .5 4.7 2.4 10.2 6.4 13 4.4 3.1 10.4 3.7 15.6 3.3 5.5-.4 10.2-3.1 13.4-7.5 5.7-7.8 5.3-23.6-3.8-28.8-9-5.2-20.3-1.2-27 5.8-1.2 1.3.7 3.2 1.9 1.9 5.6-5.9 13.1-8.7 21.1-6.4 9.9 2.8 10.4 17.1 6.3 24.8-4.7 8.6-17.6 9.8-25.5 5.1-3.9-2.3-5.4-7.7-5.9-11.8-.5-4.5 1.6-8.4 4.2-11.9 1.1-1.6-1.2-2.9-2.2-1.5zM15.6 71.3c3.4 2 7.3 3.1 10.9 4.4 4.9 1.7 9.6 3.7 14.3 5.8 3.2 1.4 6.4 2.9 9.7 4.3 2.6 1.1 4.7 1 7.4.2 6.6-2 13.2-4.2 19.8-6.2 1.6-.5.9-3.1-.7-2.6-6 1.8-12 3.7-17.9 5.6-1.2.4-2.5.8-3.7 1.1-2.2.6-4.4-.8-6.4-1.7-3.2-1.4-6.5-2.9-9.7-4.3-3.8-1.7-7.5-3.2-11.4-4.6C24.3 72 20.3 70.9 17 69c-1.6-.9-2.9 1.4-1.4 2.3zM34.6 106.1c9.9 7.1 21.1 12.1 32.1 17.2 1.2.5 2.3 1.1 3.5 1.6 2.2 1 2.3 1.4 1.5 3.6-1.2 3.3-2.3 6.6-3.5 9.9-2.3 6.6-4.7 13.2-7.1 19.8-.6 1.6 2 2.3 2.6.7 2.5-6.9 5-13.9 7.4-20.8 1.3-3.6 2.6-7.3 3.8-10.9.8-2.3-.7-3.4-2.6-4.3C60 117 47.2 111.8 36 103.7c-1.4-1-2.8 1.4-1.4 2.4zM62.4 161.2c5.2 0 10.4 0 15.6-.1 1.5 0 1.9-2.3.4-2.6-4.9-1-9.5-2.9-14.3-3.9-1.7-.4-2.4 2.2-.7 2.6 4.9 1 9.5 2.9 14.3 3.9.1-.9.2-1.8.4-2.6-5.2 0-10.4 0-15.6.1-1.9-.1-1.9 2.6-.1 2.6zM41.5 104.3c26.5.6 53 1.1 79.5 2 1.7.1 1.7-2.6 0-2.7-26.5-.9-53-1.4-79.5-2-1.7-.1-1.7 2.6 0 2.7zM117.2 105.7c3.9-3 8-5.7 12.2-8.1l-1.8-1.8c-1.3 2.8-4.5 5-6.7 7.1-1.2 1.2.7 3.1 1.9 1.9 2.4-2.3 5.7-4.6 7.1-7.6.5-1.2-.6-2.6-1.8-1.8-4.2 2.4-8.3 5.2-12.2 8.1-1.4.9-.1 3.3 1.3 2.2zM33.1 89.2c4.8-5.4 9.5-10.9 14.6-16.2l-1.9-1.9c-3 3.2-5.7 6.7-8.1 10.4-1.3 2.1-2.5 4.2-3.6 6.4-.9 1.9-1.6 5.4-3.1 6.9.7.2 1.5.4 2.2.6-1.9-5.1-4.6-9.8-8-14.1l-1.9 1.9c2.6 2.1 5.2 4.5 8.2 6.1 1.5.8 2.9-1.5 1.4-2.3-2.8-1.5-5.2-3.7-7.6-5.7-1.3-1.1-3 .6-1.9 1.9 3.1 3.9 5.6 8.2 7.3 12.9.3.9 1.5 1.4 2.2.6 1.2-1.2 1.6-2.9 2.2-4.4 1-2.5 2.2-4.8 3.5-7.1 2.5-4.4 5.6-8.5 9.1-12.2 1.2-1.3-.7-3.2-1.9-1.9-5 5.2-9.8 10.7-14.6 16.2-1.1 1.3.8 3.2 1.9 1.9zM46.1 88.9c-.1-.2-.2-.3-.2-.5-.2-.4-.7-.7-1.2-.7-1.4 0-2.2 1.1-3.2 2.1-.9.9-3.3 2.5-3.3 3.9 0 1.7-.3 1.9-1.6 2.6-1.4.7-2.8 1.2-4.2 1.7-2.3.8-4.7 1.4-7 2.1l1.5.6c-1.8-3.9-4.3-7.4-5.6-11.6-1.6-5.3-.2-11.2.1-16.6-.3.4-.7.9-1 1.3 2-.7 4.3-1 6.4-1.4 1.6-.3 7.1-2.4 8.1-.2.7 1.5 2.7 1.2 4 1.1 1.2-.1 3.6-.1 4.3-1.4.8-1.6.4-3.1.1-4.8-.3-2.3-.6-4.5-.9-6.8-.1-.8-1-1.1-1.7-.9-8.9 1.6-17.9 3-26.9 4.1-.6.1-1.2.4-1.3 1-2.4 12-2.2 24.4 2.9 35.7 1 2.2 2.2 4.4 3.6 6.3 1.4 1.9 3.7 1.5 5.9 1.3 7.9-.8 15.7-3.8 22.4-7.9.6-.3.7-.9.6-1.5-.5-3-1.1-6.1-1.6-9.1-.3-1.7-2.9-1-2.6.7.6 3 1.1 6.1 1.6 9.1l.6-1.5c-6.1 3.6-12.7 6.2-19.7 7.4-.7.1-4.3.9-4.9.3-.4-.5-.7-1-1-1.5-1.5-2.3-2.7-4.8-3.7-7.4-3.8-9.8-3.6-20.9-1.5-31-.4.3-.9.7-1.3 1 9.2-1.1 18.5-2.5 27.6-4.2-.6-.3-1.1-.6-1.7-.9.2 1.6.4 3.2.7 4.8.1 1 .3 2 .4 3 .5 1.1.2 1.7-1 1.7-.6.1-1.3.1-1.9.1-.9.1-1.2-.6-1.6-1.1-.4-.5-1.2-.7-1.8-.9-.7-.2-1.5-.1-2.2.1-4.1.6-8.7 1.1-12.6 2.6-.6.2-.9.7-1 1.3-.4 5.6-1.3 11.1-.2 16.6 1 4.7 4.1 8.6 6.1 12.9.2.5 1 .8 1.5.6 3.5-1 7.1-1.9 10.4-3.4 3-1.3 4.9-2.4 4.3-5.9-.1.4-.2.9-.3 1.3l1.9-1.9c.3-.3 1.9-2.3 2.3-2.3-.4-.2-.8-.4-1.2-.7.1.2.2.3.2.5.8 1.2 3.1-.2 2.4-1.7zM70.1 56.8c-.1 0-.1.2-.2.2h.7c.1 0 .2 0 .3.1-.1-.1-.1-.4-.2-.5-.1-.2-.1-.4-.1-.6 0-.1 0-.4.1-.4 1.5-.9.1-3.3-1.4-2.3-1.2.7-1.6 2-1.4 3.3.2 1.5 1 3.1 2.8 2.8 1.8-.5 1.1-3-.6-2.6zM78.1 77.8c.6-2.5 1.5-4.8 2.8-7-.8-.1-1.6-.2-2.5-.3.3 1.4.4 2.9.4 4.3 0 1.1 1.1 1.6 2 1.2 1.7-.8 3.5-1.4 5.3-1.9-.5-.7-1-1.3-1.5-2-1.8 2.6-4.6 4.1-7.4 5.5-1.5.8-.2 3.1 1.4 2.3 3.2-1.7 6.3-3.4 8.3-6.5.7-1-.4-2.3-1.5-2-2 .6-4 1.3-5.9 2.2.7.4 1.3.8 2 1.2 0-1.7-.1-3.4-.5-5-.2-1.2-1.9-1.3-2.5-.3-1.4 2.4-2.4 4.9-3.1 7.6-.2 1.7 2.4 2.4 2.7.7zM41.4 61.8c10.3-.5 20.5-2.4 30.8-2.9 1.7-.1 1.7-2.8 0-2.7-10.3.5-20.5 2.4-30.8 2.9-1.8.1-1.8 2.8 0 2.7zM101.6 54.2l-2.1-4.3 2.8-3.9 4.9.5 2.1 4.2-2.8 3.9zM95.5 61.1c-.8 1.4-2.5 2.8-3.7 3.9-2.4 2.5-4.9 5-7.3 7.4-3.7 3.7-7.6 7.2-11 11.1.4-.1.8-.1 1.2-.2-.9-.6-1.9-1.3-2.8-1.9 0 .6.1 1.1.1 1.6 7.9-7.6 15.5-15.5 23.2-23.3.3-.3.4-.9.2-1.2-.8-1.1-1.6-2.3-2.3-3.4-.9-1.3 1.6-4.3 2.3-5.3.9-1.5 1.7-1.3 3.2-1.6 1.6-.3 3.2-.7 4.8-.9-.2-.6-.5-1.1-.7-1.7-1.9 1.9-3.6 4-5 6.2-.3.4-.1 1.2.4 1.4 1.9.9 3.6 2.1 5.2 3.5.3.3.8.4 1.2.2 2.2-1.6 4.2-3.8 6.3-5.5-.6-.2-1.1-.5-1.7-.7 0 1.3-.1 2.6-.2 3.9-.2 2.3-1.1 3.5-2.6 5.2-1.5 1.7-2.8 2.3-5.1 1.9-1.5-.2-3-.7-4.5-1-1.3-.3-1.8 1.6-.5 1.9 2.1.5 4.2 1 6.3 1.3 2.1.2 3.3-.5 4.7-2 1.3-1.5 3.2-3 3.6-5 .4-1.9.3-4.2.4-6.2 0-1-1.1-1.2-1.7-.7-2 1.7-3.8 3.7-5.9 5.2.4.1.8.1 1.2.2-1.7-1.5-3.6-2.8-5.6-3.8.1.5.2.9.4 1.4 1.4-2.1 3-4 4.7-5.8.6-.6.2-1.8-.7-1.7-2.3.3-4.6.9-6.9 1.2-1.6.2-2.1.9-2.9 2.3-1 1.7-2.9 3.7-2.9 5.8 0 1.7 2 3.7 2.9 5 .1-.4.1-.8.2-1.2-7.9 7.5-15.4 15.4-23.4 23-.5.5-.3 1.2.2 1.6.9.6 1.9 1.3 2.8 1.9.4.2.9.2 1.2-.2 3.6-4 7.6-7.7 11.4-11.4 2.4-2.4 4.9-4.9 7.2-7.3 1.2-1.2 2.8-2.5 3.7-4 .7-1.2-1-2.2-1.6-1.1zM10 43.4c-.5 3.9.8 7.2 4.5 8.8 1.8.7 2.6-2.2.8-2.9-2.4-1-2.6-3.6-2.3-5.9.3-1.9-2.7-1.9-3 0z"/></g></svg><svg viewBox="-1 -1 288.3 110.5" enable-background="new 0 0 286.3 108.5" width="288.3" height="110.5" id="icon_giman-superman" y="916"><g><path fill="#778386" d="M226.6 5.7c5.4 30.4 11.5 60.8 18.2 91 .7 3.1 1.4 6.3 2.2 9.4.4 1.4 2.5.9 2.2-.5-3.5-13.7-6.1-27.6-8.9-41.4-3.3-16.5-6.6-33-9.7-49.5-.6-3.2-1.2-6.3-1.7-9.5-.3-1.4-2.5-1-2.3.5z"/><path fill="#B1B5B6" d="M114.3 97.3c-.8-5.8-4.7-11.3-8.1-15.9l-.6 1.8c18.7-6.1 39.9-6.6 59.2-3.2-.3-.3-.7-.6-1-.9.4 1.3 1.2 2.3 2 3.4 1.5 2 3 4.1 4.5 6.1 0-.5-.1-.9-.1-1.4-.2.3-.4.7-.6 1 0-.1-3.2.4-3.6.5-2.7.5-5.3 1-8 1.5-4.9.9-9.9 1.7-14.9 2.5-10 1.6-20.1 2.7-30.2 3.6-1.4.1-1 2.3.5 2.2 10.6-1 21.1-2.2 31.6-3.9 5-.8 10-1.7 15-2.6l8.1-1.5c2.1-.4 2.9-.4 3.9-2.1.3-.5.2-.9-.1-1.4-1.2-1.6-2.4-3.2-3.5-4.8-.8-1.1-2.1-2.4-2.5-3.7-.2-.5-.5-.8-1-.9-10-1.8-20.2-2.2-30.3-1.7-9.9.5-19.9 1.9-29.4 5-.8.3-1.2 1.1-.6 1.8 3.2 4.2 6.9 9.5 7.6 14.8.2 1.7 2.3 1.2 2.1-.2zM118.8 88.7c6.2-1.1 12.4-2 18.6-2.8 3.1-.4 6.2-.7 9.4-.9 1.9-.2 3.9-.3 5.8-.4 1.4-.1 6 .3 4.1 2.7-.9 1.1 1 2.4 1.9 1.2 1.6-2 .4-4.5-1.7-5.6-1.5-.8-3.4-.6-5-.5-2.1.1-4.3.3-6.4.5-9.1.8-18.2 2-27.1 3.6-1.5.3-1 2.4.4 2.2zM117.5 88.8c.4 1.3.4 2.6-.1 3.9-.5 1.3 1.6 2.1 2.1.7.7-1.6.7-3.4.2-5.1-.5-1.4-2.7-.9-2.2.5zM110.4 93.3c-24.8-1-42.6 2-67.4 3.1-1.4.1-1.6 2.3-.1 2.2 24.8-1.1 42.6-4.1 67.4-3.1 1.4.1 1.5-2.1.1-2.2zM109.4 86.8c-20.6 1.1-34.3 2.4-54.9 3-10.4.3-20.9.5-31.3.3-2.2 0-4.5-.2-6.8-.2-1.3 0-1.9 0-3 .9-4.3 3.5-8.6 7-13 10.5-1 .8.1 2.4 1.2 1.8 6.8-3.6 13.6-7.3 20.3-10.9 1.3-.7.3-2.7-1-2-6.8 3.6-13.6 7.3-20.3 10.9l1.2 1.8c3.9-3.1 7.7-6.2 11.6-9.4.4-.4 1.3-1.4 1.7-1.4h2c2.5.1 5 .1 7.5.2 10.2.1 20.3 0 30.5-.3 20.4-.6 33.7-1.9 54.1-3 1.4 0 1.6-2.2.2-2.2zM42.3 97.1c-3.5 3.3-7.1 6.4-10.9 9.4-1 .8.2 2.5 1.2 1.8 6.3-4.2 13.1-7.4 20.4-9.7 1.4-.4.9-2.6-.5-2.2-7.4 2.3-14.4 5.6-20.9 9.9l1.2 1.8c3.8-2.9 7.4-6.1 10.9-9.4 1.1-.9-.4-2.6-1.4-1.6zM175.7 82.9"/><path fill="#B1B5B6" d="M205.2 83.8c22.6-.7 45.2-.5 67.9.5 1.4.1 1.6-2.2.1-2.2-22-.9-44.1-1.1-66.1-.5l-1.9 2.2zM175.7 82.9c-1.2.1-2.5.2-3.7.2-1.4.1-1.6 2.3-.1 2.2 2.1-.1 4.1-.3 6.2-.4l-2.4-2zM158.2 89c27.6 2.1 55 5.9 82.2 11.5 1.4.3 2.1-1.8.7-2.1-27.3-5.7-54.9-9.6-82.7-11.7-1.5 0-1.6 2.2-.2 2.3zM171.1 65.1c-2.5 3.9-2.7 8.4-.9 12.7 2 4.9 6.7 7.8 11.6 9.4 8.6 2.7 21.6 2.9 26.8-6 2.7-4.7 3.1-10.7 1-15.7-2.1-4.9-7.2-7.9-12.3-8.8-9.3-1.7-20.1 1.1-26.2 8.4-.9 1.1 1 2.3 1.9 1.2 5-6.1 13.4-8.1 21.1-7.8 5 .2 10.1 2.4 12.8 6.8 2.7 4.4 2.1 10.2-.2 14.6-4.1 7.8-15.6 7.1-22.8 5.5-4.6-1-8.8-3.4-11.2-7.6-2-3.6-1.9-8 .3-11.5.8-1.2-1.1-2.4-1.9-1.2zM271 84.5c4-.1 8-.6 12.1-.9 1-.1 1-.3.7.6-.3 1-.8 3.2-2.3 2.7-2.2-.7-4.3-1.6-6.5-2.3-.6-.2-1.2.1-1.4.7-.7.6-1.4.8-2.2.6-.4 0-.9-.1-1.3-.3 1.3-.6.3-2.6-1-2-1.7.8-1.6 3.4.2 4.1 2.2.8 5.3.8 6.4-1.7-.5.2-.9.5-1.4.7l4.8 1.8c1.4.5 2.6 1.2 4 .7 1.7-.6 3.2-3.9 3.1-5.5-.1-2.7-2.6-2.2-4.6-2.1-3.5.2-7 .7-10.5.8-1.4-.1-1.5 2.2-.1 2.1zM241.3 100.6c3.2.3 6.4.7 9.6 1 1.3.1 3.8.6 3.5-1.6-.2-1.4-.9-3.5-2.4-3.9-2.2-.7-5-.1-7.3.2.4.4.9.8 1.3 1.2 0-.6 0-1.2.3-1.7.4-.9-.5-1.5-1.3-1.5-2.4.3-4.5 1.6-6.8 2.4-1.4.5-.3 2.5 1 2 2.1-.8 4-1.9 6.3-2.2-.4-.5-.9-1-1.3-1.5-.3.7-.3 1.5-.4 2.3-.1.8.6 1.3 1.3 1.2 1.6-.2 3.2-.4 4.8-.4 1 0 1.7.5 2.1 1.4 0 .2.1.3.1.5-.1-.6-.5-.8-1.2-.6-3.2-.3-6.4-.7-9.6-1-1.3-.2-1.5 2 0 2.2zM170.6 72.3c3.3-.1 6.6-.6 9.8-1.2 1.5-.2 3.1-.4 4.7-.6 1.9-.2 3.8.1 5.6-.1 1.6-.2 3.3-1.3 4.9-.9 1.6.4 3 1.2 4.7 1.4.9.1 2.2.4 3.1 0 1.2-.6 3.6-2.7 5-1.6 1.1.9 2.4-1 1.2-1.9-1.9-1.5-5.2 0-6.9 1.2-1.1.8-3.7-.2-4.9-.6-1.5-.6-2.5-1-4.1-.8-.6.1-1.4.5-1.9.6-1.2.4-2.4.3-3.6.3-1.7 0-3.4.1-5 .3-4.1.5-8.2 1.4-12.3 1.6-1.6.2-1.7 2.4-.3 2.3zM171 73.9s7.6.3 11.6.2c2 0 3.8-.2 5.8-.3.9-.1 2.2 1.7 3.2 2 1.1.3 2.3.1 3.3-.3 1.9-.8 3.6-1.6 5.7-1.8 2.9-.2 5.4 1 8.2.7 1.4-.1 1-2.3-.5-2.2-1.4.1-2.4-.3-3.8-.6-1.3-.3-2.6-.2-3.9-.2-1.4 0-2.9.3-4.3.8-2 .9-3.8 2.2-5.6.3-.7-.8-1.4-1-2.5-1-2 0-3.7.2-5.7.3-4 .1-8.6 0-11.6-.2-1.7-.1-1.8 2.2.1 2.3 0 0-1.9-.1 0 0zM181.3 82.1c1.4 1.2 3.1 2 5 2.2 1.4.2 1.6-2 .1-2.2-1.5-.2-2.8-.9-3.9-1.9-.5-.4-1.2-.2-1.6.3-.3.6 0 1.2.4 1.6z"/><path fill="#778386" d="M228.6 4.4c-15.3.7-30.7.6-46 .6-19.9-.1-39.9-.4-59.8-.9-26.3-.6-52.6-1.3-78.9-2.3-1 0-1.5 1.1-.9 1.9 2.4 2.8 6.6 4.1 10 5.2 4.8 1.6 9.7 2.5 14.5 4.8 0-.6.1-1.3.1-1.9-3.1 1.7-6.6 3.9-9.8 5.8-3.1 1.9-6.6 4.3-10.2 5.2-1.3.3-1.1 2 .1 2.2C59.8 26.8 72 27.4 84 28c17.6 1 35.2 1.7 52.9 2.3 31 1.1 62 1.6 93 3.2 1 .1 2 .1 3 .2 1.4.1 1.6-2.1.1-2.2-29.7-1.8-59.5-2.1-89.2-3.1-17.9-.6-35.9-1.3-53.8-2.2-13-.7-26.1-1.3-39-3-1-.1-2-.3-2.9-.4.1.7.1 1.5.2 2.2 3.6-.9 7-3.1 10.2-5 3.4-2.1 6.6-4.4 10.1-6.1.7-.3.9-1.5.1-1.9-3.9-2-8-3.1-12.1-4.3-3.8-1.1-9.1-2.2-11.8-5.4-.3.6-.6 1.2-.9 1.9 35.1 1.1 70.4 2 105.6 2.6 26.3.4 52.6 1 78.9-.2 1.5-.1 1.6-2.3.2-2.2zM88.9 10.8c-5.6-2.4-11.6 8-5.3 10.3 2.8 1 5.4.7 7.1-1.9.5-.8 1.2-2 .4-2.8-.8-.9-3-.5-4-.6-1.4-.1-1.6 2.2-.1 2.2.9 0 2.1-.1 3 .1-.2-.3-.5-.6-.7-.8.2.5-1.3 1.8-1.6 2-1.3.6-3.7-.3-4.3-1.3-1.5-2.4 2.4-6.1 4.7-5.1 1.4.5 2.1-1.6.8-2.1zM111.8 11.3c-2.8.1-5.7-.1-8.5 0-1.4.1-1.6 2.2-.1 2.2 1.4 0 2.7.1 4.1.1-.3-.4-.7-.7-1.1-1.1-.1 3.2-.2 5.8-.4 9.8-.1 1 2.2 1.1 2.2.1.2-4 .3-6.6.4-9.8 0-.6-.2-1.2-.8-1.2-1.4 0-3.9-.2-3.9-.1 0 .7-.1 1.5-.1 2.2 3-.1 5.4.1 8.2 0 1.5 0 1.4-2.2 0-2.2z"/><g fill="#778386"><path d="M117.5 13.3c.6 1.3 1.2 2.5 1.9 3.7.7 1.2 2.7.2 2-1-.7-1.2-1.3-2.5-1.9-3.7-.7-1.3-2.7-.3-2 1zM122.3 12.4c-.8 1.5-2 3-2.6 4.6-.6 1.6-.3 4-.4 5.8-.1 1.4 2.2 1.6 2.2.1.1-1.6.1-3.3.2-4.9.1-1.4 1.7-3.1 2.4-4.3.8-1.3-1.1-2.6-1.8-1.3z"/></g><path fill="#778386" d="M126.5 14c-.7 2.4-1.5 5.1-.3 7.4.9 1.8 3.1 2.7 4.9 2 2.2-.9 2.7-3.4 2.7-5.5-.1-2.3-2.4-4.5-4.7-4.4-1.4 0-1.6 2.3-.1 2.2 2.9-.1 3.6 5.1 1 5.7-1.5.3-2.2-1.5-2.2-2.6 0-1.3.4-2.8.8-4.1.4-1.4-1.7-2.1-2.1-.7zM134.7 14.7c.1 2.8-.3 9.4 4.3 8.9 3.9-.4 4.3-6.3 3.6-9.2-.3-1.4-2.5-.9-2.2.5.4 1.9.4 4.7-1 6.2-1.5 1.6-2.3-1.9-2.4-2.7-.1-1.2-.1-2.4-.1-3.5 0-1.5-2.2-1.6-2.2-.2zM153.2 11.6c-4.8-2.8-6.9 5.5-6.9 8.7.1 2.5 1.5 3.8 3.8 4.4 2.4.6 4-2 5.1-3.7.8-1.2-1.1-2.5-1.9-1.2-.6.9-1.1 1.7-1.8 2.5-1 .5-1.9.3-2.7-.6-.4-.6-.3-1.6-.3-2.3 0-1 1.3-7 3.4-5.7 1.3.5 2.6-1.4 1.3-2.1zM157.2 14.3c-1.1 3-1.5 7 .8 9.5 2.2 2.4 5.3.9 6.8-1.4 1.5-2.4 2.1-6.4.1-8.7-2.4-2.7-5.2-1.9-6.8 1-.7 1.3 1.2 2.5 1.9 1.2 1-1.9 3-1.9 3.8.3.5 1.6-.1 3.5-.8 4.9-1.4 2.7-3.8 1.3-4.3-1.1-.3-1.6.1-3.6.7-5 .4-1.3-1.7-2.1-2.2-.7zM166.7 13.5c.2 2.5.6 5.1.9 7.6.2 1.4.1 3.1 1.6 3.8.6.3 1.2-.2 1.4-.7 1.3-3.5 1.4-7.2 2.4-10.7.4-1.4-1.7-2.1-2.1-.7-1 3.5-1.1 7.3-2.4 10.7.5-.2.9-.5 1.4-.7.3.1-.1-2.1-.1-2.1-.1-.8-.3-1.7-.4-2.5l-.6-5.1c-.1-1.5-2.3-1.1-2.1.4z"/><g fill="#778386"><path d="M175.1 13.8c-.4 3.3-.9 7.3-.1 10.5.2.6.7.9 1.3.9 1.2-.2 2.5-.3 3.7-.5 1.4-.2 1-2.4-.5-2.2-1.2.2-2.5.3-3.7.5.4.3.9.6 1.3.9-.8-3.1-.2-6.8.1-9.9.3-1.5-1.9-1.7-2.1-.2zM176.6 15.1c1.3.1 2.7 0 4-.2 1.4-.2 1-2.4-.5-2.2-1.1.2-2.2.2-3.4.2-1.4-.2-1.6 2.1-.1 2.2zM176.1 20.3c1.1.1 2.2 0 3.3-.1.6-.1 1-.8.9-1.3-.1-.6-.7-.9-1.3-.9-.9.1-1.8.1-2.7.1-1.5-.1-1.7 2.1-.2 2.2z"/></g><g fill="#778386"><path d="M195 12.7c-.4 3.8-.9 8.2-.2 12 .1.6.7 1 1.3.9 1.2-.2 2.5-.4 3.7-.6 1.4-.2 1-2.4-.5-2.2-1.2.2-2.5.4-3.7.6.4.3.9.6 1.3.9-.7-3.6-.2-7.8.2-11.4.3-1.5-1.9-1.6-2.1-.2zM196.5 14c1.3.1 2.7 0 4-.3 1.4-.3 1-2.5-.5-2.2-1.1.2-2.2.3-3.4.2-1.4 0-1.6 2.2-.1 2.3zM195.9 20c1.1.1 2.2 0 3.3-.2 1.4-.2 1-2.4-.5-2.2-.9.1-1.8.2-2.7.1-1.4 0-1.5 2.2-.1 2.3z"/></g><g fill="#778386"><path d="M185 13.6c-.3 3.7-.4 7.3-.5 11-.1 1.4 2.2 1.6 2.2.1.2-3.7.2-7.3.5-11 .1-1.4-2.1-1.5-2.2-.1zM186.2 13.3c1.5-.2 2.9.6 3.6 1.9 1.1 1.9-1.7 2.6-2.9 3-1.4.4-.9 2.6.5 2.2 2.6-.8 5.9-2.2 4.7-5.5-.9-2.6-3.7-4-6.3-3.7-1.5.1-1 2.3.4 2.1zM187.6 20c.8 1.6 1.4 3.2 2.3 4.8.7 1.3 2.7.3 2-1-.8-1.6-1.4-3.2-2.3-4.8-.7-1.3-2.7-.3-2 1z"/></g><g fill="#778386"><path d="M203.6 13.7c-.2 3.7-.3 7.4-.5 11.1-.1 1.4 2.2 1.6 2.2.1.2-3.7.3-7.4.5-11.1.1-1.4-2.1-1.5-2.2-.1zM204.8 14c2.7.2 4.9 1.9 5.7 4.5 1.2 3.9-3.6 4.7-6.1 5.5-1.4.4-.9 2.6.5 2.2 4-1.3 8.5-2.4 8-7.5-.4-3.8-4.3-6.6-7.8-6.9-1.6-.1-1.7 2.1-.3 2.2z"/></g><path fill="#778386" d="M216.9 14.2c-.2 2.6-.5 5.2-.8 7.8-.2 1.4 2.1 1.6 2.2.1.3-2.6.6-5.2.8-7.8.2-1.4-2-1.5-2.2-.1zM217.1 25.2h-.1c-.6 0-1.1.3-1.2.9s.4 1 1.1 1.1h.1c.6 0 1.1-.3 1.2-.9-.1-.6-.5-1.1-1.1-1.1z"/><path fill="#B1B5B6" d="M130.4 87.5c-1.9 1.7-4.4 2.7-6.4 4.4-.7.6-.3 2 .7 2 9.8-.3 19.6.7 29.4 1.4 1.4.1 1.6-2.1.1-2.2-9.8-.7-19.6-1.7-29.4-1.4.2.7.4 1.3.7 2 1.9-1.7 4.4-2.7 6.4-4.4 1.1-1-.4-2.7-1.5-1.8zM130.5 88.1c-.6 1.2-2.2 1.7-2.8 2.9-.3.7.3 1.4 1 1.5 4.2.4 8.3.8 12.5 1.2 4.1.4 8.7.4 12.6 1.5 1.4.4 2.1-1.7.7-2.1-4-1.2-8.6-1.2-12.7-1.6-4.3-.4-8.7-.8-13-1.2.3.5.7 1 1 1.5.6-1.2 2.2-1.7 2.8-2.9.6-1.4-1.5-2.1-2.1-.8z"/><path fill="#778386" d="M94 13.3c-1 2.7-1.3 6.3.7 8.6 2 2.1 4.8.8 6.1-1.3 1.4-2.2 1.9-5.8.1-7.9-2.1-2.5-5.7-1.7-7.1.9-.6 1.1 1.1 2.3 1.7 1.1.9-1.8 3.7-1.7 4.4.2.5 1.4-.1 3.1-.7 4.4-1.2 2.5-3.5 1.2-3.9-1-.3-1.4.1-3.2.6-4.6.5-1-1.4-1.6-1.9-.4z"/></g></svg><svg viewBox="-1 -1 82.2 82" enable-background="new 0 0 80.2 80" width="82.2" height="82" id="icon_licensed" y="1027"><g fill="#387C42"><path d="M78.6 66.1L67.9 48.2c2.9-4.7 4.5-10.1 4.5-16 0-17-13.8-30.8-30.8-30.8S10.9 15.2 10.9 32.2c0 5.2 1.3 10 3.5 14.3l-12.3 21c-.3.4-.2 1 .1 1.4.3.4.8.6 1.3.5L15.2 67l3.5 10.5c.2.5.6.8 1 .9h.2c.4 0 .8-.2 1.1-.6l11.3-16.3c3 1 6.1 1.5 9.4 1.5 2.9 0 5.7-.4 8.4-1.2l9.6 16c.2.4.7.6 1.1.6h.1c.5-.1.9-.4 1.1-.9l3.6-10.6 11.8 1.2c.5 0 1-.2 1.2-.6.3-.4.3-.9 0-1.4zm-58.3 8.1l-3-9.1c-.2-.6-.8-1-1.5-.9l-10 2L15.9 49c3.3 5.1 8.2 9.2 13.8 11.6l-9.4 13.6zm-6.8-42C13.5 16.7 26.1 4 41.7 4s28.2 12.6 28.2 28.2-12.7 28.2-28.2 28.2-28.2-12.6-28.2-28.2zm51.4 32c-.6 0-1.1.3-1.3.9L60.5 74l-7.9-13.1c5.5-2.1 10.3-5.7 13.8-10.4l8.8 14.7-10.3-1zM55.8 27.1h-8.2l-4.8-9.5c-.4-.9-1.9-.9-2.3 0l-4.8 9.5h-8.2c-.5 0-1 .3-1.2.8-.2.5 0 1.1.4 1.4l7 5.8-3.6 10.7c-.2.5 0 1.1.4 1.4.4.3 1 .4 1.5.1l9.6-6 9.6 6c.2.1.4.2.7.2.3 0 .6-.1.8-.3.4-.3.6-.9.4-1.4l-3.6-10.7 7-5.8c.4-.3.6-.9.4-1.4-.1-.5-.6-.8-1.1-.8zm-8.5 6.7c-.4.3-.6.9-.4 1.4l2.7 8.1-7.2-4.5c-.2-.1-.4-.2-.7-.2-.2 0-.5.1-.7.2l-7.2 4.5 2.7-8.1c.2-.5 0-1.1-.4-1.4l-5-4.1h5.4c.5 0 .9-.3 1.1-.7l4-8 4 8c.2.4.7.7 1.1.7h5.4l-4.8 4.1z"/></g></svg><svg viewBox="-1 -1 44 46" enable-background="new 0 0 42 44" width="44" height="46" id="icon_news" y="1109"><g fill="#0391D8"><path d="M2.9 3.7c9.3-.2 18.6-.2 28 0 1.2 0 1.2-1.9 0-1.9-9.3-.3-18.6-.3-28 0-1.3 0-1.3 1.9 0 1.9zM30 3.2c-.2 8.1-.4 16.2-.1 24.2.1 4.8-.9 11.4 3.8 14.3 4 2.5 7.5-1.5 8-5 .5-3.6.2-7.4.1-10.9-.1-5-.1-9.9-.2-14.9 0-1.2-1.9-1.2-1.9 0 .1 5.5.2 11 .2 16.5 0 2.5.1 5.1 0 7.6-.1 4.4-6 7.6-7.4 2.5-1.4-5.5-.9-11.9-.9-17.6 0-5.6.2-11.1.3-16.7C32 2 30.1 2 30 3.2zM1.1 2.6c0 7.2-.1 14.3 0 21.5C1.1 29 0 36.3 2.8 40.6c2.1 3.2 8.9 2.1 11.9 2.2 7.1.2 14.1.3 21.2-.1 1.2-.1 1.2-2 0-1.9-5 .3-10 .3-15.1.2-3.7 0-15.7 1.5-17.3-3.2-.8-2.5-.4-6.1-.5-8.8v-8.2c0-6 0-12.1.1-18.1-.1-1.3-1.9-1.3-2-.1zM30.9 6.2h3.5c1.1 0 .6 5.4.6 6 0 4.1-.1 8.2-.2 12.2-.1 4.4-1.8 12 3.8 13.5 1.2.3 1.7-1.5.5-1.8-3.7-1-2.4-10.5-2.4-13.2.1-4.1.2-8.2.2-12.3 0-1.4.7-4.7-.5-5.9-1.1-1.1-4.3-.5-5.6-.5-1.1.2-1.1 2.1.1 2zM40.7 9.9c-1.1 0-2.2-.1-3.3-.1-1.2 0-1.2 1.9 0 1.9 1.1 0 2.2.1 3.3.1 1.2 0 1.2-1.9 0-1.9z"/><path stroke="#0391D8" stroke-linecap="round" stroke-linejoin="round" stroke-miterlimit="10" d="M7.3 22.5h19v-1h-19v1zM7.3 17.5h19v-1h-19v1zM7.3 27.5h19v-1h-19v1z"/></g></svg><svg viewBox="-1 -1 138.5 126.4" enable-background="new 0 0 136.5 124.4" width="138.5" height="126.4" id="icon_plans" y="1155"><g><g fill="#387C42"><path d="M62.3 57.7V54h-4.7v3.7h-1v-8h1v3.4h4.7v-3.4h1v8h-1zM65.2 57.7v-8h5.2v.9h-4.2v2.6h4.2v.9h-4.2v2.8h4.2v.9h-5.2zM77.7 57.7l-.7-1.8h-4l-.7 1.8h-1.1l3.2-8h1.2l3.2 8h-1.1zm-2.7-7L73.3 55h3.4L75 50.7zM79.9 57.7v-8h1v7.1h3.7v.9h-4.7zM86.8 57.7v-7.1h-2.5v-.9h6.1v.9h-2.5v7.1h-1.1zM97.3 57.7V54h-4.7v3.7h-1v-8h1v3.4h4.7v-3.4h1v8h-1zM44.4 69.7v-8h1.7v8h-1.7zM53.2 69.7l-3.8-5.2v5.2h-1.7v-8h1.8l3.7 5v-5h1.7v8h-1.7zM55.8 68.6l.9-1.3c.6.6 1.4 1.1 2.5 1.1.9 0 1.4-.4 1.4-.9 0-1.4-4.6-.4-4.6-3.5 0-1.3 1.2-2.4 3-2.4 1.3 0 2.3.4 3.1 1.1l-.9 1.2c-.6-.6-1.5-.9-2.3-.9-.7 0-1.1.3-1.1.8 0 1.3 4.6.4 4.6 3.4 0 1.5-1 2.6-3.2 2.6-1.5 0-2.6-.5-3.4-1.2zM63.6 66.5v-4.8h1.7v4.7c0 1.1.6 1.9 1.9 1.9s1.9-.8 1.9-1.9v-4.7h1.7v4.8c0 2-1.2 3.3-3.6 3.3-2.5 0-3.6-1.3-3.6-3.3zM76.9 69.7l-1.6-2.8H74v2.8h-1.7v-8H76c1.7 0 2.7 1.1 2.7 2.6 0 1.4-.9 2.2-1.8 2.4l1.8 3h-1.8zm.1-5.4c0-.7-.5-1.1-1.2-1.1H74v2.2h1.8c.7 0 1.2-.5 1.2-1.1zM85.6 69.7l-.5-1.4h-3.4l-.5 1.4h-1.9l3.1-8h2.1l3.1 8h-2zm-2.2-6.3l-1.2 3.4h2.5l-1.3-3.4zM93.8 69.7L90 64.5v5.2h-1.7v-8H90l3.7 5v-5h1.7v8h-1.6zM96.6 65.7c0-2.5 1.9-4.1 4.3-4.1 1.8 0 2.8 1 3.3 2l-1.5.7c-.3-.6-1.1-1.2-1.9-1.2-1.5 0-2.5 1.1-2.5 2.6s1.1 2.6 2.5 2.6c.8 0 1.5-.5 1.9-1.2l1.5.7c-.6 1-1.6 2-3.3 2-2.4 0-4.3-1.6-4.3-4.1zM105.2 69.7v-8h5.7v1.5h-4v1.7h3.9v1.5h-3.9v1.8h4v1.5h-5.7zM86.8 95.8l2.8-8.5h.7l-2.8 8.5h-.7zM98.2 95.5v-3.9c0-.7-.3-1.2-1.1-1.2-.6 0-1.2.4-1.5.9v4.2h-.9v-3.9c0-.7-.3-1.2-1.1-1.2-.6 0-1.2.4-1.5.9v4.2h-.9v-5.8h.9v.8c.2-.4 1-1 1.9-1 .9 0 1.4.5 1.6 1.1.3-.5 1.1-1.1 1.9-1.1 1.1 0 1.6.6 1.6 1.8v4.2h-.9zM100.6 92.6c0-1.7 1.1-3 2.9-3s2.9 1.4 2.9 3c0 1.7-1.1 3-2.9 3s-2.9-1.3-2.9-3zm4.8 0c0-1.2-.7-2.2-1.9-2.2s-1.9 1.1-1.9 2.2c0 1.2.7 2.2 1.9 2.2 1.2.1 1.9-1 1.9-2.2zM54.6 95.7c-2.1-.2-3.6-1-4.6-2l1.5-2.1c.7.8 1.8 1.5 3.1 1.7v-3.1c-2-.5-4.2-1.3-4.2-3.9 0-2 1.6-3.7 4.2-4v-1.8h1.9v1.9c1.6.2 2.9.8 4 1.8l-1.6 2c-.7-.6-1.6-1.1-2.4-1.3v2.8c2 .5 4.3 1.3 4.3 4 0 2.2-1.4 3.9-4.3 4.2v1.8h-1.9v-2zm0-8.6v-2.4c-.9.1-1.4.6-1.4 1.3 0 .5.6.9 1.4 1.1zm1.9 3.5v2.6c1-.2 1.5-.8 1.5-1.4-.1-.6-.7-.9-1.5-1.2zM66.7 95.7c-2.1-.2-3.6-1-4.6-2l1.5-2.1c.7.8 1.8 1.5 3.1 1.7v-3.1c-2-.5-4.2-1.3-4.2-3.9 0-2 1.6-3.7 4.2-4v-1.8h1.9v1.9c1.6.2 2.9.8 4 1.8l-1.6 2c-.7-.6-1.6-1.1-2.4-1.3v2.8c2 .5 4.3 1.3 4.3 4 0 2.2-1.4 3.9-4.3 4.2v1.8h-1.9v-2zm0-8.6v-2.4c-.9.1-1.4.6-1.4 1.3 0 .5.6.9 1.4 1.1zm1.9 3.5v2.6c1-.2 1.5-.8 1.5-1.4-.1-.6-.7-.9-1.5-1.2zM78.8 95.7c-2.1-.2-3.6-1-4.6-2l1.5-2.1c.7.8 1.8 1.5 3.1 1.7v-3.1c-2-.5-4.2-1.3-4.2-3.9 0-2 1.6-3.7 4.2-4v-1.8h1.9v1.9c1.6.2 2.9.8 4 1.8l-1.6 2c-.7-.6-1.6-1.1-2.4-1.3v2.8c2 .5 4.3 1.3 4.3 4 0 2.2-1.4 3.9-4.3 4.2v1.8h-1.9v-2zm0-8.6v-2.4c-.9.1-1.4.6-1.4 1.3 0 .5.6.9 1.4 1.1zm1.9 3.5v2.6c1-.2 1.5-.8 1.5-1.4-.1-.6-.7-.9-1.5-1.2z"/></g><path fill="#387C42" d="M43 22.4c30.1 0 59.8-.4 89.9-.1-.7-.7-.4-1.3-2.4-2v101.9c0 3 6 3 6 0V20.3c0-1.1-1.5-2-2.6-2-30.1-.3-60.5.1-90.6.1-2.6-.1-2.9 4-.3 4zM20.3 122.3c.1-26.4 0-52.5 0-79.4 0-1.8-4-1.8-4 0 0 26.9.1 52.9 0 79.2-.1 2.6 4 2.8 4 .2zM28.7 3.2C18.5 1.1 7.5 7 3.8 16.7c-1.6 4.1-1.8 13 0 16.9 2.3 5.2 7.2 9.5 12.6 11.3 12.7 4.2 25.6-1.2 28-14.9 2.5-14-2.8-22.1-15.7-26.8-2.5-.9-3.5 3-1.1 3.9 8.6 3.1 13.6 7.5 13.3 17.1-.4 12.8-8.6 20.4-21.4 17.4-3.9-.9-7.2-3.4-9.9-6.2-3.6-3.8-2.5-9.7-2.3-14.5.4-9.4 11.6-15.6 20.3-13.8 2.5.5 3.6-3.3 1.1-3.9zM22.3 18.9c-3.7-4.4-9.4-.4-9.3 4.5.1 2 2.6 3.1 4.3 2.7 3.2-.8 4.7-3.3 5.2-6.3.2-1.1-1.5-1.6-1.7-.5-.9 4.8-1.6 9.5-2.2 14.4-.1 1.1 1.7 1.1 1.8 0 .6-4.6 1.3-9.3 2.1-13.9-.6-.2-1.2-.3-1.7-.5-.3 1.5-.5 2.6-1.6 3.9-1 1.2-4.3 2.2-4.4-.4-.1-3.3 3.9-5.3 6.2-2.6.8.9 2-.4 1.3-1.3zM33 18.9c-3.6-4.4-9.4-.5-9.3 4.5.1 2 2.6 3.1 4.3 2.7 3.2-.8 4.7-3.3 5.2-6.3.2-1.1-1.5-1.6-1.7-.5-.9 4.8-1.6 9.5-2.2 14.4-.1 1.1 1.7 1.1 1.8 0 .6-4.6 1.3-9.3 2.1-13.9-.6-.2-1.2-.3-1.7-.5-.3 1.5-.5 2.6-1.6 3.9-1 1.2-4.3 2.2-4.4-.4-.1-3.6 4.1-5.2 6.2-2.6.7.9 2-.4 1.3-1.3z"/></g></svg><svg viewBox="-1 -1 27.3 27.3" enable-background="new 0 0 25.3 25.3" width="27.3" height="27.3" id="icons_get-started-arrow" y="1282"><path fill="#fff" d="M2.3 11.3h13.2l-7.4-8h5.6l9.4 10.2-9.4 9.8H8.2l7.5-8H2.3v-4z"/></svg><svg viewBox="-1 -1 186.8 41.7" enable-background="new 0 0 184.8 39.7" width="186.8" height="41.7" id="kaiser" y="1310"><g fill-rule="evenodd" clip-rule="evenodd" fill="#007D9F"><path d="M23.7 14.8c-.3-.3-.7-.5-1.1-.7L22 26.9l3.2-8.8c.3-1.4-.5-2.5-1.5-3.3zm-3.3-1.6c2.3.1 3.2-1.6 3.2-3.1.1-2.4-1.4-3.4-3.2-3.4s-3.2 1-3.2 3.4c.1 1.3.6 3.1 3.2 3.1zm-6.8-.7c.2-3.9-5.9-3.7-5.7 0-.1 3.9 6.1 3.9 5.7 0zm18.6 2c.1-3.8-5.7-3.9-5.5 0-.1 3.5 5.6 3.7 5.5 0zm0 0zm2.2 19v-2.6c-2.1.9-4 1.7-6 2.6h6zm-28.7 0h6.5l-6.5-2.8v2.8zm28.7-3.2v-2.7c-2.1 1.4-4.2 2.7-6.1 4.1l6.1-1.4zm-28.7-.1c2.2.5 4.7 1.1 6.7 1.5l-6.7-4.4v2.9zM34.4 27v-3.5l-7 6.8c2.4-1.1 4.6-2.1 7-3.3zm-28.7-.2l7.3 3.4c-2.4-2.4-4.9-4.8-7.3-7.2v3.8zm28.2-6.3c-.2-.3-.4-.7-.7-.9l-7 9.5c2.8-2.1 5.4-4.1 8-6.2.2-.9.1-1.7-.3-2.4zM5.7 22.4c2.8 2.2 5.7 4.4 8.5 6.6L6.6 18.2c-.7 1.2-1 2.6-.9 4.2zm23.8-4.6L24.9 28l8-8.7c-.9-1-2-1.4-3.4-1.5zm-4.6 2.7l-1.4 6.9c1.8-3.2 3.7-6.4 5.5-9.6-1.7.2-3.5.8-4.1 2.7zM6.8 17.8l8.6 10.1L10.1 16c-1.4.1-2.6.8-3.3 1.8zm3.8-1.8c2.1 3.7 4.3 7.7 6.4 11.2-.7-3.1-1.5-8.3-2.6-9.7-1.3-1.7-3.8-1.5-3.8-1.5zm6.4-1.2c-1 .8-1.7 2-1.5 3.3l3.2 8.8-.6-12.7c-.4 0-.8.3-1.1.6zm1.5-.8l1.8 12.7L22.2 14c-1.1-.4-2.5-.4-3.7 0zM54.1 33.5h1.7V23.4h-1.7v10.1zm9.5-2.9c0-1.4-.9-2.4-2.7-3-1.4-.5-2-.8-2-1.7 0-.6.6-1.3 1.9-1.3.8 0 1.7.3 2.1.5v-1.4c-.4-.2-1.3-.5-2.1-.5-2.2 0-3.6 1.2-3.6 2.8 0 1.5 1.1 2.4 2.8 3 1.3.5 1.9.9 1.9 1.7 0 .8-.8 1.4-2 1.4-.9 0-2.1-.3-2.7-.8v1.6c.5.3 1.6.6 2.7.6 2.5.2 3.7-1.3 3.7-2.9zm10-1.3h.9c.8 1.2 2.5 4.3 2.5 4.3h2l-2.7-4.4c.6-.2 1.1-.4 1.4-.7.5-.5 1-1.2 1-2.1 0-1-.4-1.7-1-2.1-.6-.5-1.4-.8-2.9-.8h-3V32.1h-5.4v-2.9h3.1v-1.4h-3.1v-2.9h3.9v-1.4h-5.5v10.1h8.8v-4.3zm0-1.6v-2.8h1.5c1.3 0 1.8.5 1.8 1.4 0 1-.5 1.4-1.8 1.4h-1.5zm-22.8 2.9l1 2.9h1.8l-3.5-10.1h-2.2l-3 8.6-2.9-3.6 3.9-4.9h-2l-3.6 4.8v-4.8h-1.7v10.1h1.7v-4.9l3.7 4.9h2.1l1-2.9h3.7v-.1zM48.9 25l1.4 4.2h-2.8l1.4-4.2zM113.5 30.7l-1.7-7.4h-3.1v10.2h1.7v-8.7l2.2 8.7h1.8l2.2-8.7v8.7h1.7V23.4h-3l-1.8 7.3zm57 .1c0-1.3 1-2.2 2.2-2.2 1.3 0 2.2 1 2.2 2.2 0 1.3-1 2.2-2.2 2.2-1.2.1-2.2-.9-2.2-2.2zm2.3 2.8c1.5 0 2.7-1.2 2.7-2.7 0-1.6-1.3-2.7-2.7-2.7-1.5 0-2.7 1.2-2.7 2.7 0 1.5 1.2 2.7 2.7 2.7zm-.6-2.6h.6l.8 1.4h.6l-1-1.4c.5-.1.9-.3.9-.9 0-.6-.4-.9-1.2-.9h-1.2v3.1h.5V31zm0-.4v-1h.7c.3 0 .7.1.7.5 0 .5-.4.5-.8.5h-.6zm-81.1-6.5c-.6-.5-1.4-.8-2.9-.8h-3v10.2H87v-4.2h1.2c1.4 0 2.3-.2 2.9-.8.5-.5 1-1.3 1-2.3 0-.8-.4-1.5-1-2.1zm-2.6 3.7H87v-3h1.4c1.4 0 1.9.6 1.9 1.4 0 1-.6 1.6-1.8 1.6zm17.6.6c.5-.5 1-1.2 1-2.2 0-.9-.5-1.7-1-2.1-.6-.5-1.4-.8-3-.8h-2.9V32h-5.4v-2.8H98v-1.5h-3.1v-2.8h3.8v-1.5h-5.5v10.2h8.9v-4.3h.8c.8 1.3 2.6 4.3 2.6 4.3h2l-2.7-4.5c.6-.1 1-.4 1.3-.7zm-4.1-.6v-2.9h1.4c1.4 0 1.9.5 1.9 1.4 0 1-.5 1.5-1.9 1.5H102zm50.7-4.4h-.3v7.9l-4-7.9H146V32h-5.3v-2.8h3.1v-1.5h-3.1v-2.8h3.8v-1.5H139v10.2H147.8v-7.7l4 7.7h2.4v-8.7h3.1v8.7h1.7v-8.7h3l-.1-1.5h-9.2zm16 8.6h-4.2v-2.8h3v-1.5h-3v-2.8h3.8v-1.5h-5.5v10.2h5.9V32zm-33.2-.8l-4-7.8h-2.4v10.2h1.7v-7.7l4 7.7h2.4V23.4h-1.7v7.8zm-12.8-7.8l-3.5 10.2h1.7l.9-3h3.7l1 3h1.8l-3.5-10.2h-2.1zm-.4 5.8l1.4-4.2 1.4 4.2h-2.8z"/></g></svg><svg viewBox="-1 -1 198.6 198.9" enable-background="new 0 0 196.6 196.9" width="198.6" height="198.9" id="partner-w-healthcaregov" y="1352"><g fill="#BCBEC0"><path d="M81.5 23.4C40.2 32.7 14 73.8 23.3 115.2c9.3 41.4 50.4 67.5 91.8 58.2 41.4-9.3 67.5-50.4 58.2-91.8-9.3-41.3-50.4-67.4-91.8-58.2zm32.2 143.8c-38 8.5-75.7-15.4-84.2-53.4s15.4-75.7 53.4-84.2S158.6 45 167.1 83s-15.4 75.7-53.4 84.2zM184.3 86.5l10.1-9.6-13.3-4.4 8.4-11.1-13.8-2.1 6.5-12.4-14 .2 4.3-13.3-13.7 2.5 2.1-13.8-13.2 4.7-.2-14-12.1 6.8-2.5-13.7L122 15l-4.7-13.2-9.3 10.4L101 0l-7.5 11.8L84.8.9l-5.4 12.9-10.5-9.3L65.7 18l-11.8-7.5-1 13.9L40 19.1 41.3 33l-13.6-3.2 3.6 13.5-13.9-.9L23.2 55 9.3 56.4 17.1 68 3.6 71.6l9.6 10.2L.4 87.6 11.6 96 0 103.8l12.4 6.5-10.1 9.6 13.3 4.4-8.4 11.1 13.8 2.1-6.6 12.5 14-.2-4.4 13.3 13.7-2.5-2.1 13.8 13.2-4.7.2 14 12.2-6.8 2.5 13.7 10.9-8.7 4.7 13.2 9.3-10.4 6.8 12.2 7.5-11.8 8.8 10.9 5.4-12.9 10.4 9.3 3.3-13.6 11.8 7.5 1-13.9 12.9 5.4-1.3-13.9 13.6 3.2-3.6-13.5 13.9.9-5.8-12.7 13.9-1.3-7.8-11.6 13.5-3.6-9.6-10.2 12.7-5.8-11.1-8.4 11.6-7.8-12.2-6.6zM115.4 175c-42.2 9.4-84.2-17.2-93.7-59.4C12.3 73.4 39 31.4 81.2 21.9c42.2-9.4 84.2 17.2 93.7 59.4 9.4 42.2-17.3 84.2-59.5 93.7z"/></g><g fill="#BCBEC0"><path d="M41.6 97l-2 .4-.5-12.3 2.5-.6 4.8 11.3-2 .4-.9-2.5-2.2.5.3 2.8zm-.3-4.6l1.6-.4-1.9-4.8.3 5.2zM51.1 85.6l2 8.8-1.7.4-.2-.9c-.6.8-.9 1.3-2 1.5-1 .2-1.7-.4-2-1.5l-1.6-7.1 1.8-.4 1.5 6.8c.1.4.4.6.8.5.4-.1.7-.4 1.1-.8L49.3 86l1.8-.4zM52.5 86.9l-.3-1.5 1-.2-.5-2.4 1.8-.4.5 2.4 1.2-.3.3 1.5-1.2.3 1.1 5.1c.1.5.4.7.8.6l.6-.1.4 1.6c-.2.1-.4.2-.9.3-1.4.3-2.3-.2-2.6-1.5l-1.2-5.5-1 .1zM59.4 93l-2.6-11.8 1.8-.4.9 3.8c.5-.7.8-1.2 1.9-1.5 1-.2 1.7.4 2 1.5l1.6 7.1-2 .5-1.5-6.8c-.1-.4-.4-.6-.8-.5-.4.1-.7.4-1.1.8l1.5 6.9-1.7.4zM65.3 85.7c-.4-1.9 0-3.4 2.1-3.9s3.1.7 3.6 2.6l.6 2.6c.4 1.9 0 3.4-2.1 3.9s-3.1-.7-3.6-2.6l-.6-2.6zm3.8-1.2c-.2-1-.7-1.4-1.3-1.2-.7.1-.9.7-.7 1.7l.7 3.2c.2 1 .7 1.4 1.3 1.2.7-.1.9-.7.7-1.7l-.7-3.2zM73.9 89.7l-2-8.8 1.7-.4.2 1c.3-.9.9-1.5 1.8-1.7l.4-.1.4 1.9c-.3 0-.7 0-1.2.1-.6.1-1.1.7-1 1.5l1.4 6.1-1.7.4zM77.1 78.4l-.4-1.7 1.8-.4.4 1.7-1.8.4zm2.3 10.1l-2-8.8 1.8-.4 2 8.8-1.8.4zM81.2 80.4l-.3-1.5 5.2-1.2.3 1.5-2.1 6.6 3.4-.8.3 1.5-5.4 1.2-.3-1.5 2.1-6.5-3.2.7zM94 81l-3.9.9.3 1.3c.2 1 .7 1.4 1.3 1.2.7-.1.9-.7.7-1.7v-.2l1.8-.4c.4 1.9-.1 3.3-2.1 3.8-2.1.5-3.1-.7-3.6-2.6l-.5-2.7c-.4-1.9 0-3.4 2.1-3.9s3.1.7 3.6 2.6L94 81zm-2.1-1.1l-.1-.5c-.2-1-.7-1.4-1.3-1.2-.7.1-.9.7-.7 1.7l.1.5 2-.5zM100.4 83.8l-.2-.9c-.4.9-.8 1.3-1.7 1.5-1.1.3-2.1-.4-2.4-2L95 78.2c-.4-1.6.2-2.6 1.3-2.9.8-.2 1.3.1 2.1.5l-.8-3.8 1.8-.4 2.6 11.8-1.6.4zm-1.7-7c-.4-.2-.8-.3-1.1-.2-.5.1-.8.5-.6 1.6l.7 3.3c.3 1.2.7 1.3 1.2 1.2.4-.1.6-.3.9-.7l-1.1-5.2zM107.6 82.2L105 70.4l2.9-.7c2.5-.6 3.9.1 4.4 2.7.6 2.5-.4 3.7-2.9 4.3l-.9.2 1.1 4.8-2 .5zm.6-7l.8-.2c1.3-.3 1.6-.8 1.3-2.2-.3-1.4-.8-1.7-2.1-1.4l-.8.2.8 3.6zM114.1 74.2c-.3-1.8.6-3 2.3-3.4 1.7-.4 2.8.2 3.2 1.8l1.3 5.6.3.9-1.7.4c-.1-.2-.2-.5-.3-.7-.6.7-1.1 1.1-2 1.3-1.2.3-2.1-.4-2.3-1.6-.4-1.9.6-3.3 3-4.9l-.1-.5c-.2-.7-.5-1.1-1.2-.9-.8.2-.9.7-.8 1.5l-1.7.5zm4.1.9c-1.5 1.3-1.7 2-1.6 2.8.1.6.5.7 1 .6.5-.1.8-.6 1-1.1l-.4-2.3zM122.9 78.7l-2-8.8 1.7-.4.2 1c.3-.9.9-1.5 1.8-1.7l.4-.1.4 1.9c-.3 0-.7 0-1.2.1-.6.1-1.1.7-1 1.5l1.4 6.1-1.7.4zM126 70.4l-.3-1.5 1-.2-.5-2.4 1.8-.4.5 2.4 1.2-.3.3 1.5-1.2.3 1.1 5.1c.1.5.4.7.8.6l.6-.1.4 1.6c-.2.1-.4.2-.9.3-1.4.3-2.3-.2-2.6-1.5l-1.2-5.5-1 .1zM132.9 76.5l-2-8.8 1.7-.4.2.9c.6-.8.9-1.3 2-1.5 1-.2 1.7.4 2 1.5l1.6 7.1-1.8.4-1.5-6.8c-.1-.4-.4-.6-.8-.5-.4.1-.7.4-1.1.8l1.5 6.9-1.8.4zM144.9 69.6l-3.9.9.3 1.3c.2 1 .7 1.4 1.3 1.2.7-.1.9-.7.7-1.7v-.2l1.8-.4c.4 1.9-.1 3.3-2.1 3.8-2.1.5-3.1-.7-3.6-2.6l-.6-2.6c-.4-1.9 0-3.4 2.1-3.9s3.1.7 3.6 2.6l.4 1.6zm-2.2-1.1l-.1-.5c-.2-1-.7-1.4-1.3-1.2-.7.1-.9.7-.7 1.7l.1.5 2-.5zM147.4 73.3l-2-8.8 1.7-.4.2 1c.3-.9.9-1.5 1.8-1.7l.4-.1.4 1.9c-.3 0-.7 0-1.2.1-.6.1-1.1.7-1 1.5l1.4 6.1-1.7.4z"/></g><g fill="#BCBEC0"><path d="M54.9 134.3l-1.1-4.9-5.8 1.3 1.1 4.9-2 .4-2.5-11.2 2-.4 1 4.6 5.8-1.3-1-4.6 2-.4 2.5 11.2-2 .4zM57.8 129.4c-.5-2.3.8-4.6 3.2-5.2 2.4-.5 4.4 1 5 3.5l.1.4-6.2 1.4c.4 1.2 1.6 2 3.1 1.7.8-.2 1.7-.7 2.1-1.4l1.1 1c-.6 1-1.7 1.6-3 1.9-2.6.6-4.8-.7-5.4-3.3zm3.5-3.7c-1.5.3-1.9 1.6-1.8 2.7l4.6-1c-.3-1-1.2-2.1-2.8-1.7zM73.5 130.2l-.2-.9c-.4.8-1.3 1.4-2.4 1.7-1.3.3-3-.3-3.4-2.1-.4-1.9.9-3 2.2-3.3 1.1-.2 2.1-.1 2.8.5l-.3-1.2c-.2-.9-1.1-1.3-2.2-1.1-.9.2-1.6.7-2.2 1.6l-1-1.1c.7-1.1 1.8-1.8 3.1-2.1 1.8-.4 3.5 0 4 2.2l1.2 5.4-1.6.4zm-.4-1.9l-.3-1.2c-.5-.5-1.3-.6-2.1-.4-1 .2-1.6 1-1.4 1.8.2.9 1.1 1.3 2 1.1.8-.2 1.5-.6 1.8-1.3zM77.5 129.3L75 118.1l1.8-.4 2.5 11.2-1.8.4zM81.5 126.4l-1-4.7-1.3.3-.3-1.5 1.3-.3-.5-2.2 1.8-.4.5 2.2 1.6-.4.3 1.5-1.6.4.9 4.2c.1.6.5.9 1 .8.3-.1.6-.3.7-.5l.7 1.2c-.3.4-.7.7-1.5.9-1.4.4-2.3-.2-2.6-1.5zM92.4 125.9l-1.1-5.1c-.3-1.3-1-1.5-2-1.3-.9.2-1.5.9-1.8 1.6l1.3 5.6-1.8.4-2.6-11.1 1.8-.4.9 4.2c.4-.8 1.3-1.7 2.6-1.9 1.7-.4 2.8.3 3.2 2l1.3 5.7-1.8.3zM94.7 119.6c-.8-3.4 1.3-6.4 4.6-7.1 2.3-.5 3.9.4 5.1 1.5l-1.5 1.2c-.7-.8-2-1.3-3.2-1-2.2.5-3.5 2.6-2.9 4.9.5 2.3 2.5 3.7 4.8 3.2 1.2-.3 2.1-1.2 2.5-2.3l1.9.5c-.6 1.5-1.7 3-3.9 3.5-3.5.8-6.6-1-7.4-4.4zM112.8 121.4l-.2-.9c-.4.8-1.3 1.4-2.4 1.7-1.3.3-3-.3-3.4-2.1-.4-1.9.9-3 2.2-3.3 1.1-.2 2.1-.1 2.8.5l-.3-1.2c-.2-.9-1.1-1.3-2.2-1.1-.9.2-1.6.7-2.2 1.6l-1-1.1c.7-1.1 1.8-1.8 3.1-2.1 1.8-.4 3.5 0 4 2.2l1.2 5.4-1.6.4zm-.5-1.9l-.3-1.2c-.5-.5-1.3-.6-2.1-.4-1 .2-1.6 1-1.4 1.8.2.9 1.1 1.3 2 1.1.9-.2 1.6-.6 1.8-1.3zM116.8 120.5l-1.8-8.1 1.8-.4.3 1.2c.4-.9 1.3-1.7 2.3-2l.4 1.7c-.2 0-.3 0-.6.1-.7.2-1.6.9-1.8 1.5l1.2 5.5-1.8.5zM121.2 115.2c-.5-2.3.8-4.6 3.2-5.2 2.4-.5 4.4 1 5 3.5l.1.4-6.2 1.4c.4 1.2 1.6 2 3.1 1.7.8-.2 1.7-.7 2.1-1.4l1.1 1c-.6 1-1.7 1.6-3 1.9-2.6.6-4.8-.7-5.4-3.3zm3.5-3.7c-1.5.3-1.9 1.6-1.8 2.7l4.6-1c-.3-1-1.2-2-2.8-1.7zM131.7 116.5c-.1-.4.2-.8.6-.9.4-.1.8.2.9.6.1.4-.2.8-.6.9-.3.1-.8-.2-.9-.6zM136.1 118.3l.4-.8c.9.7 1.7.8 2.9.5 1.5-.3 2.6-1.4 2.2-3.2l-.3-1.3c-.4.9-1.3 1.9-2.5 2.1-2.1.5-4-.8-4.6-3.4-.6-2.6.5-4.6 2.7-5 1.2-.3 2.3.1 3.2.9l-.3-1.3.9-.2 1.8 8c.6 2.5-.9 3.7-2.9 4.2-1.4.3-2.3.3-3.5-.5zm5.1-5.5l-.9-3.9c-.6-.7-1.9-1.1-3-.9-1.8.4-2.5 2.1-2.1 4.1.4 2 1.8 3.2 3.6 2.8 1.1-.3 2.1-1.2 2.4-2.1zM143.8 110.2c-.5-2.4.6-4.6 2.9-5.1 2.4-.5 4.3 1 4.9 3.4s-.6 4.6-3 5.1c-2.3.5-4.2-1.1-4.8-3.4zm6.9-1.6c-.4-1.8-1.8-3.2-3.7-2.8-1.9.4-2.6 2.3-2.2 4.1.4 1.8 1.8 3.2 3.7 2.8 1.9-.4 2.6-2.3 2.2-4.1zM157 111.5l-5.2-7.3 1-.2 4.5 6.4 1.3-7.7 1-.2-1.6 8.9-1 .1z"/></g><g fill="#BCBEC0"><path d="M99.5 100.4c0-.1.1-.2.4-.3.1 0 .2-.1.3-.1h.1c-.1 1.3-.6 2.1-1.4 2.4-.3.1-.6.2-1 .2-.2.5-.5.8-.9 1.1-.6.4-1.1.5-1.6.4-.6-.1-1-.5-1.2-1.2-.3-.9-.5-1.7-.4-2.6.1-1 .4-1.7 1-2.3.3-.3.6-.5.9-.6.4-.2.8-.2 1 0l-.1.1-.2.2c-.2.2-.4.2-.5.2-.3-.2-.5-.2-.7 0-.2.2-.3.5-.4.9-.2.7-.3 1.3-.3 1.8.1 1.3.4 2.2.8 2.6.5.5.9.6 1.2.5.3-.1.5-.5.7-1.1-.5-.1-.9-.4-1.3-.7-.4-.4-.6-.8-.7-1.3-.1-.6 0-1.2.3-1.6.3-.5.7-.8 1.3-.9.5-.2.9.1 1.1.8.1.4.2 1 .2 1.6 0 .7 0 1.2-.2 1.7.6.2 1 0 1.1-.5.4-.4.5-.9.5-1.3zm-3 .9c.2.2.5.4.8.6.1-.7.1-1.2 0-1.7s-.1-.8-.2-1c-.1-.4-.3-.7-.6-.7-.3-.1-.5 0-.6.3-.1.2-.1.5-.1.9 0 .3.1.7.2 1 .3.2.4.5.5.6zM96.2 104.2c-.3.1-.6.1-.9 0-.6-.1-1-.6-1.3-1.3-.3-.9-.5-1.8-.4-2.6.1-1 .4-1.8 1-2.4.3-.3.6-.5 1-.6.5-.2.9-.2 1.2 0 .1.1 0 .3-.1.3-.1.1-.2.1-.2.2-.3.2-.5.2-.6.2-.2-.2-.3-.2-.5 0-.2.1-.3.4-.4.8-.2.7-.3 1.3-.3 1.8.1 1.2.4 2.1.8 2.5.4.4.8.6 1.1.4.2-.1.4-.4.6-.9-.5-.1-.9-.4-1.2-.7-.4-.4-.6-.9-.7-1.4-.1-.7 0-1.2.3-1.7s.8-.8 1.4-1c.4-.1 1-.1 1.3.9.2.5.2 1 .3 1.7 0 .6 0 1.2-.1 1.6h.4c.2 0 .3-.2.4-.4.2-.4.3-.9.3-1.3 0-.2.2-.3.5-.4.2-.1.4-.2.5-.1h.1v.1c-.1 1.3-.6 2.2-1.5 2.5-.3.1-.6.2-.9.2-.2.4-.5.8-.9 1.1-.7.3-1 .5-1.2.5zm-1.3-6.1c-.1 0-.1 0 0 0-.6.6-1 1.4-1 2.3-.1.8.1 1.7.4 2.5.2.6.6 1 1.1 1.1.3.1.7 0 1-.1-.4.1-.7-.1-1.2-.6s-.8-1.4-.9-2.7c0-.5.1-1.2.3-1.9.1-.3.2-.5.3-.6zm1 .6l-.3.3c-.3.4-.4.9-.3 1.5.1.5.3.9.6 1.3.3.3.7.6 1.2.7h.1v.1c-.1.5-.3.9-.6 1.1 0 0 .1 0 .1-.1.4-.2.7-.6.8-1v-.1h.1c.3 0 .5 0 .8-.1-.2 0-.4 0-.6-.1h-.1v-.1c.1-.5.2-1 .2-1.7 0-.6-.1-1.2-.2-1.6-.3-.8-.6-.8-.9-.8h-.1c-.2 0-.3.1-.5.2h.2c.3.1.5.3.7.8.1.2.1.5.2 1s.1 1.1 0 1.8v.2l-.2-.1c-.4-.2-.6-.4-.8-.6-.1-.1-.2-.4-.4-.7-.1-.4-.2-.7-.2-1 .1-.5.1-.8.2-1zm4.2 1.5s-.1 0-.2.1c-.3.1-.3.2-.3.2 0 .4-.1.9-.3 1.4-.1.2-.2.3-.3.4.6-.5 1-1.1 1.1-2.1zm-3.7-1.6c-.1 0-.2.1-.2.2-.1.2-.1.4 0 .8 0 .3.1.6.2 1s.2.5.3.6c.1.2.3.3.6.5.1-.6.1-1.1 0-1.5-.1-.5-.1-.8-.2-1-.1-.4-.3-.6-.5-.6h-.2zm-.8-1c.1 0 .2.1.3.2.1 0 .1-.1.3-.2.1 0 .1-.1.2-.1-.2-.1-.4-.1-.8.1zM103.7 99.4c0-.1.1-.2.4-.3.3-.1.4-.1.4.2-.1.7-.3 1.3-.5 1.8-.3.6-.8 1-1.5 1.4.6.7.9 1.4 1 2.2.1.9-.2 1.6-.9 2.1-.5.4-.9.5-1.3.3-.4-.1-.6-.5-.8-1.1-1-3.8-1.4-7.5-1.2-10.9.1-.9.1-1.5.2-2 .2-.7.5-1.3.9-1.7.2-.2.5-.4.9-.5.4-.2.8-.2 1 0 .4.4.6 1.1.6 2.2 0 .4-.1 1.2-.3 2.3-.3 1.9-.8 4-1.5 6.3 0 .1-.2.2-.4.3.1.6.2 1.2.3 1.7 0 .1.1.3.1.6s.1.5.1.7c.1.6.3 1 .5 1.2.3.3.5.4.6.3.1-.1.2-.3.3-.7.1-.8 0-1.5-.2-1.9-.3-.5-.5-.9-.8-1.1 0 0 0-.1.3-.3.2-.1.3-.2.4-.2.4-.3.7-.7 1-1.1.2-.6.4-1.2.4-1.8zm-3.5-3.9c0 1.8.1 3.7.4 5.6.9-3.2 1.4-5.6 1.5-7.4 0-.5-.1-1.1-.3-1.8-.3-.9-.6-.9-1 0-.5.9-.6 2.1-.6 3.6zM102 107.3h-.6c-.4-.1-.7-.5-.9-1.2-1-3.8-1.4-7.5-1.2-10.9.1-.9.1-1.6.2-2 .2-.8.5-1.4.9-1.8.2-.2.6-.4.9-.6.5-.2.9-.2 1.1.1.5.4.7 1.2.6 2.3 0 .4-.1 1.2-.3 2.4-.3 1.9-.8 4-1.5 6.3 0 .1-.2.2-.4.3.1.6.2 1.1.3 1.6 0 .1.1.3.1.6s.1.5.1.7c.1.6.3 1 .5 1.2.2.3.4.3.4.3.1 0 .2-.2.2-.6.1-.8 0-1.4-.2-1.8-.3-.5-.5-.9-.8-1.1v-.1c0-.1.1-.2.3-.3.2-.1.3-.2.4-.2.4-.3.7-.7.9-1.1.3-.6.5-1.2.5-1.8 0-.2.2-.3.5-.4.2-.1.4-.1.5 0 .1.1.1.2.1.3-.1.7-.3 1.3-.5 1.9-.3.6-.8 1-1.4 1.4.5.7.8 1.4.9 2.1.1 1-.2 1.7-.9 2.2-.2 0-.5.1-.7.2zm-1.2-15.9l-.2.2c-.4.4-.7 1-.9 1.7-.1.4-.2 1.1-.2 1.9-.2 3.4.2 7 1.2 10.8.1.5.4.9.7 1 .3.1.7 0 1.1-.3.6-.5.9-1.1.8-2-.1-.8-.4-1.5-1-2.1l-.1-.1s-.1.1-.4.2c-.1 0-.1.1-.2.1.2.3.5.6.7 1.1.3.5.3 1.1.3 2 0 .4-.1.7-.3.8-.2.2-.5.1-.8-.3-.2-.3-.4-.7-.5-1.3 0-.2-.1-.4-.1-.7 0-.3-.1-.5-.1-.6-.1-.5-.2-1.1-.3-1.8v-.1h.1c.3-.1.3-.2.3-.2.7-2.3 1.2-4.4 1.5-6.2.2-1.2.3-2 .3-2.3.1-1-.1-1.7-.5-2.1-.2-.2-.4-.1-.8 0 0 0-.1 0-.1.1.3.1.4.4.5.7.3.7.4 1.4.3 1.9-.1 1.8-.6 4.3-1.5 7.5l-.2.6-.1-.7c-.3-2-.4-3.9-.4-5.6 0-1.5.2-2.8.6-3.7.2-.3.2-.4.3-.5zm3.5 7.8h-.1c-.3.1-.3.2-.3.2 0 .6-.2 1.2-.5 1.9-.2.4-.5.7-.8 1 .7-.3 1.1-.8 1.4-1.3.1-.5.3-1.1.3-1.8.1 0 .1 0 0 0 .1 0 .1 0 0 0zm-3.1-7.8s-.2.1-.4.6c-.4.9-.5 2.1-.5 3.6 0 1.6.1 3.2.3 4.9.8-2.8 1.2-5.1 1.3-6.7 0-.5-.1-1.1-.3-1.8-.2-.5-.3-.6-.4-.6zM87 102.9l-31.1 7c-.3.1-.6-.1-.7-.4-.1-.3.1-.6.4-.7l31.1-7c.3-.1.6.1.7.4.1.3-.1.6-.4.7zM142.3 90.5l-31.1 7c-.3.1-.6-.1-.7-.4-.1-.3.1-.6.4-.7l31.1-7c.3-.1.6.1.7.4.1.3-.1.6-.4.7z"/></g></svg><svg viewBox="-1 -1 283.2 45.3" enable-background="new 0 0 281.2 43.3" width="283.2" height="45.3" id="wsj-blue" y="1551"><g fill-rule="evenodd" clip-rule="evenodd"><path fill="#0391D8" d="M51 7.9c.3.1.5.2.4.6-.1.7-1.1.4-1.7.6-1.4.5-.9 2.3-1.1 3.6V31.1c0 .7-.1 1.6.5 1.9.4.6 1.5.2 2.2.3 1.1-.2 1.6-1.4 2.3-2 .3-1 .7-1.9.9-2.9.6-1.9.3-4.3.9-6.2.4-.1.5.2.6.5v10.4c.2.3-.1.7-.1 1l-.8.2H44.8c-.4-.1-.9 0-1.1-.4.1-1 1.8-.6 1.8-1.8V19c-.1-1.7 0-3.8 0-5.4 0-1.6.5-3.7-.7-4.6-.5-.5-2 .3-1.8-.7 0-.2.1-.3.4-.4H51zM88.4 9.3c.4.3.8 0 1-.1.4-.4 0-1.3.7-1.2l.5.1v9.8c-.2.1 0 .7-.3.7h-.6c-.2-3.5-.5-7.2-3.1-8.9-.5-.3-1-.5-1.6-.5-1.1.1-1.8.9-2.2 1.8-.7 1-.5 3 .1 3.9 1.4 2 3.6 3.1 5.3 4.7 1.7 1.8 3.6 3.6 3.7 6.6.3 3.3-.8 6-3 7.7-1.2.8-3.1.9-4.5.4l-2-1.3c-.5-.2-.6.3-.7.5 0 .6-.1.9-.5 1.1l-.7-.2.2-5.4v-6.1c.2-.1.7-.1.8 0 .2 3.8.3 7.8 3.1 9.8.8.6 1.9 1 3.1.7 1.8-.7 2.4-2.7 2.4-4.9-.2-1.9-.9-3.3-2.2-4.3-1.8-2.1-4.4-3.3-6.1-5.6-.5-.6-.5-1.3-.8-2-.9-3.1.3-6.2 2.1-8 .8-.6 2.1-.9 3.3-.7.7.4 1.5.9 2 1.4zM14.7 8c.2.1.5.1.6.5-.3.7-1.1.7-1.4 1.2-.3.6-.3 1.6-.1 2.2l1.1 6.6c.5 2.1.9 4.4 1.5 6.5h.3c.7-3.2 1.3-6.3 1.9-9.5-.6-2.4-.1-5.7-2.3-6.8-.3-.4 0-.7.4-.7 1.3.1 5.5 0 6.5.1.1.2.1.6 0 .7-.7.3-1.6.2-2.1.8-1 1.7.4 3.5.3 5.4l1.1 5.9c.3 1.3.3 2.9 1 3.9h.1l1.4-6.1c.7-2.5 1.1-5.2 1.7-7.8.2-.8-.1-1.4-.7-1.8-.4-.4-1-.3-1.6-.4-.1-.2-.1-.6 0-.7 1.4 0 5.7-.1 6.2 0 .3.1.2.6.1.7-.8.2-1.7.4-2.1.9-.6 1.5-.8 3.1-1.2 4.6L26 21.6c-.9 4-2 8.1-2.9 12.2-.2.3-.7.3-.8.1-.6-.7-.6-2-.8-3l-1.4-8-.7-3.4H19L17.9 25c-.6 2.7-1.1 5.4-1.7 8.2-.1.6-.5.9-1.2.7-.7-.2-.4-1-.6-1.6l-.5-3-1.4-7.4-.9-5.3c-.3-2.1-.8-4.3-1.3-6.3-.1-.6-.7-.9-1-1.3-.6 0-1.2.2-1.8-.1-.2-.2-.3-.8.1-.9h7.1zM35.9 8.7c.4 2.5 1.1 4.8 1.5 7.4l2 9.6c.5 2.1.7 4.3 1.2 6.2.3.8.8 1.4 1.8 1.5 0 .3.3.5.1.7l-.3.3h-5.5c-.2-.3-1.1 0-1.5-.3-.3-1.4 1.8-.3 2-1.3.5-.5.3-1.4.2-2-.5-.9-.1-2.5-1-3.2h-3.7l-.4.2c-.1 1.7-1.3 3.5-.3 5.2.4.3 1.1.2 1.4.5l-.2.5-5.3.1c-.6.2-.5-.7-.3-.8 1.1.1 1.8-.5 2.3-1 .7-1.5.7-3.4 1.1-5l1-6.5.9-5.4c.5-2.2.7-4.6 1.2-6.9.2-.6 2-.9 1.8.2zM65.4 8c.1.2.3.6.1.7-.8.4-2.2 0-2.4 1-.2 2.9-.2 5-.2 7.9L62.8 29h-.1c.6 1.4-.7 4.2 1.3 4.3.5.1 1.4.1 1.9-.2 1.9-1.5 2.4-4 2.8-6.5.3-1.3.1-2.9.5-4.2.2-.1.6-.1.7 0v11.4l-.1.5c-1.5 0-3.1 0-4.2.1l-5.3-.1h-2.9c-.5 0-.3-.7-.2-.9.9-.1 2.1 0 2.5-.7.4-1.4.1-3.3.3-4.8-.2-1.3.1-2.7-.1-4.2l.1-1.2v-12c-.1-.5-.4-1-.7-1.3-.6-.7-2.8.3-2-1.2h8.1zM104.9 8.1l.2.5v10.7c-.1.3-.3.4-.5.5l-.5-.2c.1-3.4-.4-6.3-1.3-9-.2-.6-.7-1-1.2-1.3-.5 0-.9 0-1.1.4v19.8h-.1c.1 1.4-.2 3.2.8 3.8.7.5 1.8-.3 1.9.7 0 .7-1 .2-1.5.5h-2.1v-.1c-.7.3-1.3-.2-1.9.1-.6-.1-1.8-.1-2.6-.1-.3-.1-.2-.7-.1-.8 1-.2 2.1-.3 2.5-1.4V9.8c-.2-.5-.5-.6-.8-.7-1.4.4-1.8 1.9-2.1 3.3-.5 2.1-.8 4.1-.7 6.6-.2.3 0 .7-.5.7l-.6-.2V8.3c1.3-.4 9.3-.3 12.2-.2zM116 8.1c1.6.5 2.9 1.5 3.6 2.9.7 2.1 1 5.4-.3 7.2-.7.9-1.4 1.8-2.4 2.4-.2.7.5.7.8 1.2 1.3.9 1.5 3.1 1.5 4.8 0-.2-.2-.4-.3-.2-.1.3.1.5.4.5.1 1.6-.2 3.4.2 4.8.1.3.3.5.6.6.5-.1.6-.6.7-.8-.1-.8.1-1.8.2-2.6.3.2.6-.4.7 0 .2 2.1.1 4.4-1.3 5.4-.6.4-1.1.6-2 .5-.9-.3-1.6-.8-2.1-1.6l-.3-1.8v-6.7c-.3-1.3-.6-2.7-1.9-3.1-.6-.2-1.5-.4-2 0l-.2.4v10.4c.2.6.4 1 .8 1.2.5.1 1.1 0 1 .7l-.2.3-4.9.1c-.2 0-.5-.2-.6 0-.5-.4-2.1.5-1.7-.7 0-.7.8-.2 1.2-.5.5-.1.7-.6 1-.8 0-.5.3-1 .1-1.5l.1-5.4c0-2.2-.1-4.4 0-6.3 0-1.4 0-3.4-.1-4.9.1-.9 0-2.3.1-3.3-.2-.8-.4-1.7-1.1-2-.5-.2-1.3.1-1.5-.4-.1-.4 0-.7.4-.7h9.5v-.1zM135.6 8.1c.7.3.3 1.6.4 2.2.3 1.5-.2 3.2.1 4.5-.3.6.1.9 0 1.5-.2.7 0 1.6-.2 2.1-1.3.1-.7-1.6-.8-2.4-.3-2.9-1.3-5.5-3.7-6.7-.8-.3-2.2-.3-2.8.4-.6 1.7-.3 4.5-.3 6.1-.2.6.1.7 0 1.4v2.6c.1.3-.1 1 .6.9 2.2-1 2.5-3.6 2.5-6.2 0-.4.2-.6.7-.5l.1.6c-.2 1.2.2 2.7-.1 4 0 1.3 0 3.1.1 4.5-.1 1.7-.1 3.2 0 4.9 0 .4-.2.6-.6.6-.7-.6-.2-2.1-.5-3-.4-1.6-.7-3.5-2.5-3.8l-.3.2c-.2 2.1-.1 3.5-.1 5.4 0 1.7.1 3.8 0 5.5.6 1.1 2 .7 3.3.7 2.3-1 3.2-3.8 3.6-6.4l1.1.3v6.9l-.3.3-10.8.1c-.7-.2-2.1.1-2.8-.2-.3-1.5 1.5-.5 2.1-1 .4-.2.6-.6.7-.9v-22c-.2-.5-.5-.9-.8-1.1-.7-.3-2.1.3-2-.8l.2-.3h13.1v-.4zM149.2 8.1c.5.3 1.8-.2 2.1.4 0 3.5.1 6.4 0 9.8-.1.3-.6.3-.7.1-.4-3.6-.3-7.9-3.6-9.2-.7-.3-1.6.1-2.3.1-.5.5-.8.8-.8 1.6v9c.1.3.2.5.5.5 2.5-.7 2.3-3.7 2.7-6.2.1-.2.6-.2.7 0V18c.2.2 0 .2 0 .6.2.8 0 1.5.1 2.5v2.5c-.3 1.4.1 3.2-.3 4.5-.2.2-.6.1-.7-.2-.2-2.1-.2-4.9-1.9-6.2-.2-.2-.7-.2-1 0l-.2.7v6.1h.1c.1 1.5-.6 3.9.6 4.9.7.4 1.8.5 2.7.3 2.1-.7 2.6-2.8 3.4-4.7-.2-.7.3-1.5.3-2.3l.2-3c.2-.2.4-.3.7-.1l.2.2c-.3 1.4.6 3.6-.7 4.2-.1.4-.6.4-.6.8.4-.4.8-.7 1.2-1.3h.2l-.1 5.4c-.2.7.3 1.7-.5 1.9-1.6.2-3.1.1-4.7.1-3-.2-5.8-.1-8.7-.1-.3-.1-.3-.7-.1-.8.8-.3 2-.1 2.5-.9.8-.7.4-2.5.5-3.7.1-2.1-.2-4.8 0-6.6l-.1-5.3v-6.6c-.3-.7-.8-1.4-1.8-1.4-.6 0-1.2.1-1-.7-.1-.8 9.6-.7 11.1-.7zM196.7 10.8c1.2 1.7 1.6 4.1 2.1 6.4.7 4.9.2 10.4-1.7 14-.7 1.4-1.8 2.4-3 3.2-1.1.3-2.8.4-3.5-.4-3.5-3.3-4.4-8.4-4.3-14.4.2-4 1.4-7.8 3.7-10.5.9-1 2.7-1.3 4.2-.8 1 .7 1.9 1.5 2.5 2.5zM165.5 8.4l.2.3.1 7.2c-.3 1.2 0 2.7-.2 3.9-.3.3-.6 0-.7-.1l-.3-4.6c-.4-2.1-.7-4.1-2-5.6-.3-.3-.9-.3-1.1 0l-.4.4v22.6c.2 1.3 2.1.6 2.8 1.1.1.5-.1.7-.5.8-2.4.3-4.9-.2-7.3 0-.6.1-.6-.6-.4-.8.8-.2 1.9-.1 2.1-.9l.1-10.4V10c-.2-.3-.4-.6-.7-.7-1.7.2-1.8 1.9-2.2 3.1l-.7 5c-.2.8.2 2-.3 2.4l-.6-.1-.1-5.2c0-1.9-.1-4.2.1-6.1.7-.4 10.5-.1 12.1 0zM185.6 8.3c.5-.1.6.4.4.7-.9.2-1.9.2-2.4.8-.7 1.5.1 3.5-.2 5 .1.3-.1.8 0 1.3.1 1.2 0 2.6 0 3.7v10.5c-.6 1.9-1.4 3.7-3.3 4.2s-3.1-.4-3.9-1.3c-1-1.5-2.1-3.5-1.3-5.7.4-.8 1-1.3 2-1.4.5.2 1 .4 1.2.8-.1.8.5 1.8-.1 2.3-.1.7-1.1.7-1.1 1.6.1 1.1.6 2.1 1.5 2.4.8.2 1.3-.2 1.8-.7.7-1.9.3-4.9.3-6.9l.1-5.4v-9.6c-.2-.6-.4-1-.8-1.5-.6-.5-1.9.2-2.1-.6l.3-.6c2.7.2 4.8.5 7.6.4zM206.1 8.4c.4-.2 1.1-.3 1.4.2.1.6-.3.7-.7.7-.6 0-.9.3-1.3.6-.4.7-.4 1.6-.4 2.5V23l-.1.1c.2 2.8 0 4.7.2 7.6.3 1.1.9 2.1 2 2.7.8.2 2 .1 2.5-.6.9-.7 1.1-1.7 1.3-2.7v-9.3l-.1-.6.1-8.2c.1-.8-.1-1.8-.6-2.4-.5-.4-1.3-.4-1.9-.5l.1-.7 4.9-.1c.3 0 .5.3.5.5 0 .5-.7.2-.9.4-.5.1-.9.5-.9.9l-.3 1.5v18.7c-.2 1.6-1.1 2.9-2.2 3.8-.7.7-2.2.4-3.1.6-1.9-.4-3.5-1.7-4-3.5-1.1-2.3-.4-6.2-.7-8.7v-12c-.2-.6-.5-.9-.9-1.2-.5-.2-1.3 0-1.3-.6-.1-.6.6-.3.8-.5l5.6.2zM221.1 8.5c2.8-.4 5.6.2 6.7 2.4.9 1.5 1.5 3.8.8 5.9-.8 1.5-1.5 3.4-3.2 4.1 0 .8.9 1 1.3 1.7s.7 1.4.7 2.4l.2 4.8c0 .8-.1 2.2.7 2.6 1.1-.4.8-2.1 1-3.3.1-.1.5-.1.6 0 .3 2.1-.2 4-1.4 5.2-.7.3-1.5.7-2.2.4-.8 0-.8-.9-1.4-1.4l-.3-2.7v-5.4c-.1-1.2-.2-2.6-1.1-3.3-.7-.6-1.9-.7-2.8-.4l-.2.3c-.4 3.6.1 6.6 0 10.4.1.6.2 1.2.8 1.5.6.1.8 0 1.5.2.1.2 0 .5.1.7l-4.9.1-2.7-.2c-.2-.2-.2-.7 0-.7.8 0 1.5-.3 2-.7l.3-.9V10.7c-.2-.6-.3-1.1-.8-1.4-.5-.2-1.3.1-1.3-.6.3-.7.8-.1 1.5-.4 1.4.2 2.5.2 4.1.2zM234.8 8.4c.2.2.6.3.7.6 1.9 5.2 3.3 10.6 5.4 15.7.6-.1-.2-.7.2-.9-.1-2 .1-3.8-.1-5.9.2-1.1 0-2 .1-3.2-.3-.2.2-.5-.1-.6.2-1.1-.1-2.7-.1-4-.5-.7-1.3-.8-2.2-.8 0-.1-.2-.7.2-.7h5.4c.4.1.2.5.2.7-.6.3-1.4.2-1.8.7l-.4.9-.1 5v16c-.1.7.1 2-.1 2.7-.2.2-.7.3-.8.1-.7-.8-.6-2.2-1.2-3.1-1-2.5-1.6-5.4-2.6-7.8l-1.9-5.3c-.3-.9-.7-1.7-1-2.5l-.2.1c-.3 1.1-.3 2.1-.1 3.2l-.1 5v8.3c.2.5.4.9.8 1.2.5.3 1.6-.3 1.6.6l-.1.4-5.2.1c-.4-.1-.8-.1-.8-.6.4-.7 2 0 2.3-.9.4-.7.4-1.8.4-2.8l-.2-10.8v-9c-.2-1.3-1.5-1.4-2.5-1.7-.3-.2 0-.5 0-.7 1.4-.1 2.8 0 4.3 0zM253 13.1c.4 2.6 1.2 4.9 1.5 7.6l1.7 7.7c.6 1.9.5 4.3 2.2 5.2.5.1 1 .1.7.8l-.1.2c-2.1.1-5 .2-7.3-.1-.5-1.3 1.1-.7 1.7-1.1.5-.4.6-1.1.5-2-.3-1.3-.5-2.7-1-3.7-1.5-.1-3.3-.1-4.6.1-.4.5-.5 1.2-.6 2-.2 1.1-.9 2.8.2 3.7.5.5 2.3-.4 1.7 1-1.5.3-3.3.2-4.8.2-.5-.2-1.5.2-1.2-.7 0-.6.9-.2 1.2-.4.8-.5 1.2-1.3 1.4-2.1l1.1-6.3 1.4-8 .8-4.7c.3-1.4.5-3 1.1-4.1l1.2.1 1.2 4.6zM267.2 8.5c.4.1.7.2.7.7-.2.7-1.4.3-1.9.7-.7.3-.7 1.1-.8 1.7v20.8c-.3.7.2 1.1.6 1.5.7.5 2.4.4 3.4.1 1.5-.9 1.8-2.8 2.4-4.5l.7-4.9c.1-.2.5-.2.7 0v8.7h-.1c0 .5.1 1.2-.1 1.7-.5.2-1.2 0-1.6.1l-.3-.1-5 .1c-2-.1-4.1.2-5.7-.3-.2-.1-.2-.5-.1-.7.6-.4 1.8.1 2.1-.7l.1-.9v-22c-.5-.9-1.5-1-2.4-1 0-.4-.2-.7.2-.8h7.1v-.2z"/><path fill="#0071B4" d="M195 10.9l.2 1.8v5.9l.1.1-.1 12.1c-.2.9-.7 1.6-1.1 2.3-.7.6-1.8.5-2.4.1-1.4-.9-1.7-2.7-1.6-4.3-.1-1.3.4-2.4 0-3.6.1-1.4 0-3 .2-4.5-.2-.1 0-.7-.2-.7.4-.5-.1-.7 0-1.2.1-2.3 0-4.1 0-6.8.4-1.2.9-2.6 2.2-2.9 1.4-.2 2.1.7 2.7 1.7zM115.2 9.3c2.6 1.6 1.6 5.6 1.5 8.6-.2.8-.7 1.5-1.3 2.1-.7.5-2.3.4-3.1.1l-.1-9.5c.1-.7.4-1.3 1.2-1.3.6-.3 1.2 0 1.8 0zM225.2 10.8c.3.7.3 1.6.4 2.2l-.1 4.9c-.3.9-.6 1.8-1.4 2.1-.7.3-2.4.3-3.4 0-.1-3.5-.1-6.2-.1-9.8.1-.5.5-.9 1-1.1 1.8-.2 2.8.7 3.6 1.7zM250.7 16.3c.6 3.5 1.7 6.7 2.1 10.4l-.2.2-3.7.1-.5-.3c.1-1 .3-2.1.6-3.3l.7-4.9c.2-.7.3-1.6.6-2.2h.4zM35.4 21.3l.9 5c-.7.7-2 0-3 .3l-.7-.1.1-1.2.8-5.3.7-3.5.2.1 1 4.7z"/></g></svg><svg viewBox="-1 -1 298 52.2" enable-background="new 0 0 296 50.2" width="298" height="52.2" id="wsj-dark" y="1597"><g><path fill-rule="evenodd" clip-rule="evenodd" fill="#434952" d="M55 12.8c.3.1.5.2.4.6-.1.7-1.1.4-1.7.6-1.4.5-.9 2.3-1.1 3.6V36c0 .7-.1 1.6.5 1.9.4.6 1.5.2 2.2.3 1.1-.2 1.6-1.4 2.3-2 .3-1 .7-1.9.9-2.9.6-1.9.3-4.3.9-6.2.4-.1.5.2.6.5V38c.2.3-.1.7-.1 1l-.8.2H48.8c-.4-.1-.9 0-1.1-.4.1-1 1.8-.6 1.8-1.8V23.9c-.1-1.7 0-3.8 0-5.4 0-1.6.5-3.7-.7-4.6-.5-.5-2 .3-1.8-.7.1-.2.2-.3.5-.4H55zM92.5 14.2c.4.3.8 0 1-.1.4-.4 0-1.3.7-1.2l.5.1v9.8c-.2.1 0 .7-.3.7h-.6c-.2-3.5-.5-7.2-3.1-8.9-.5-.3-1-.5-1.6-.5-1.1.1-1.8.9-2.2 1.8-.7 1-.5 3 .1 3.9 1.4 2 3.6 3.1 5.3 4.7 1.7 1.8 3.6 3.6 3.7 6.6.3 3.3-.8 6-3 7.7-1.2.8-3.1.9-4.5.4l-2-1.3c-.5-.2-.6.3-.7.5 0 .6-.1.9-.5 1.1l-.7-.2-.1-5.4v-6.1c.2-.1.7-.1.8 0 .2 3.8.3 7.8 3.1 9.8.8.6 1.9 1 3.1.7 1.8-.7 2.4-2.7 2.4-4.9-.2-1.9-.9-3.3-2.2-4.3-1.8-2.1-4.4-3.3-6.1-5.6-.5-.6-.5-1.3-.8-2-.9-3.1.3-6.2 2.1-8 .8-.6 2.1-.9 3.3-.7 1 .4 1.7.9 2.3 1.4zM18.7 12.9c.2.1.5.1.6.5-.3.7-1.1.7-1.4 1.2-.3.6-.3 1.6-.1 2.2l1.1 6.6c.5 2.1.9 4.4 1.5 6.5h.3c.7-3.2 1.3-6.3 1.9-9.5-.6-2.4-.1-5.7-2.3-6.8-.2-.5.1-.7.6-.7 1.3.1 5.5 0 6.5.1.1.2.1.6 0 .7-.7.3-1.6.2-2.1.8-1 1.7.4 3.5.3 5.4l1.1 5.9c.3 1.3.3 2.9 1 3.9h.1l1.4-6.1c.7-2.5 1.1-5.2 1.7-7.8.2-.8-.1-1.4-.7-1.8-.4-.4-1-.3-1.6-.4-.1-.2-.1-.6 0-.7 1.4 0 5.7-.1 6.2 0 .3.1.2.6.1.7-.8.2-1.7.4-2.1.9-.6 1.5-.8 3.1-1.2 4.6L30 26.5c-.9 4-2 8.1-2.9 12.2-.2.3-.7.3-.8.1-.6-.7-.6-2-.8-3l-1.4-8-.7-3.4h-.2L22 30c-.6 2.7-1.1 5.4-1.7 8.2-.1.6-.5.9-1.2.7-.7-.2-.4-1-.6-1.6l-.5-3-1.3-7.3-.9-5.3c-.3-2.1-.8-4.3-1.3-6.3-.1-.6-.7-.9-1-1.3-.7-.2-1.2.1-1.9-.3-.2-.2-.3-.7.1-.8h7v-.1zM69.5 12.9c.1.2.3.6.1.7-.8.4-2.2 0-2.4 1-.2 2.9-.2 5-.2 7.9L66.8 34h-.1c.6 1.4-.7 4.2 1.3 4.3.5.1 1.4.1 1.9-.2 1.9-1.5 2.4-4 2.8-6.5.3-1.3.1-2.9.5-4.2.2-.1.6-.1.7 0v11.4l-.1.5c-1.5 0-3.1 0-4.2.1l-5.3-.1h-2.9c-.5 0-.3-.7-.2-.9.9-.1 2.1 0 2.5-.7.4-1.4.1-3.3.3-4.8-.2-1.3.1-2.7-.1-4.2l.1-1.2V15.4c-.1-.5-.4-1-.7-1.3-.6-.7-2.8.3-2-1.2h8.2zM108.9 13l.2.5v10.7c-.1.3-.3.4-.5.5l-.5-.2c.1-3.4-.4-6.3-1.3-9-.2-.6-.7-1-1.2-1.3-.5 0-.9 0-1.1.4v19.8h-.1c.1 1.4-.2 3.2.8 3.8.7.5 1.8-.3 1.9.7 0 .7-1 .2-1.5.5h-2.1v-.1c-.7.3-1.3-.2-1.9.1-.6-.1-1.8-.1-2.6-.1-.3-.1-.2-.7-.1-.8 1-.2 2.1-.3 2.5-1.4V14.7c-.2-.5-.5-.6-.8-.7-1.4.4-1.8 1.9-2.1 3.3-.5 2.1-.8 4.1-.7 6.6-.2.3 0 .7-.5.7l-.6-.2V13.2c1.4-.4 9.3-.3 12.2-.2zM139.7 13c.7.3.3 1.6.4 2.2.3 1.5-.2 3.2.1 4.5-.3.6.1.9 0 1.5-.2.7 0 1.6-.2 2.1-1.3.1-.7-1.6-.8-2.4-.3-2.9-1.3-5.5-3.7-6.7-.8-.3-2.2-.3-2.8.4-.6 1.7-.3 4.5-.3 6.1-.2.6.1.7 0 1.4v2.6c.1.3-.1 1 .6.9 2.2-1 2.5-3.6 2.5-6.2 0-.4.2-.6.7-.5l.1.6c-.2 1.2.2 2.7-.1 4 0 1.3 0 3.1.1 4.5-.1 1.7-.1 3.2 0 4.9 0 .4-.2.6-.6.6-.7-.6-.2-2.1-.5-3-.4-1.6-.7-3.5-2.5-3.8l-.3.2c-.2 2.1-.1 3.5-.1 5.4 0 1.7.1 3.8 0 5.5.6 1.1 2 .7 3.3.7 2.3-1 3.2-3.8 3.6-6.4l1.1.3V39l-.3.3-10.8.1c-.7-.2-2.1.1-2.8-.2-.3-1.5 1.5-.5 2.1-1 .4-.2.6-.6.7-.9v-22c-.2-.5-.5-.9-.8-1.1-.7-.3-2.1.3-2-.8l.2-.3h13.1V13zM153.2 13c.5.3 1.8-.2 2.1.4 0 3.5.1 6.4 0 9.8-.1.3-.6.3-.7.1-.4-3.6-.3-7.9-3.6-9.2-.7-.3-1.6.1-2.3.1-.5.5-.8.8-.8 1.6v9c.1.3.2.5.5.5 2.5-.7 2.3-3.7 2.7-6.2.1-.2.6-.2.7 0v3.8c.2.2 0 .2 0 .6.2.8 0 1.5.1 2.5v2.5c-.3 1.4.1 3.2-.3 4.5-.2.2-.6.1-.7-.2-.2-2.1-.2-4.9-1.9-6.2-.2-.2-.7-.2-1 0l-.2.7v6.1h.1c.1 1.5-.6 3.9.6 4.9.7.4 1.8.5 2.7.3 2.1-.7 2.6-2.8 3.4-4.7-.2-.7.3-1.5.3-2.3l.2-3c.2-.2.4-.3.7-.1l.2.2c-.3 1.4.6 3.6-.7 4.2-.1.4-.6.4-.6.8.4-.4.8-.7 1.2-1.3h.2l-.1 5.4c-.2.7.3 1.7-.5 1.9-1.6.2-3.1.1-4.7.1-3-.2-5.8-.1-8.7-.1-.3-.1-.3-.7-.1-.8.8-.3 2-.1 2.5-.9.8-.7.4-2.5.5-3.7.1-2.1-.2-4.8 0-6.6l-.1-5.3v-6.6c-.3-.7-.8-1.4-1.8-1.4-.6 0-1.2.1-1-.7-.1-.8 9.6-.7 11.1-.7zM169.5 13.3l.2.3.1 7.2c-.3 1.2 0 2.7-.2 3.9-.3.3-.6 0-.7-.1l-.3-4.6c-.4-2.1-.7-4.1-2-5.6-.3-.3-.9-.3-1.1 0l-.4.4v22.6c.2 1.3 2.1.6 2.8 1.1.1.5-.1.7-.5.8-2.4.3-4.9-.2-7.3 0-.6.1-.6-.6-.4-.8.8-.2 1.9-.1 2.1-.9l.1-10.4V14.9c-.2-.3-.4-.6-.7-.7-1.7.2-1.8 1.9-2.2 3.1l-.7 5c-.2.8.2 2-.3 2.4l-.6-.1-.1-5.2c0-1.9-.1-4.2.1-6.1.8-.4 10.6-.1 12.1 0zM189.7 13.2c.5-.1.6.4.4.7-.9.2-1.9.2-2.4.8-.7 1.5.1 3.5-.2 5 .1.3-.1.8 0 1.3.1 1.2 0 2.6 0 3.7v10.5c-.6 1.9-1.4 3.7-3.3 4.2s-3.1-.4-3.9-1.3c-1-1.5-2.1-3.5-1.3-5.7.4-.8 1-1.3 2-1.4.5.2 1 .4 1.2.8-.1.8.5 1.8-.1 2.3-.1.7-1.1.7-1.1 1.6.1 1.1.6 2.1 1.5 2.4.8.2 1.3-.2 1.8-.7.7-1.9.3-4.9.3-6.9l.1-5.4v-9.6c-.2-.6-.4-1-.8-1.5-.6-.5-1.9.2-2.1-.6l.3-.6c2.6.2 4.7.5 7.6.4zM210.1 13.3c.4-.2 1.1-.3 1.4.2.1.6-.3.7-.7.7-.6 0-.9.3-1.3.6-.4.7-.4 1.6-.4 2.5v10.6l-.1.1c.2 2.8 0 4.7.2 7.6.3 1.1.9 2.1 2 2.7.8.2 2 .1 2.5-.6.9-.7 1.1-1.7 1.3-2.7v-9.3l-.1-.6.1-8.2c.1-.8-.1-1.8-.6-2.4-.5-.4-1.3-.4-1.9-.5l.1-.7 4.9-.1c.3 0 .5.3.5.5 0 .5-.7.2-.9.4-.5.1-.9.5-.9.9l-.3 1.5v18.7c-.2 1.6-1.1 2.9-2.2 3.8-.7.7-2.2.4-3.1.6-1.9-.4-3.5-1.7-4-3.5-1.1-2.3-.4-6.2-.7-8.7v-12c-.2-.6-.5-.9-.9-1.2-.5-.2-1.3 0-1.3-.6-.1-.6.6-.3.8-.5l5.6.2zM238.8 13.3c.2.2.6.3.7.6 1.9 5.2 3.3 10.6 5.4 15.7.6-.1-.2-.7.2-.9-.1-2 .1-3.8-.1-5.9.2-1.1 0-2 .1-3.2-.3-.2.2-.5-.1-.6.2-1.1-.1-2.7-.1-4-.5-.7-1.3-.8-2.2-.8 0-.1-.2-.7.2-.7h5.4c.4.1.2.5.2.7-.6.3-1.4.2-1.8.7l-.4.9-.1 5v16c-.1.7.1 2-.1 2.7-.2.2-.7.3-.8.1-.7-.8-.6-2.2-1.2-3.1-1-2.5-1.6-5.4-2.6-7.8l-1.9-5.3c-.3-.9-.7-1.7-1-2.5l-.2.1c-.3 1.1-.3 2.1-.1 3.2l-.1 5v8.3c.2.5.4.9.8 1.2.5.3 1.6-.3 1.6.6l-.1.4-5.2.1c-.4-.1-.8-.1-.8-.6.4-.7 2 0 2.3-.9.4-.7.4-1.8.4-2.8l-.1-10.7v-9c-.2-1.3-1.5-1.4-2.5-1.7-.3-.2 0-.5 0-.7 1.4-.2 2.8-.1 4.2-.1zM271.2 13.4c.4.1.7.2.7.7-.2.7-1.4.3-1.9.7-.7.3-.7 1.1-.8 1.7v20.8c-.3.7.2 1.1.6 1.5.7.5 2.4.4 3.4.1 1.5-.9 1.8-2.8 2.4-4.5l.7-4.9c.1-.2.5-.2.7 0v8.7h-.1c0 .5.1 1.2-.1 1.7-.5.2-1.2 0-1.6.1l-.3-.1-5 .1c-2-.1-4.1.2-5.7-.3-.2-.1-.2-.5-.1-.7.6-.4 1.8.1 2.1-.7l.1-.9v-22c-.5-.9-1.5-1-2.4-1 0-.4-.2-.7.2-.8h7.1v-.2z"/><path fill="#434952" d="M202.8 22.2c-.6-2.3-.9-4.8-2.1-6.4-.6-1-1.5-1.9-2.4-2.5-1.5-.5-3.3-.2-4.2.8-2.3 2.7-3.5 6.5-3.7 10.5-.1 6 .7 11.1 4.3 14.4.7.7 2.4.7 3.5.4 1.2-.7 2.2-1.8 3-3.2 1.8-3.6 2.3-9.2 1.6-14zm-3.6 13.5c-.2.9-.7 1.6-1.1 2.3-.7.6-1.8.5-2.4.1-1.4-.9-1.7-2.7-1.6-4.3-.1-1.3.4-2.4 0-3.6.1-1.4 0-3 .2-4.5-.2-.1 0-.7-.2-.7.4-.5-.1-.7 0-1.2.1-2.3 0-4.1 0-6.8.4-1.2.9-2.6 2.2-2.9 1.4-.1 2 .7 2.6 1.8l.1 1.8v5.9l.2.1v12zM125.8 33.6c-.2-.4-.5.2-.7 0-.1.8-.3 1.8-.2 2.6-.2.3-.3.7-.7.8-.3-.1-.5-.3-.6-.6-.4-1.4-.1-3.2-.2-4.8-.3 0-.5-.2-.4-.5.1-.2.3 0 .3.2 0-1.7-.2-3.8-1.5-4.8-.4-.6-1-.6-.8-1.2 1-.7 1.8-1.5 2.4-2.4 1.3-1.8.9-5.2.3-7.3-.7-1.4-2.1-2-3.6-3h-9c-.4 0-.5.4-.4.8.2.5 1 .2 1.5.4.7.3.9 1.1 1.1 2-.1.9 0 2.3-.1 3.3.1 1.5.1 3.5.1 4.9-.1 2 0 4.1 0 6.3l-.1 5.4c.2.5-.1 1-.1 1.5-.3.3-.6.7-1 .8-.4.3-1.2-.2-1.2.5-.4 1.1 1.2.3 1.7.7.1-.2.4 0 .6 0l4.9-.1.2-.3c.1-.7-.7-.7-1.1-.7-.5-.2-.9-.7-.9-1.2V26.7l.3-.4c.5-.4 1.3-.2 1.9 0 1.3.4 1.8 1.8 1.8 3.1v6.7l.4 1.8c.5.7 1.2 1.3 2.1 1.6.8.1 1.4-.1 2-.5 1.1-1 1.2-3.2 1-5.4zm-5-10.8c-.2.8-.7 1.5-1.3 2.1-.7.5-2.3.4-3.1.1l-.1-9.5c.1-.7.4-1.3 1.2-1.3.6-.2 1.1.1 1.8.1 2.6 1.5 1.6 5.5 1.5 8.5zM234.1 34c-.1-.1-.5-.1-.6 0-.2 1.2.1 2.9-1 3.3-.8-.4-.7-1.8-.7-2.6l-.2-4.8c0-1-.4-1.7-.7-2.4-.4-.7-1.3-.8-1.3-1.7 1.7-.7 2.3-2.6 3.2-4.1.7-2.1.1-4.4-.8-5.9-1.1-2.2-3.9-2.8-6.7-2.4-1.6 0-2.7 0-4.1-.1-.7.3-1.2-.3-1.5.4 0 .7 1 .4 1.5.6.6.3 0 .8 1 1.4v21.5l-.4.9c-.5.5-1.2.7-2 .7-.2.1-.2.6 0 .7l2.7.2 4.9-.1c-.1-.3 0-.6-.1-.7-.7-.2-.9-.1-1.5-.2-.7-.3-.7-.9-.8-1.5.1-3.8-.4-6.8 0-10.4l.2-.3c.9-.4 2.3-.2 2.9.4.9.7 1.2 2.1 1.2 3.3v5.4l.2 2.7c.6.5.5 1.4 1.3 1.4.7.3 1.6-.1 2.2-.4.9-1.3 1.4-3.2 1.1-5.3zm-6-8.9c-.7.3-2.4.3-3.4 0-.1-3.5-.1-6.2-.1-9.8.1-.5.5-.9 1-1.1 1.8-.4 2.7.6 3.5 1.6.3.7.3 1.6.4 2.2l-.1 4.9c-.2.9-.4 1.8-1.3 2.2zM262.4 38.7c-1.8-.9-1.7-3.4-2.2-5.2l-1.7-7.7c-.3-2.7-1.1-5-1.5-7.6l-1-4.6-1.2-.1c-.7 1.1-.8 2.7-1.1 4.1l-.8 4.7-1.4 8-1.1 6.3c-.2.8-.6 1.7-1.4 2.1-.3.2-1.2-.2-1.2.4-.3.9.7.6 1.2.7 1.5 0 3.3.1 4.8-.2.7-1.4-1.2-.6-1.7-1-1.1-.9-.4-2.6-.2-3.7.1-.7.2-1.5.6-2 1.3-.2 3.1-.2 4.6-.1.6 1 .7 2.4 1 3.7.1.8 0 1.6-.5 2-.6.4-2.1-.2-1.7 1.1 2.2.3 5.1.2 7.3.1l.1-.2c.2-.7-.4-.7-.9-.8zm-5.7-6.9l-3.7.1-.5-.3c.1-1 .3-2.1.6-3.3l.7-4.9c.2-.7.3-1.6.6-2.2l.4.1c.6 3.5 1.7 6.7 2.1 10.4l-.2.1zM46.4 38.3c-.9-.1-1.5-.7-1.8-1.5-.6-2-.7-4.1-1.2-6.2l-2-9.6c-.4-2.6-1.1-4.9-1.5-7.4.2-1-1.6-.7-1.7-.3-.5 2.3-.7 4.7-1.2 6.9l-.9 5.4-1 6.5c-.5 1.7-.5 3.5-1.1 5-.6.6-1.2 1.1-2.3 1-.2.2-.3 1 .3.8l5.3-.1.1-.6c-.3-.3-1-.2-1.4-.5-1-1.7.2-3.4.3-5H40.4c.9 0 .6 2.1 1 3 .1.6.3 1.4-.2 1.9-.2 1-2.2-.3-2 1.1.4.3 1.3.1 1.5.1h5.5l.3-.1c.2-.1-.1-.1-.1-.4zm-9-6.8l-.7-.1.1-1.2.8-5.3.7-3.5.2.1 1 4.7.9 5c-.7.8-2 0-3 .3z"/></g></svg></svg>