<?xml version="1.0" encoding="utf-8"?>
<!-- Generator: Adobe Illustrator 18.0.0, SVG Export Plug-In . SVG Version: 6.00 Build 0)  -->
<!DOCTYPE svg PUBLIC "-//W3C//DTD SVG 1.1//EN" "http://www.w3.org/Graphics/SVG/1.1/DTD/svg11.dtd">
<svg version="1.1" id="Layer_1" xmlns="http://www.w3.org/2000/svg" xmlns:xlink="http://www.w3.org/1999/xlink" x="0px" y="0px"
	 viewBox="0 0 86.2 22.9" enable-background="new 0 0 86.2 22.9" xml:space="preserve">
<g>
	<path fill="#7E4098" d="M49,18.6c-5.7,2.3-4.1-6.2-4-10.2c1.2,0,2.3,0,3.5,0c0-1.3,0-2.6,0-3.8c-1.2,0-2.3,0-3.5,0
		c0-1.6,0-3.2,0.2-4.7c-0.6,0-2.7,0-3.3,0c-0.4,2.9-1.4,5.2-4.5,5.5c0,1,0,2,0,3c0.6,0.1,1.7-0.2,2,0.2c0.6,4.5-1.1,9.5,0.8,12.3
		c1.6,2.3,5.5,2,9,1.5C49.1,21.2,48.9,20.1,49,18.6z"/>
	<path fill="#7E4098" d="M33.8,5.3c-1.9-1.2-4.6-1.4-7-1.2c-4.6,0.4-7.3,3.3-7.8,7.7c-1-0.1-2.4,0.2-3.2-0.2
		c1.6-8.4-8.4-8.5-14.1-6.5C1.9,6.3,1.9,7.7,1.9,9c2.6-1.4,9.3-2.8,8.3,2.7c-4.5,0.2-8.8,0.4-9.8,3.8c-2.5,8.7,7.9,7.6,15.5,7
		c-0.1-2.3-0.4-5.4,0-7.7c1.1,0,2.2,0,3.3,0c-0.5,8,8.9,9.3,15.8,7.2c0-1.3-0.3-2.4-0.2-3.8c-3.2,1.7-10.1,2-9.7-3.2
		c3.8,0,8,0,9.8-2.3C36.6,10.5,36.1,6.8,33.8,5.3z M10.2,19.3c-1.4,0.3-3.3,0.2-4.2-0.5c-1.5-2.9,1.4-4.8,4.2-4
		C10.2,16.3,10.2,17.8,10.2,19.3z M25,11.8c-0.8-3.3,3.5-6,5.2-3.7C31.9,10.6,28.1,13,25,11.8z"/>
	<path fill="#7E4098" d="M66.1,5.5c-3.5-2.7-9.3-0.6-14.6-0.8c0.3,5.6,0.3,12.2,0,17.8c2,0,4,0,6,0c-0.4-4.8-0.3-9.6-0.2-14.5
		c8-3.2,4.3,9.8,5,14.5c1.9,0,3.9,0,5.8,0C66.9,16.7,69.9,8.5,66.1,5.5z"/>
	<path fill="#7E4098" d="M83.2,4.8c-2.8-1.3-8.2-0.7-11.3,0.3c0.3,1,0.1,2.5,0.2,3.8c2.6-1.4,9.2-2.8,8.3,2.7c-4.6,0.1-9.3,0.7-10,4
		c-1.9,8.6,8.6,7.5,15.8,6.7C84.7,16.4,88.5,7.3,83.2,4.8z M80.4,19.3c-1.4,0.3-3.3,0.2-4.2-0.5c-1.5-2.9,1.4-4.8,4.2-4
		C80.4,16.3,80.4,17.8,80.4,19.3z"/>
</g>
</svg>
