<?xml version="1.0" encoding="utf-8"?>
<!-- Generator: Adobe Illustrator 18.0.0, SVG Export Plug-In . SVG Version: 6.00 Build 0)  -->
<!DOCTYPE svg PUBLIC "-//W3C//DTD SVG 1.1//EN" "http://www.w3.org/Graphics/SVG/1.1/DTD/svg11.dtd">
<svg version="1.1" id="Layer_1" xmlns="http://www.w3.org/2000/svg" xmlns:xlink="http://www.w3.org/1999/xlink" x="0px" y="0px"
	 viewBox="0 0 103.1 15.6" enable-background="new 0 0 103.1 15.6" xml:space="preserve">
<g>
	<g>
		<rect x="-0.1" y="0" fill="none" width="103.2" height="15.9"/>
		<g>
			<rect x="-0.1" y="0" fill="none" width="103.2" height="15.9"/>
			<g>
				<path fill="#FFFFFF" d="M97,2.2c0,0,3.2,0,4.7-1.1c0,0,0.7,0.8,0.7,3.5c0,2.7-1.1,7.6-5.3,9.8c0,0-4.9-1.8-5.3-10
					c0,0-0.2-1.8,0.7-3.4C92.5,1.1,94.3,2,97,2.2"/>
				<path fill="#0579BF" d="M85.3,14.5c0-0.6,0.5-1.2,1.2-1.2c0.6,0,1.2,0.5,1.2,1.2c0,0.6-0.5,1.2-1.2,1.2
					C85.9,15.6,85.3,15.1,85.3,14.5 M87.5,14.5c0-0.6-0.4-1-1-1c-0.6,0-1,0.4-1,1c0,0.6,0.4,1,1,1C87.1,15.4,87.5,15,87.5,14.5
					 M86.2,15.1h-0.2v-1.3h0.6c0.3,0,0.5,0.1,0.5,0.4c0,0.3-0.2,0.4-0.4,0.4l0.4,0.6h-0.2l-0.4-0.6h-0.3V15.1z M86.5,14.4
					c0.2,0,0.4,0,0.4-0.2c0-0.2-0.2-0.2-0.3-0.2h-0.4v0.4H86.5z"/>
				<path fill="#FFFFFF" d="M81.2,12.4c2.5,0,4.5-2,4.5-4.5c0-2.5-2-4.5-4.5-4.5s-4.5,2-4.5,4.5C76.6,10.3,78.7,12.4,81.2,12.4"/>
				<path fill="#0579BF" d="M82,5.5c0-0.3,0.4-0.4,0.2-1.1c0.7,0.1,1.2,0.7,1.7,1.1H82z"/>
				<path fill="#0579BF" d="M80.3,5.5h-2c0.4-0.6,1.1-1,1.7-1.1C79.8,5.1,80.3,5.2,80.3,5.5"/>
				<path fill="#0579BF" d="M84.7,7c0.2,1.4-0.2,2.4-0.8,3.2c0,0-1.3-2.5-1.5-2.7c-0.1-0.3,0-0.3,0.2-0.3C82.7,7.2,84.7,7,84.7,7"/>
				<path fill="#0579BF" d="M77.5,7c0,0,2,0.2,2.1,0.2c0.2,0,0.3,0,0.2,0.3c-0.1,0.3-1.5,2.7-1.5,2.7C77.7,9.4,77.3,8.4,77.5,7"/>
				<path fill="#0579BF" d="M82.7,11.1c-0.4,0.2-0.9,0.3-1.5,0.3c-0.6,0-1.1-0.1-1.5-0.3c0,0,1.4-2.2,1.5-2.2
					C81.3,8.9,82.7,11.1,82.7,11.1"/>
				<path fill="#0579BF" d="M88.9,4.4h-4.3V0.1h-6.8v4.3h-4.3v6.9h4.3l0,4.3l6.8,0v-4.3h4.3V4.4z M78.2,4.8c0.8-0.8,1.8-1.2,3-1.2
					c1.1,0,2.2,0.4,2.9,1.2c0.4,0.4,0.7,0.8,0.9,1.3l-2.9,0c-0.3,0-0.5-0.1-0.6-0.2c-0.2-0.2-0.2-0.4,0-0.7c0.4-0.5,0.1-1-0.4-1
					c-0.4,0-0.8,0.5-0.4,1c0.2,0.3,0.2,0.5,0,0.7c-0.1,0.1-0.4,0.2-0.6,0.2l-2.8,0C77.5,5.6,77.8,5.2,78.2,4.8 M76.9,7.8
					c0-0.5,0.1-1,0.2-1.4c1,0,2,0.2,2.5,0.2c0.6,0,1.1,0.4,0.6,1.1c-0.4,0.7-1.6,2.9-1.8,3.4C77.6,10.4,76.9,9.2,76.9,7.8
					 M81.2,12.1c-0.9,0-1.7-0.3-2.4-0.7c0.4-0.5,1.9-2.7,2-2.9c0.1-0.2,0.2-0.3,0.4-0.3c0.2,0,0.3,0.1,0.4,0.3c0.1,0.2,2,2.9,2,2.9
					C82.9,11.8,82,12.1,81.2,12.1 M83.8,11.2c-0.1-0.1-1.4-2.7-1.8-3.5c-0.4-0.8,0-1.1,0.6-1.1c0.6,0,1.5-0.2,2.6-0.2
					c0.2,0.5,0.3,0.9,0.3,1.5C85.4,9.2,84.8,10.4,83.8,11.2"/>
				<path fill="#0579BF" d="M100.1,14.5c0-0.6,0.5-1.2,1.2-1.2c0.6,0,1.2,0.5,1.2,1.2c0,0.6-0.5,1.2-1.2,1.2
					C100.6,15.6,100.1,15.1,100.1,14.5 M102.3,14.5c0-0.6-0.4-1-1-1c-0.6,0-1,0.4-1,1c0,0.6,0.4,1,1,1
					C101.8,15.4,102.3,15,102.3,14.5 M101,15.1h-0.2v-1.3h0.6c0.3,0,0.5,0.1,0.5,0.4c0,0.3-0.2,0.4-0.4,0.4l0.4,0.6h-0.2l-0.4-0.6
					H101V15.1z M101.2,14.4c0.2,0,0.4,0,0.4-0.2c0-0.2-0.2-0.2-0.3-0.2H101v0.4H101.2z"/>
				<path fill="#0579BF" d="M102.2,0c-1.5,0.8-2.9,1.2-5.1,1.2c-2.2,0-3.7-0.4-5.1-1.2c-0.6,1.1-1,2.6-1,4.4c0,5,2.8,8.3,3.5,9.1
					c0.7,0.7,2.1,1.9,2.6,2c0.5-0.1,1.9-1.2,2.6-2c0.7-0.7,3.5-4.1,3.5-9.1C103.1,2.6,102.8,1.1,102.2,0 M99.4,12.2
					c-0.4,0.5-2,2-2.3,2c-0.3-0.1-1.9-1.5-2.3-2c-0.3-0.4-2.7-3.3-2.7-7.8c0-1,0.1-2.4,0.5-2.9C93.4,2,95.2,2.5,97,2.5
					c1.9,0,3.6-0.5,4.5-0.9c0.3,0.5,0.5,1.9,0.5,2.9C102,8.9,99.7,11.8,99.4,12.2"/>
				<path fill="#0579BF" d="M96.4,4.2c0,0,0,0.1-0.1,0.1c-0.1,0-0.1,0-0.2-0.1C96,4.2,96,4.2,96,4.2S96.2,4.1,96.4,4.2"/>
				<path fill="#0579BF" d="M101.3,2.3C100.5,2.7,98.7,3,97,3c-1.7,0-3.4-0.2-4.2-0.7c-0.3,0.5-0.4,1.6-0.3,2.5
					c0.1,4.5,2.2,6.7,2.5,7c0.4,0.5,1.8,1.8,2.1,1.9c0.3-0.1,1.7-1.4,2.1-1.9c0.3-0.4,2.3-2.5,2.5-7C101.6,3.9,101.6,2.7,101.3,2.3
					 M96.5,12.5C96.5,12.5,96.5,12.5,96.5,12.5c-0.2,0-0.2-0.2-0.2-0.3c0-0.2,0.2-0.5,0.3-0.6l0,0.4C96.6,12.1,96.6,12.4,96.5,12.5
					 M97.2,12.8c0,0-0.2,0.1-0.4,0c0-0.1,0-0.4,0-0.7c0-0.3,0-0.8,0-1.2c0.1,0,0.1,0,0.2,0c0.1,0,0.2,0.1,0.3,0.2
					c0.1,0.1,0.1,0.5,0.1,0.7C97.2,12.3,97.2,12.7,97.2,12.8 M97.3,11.7v-0.5c0-0.1,0-0.2-0.1-0.3c-0.1-0.1-0.1-0.1-0.2-0.2
					c-0.1,0-0.1,0-0.3-0.1c-1.1-0.3-0.8-1.3-0.2-1.3c0,0.1,0,0.2,0,0.3c0,0.1,0,0.2,0,0.3c-0.2,0.1,0,0.1,0,0.1
					c0.1,0,0.3,0.1,0.4,0.2c0.1,0,0.3,0.1,0.4,0.1C98,10.7,97.9,11.4,97.3,11.7 M96.7,9.4c0-0.1,0-0.3,0-0.4c0.1,0,0.2,0,0.3,0
					c0.2,0,0.2,0,0.3,0c0,0,0,0.2,0,0.2c0,0.1,0,0.2,0,0.3c0,0.2,0,0.2,0,0.3c0,0.1,0,0.3,0,0.3c-0.1,0-0.2-0.1-0.3-0.1
					c-0.1,0-0.2-0.1-0.3-0.2c0,0,0-0.1,0-0.1l0-0.2L96.7,9.4z M97.4,9.9c0-0.1,0-0.3,0-0.4c0-0.1,0-0.1,0-0.2
					c0.1-0.1,0.2-0.1,0.1-0.3C97.5,9,97.2,9,97,9c-0.1,0-0.2,0-0.6-0.1c-0.9-0.2-0.8-1.3-0.2-1.5l0.2,0.4l0.1,0.3c0.2,0,0.3,0,0.6,0
					c0.1,0,0.1,0,0.3,0.1C98.6,8.5,98.3,9.9,97.4,9.9 M96.2,7.2l0.3-0.4l0.8,0.1l0,1.3L96.6,8l-0.2-0.4L96.2,7.2z M97.4,8
					c-0.1-0.4,0-0.8,0-0.8c0.4,0,0.1-0.4,0-0.4c-0.1,0-0.3,0-0.5,0c-0.2,0-0.4,0-0.6-0.1c-2.3-0.3-2-2.4-0.8-2.6
					c0.8-0.1,1.3,0.2,1.4,0.5c0,0-0.2,0.1-0.4,0.1c-0.4,0-0.6,0-0.6,0c0.1,0.1,0.5,0.2,0.7,0.3C96.4,5,96.2,5,95.9,5
					c-0.2,0-0.3-0.1-0.5-0.1c-0.1,0.2-0.2,0.7,0.8,0.9c0.1,0,0.3,0.1,0.5,0.1c0.2,0,0.4,0.1,0.5,0.1c0.1,0,0.1,0,0.2,0.1
					C98.9,6.3,98.5,8,97.4,8 M98.5,4.6c-0.6,0.6-0.9,0.9-1,1c0,0-0.1,0.2-0.2,0.2l-0.8-0.1c0-0.2,0-0.4,0-0.6c0.2,0,0.2,0,0.3-0.1
					l0-0.1c0.3,0.1,0.5,0.1,0.6,0.1l-0.1-0.1c-0.1,0-0.2-0.1-0.4-0.1C97,4.7,97,4.6,97,4.6s0-0.1-0.1-0.2C96.8,4.1,96.5,4,96.5,4
					c-0.1-0.1,0-0.1,0-0.2c0-0.3,0.2-0.2,0.5-0.1C97,3.7,97,3.7,97,3.7c0.2,0.1,0.4,0.2,0.4,0.3c0,0,0,0.7,0.1,0.7
					c0.1-0.1,0.5-0.4,0.6-0.5C98.3,4,98.7,4.3,98.5,4.6"/>
				<path fill="#231F20" d="M68.3,14.5c0-0.6,0.5-1.2,1.2-1.2c0.6,0,1.2,0.5,1.2,1.2c0,0.6-0.5,1.2-1.2,1.2
					C68.8,15.6,68.3,15.1,68.3,14.5 M70.5,14.5c0-0.6-0.4-1-1-1c-0.6,0-1,0.4-1,1c0,0.6,0.4,1,1,1C70.1,15.4,70.5,15,70.5,14.5
					 M69.2,15.1h-0.2v-1.3h0.6c0.3,0,0.5,0.1,0.5,0.4c0,0.3-0.2,0.4-0.4,0.4l0.4,0.6h-0.2l-0.4-0.6h-0.3V15.1z M69.5,14.4
					c0.2,0,0.4,0,0.4-0.2c0-0.2-0.2-0.2-0.3-0.2h-0.4v0.4H69.5z"/>
				<path fill="#231F20" d="M49.6,7.3c-0.7-0.7-1.8-1-3-1c-1.1,0-2.1,0.5-2.9,1.3c-0.8,0.9-1.3,2.2-1.3,3.5c0,1.3,0.5,2.6,1.4,3.4
					c0.8,0.8,2,1.3,3.2,1.3c2.3,0,3.6-1.7,3.8-3.3l0-0.1h-0.1h-0.6h-0.1l0,0.1c-0.2,1.3-1.3,2.7-3,2.7c-1.4,0-2.1-0.9-2.2-2.6
					c0,0,0-1.8,0-2.2h5.9h0.1l0-0.1C50.9,9.1,50.5,8,49.6,7.3 M48.4,9.9h-3.4v-1c0-0.6,0.2-1.2,0.5-1.5c0.3-0.3,0.7-0.5,1.2-0.5
					c1.1,0,1.7,0.7,1.7,2V9.9z"/>
				<path fill="#231F20" d="M30.9,13.9L30.9,13.9h-0.6h-0.1l0,0.1C30.1,14.3,29.8,15,29,15c-0.7,0-1-0.5-1-1.4V7.2h2.1h0.1l0-0.1
					V6.6V6.6h-0.1H28V3.8V3.8l-0.1,0c-0.5,0.1-1.6,0.1-2.1,0.1l-0.1,0V4v2.6h-1.4h-0.1v0.1v0.5v0.1h0.1h1.4v5.6
					c0,2.1,0.9,3.1,2.6,3.1C30.4,15.9,30.8,14.4,30.9,13.9L30.9,13.9z"/>
				<path fill="#231F20" d="M22.9,15V9.3c0-0.9-0.3-1.6-0.8-2.2c-0.5-0.5-1.3-0.8-2.2-0.8c-1.2,0-2.2,0.5-2.9,1.4l0-1.1l0-0.1h-0.1
					h-3.5h-0.1v0.1v0.5v0.1h0.1h1.3v7.9h-2.5L7.1,0.2l0,0H7H6.5H6.4l0,0L1.4,15.1H0h-0.1v0.1v0.5v0.1H0h4.1h0.1v-0.1v-0.5v-0.1H4.1
					H2.2l1.4-4.2h4.5l1.4,4.2H7.7H7.6v0.1v0.5v0.1h0.1h10.7h0.1v-0.1v-0.5V15h-0.1H17v-4.4c0-2.6,1.4-3.5,2.3-3.5
					c0.9,0,1.4,0.6,1.4,1.7V15h-1.3h-0.1v0.1v0.5v0.1h0.1h4.8h0.1v-0.1v-0.5V15h-0.1H22.9z M5.8,4.1l2.1,6.1H3.8L5.8,4.1z"/>
				<path fill="#231F20" d="M40.7,15V9.2c0-1.4-0.8-2.9-3.1-2.9c-1.8,0-2.7,0.9-3.1,1.3V0.2V0.2h-0.1h-3.5h-0.1v0.1v0.5v0.1h0.1h1.3
					V15h-1.4h-0.1v0.1v0.5v0.1h0.1h5h0.1v-0.1v-0.5V15h-0.1h-1.3v-4.4c0-1.5,0.5-2.4,1-2.8c0.4-0.4,1-0.7,1.5-0.7
					c1.2,0,1.5,1,1.5,1.9v6h-1.3H37v0.1v0.5v0.1h0.1h5h0.1v-0.1v-0.5V15H42H40.7z"/>
				<path fill="#231F20" d="M67.7,15h-1.4V8.9c0-1.6-1.1-2.6-2.8-2.6c-1.7,0-2.6,0.8-3,1.4c-0.5-0.9-1.3-1.4-2.6-1.4
					c-1.2,0-2.2,0.5-3,1.2l0-0.9l0-0.1h-0.1h-3.5h-0.1v0.1v0.5v0.1h0.1h1.4V15h-1.4h-0.1v0.1v0.5v0.1h0.1h4.8h0.1v-0.1v-0.5V15h-0.1
					H55v-4.3c0-1.3,0.1-2.1,0.6-2.7c0.4-0.5,1-0.8,1.6-0.8c0.8,0,1,0.6,1,0.6c0.2,0.4,0.2,1,0.2,1.6V15h-1.3H57v0.1v0.5v0.1h0.1h4.8
					h0.1v-0.1v-0.5V15h-0.1h-1.2v-4.3c0-1.3,0.1-2.1,0.6-2.7c0.4-0.5,1-0.8,1.6-0.8c0.8,0,1,0.6,1,0.6c0.2,0.4,0.2,1,0.2,1.6V15
					h-1.3h-0.1v0.1v0.5v0.1h0.1h4.9h0.1v-0.1L67.7,15L67.7,15L67.7,15z"/>
			</g>
		</g>
	</g>
</g>
</svg>
