<?xml version="1.0" encoding="utf-8"?>
<!-- Generator: Adobe Illustrator 18.0.0, SVG Export Plug-In . SVG Version: 6.00 Build 0)  -->
<!DOCTYPE svg PUBLIC "-//W3C//DTD SVG 1.1//EN" "http://www.w3.org/Graphics/SVG/1.1/DTD/svg11.dtd">
<svg version="1.1" id="Layer_1" xmlns="http://www.w3.org/2000/svg" xmlns:xlink="http://www.w3.org/1999/xlink" x="0px" y="0px"
	 viewBox="0 0 88.7 17.1" enable-background="new 0 0 88.7 17.1" xml:space="preserve">
<g>
	<path fill="#87C546" d="M88.7,15.6c0,0.9-0.7,1.6-1.5,1.6c-0.9,0-1.5-0.7-1.5-1.6c0-0.9,0.7-1.6,1.5-1.6
		C88,14.1,88.7,14.8,88.7,15.6 M85.9,15.6c0,0.7,0.5,1.3,1.2,1.3c0.7,0,1.2-0.6,1.2-1.3c0-0.7-0.5-1.3-1.2-1.3
		C86.5,14.3,85.9,14.9,85.9,15.6 M87.1,14.8c0.4,0,0.7,0.1,0.7,0.5c0,0.3-0.1,0.4-0.3,0.5l0.1,0.2c0.1,0.1,0.2,0.3,0.3,0.5
		c0,0,0,0-0.1,0h-0.1c-0.1,0-0.1,0-0.1,0c-0.1-0.1-0.2-0.2-0.2-0.3l-0.1-0.3h-0.2v0.6c0,0,0,0-0.1,0h-0.1c-0.1,0-0.1,0-0.1,0v-1.7
		H87.1z M86.9,15.6h0.2c0.2,0,0.3-0.1,0.3-0.3c0-0.2-0.2-0.2-0.4-0.2h-0.2V15.6z M23.4,4.1c-0.2,0-0.5,0.2-0.5,0.5v9.8
		c-0.7,0.2-1.5,0.3-2.3,0.3c-1.7,0-2.3-0.6-2.3-2.5V4.6c0-0.3-0.2-0.5-0.5-0.5h-2.6v8.1c0,3.8,2,5,5.3,5c2.6,0,5.2-0.7,5.4-0.8V4.1
		H23.4z M62.9,17.1c0.2,0,0.5-0.2,0.5-0.5V6.7c0.7-0.2,1.5-0.3,2.3-0.3c1.7,0,2.3,0.6,2.3,2.5v7.7c0,0.3,0.2,0.5,0.5,0.5H71V8.9
		c0-3.8-2-5-5.3-5c-2.6,0-5.2,0.7-5.4,0.8v12.4H62.9z M52.6,3.9c-3.3,0-5.5,1.8-5.5,5.7v1.9c0,4.3,2.3,5.7,4.8,5.7
		c1.2,0,2.5-0.9,2.9-1.4v0.8c0,0.2,0.2,0.5,0.5,0.5h2.6V4.6C57.8,4.6,55.2,3.9,52.6,3.9 M54.7,13.9c-0.6,0.5-1,0.8-2.2,0.8
		c-1.7,0-2.4-1-2.4-3.2V9.7c0-2.5,0.9-3.2,2.4-3.2c1.2,0,1.9,0.1,2.2,0.2V13.9z M78.5,3.9c-3.3,0-5.5,1.8-5.5,5.7v1.9
		c0,4.3,2.3,5.7,4.8,5.7c1.2,0,2.5-0.9,2.9-1.4v0.8c0,0.2,0.2,0.5,0.5,0.5h2.6V4.6C83.8,4.6,81.2,3.9,78.5,3.9 M80.7,13.9
		c-0.6,0.5-1,0.8-2.2,0.8c-1.7,0-2.4-1-2.4-3.2V9.7c0-2.5,0.9-3.2,2.4-3.2c1.3,0,1.9,0.1,2.2,0.2V13.9z M0,17.1h2.7
		c0.2,0,0.5-0.2,0.5-0.5V9.4h5c0.8,0,1.5,0.7,1.5,1.4v5.8c0,0.2,0.2,0.5,0.5,0.5h2.7V0h-2.7C9.9,0,9.7,0.2,9.7,0.4v6.4H4.4
		c-0.7,0-1.3-0.6-1.3-1.2V0.4C3.2,0.3,3,0,2.7,0H0V17.1z M40.3,3.9c-1.4,0-2.8,0.6-3.4,1c-0.9-0.7-2.2-1-3.8-1
		c-2.4,0-4.4,0.7-4.7,0.9v12.4h2.6c0.3,0,0.5-0.2,0.5-0.5V6.7c0.5-0.2,1-0.2,1.5-0.2c1.8,0,2.2,0.7,2.2,2.5v7.7
		c0,0.2,0.2,0.5,0.5,0.5h2.1c0.3,0,0.5-0.2,0.5-0.5V7c0.5-0.4,1.2-0.6,1.8-0.6C41.4,6.4,42,7,42,8.7v7.9c0,0.2,0.2,0.5,0.5,0.5H45
		V8.3C45,5,42.9,3.9,40.3,3.9"/>
</g>
</svg>
