<?xml version="1.0" encoding="utf-8"?>
<!-- Generator: Adobe Illustrator 18.0.0, SVG Export Plug-In . SVG Version: 6.00 Build 0)  -->
<!DOCTYPE svg PUBLIC "-//W3C//DTD SVG 1.1//EN" "http://www.w3.org/Graphics/SVG/1.1/DTD/svg11.dtd">
<svg version="1.1" id="Layer_1" xmlns="http://www.w3.org/2000/svg" xmlns:xlink="http://www.w3.org/1999/xlink" x="0px" y="0px"
	 viewBox="0 0 45.3 44.2" enable-background="new 0 0 45.3 44.2" xml:space="preserve">
<g>
	<path fill="#CCCCCC" d="M37.9,11.2C34,7.1,28.8,4.8,23.2,4.5V1.8c0-0.5-0.4-0.9-0.9-0.9s-0.9,0.4-0.9,0.9v2.7
		c-5.6,0.2-10.8,2.6-14.7,6.6c-4.1,4.3-6.2,9.9-6,15.8c0,0.5,0.4,0.9,0.9,0.9c0,0,0,0,0,0c0.5,0,0.9-0.4,0.9-0.9
		c0-0.3,0.1-2.7,3.6-2.7c3.7,0,4.5,2.8,4.5,2.9c0.1,0.4,0.5,0.7,0.9,0.7c0.4,0,0.8-0.3,0.9-0.7c0,0,0.8-2.9,4.5-2.9
		c3.4,0,4.3,2.3,4.5,2.8v13.4c0,1.9,1.6,2.9,3.1,2.9s3.1-1,3.1-2.9c0-0.5-0.4-0.9-0.9-0.9s-0.9,0.4-0.9,0.9c0,1.1-1.2,1.1-1.3,1.1
		s-1.3,0-1.3-1.1V27.2c0.4-0.6,1.9-2.9,4.5-2.9c3,0,4.6,3.1,4.6,3.1c0.2,0.3,0.5,0.5,0.8,0.5c0.3,0,0.7-0.2,0.8-0.5
		c0,0,1.6-3.1,4.6-3.1c2.8,0,3.6,2.8,3.6,2.9c0.1,0.4,0.5,0.7,0.9,0.7c0,0,0.1,0,0.1,0c0.4,0,0.8-0.4,0.8-0.9
		C44.2,21.1,42,15.5,37.9,11.2z M38.5,22.5c-2.7,0-4.4,1.7-5.4,2.9c-0.9-1.2-2.7-2.9-5.4-2.9c-2.5,0-4.3,1.5-5.3,2.7
		c-0.9-1.3-2.6-2.7-5.5-2.7c-2.7,0-4.5,1.2-5.4,2.5c-0.9-1.3-2.7-2.5-5.4-2.5c-1.4,0-2.5,0.3-3.4,0.9c0.5-4.1,2.4-7.9,5.3-11
		c3.8-3.9,8.8-6.1,14.3-6.1c5.4,0,10.5,2.2,14.3,6.1c3,3.2,4.9,7.1,5.3,11.3C41.1,23,40,22.5,38.5,22.5z"/>
</g>
</svg>
