<?xml version="1.0" encoding="utf-8"?>
<!-- Generator: Adobe Illustrator 18.0.0, SVG Export Plug-In . SVG Version: 6.00 Build 0)  -->
<!DOCTYPE svg PUBLIC "-//W3C//DTD SVG 1.1//EN" "http://www.w3.org/Graphics/SVG/1.1/DTD/svg11.dtd">
<svg version="1.1" id="Layer_1" xmlns="http://www.w3.org/2000/svg" xmlns:xlink="http://www.w3.org/1999/xlink" x="0px" y="0px"
	 viewBox="0 0 50 49.8" enable-background="new 0 0 50 49.8" xml:space="preserve">
<g>
	<g>
		<path fill="#387C42" d="M3.2,2.8c11.1-0.3,22.1-0.3,33.2,0.1c1.5,0,1.4-2.2,0-2.2C25.3,0.2,14.2,0.2,3.2,0.5
			C1.7,0.5,1.7,2.8,3.2,2.8L3.2,2.8z"/>
	</g>
</g>
<g>
	<g>
		<path fill="#387C42" d="M35.4,2.2C35.2,11.8,35,21.4,35.3,31c0.2,5.8-1,13.5,4.5,16.9c4.7,2.9,8.9-1.8,9.5-6
			c0.6-4.2,0.2-8.7,0.1-13c-0.1-5.9-0.2-11.8-0.2-17.6c0-1.4-2.3-1.5-2.2,0c0.1,6.5,0.2,13.1,0.3,19.6c0,3,0.1,6,0,9
			c-0.2,5.2-7.1,9-8.7,2.9c-1.7-6.5-1.1-14.2-1.1-20.9c-0.1-6.6,0.2-13.2,0.3-19.8C37.7,0.8,35.5,0.8,35.4,2.2L35.4,2.2z"/>
	</g>
</g>
<g>
	<g>
		<path fill="#387C42" d="M1.1,1.5C1,10,1,18.5,1.1,27c0.1,5.9-1.3,14.5,2.1,19.6c2.5,3.8,10.5,2.5,14.1,2.6
			c8.4,0.2,16.8,0.4,25.1-0.1c1.4-0.1,1.5-2.3,0-2.2c-6,0.3-11.9,0.3-17.9,0.2C20.1,47.1,5.8,48.9,4,43.2c-1-3-0.5-7.3-0.5-10.4
			c-0.1-3.3-0.1-6.5-0.1-9.8c-0.1-7.2,0-14.4,0.1-21.5C3.4,0.1,1.1,0.1,1.1,1.5L1.1,1.5z"/>
	</g>
</g>
<g>
	<g>
		<path fill="#387C42" d="M36.5,5.8c1.4,0,2.8,0,4.2,0c1.3,0,0.8,6.4,0.8,7.2c0,4.8-0.1,9.7-0.2,14.5c-0.1,5.2-2.1,14.3,4.5,16.1
			c1.4,0.4,2-1.8,0.6-2.2c-4.4-1.2-2.9-12.4-2.8-15.7c0.1-4.9,0.2-9.7,0.2-14.6c0-1.7,0.8-5.6-0.6-7c-1.3-1.3-5.1-0.6-6.7-0.6
			C35,3.6,35,5.8,36.5,5.8L36.5,5.8z"/>
	</g>
</g>
<g>
	<g>
		<path fill="#387C42" d="M48,10.2c-1.3,0-2.6-0.1-4-0.2c-1.5,0-1.5,2.2,0,2.2c1.3,0,2.6,0.1,4,0.2C49.5,12.5,49.5,10.2,48,10.2
			L48,10.2z"/>
	</g>
</g>
<g>
	<g>
		<path fill="#387C42" d="M8.4,9.1c7.3,0,14.6,0,21.9,0c1,0,1-1.5,0-1.5c-7.3,0-14.6,0-21.9,0C7.4,7.6,7.4,9.1,8.4,9.1L8.4,9.1z"/>
	</g>
</g>
<g>
	<g>
		<path fill="#387C42" d="M8.4,33.1c7.3,0,14.6,0,21.9,0c1,0,1-1.5,0-1.5c-7.3,0-14.6,0-21.9,0C7.4,31.6,7.4,33.1,8.4,33.1L8.4,33.1
			z"/>
	</g>
</g>
<g>
	<g>
		<path fill="#387C42" d="M8.4,38.1c7.3,0,14.6,0,21.9,0c1,0,1-1.5,0-1.5c-7.3,0-14.6,0-21.9,0C7.4,36.6,7.4,38.1,8.4,38.1L8.4,38.1
			z"/>
	</g>
</g>
<g>
	<g>
		<path fill="#387C42" d="M9.3,13.6c1.1,0,8.5-0.6,8.5,0.7c0,3.4,0,6.8,0,10.2c0.2-0.2,0.5-0.5,0.8-0.8c-3,0.1-6,0.1-9,0.1
			c0.2,0.2,0.5,0.5,0.8,0.8c-0.2-3.9-0.2-7.8-0.1-11.7c0-1-1.5-1-1.5,0c-0.1,3.9,0,7.8,0.1,11.7c0,0.4,0.3,0.7,0.8,0.8
			c3,0,6,0,9-0.1c0.4,0,0.8-0.3,0.8-0.8c0-2.2,0-4.3,0-6.5c0-1.7,0.3-3.6-0.1-5.2c-0.1-0.3-0.3-0.4-0.5-0.5
			c-1.3-0.4-2.8-0.2-4.2-0.2c-1.7,0-3.5,0-5.2,0C8.3,12.1,8.3,13.6,9.3,13.6L9.3,13.6z"/>
	</g>
</g>
<g>
	<g>
		<path fill="#387C42" d="M23.7,14.5c2.3,0,4.7,0,7,0c1,0,1-1.5,0-1.5c-2.3,0-4.7,0-7,0C22.8,13,22.8,14.5,23.7,14.5L23.7,14.5z"/>
	</g>
</g>
<g>
	<g>
		<path fill="#387C42" d="M23.7,19.5c2.3,0,4.7,0,7,0c1,0,1-1.5,0-1.5c-2.3,0-4.7,0-7,0C22.8,18,22.8,19.5,23.7,19.5L23.7,19.5z"/>
	</g>
</g>
<g>
	<g>
		<path fill="#387C42" d="M23.7,25.5c2.3,0,4.7,0,7,0c1,0,1-1.5,0-1.5c-2.3,0-4.7,0-7,0C22.8,24,22.8,25.5,23.7,25.5L23.7,25.5z"/>
	</g>
</g>
</svg>
