<?xml version="1.0" encoding="utf-8"?>
<!-- Generator: Adobe Illustrator 18.0.0, SVG Export Plug-In . SVG Version: 6.00 Build 0)  -->
<!DOCTYPE svg PUBLIC "-//W3C//DTD SVG 1.1//EN" "http://www.w3.org/Graphics/SVG/1.1/DTD/svg11.dtd">
<svg version="1.1" id="Layer_1" xmlns="http://www.w3.org/2000/svg" xmlns:xlink="http://www.w3.org/1999/xlink" x="0px" y="0px"
	 viewBox="0 0 29.3 45.2" enable-background="new 0 0 29.3 45.2" xml:space="preserve">
<g>
	<g>
		<path fill="#CCCCCC" d="M29.3,22.6c0-5-2.6-9.4-6.6-11.9V0.9c0-0.5-0.4-0.9-0.9-0.9H8.6C8,0,7.6,0.4,7.6,0.9v9.7
			C3.7,13.2,1,17.6,1,22.6S3.7,32,7.6,34.5v9.7c0,0.5,0.4,0.9,0.9,0.9h13.2c0.5,0,0.9-0.4,0.9-0.9v-9.7C26.6,32,29.3,27.6,29.3,22.6
			z M9.5,1.9h11.3v7.8c-1.7-0.8-3.6-1.2-5.6-1.2c-2,0-3.9,0.4-5.6,1.2V1.9z M20.8,43.3H9.5v-7.8c1.7,0.8,3.6,1.2,5.6,1.2
			c2,0,3.9-0.4,5.6-1.2V43.3z M15.2,34.8c-6.7,0-12.2-5.5-12.2-12.2s5.5-12.2,12.2-12.2c6.7,0,12.2,5.5,12.2,12.2
			S21.9,34.8,15.2,34.8z"/>
		<path fill="#CCCCCC" d="M15.2,22.2v-5.2c0-0.5-0.4-0.9-0.9-0.9c-0.5,0-0.9,0.4-0.9,0.9v5.6c0,0.3,0.1,0.5,0.3,0.7l6.6,5.6
			c0.2,0.2,0.4,0.2,0.6,0.2c0.3,0,0.5-0.1,0.7-0.3c0.3-0.4,0.3-1-0.1-1.3L15.2,22.2z"/>
	</g>
</g>
</svg>
