<?xml version="1.0" encoding="utf-8"?>
<!-- Generator: Adobe Illustrator 18.0.0, SVG Export Plug-In . SVG Version: 6.00 Build 0)  -->
<!DOCTYPE svg PUBLIC "-//W3C//DTD SVG 1.1//EN" "http://www.w3.org/Graphics/SVG/1.1/DTD/svg11.dtd">
<svg version="1.1" id="Layer_1" xmlns="http://www.w3.org/2000/svg" xmlns:xlink="http://www.w3.org/1999/xlink" x="0px" y="0px"
	 viewBox="0 0 65.6 52.7" enable-background="new 0 0 65.6 52.7" xml:space="preserve">
<g>
	<g>
		<g>
			<path fill="#387C42" d="M11.4,28.5c0.8,0.3,0.7,0.8-0.3,1.3C9.5,31,8.5,30,7.5,29c-0.9-0.9-1.8-1.8-2.7-2.7c-0.6-0.6-2.9-1.9-2-3
				c0.6-0.8,1.6-1.4,2.4-2c-0.5,0-1,0-1.5,0c0.4,0.3,0.9,0.7,1.3,1c1,0.8,2.5-0.6,1.5-1.5c-0.4-0.3-0.9-0.7-1.3-1
				c-0.5-0.4-1-0.4-1.5,0c-1.7,1.3-3.7,2.6-3.2,5c0.2,0.9,1.1,1.5,1.8,2c1.4,1.1,2.6,2.4,3.8,3.7c1.8,1.9,3.8,2.6,6.1,1.2
				c1.9-1.2,2.6-3.1,0.7-4.6C11.8,26.2,10.3,27.7,11.4,28.5L11.4,28.5z"/>
		</g>
	</g>
	<g>
		<g>
			<path fill="#387C42" d="M7,21.3c2.6-2.6,5.2-5.1,7.8-7.7c0.9-0.9,1.9-1.9,2.7-2.9c1-1.2,2.1-2.4,3.3-3.5c-0.9,0.8,4.6-4.5,4.1-2
				C24.6,6.7,24,8,24.3,9.6c0.6,3.2,1.6,3.5-1,6c-3.9,3.8-8.6,6.5-12,10.9c-0.8,1,0.6,2.5,1.5,1.5c4.3-5.4,10.6-8.6,14.9-14
				c0.3-0.4,0.4-0.9,0.2-1.3c-2-3-0.7-5.1-0.7-8.2c0-1.3-0.4-1.7-1.2-2.5c-0.3-0.3-0.9-0.4-1.3-0.2c-7.3,4.4-13.2,11.9-19.1,18
				C4.6,20.8,6.1,22.3,7,21.3L7,21.3z"/>
		</g>
	</g>
	<g>
		<g>
			<path fill="#387C42" d="M20.4,20.7c2,1.6,3.3,3.9,5,5.7c2,2,4.2,3.9,6.2,5.9c1,0.9,2.5-0.5,1.5-1.5c-1.9-1.8-3.8-3.6-5.7-5.4
				c-2-1.9-3.4-4.5-5.6-6.2C20.8,18.4,19.3,19.9,20.4,20.7L20.4,20.7z"/>
		</g>
	</g>
	<g>
		<g>
			<path fill="#387C42" d="M16.8,23.9c2.1,2.3,4.2,4.6,6.4,6.9c1.9,2,3.6,4,6,5.4c1.2,0.7,2.2-1.1,1.1-1.8c-2.2-1.3-3.9-3.2-5.6-5.1
				c-2.1-2.3-4.2-4.6-6.4-6.9C17.3,21.4,15.9,22.9,16.8,23.9L16.8,23.9z"/>
		</g>
	</g>
	<g>
		<g>
			<path fill="#387C42" d="M28.3,38.5c2.7-1.5,4.2-4.3,6.5-6.2c1-0.9-0.5-2.3-1.5-1.5c-2.2,1.8-3.5,4.5-6.1,5.9
				C26,37.4,27.1,39.2,28.3,38.5L28.3,38.5z"/>
		</g>
	</g>
	<g>
		<g>
			<path fill="#387C42" d="M26.8,38.2c3.9,5.4,9.6,9.7,14.9,13.7c0.4,0.3,0.9,0.1,1.3-0.2c2.3-1.8,4.5-3.6,6.3-5.8
				c0.9-1-0.6-2.5-1.5-1.5c-1.1,1.3-2.2,2.4-3.5,3.5c-0.6,0.6-1.3,1.1-2,1.6c-0.5,0.4-3.2-2.3-3.9-2.8c-3.5-2.8-7.2-6-9.8-9.6
				C27.8,36,26,37.1,26.8,38.2L26.8,38.2z"/>
		</g>
	</g>
	<g>
		<g>
			<path fill="#387C42" d="M33.5,32.3c4.9,4.3,9.8,8.8,14.3,13.6c0.9,1,2.4-0.5,1.5-1.5c-4.4-4.8-9.4-9.3-14.3-13.6
				C34,29.9,32.5,31.4,33.5,32.3L33.5,32.3z"/>
		</g>
	</g>
	<g>
		<g>
			<path fill="#387C42" d="M26,32.9c-2.8,2.9-12.2,11.3-8.5,16.1c4.5,5.8,12.2-2.3,14.8-6c0.8-1.1-1-2.1-1.8-1.1
				c-1.1,1.6-2.5,2.9-3.9,4.2c-1,1-2.1,1.7-3.4,2.3c-3,1.2-4.8-1.5-3.7-4.2c1.5-3.6,5.2-7.1,8-9.8C28.4,33.4,26.9,31.9,26,32.9
				L26,32.9z"/>
		</g>
	</g>
	<g>
		<g>
			<path fill="#387C42" d="M31.8,29.5c2.7-2.6,5.6-5,8.5-7.4c0.3-0.2,0.4-0.7,0.3-1c-1.1-3.9-1.2-7.7-0.5-11.7c1.4-8,10.9-7.5,17-6
				c-0.2-0.6-0.3-1.2-0.5-1.8c-1.6,1.7-6.5,5.1-6.9,7.3c-0.5,2.3-0.3,4.8-0.4,7.1c0,0.6,0.5,1,1.1,1.1c2,0.2,4.6,0.4,6.6-0.1
				c2.4-0.7,5.8-5.1,7.8-6.6c-0.5-0.3-1.1-0.6-1.6-0.9c0,2.3,0,4.6-0.1,7c-0.1,3.4-0.3,6.2-3.5,8.5c-3,2.1-9.9,2.9-13.1,1.3
				c-0.4-0.2-0.9-0.2-1.3,0.2c-2.5,2.6-5,5.3-7.5,7.8c-0.9,1,0.5,2.5,1.5,1.5c1.6-1.6,3.2-3.3,4.8-5c1.8-1.9,2.1-2.1,4.6-1.6
				c3.7,0.7,8.9-0.8,12.1-2.4C66.3,23.9,65.1,15,65,9.6c0-0.7-0.9-1.4-1.6-0.9c-1.9,1.4-3.6,2.9-5.3,4.5c-2.4,2.2-4.8,2.3-7.9,2
				c0.3,0.3,0.7,0.7,1,1c0.1-1.6,0.2-3.3,0.3-4.9c0.2-2.9,4.6-6.1,6.5-8c0.5-0.6,0.3-1.6-0.5-1.8c-7.3-1.8-16.3-2-19.2,6
				c-1.3,3.7-1,8.1-0.4,11.9c0.5,3.2-5.4,6.4-7.7,8.6C29.3,29,30.8,30.5,31.8,29.5L31.8,29.5z"/>
		</g>
	</g>
</g>
</svg>
