<?xml version="1.0" encoding="utf-8"?>
<!-- Generator: Adobe Illustrator 18.0.0, SVG Export Plug-In . SVG Version: 6.00 Build 0)  -->
<!DOCTYPE svg PUBLIC "-//W3C//DTD SVG 1.1//EN" "http://www.w3.org/Graphics/SVG/1.1/DTD/svg11.dtd">
<svg version="1.1" id="Layer_1" xmlns="http://www.w3.org/2000/svg" xmlns:xlink="http://www.w3.org/1999/xlink" x="0px" y="0px"
	 viewBox="0 0 99.1 81.1" enable-background="new 0 0 99.1 81.1" xml:space="preserve">
<g>
	<g>
		<g id="Errthang_Else_5_">
			<text transform="matrix(1 0 0 1 39.1723 40.9923)"><tspan x="0" y="0" fill="#387C42" font-family="'ProximaNova-Regular'" font-size="8.9892">HEALTH</tspan><tspan x="-8.7" y="9" fill="#387C42" font-family="'ProximaNova-Bold'" font-size="8.9892">INSURANCE</tspan></text>
			<text transform="matrix(1 0 0 1 62.9204 69.3791)" fill="#387C42" font-family="'ProximaNova-Regular'" font-size="8.9892">/mo</text>
			<text transform="matrix(1 0 0 1 34.852 69.3786)" fill="#387C42" font-family="'ProximaNova-Bold'" font-size="14.768">$$$</text>
		</g>
	</g>
	<g>
		<g>
			<path fill="#387C42" d="M30.1,14.1c22.6,0,45.2-0.3,67.8-0.1c-0.4-0.4-0.8-0.8-1.1-1.1c0,22.2,0,44.5,0,66.7c0,1.5,2.2,1.5,2.2,0
				c0-22.2,0-44.5,0-66.7c0-0.6-0.5-1.1-1.1-1.1c-22.6-0.2-45.2,0.1-67.8,0.1C28.6,11.8,28.6,14.1,30.1,14.1L30.1,14.1z"/>
		</g>
	</g>
	<g>
		<g>
			<path fill="#387C42" d="M12.6,80c0.1-16.5,0-33.1,0-49.6c0-1.5-2.3-1.5-2.2,0c0,16.5,0.1,33.1,0,49.6
				C10.4,81.4,12.6,81.4,12.6,80L12.6,80z"/>
		</g>
	</g>
	<g>
		<g>
			<path fill="#387C42" d="M19.2,0.5c-7.5-1.7-17,3.3-18.4,11.2c-1.7,9.5,1.4,16.6,10.8,19.7c9.3,3.1,18-2.7,19.3-12
				c0.6-4.3,0.9-9-1.8-12.6C26.9,3.7,22.6,1.7,19.2,0.5c-1.4-0.5-2,1.7-0.6,2.2c3,1,5.4,2.5,7.8,4.6c3,2.6,2.6,6.7,2.4,10.3
				c-0.5,9.3-7.8,14-16.6,11.8C8.8,28.4,6,26.2,4,23.5c-2-2.7-1.2-7-1.1-10.1c0.3-7.3,9-12.2,15.7-10.7C20,3,20.6,0.8,19.2,0.5z"/>
		</g>
	</g>
	<g>
		<g>
			<path fill="#387C42" d="M14.6,11.9c-2.8-3.4-7.1-0.3-7,3.4c0,1.6,2,2.3,3.3,2c2.4-0.6,3.5-2.5,3.9-4.8c0.1-0.9-1.2-1.3-1.3-0.4
				c-0.7,3.6-1.2,7.2-1.6,10.8c-0.1,0.9,1.3,0.9,1.4,0c0.4-3.5,1-6.9,1.6-10.4c-0.4-0.1-0.9-0.2-1.3-0.4c-0.2,1.1-0.4,1.9-1.2,2.9
				c-0.7,0.9-3.2,1.6-3.3-0.3c-0.1-2.5,2.9-4,4.6-1.9C14.1,13.6,15.1,12.6,14.6,11.9L14.6,11.9z"/>
		</g>
	</g>
	<g>
		<g>
			<path fill="#387C42" d="M23.6,11.9c-2.7-3.3-7.1-0.4-7,3.4c0,1.6,2,2.3,3.3,2c2.4-0.6,3.5-2.5,3.9-4.8c0.1-0.9-1.2-1.3-1.3-0.4
				c-0.7,3.6-1.2,7.2-1.6,10.8c-0.1,0.9,1.3,0.9,1.4,0c0.4-3.5,1-6.9,1.6-10.4c-0.4-0.1-0.9-0.2-1.3-0.4c-0.2,1.1-0.4,1.9-1.2,2.9
				c-0.7,0.9-3.2,1.6-3.3-0.3c-0.1-2.7,3-3.9,4.6-1.9C23.1,13.6,24.1,12.6,23.6,11.9L23.6,11.9z"/>
		</g>
	</g>
</g>
</svg>
