<?xml version="1.0" encoding="utf-8"?>
<!-- Generator: Adobe Illustrator 18.0.0, SVG Export Plug-In . SVG Version: 6.00 Build 0)  -->
<!DOCTYPE svg PUBLIC "-//W3C//DTD SVG 1.1//EN" "http://www.w3.org/Graphics/SVG/1.1/DTD/svg11.dtd">
<svg version="1.1" id="Layer_1" xmlns="http://www.w3.org/2000/svg" xmlns:xlink="http://www.w3.org/1999/xlink" x="0px" y="0px"
	 viewBox="0 0 38.2 42" enable-background="new 0 0 38.2 42" xml:space="preserve">
<g>
	<g>
		<g>
			<path fill="#CCCCCC" d="M26.3,30.1c-2.6,0-4.8,1.6-5.6,3.9c-0.5-0.4-1-0.6-1.7-0.6c-0.6,0-1.2,0.2-1.7,0.6
				c-0.8-2.3-3-3.9-5.6-3.9c-3.3,0-6,2.7-6,6c0,3.3,2.7,6,6,6s6-2.7,6-6c0-0.7,0.6-1.3,1.3-1.3c0.7,0,1.3,0.6,1.3,1.3
				c0,3.3,2.7,6,6,6s6-2.7,6-6C32.2,32.8,29.5,30.1,26.3,30.1z M11.7,40.7C9.1,40.7,7,38.6,7,36c0-2.6,2.1-4.6,4.6-4.6
				s4.6,2.1,4.6,4.6C16.3,38.6,14.2,40.7,11.7,40.7z M26.3,40.7c-2.6,0-4.6-2.1-4.6-4.6c0-2.6,2.1-4.6,4.6-4.6s4.6,2.1,4.6,4.6
				C30.9,38.6,28.8,40.7,26.3,40.7z"/>
			<path fill="#CCCCCC" d="M4.7,32.1c-0.3-0.2-0.7,0-0.9,0.3C3.3,33.6,3,34.8,3,36c0,0.4,0.3,0.7,0.7,0.7s0.7-0.3,0.7-0.7
				C4.4,35,4.6,34,5,33C5.2,32.7,5,32.3,4.7,32.1z"/>
			<path fill="#CCCCCC" d="M34.1,32.5c-0.2-0.3-0.5-0.5-0.9-0.3c-0.3,0.2-0.5,0.5-0.3,0.9c0.4,1,0.7,2,0.7,3c0,0.4,0.3,0.7,0.7,0.7
				c0.4,0,0.7-0.3,0.7-0.7C34.9,34.8,34.6,33.6,34.1,32.5z"/>
		</g>
		<path fill="#CCCCCC" d="M36.6,16.9c-0.4,0-0.8,0.3-0.8,0.8c0,2.9-2,5.2-4.6,5.9V13.1c0-6.8-5.5-12.3-12.3-12.3S6.7,6.3,6.7,13.1
			v10.5c-2.6-0.7-4.6-3.1-4.6-5.9c0-0.4-0.3-0.8-0.8-0.8s-0.8,0.3-0.8,0.8c0,4.2,3.4,7.7,7.7,7.7h21.5c4.2,0,7.7-3.4,7.7-7.7
			C37.4,17.3,37,16.9,36.6,16.9z M19,2.3c5.9,0,10.7,4.8,10.7,10.7v6.1H8.2v-6.1C8.2,7.2,13,2.3,19,2.3z M8.2,23.8v-3.1h21.5v3.1
			H8.2z"/>
	</g>
</g>
</svg>
