<?xml version="1.0" encoding="utf-8"?>
<!-- Generator: Adobe Illustrator 18.0.0, SVG Export Plug-In . SVG Version: 6.00 Build 0)  -->
<!DOCTYPE svg PUBLIC "-//W3C//DTD SVG 1.1//EN" "http://www.w3.org/Graphics/SVG/1.1/DTD/svg11.dtd">
<svg version="1.1" id="Layer_1" xmlns="http://www.w3.org/2000/svg" xmlns:xlink="http://www.w3.org/1999/xlink" x="0px" y="0px"
	 viewBox="0 0 34.4 32.9" enable-background="new 0 0 34.4 32.9" xml:space="preserve">
<g>
	<g>
		<path fill="#CCCCCC" d="M33.7,18.7H23c-0.3,0-0.5,0.2-0.6,0.4L21,21.7l-2.4-8.3c-0.1-0.3-0.3-0.5-0.6-0.5c-0.3,0-0.6,0.1-0.7,0.4
			l-3,6.1l-2.2-3.3c-0.1-0.2-0.3-0.3-0.6-0.3c-0.2,0-0.5,0.1-0.6,0.3L9,18.7H0.7C0.3,18.7,0,19,0,19.4c0,0.4,0.3,0.7,0.7,0.7h8.6
			c0.2,0,0.4-0.1,0.6-0.3l1.5-2.1l2.3,3.5c0.1,0.2,0.4,0.3,0.6,0.3c0.3,0,0.5-0.2,0.6-0.4l2.8-5.5l2.4,8.3c0.1,0.3,0.3,0.5,0.6,0.5
			c0,0,0,0,0.1,0c0.3,0,0.5-0.2,0.6-0.4l2-3.9h10.3c0.4,0,0.7-0.3,0.7-0.7C34.4,19,34.1,18.7,33.7,18.7z"/>
		<path fill="#CCCCCC" d="M3.5,17.2c0.1,0,0.2,0,0.3-0.1c0.4-0.1,0.5-0.6,0.4-0.9c-0.8-2-1.3-4-1.3-5.9c0-5.7,3.2-8.5,6.3-8.7
			c3.1-0.2,6.5,1.9,7.3,7.2c0.1,0.3,0.4,0.6,0.7,0.6c0.4,0,0.7-0.3,0.7-0.6c0.8-5.3,4.4-7.5,7.5-7.2c3,0.2,6.1,2.8,6.1,8
			c0,2.1-0.6,4.4-1.7,6.8c-0.2,0.4,0,0.8,0.3,1c0.4,0.2,0.8,0,1-0.3c1.2-2.6,1.9-5.1,1.9-7.4c0-4.3-2.3-9-7.4-9.4
			c-3.1-0.2-6.7,1.5-8.3,5.7c-1.6-4.2-5.1-5.9-8.1-5.7C5.3,0.4,1.4,3.7,1.4,10.3c0,2.1,0.5,4.3,1.4,6.5C2.9,17.1,3.2,17.2,3.5,17.2z
			"/>
		<path fill="#CCCCCC" d="M26.4,21.8c-3.5,4.7-7.9,8.3-9.2,9.4c-1.4-1-6.2-4.6-9.8-9.4c-0.2-0.3-0.7-0.4-1-0.1
			c-0.3,0.2-0.4,0.7-0.1,1c4.5,6,10.4,9.9,10.6,10.1c0.1,0.1,0.3,0.1,0.4,0.1c0.2,0,0.3-0.1,0.4-0.1c0.2-0.2,5.5-4.3,9.9-10
			c0.2-0.3,0.2-0.8-0.1-1C27.1,21.4,26.6,21.5,26.4,21.8z"/>
	</g>
</g>
</svg>
