<?xml version="1.0" encoding="utf-8"?>
<!-- Generator: Adobe Illustrator 18.0.0, SVG Export Plug-In . SVG Version: 6.00 Build 0)  -->
<!DOCTYPE svg PUBLIC "-//W3C//DTD SVG 1.1//EN" "http://www.w3.org/Graphics/SVG/1.1/DTD/svg11.dtd">
<svg version="1.1" id="Layer_1" xmlns="http://www.w3.org/2000/svg" xmlns:xlink="http://www.w3.org/1999/xlink" x="0px" y="0px"
	 viewBox="0 0 48.4 43.3" enable-background="new 0 0 48.4 43.3" xml:space="preserve">
<g>
	<g>
		<path fill="#387C42" d="M1.6,19.7C17.2,14.8,32.5,9,47.4,2.3c1.3-0.6,0.2-2.5-1.1-1.9C31.5,7,16.4,12.7,1,17.6
			C-0.3,18,0.3,20.2,1.6,19.7L1.6,19.7z"/>
	</g>
</g>
<g>
	<g>
		<path fill="#387C42" d="M46,1.7c-2.1,11.4-5,22.7-8.7,33.7c-0.5,1.4,1.7,2,2.2,0.6c3.7-11,6.6-22.3,8.7-33.7
			C48.4,0.8,46.3,0.2,46,1.7L46,1.7z"/>
	</g>
</g>
<g>
	<g>
		<path fill="#387C42" d="M1.1,20.3c12.2,5.5,24.3,10.9,36.6,16.3c1.3,0.6,2.5-1.4,1.1-1.9C26.6,29.3,14.4,23.8,2.3,18.3
			C0.9,17.7-0.2,19.7,1.1,20.3L1.1,20.3z"/>
	</g>
</g>
<g>
	<g>
		<path fill="#387C42" d="M19.9,26.8c9.9-7.1,17.6-17.3,27.5-24.4c1.2-0.8,0-2.8-1.1-1.9c-9.9,7.1-17.6,17.3-27.5,24.4
			C17.5,25.7,18.7,27.6,19.9,26.8L19.9,26.8z"/>
	</g>
</g>
<g>
	<g>
		<path fill="#387C42" d="M17.8,28c0,4.7,0,9.4,0,14.2c0,0.9,1.3,1.6,1.9,0.8c2.8-3.5,5.5-7,7.1-11.2c0.5-1.4-1.7-1.9-2.2-0.6
			c-1.5,3.8-4,7-6.6,10.2c0.6,0.3,1.3,0.5,1.9,0.8c0-4.7,0-9.4,0-14.2C20.1,26.5,17.8,26.5,17.8,28L17.8,28z"/>
	</g>
</g>
</svg>
