<?xml version="1.0" encoding="utf-8"?>
<!-- Generator: Adobe Illustrator 18.0.0, SVG Export Plug-In . SVG Version: 6.00 Build 0)  -->
<!DOCTYPE svg PUBLIC "-//W3C//DTD SVG 1.1//EN" "http://www.w3.org/Graphics/SVG/1.1/DTD/svg11.dtd">
<svg version="1.1" id="Layer_1" xmlns="http://www.w3.org/2000/svg" xmlns:xlink="http://www.w3.org/1999/xlink" x="0px" y="0px"
	 viewBox="0 0 41.8 34.6" enable-background="new 0 0 41.8 34.6" xml:space="preserve">
<g>
	<g>
		<path fill="#CCCCCC" d="M40.1,6.1H24.2V5.3c0-2.3-1.9-4.2-4.2-4.2S15.8,3,15.8,5.3V7v2.5H9.1c-0.3,0-0.6,0.2-0.7,0.4l-4.1,7.4
			L1,20.6c-0.2,0.2-0.2,0.4-0.2,0.6v9.2c0,0.5,0.4,0.8,0.8,0.8H5c0.4,1.9,2.1,3.3,4.1,3.3s3.7-1.4,4.1-3.3h15.2
			c0.4,1.9,2.1,3.3,4.1,3.3s3.7-1.4,4.1-3.3h3.4c0.5,0,0.8-0.4,0.8-0.8V7C40.9,6.5,40.6,6.1,40.1,6.1z M39.3,26.2H17.5V10.3V7.8h5.9
			h15.9V26.2z M28.5,29.6H13.2c-0.1-0.6-0.4-1.2-0.8-1.7h16.8C28.9,28.4,28.6,28.9,28.5,29.6z M17.5,5.3c0-1.4,1.1-2.5,2.5-2.5
			c1.4,0,2.5,1.1,2.5,2.5v0.8h-5V5.3z M5.5,18.4c0.1-0.1,0.1-0.1,0.1-0.2l3.9-7.1h6.2v15.1H2.4v-4.7L5.5,18.4z M2.4,27.9h3.4
			c-0.4,0.5-0.6,1.1-0.8,1.7H2.4V27.9z M9.1,32.9c-1.4,0-2.5-1.1-2.5-2.5s1.1-2.5,2.5-2.5s2.5,1.1,2.5,2.5S10.5,32.9,9.1,32.9z
			 M32.6,32.9c-1.4,0-2.5-1.1-2.5-2.5s1.1-2.5,2.5-2.5c1.4,0,2.5,1.1,2.5,2.5S33.9,32.9,32.6,32.9z M36.7,29.6
			c-0.1-0.6-0.4-1.2-0.8-1.7h3.4v1.7H36.7z"/>
		<path fill="#CCCCCC" d="M7.9,19.4c0.1,0.1,0.2,0.1,0.4,0.1c0.3,0,0.6-0.2,0.7-0.5l2.3-4.6h2c0.5,0,0.8-0.4,0.8-0.8
			s-0.4-0.8-0.8-0.8h-2.5c-0.3,0-0.6,0.2-0.7,0.5l-2.5,5C7.3,18.7,7.5,19.2,7.9,19.4z"/>
		<path fill="#CCCCCC" d="M22.5,15.3v3.3c0,0.5,0.4,0.8,0.8,0.8h2.5V22c0,0.5,0.4,0.8,0.8,0.8H30c0.5,0,0.8-0.4,0.8-0.8v-2.5h2.5
			c0.5,0,0.8-0.4,0.8-0.8v-3.3c0-0.5-0.4-0.8-0.8-0.8h-2.5V12c0-0.5-0.4-0.8-0.8-0.8h-3.3c-0.5,0-0.8,0.4-0.8,0.8v2.5h-2.5
			C22.9,14.5,22.5,14.9,22.5,15.3z M24.2,16.2h2.5c0.5,0,0.8-0.4,0.8-0.8v-2.5h1.7v2.5c0,0.5,0.4,0.8,0.8,0.8h2.5v1.7H30
			c-0.5,0-0.8,0.4-0.8,0.8v2.5h-1.7v-2.5c0-0.5-0.4-0.8-0.8-0.8h-2.5V16.2z"/>
	</g>
</g>
</svg>
