<?xml version="1.0" encoding="utf-8"?>
<!-- Generator: Adobe Illustrator 18.0.0, SVG Export Plug-In . SVG Version: 6.00 Build 0)  -->
<!DOCTYPE svg PUBLIC "-//W3C//DTD SVG 1.1//EN" "http://www.w3.org/Graphics/SVG/1.1/DTD/svg11.dtd">
<svg version="1.1" id="Layer_1" xmlns="http://www.w3.org/2000/svg" xmlns:xlink="http://www.w3.org/1999/xlink" x="0px" y="0px"
	 viewBox="0 0 56.3 57.6" enable-background="new 0 0 56.3 57.6" xml:space="preserve">
<g>
	<g>
		<g>
			<g>
				<path fill="#387C42" d="M25.7,39.7c-3.1-0.1-6.2,0-9.2,0.2c-0.7,0-1.3,0.7-1.1,1.4c1.1,3.3,2.3,6.5,3.5,9.8
					c0.6,1.6,1.2,4.2,2.5,5.5c1.3,1.3,4.8,0.6,6.3,0.6c1.9,0,4,0.3,5.8-0.3c1-0.3,1.3-1.8,1.6-2.7c0.9-2.5,1.8-5,2.7-7.4
					c0.7-1.8,1.5-3.6,2.1-5.4c0.2-0.7-0.4-1.4-1.1-1.4C34.5,39.8,30.1,39.8,25.7,39.7c-1.5,0-1.4,2.2,0,2.2
					c4.4,0.1,8.8,0.1,13.2,0.1c-0.4-0.5-0.7-0.9-1.1-1.4c-1.3,3.8-3,7.5-4.3,11.4c-0.6,1.8-0.8,2.8-2.8,2.8c-1.1,0-7.3,0.6-7.9-0.3
					c-2.6-3.7-3.7-9.7-5.2-13.9c-0.4,0.5-0.7,0.9-1.1,1.4c3.1-0.2,6.2-0.3,9.2-0.2C27.2,42,27.2,39.7,25.7,39.7L25.7,39.7z"/>
			</g>
		</g>
		<g>
			<g>
				<path fill="#387C42" d="M26.4,26.1c0.3,4.5,0.5,9,0.8,13.5c0.1,1.4,2.3,1.5,2.2,0c-0.3-4.5-0.5-9-0.8-13.5
					C28.6,24.7,26.3,24.7,26.4,26.1L26.4,26.1z"/>
			</g>
		</g>
		<g>
			<g>
				<path fill="#387C42" d="M26.9,24.9c-5.6,0-11.1-0.1-16.7-0.1c-3.1,0-6.8,1-7.2-3.8c-0.4-4.2,3.4-4.6,6.5-5.3
					c0.5-0.1,0.9-0.8,1.2-1.2c0.2-0.3,0.3-0.7,0.4-1.1c1-3.4,3.3-4,6.6-4c0.7,0,1.7-0.4,2.1-1c2.2-3.3,4.5-5.5,8.7-5.7
					c3.3-0.2,6.3,2.1,8,4.7c0.6,1,1.2,2,2.5,2.2c2.7,0.4,4.8,1.5,6.3,4c0.7,1.2,1,1.3,2.3,1.6c2.3,0.4,6.3-0.5,6.4,3.7
					c0,5.3-7.2,5.3-10.8,5.6C37.5,25,32.2,25.2,26.9,24.9c-1.4-0.1-1.4,2.2,0,2.2c8.2,0.5,17,0.2,25.1-1.4c4.4-0.8,5-7,3.1-10.2
					c-0.9-1.4-3.2-2.3-4.8-2.4c-3.6-0.3-4.3-2.9-7.2-4.7c-1.5-0.9-3.7-0.6-4.9-2.2C37.3,5,36.5,4,35.4,3c-2-1.7-4.6-2.4-7.1-2.6
					c-2.4-0.2-5.3,1-7.1,2.5c-1.2,1-2,2-2.8,3.3c-0.8,1.3-3.6,0.9-5,1.1c-1.9,0.3-3.6,2.6-4.2,4.3c-1.1,3-4.7,1.6-6.7,3.6
					c-2.9,2.9-2.5,8.9,1,11.1c2.2,1.4,6.3,0.6,8.6,0.6c4.9,0,9.9,0.1,14.8,0.1C28.4,27.1,28.3,24.9,26.9,24.9L26.9,24.9z"/>
			</g>
		</g>
		<g>
			<g>
				<path fill="#387C42" d="M18,27.5c2.1,2,4.3,3.9,6.4,5.9c0.9,0.8,2.4,2.9,3.8,2.7c4.2-0.7,7.7-6.1,10-9.3
					c0.9-1.2-1.1-2.3-1.9-1.1c-1.9,2.5-3.9,4.9-6.2,7c-2.7,2.4-8.7-5.1-10.5-6.7C18.5,24.9,17,26.5,18,27.5L18,27.5z"/>
			</g>
		</g>
	</g>
</g>
</svg>
