<?xml version="1.0" encoding="utf-8"?>
<!-- Generator: Adobe Illustrator 18.0.0, SVG Export Plug-In . SVG Version: 6.00 Build 0)  -->
<!DOCTYPE svg PUBLIC "-//W3C//DTD SVG 1.1//EN" "http://www.w3.org/Graphics/SVG/1.1/DTD/svg11.dtd">
<svg version="1.1" xmlns="http://www.w3.org/2000/svg" xmlns:xlink="http://www.w3.org/1999/xlink" x="0px" y="0px"
	 viewBox="0 0 133.8 22.8" enable-background="new 0 0 133.8 22.8" xml:space="preserve">
<g id="Layer_1">
	<g id="Layer_2">
	</g>
</g>
<g id="Layer_5" display="none">
</g>
<g id="panel1">
	<g>
		<g>
			<rect x="3" y="1.5" fill="none" width="125.8" height="19.4"/>
			<g>
				<rect x="3" y="1.5" fill="none" width="125.8" height="19.4"/>
				<g>
					<path fill="#FFFFFF" d="M121.3,4.2c0,0,3.9-0.1,5.7-1.3c0,0,0.8,1,0.8,4.2c0,3.3-1.3,9.3-6.5,12c0,0-5.9-2.2-6.4-12.1
						c0,0-0.2-2.2,0.9-4.1C115.8,2.8,118,3.9,121.3,4.2"/>
					<path fill="#0079B4" d="M107.1,19.1c0-0.8,0.6-1.4,1.4-1.4c0.8,0,1.4,0.6,1.4,1.4c0,0.8-0.6,1.4-1.4,1.4
						C107.8,20.5,107.1,19.9,107.1,19.1 M109.8,19.1c0-0.7-0.5-1.2-1.2-1.2c-0.7,0-1.2,0.5-1.2,1.2c0,0.7,0.5,1.2,1.2,1.2
						C109.3,20.3,109.8,19.8,109.8,19.1 M108.2,19.9H108v-1.6h0.7c0.4,0,0.6,0.2,0.6,0.5c0,0.3-0.2,0.4-0.5,0.5l0.5,0.7h-0.2
						l-0.5-0.7h-0.3V19.9z M108.5,19c0.2,0,0.5,0,0.5-0.3c0-0.2-0.2-0.3-0.4-0.3h-0.4V19H108.5z"/>
					<path fill="#FFFFFF" d="M102.1,16.5c3.1,0,5.5-2.5,5.5-5.5c0-3.1-2.5-5.5-5.5-5.5S96.5,8,96.5,11C96.5,14.1,99,16.5,102.1,16.5
						"/>
					<path fill="#0079B4" d="M103,8.2c0-0.4,0.5-0.5,0.3-1.4c0.8,0.2,1.5,0.8,2.1,1.4H103z"/>
					<path fill="#0079B4" d="M101,8.2h-2.4c0.5-0.7,1.3-1.2,2.1-1.4C100.4,7.7,101,7.8,101,8.2"/>
					<path fill="#0079B4" d="M106.4,10c0.3,1.7-0.2,2.9-1,3.9c0,0-1.6-3-1.8-3.3c-0.2-0.3,0-0.4,0.2-0.4C104,10.2,106.4,10,106.4,10
						"/>
					<path fill="#0079B4" d="M97.6,10c0,0,2.4,0.2,2.6,0.2c0.2,0,0.4,0,0.2,0.4c-0.2,0.3-1.8,3.3-1.8,3.3
						C97.8,12.9,97.3,11.7,97.6,10"/>
					<path fill="#0079B4" d="M103.9,15.1c-0.5,0.3-1.1,0.4-1.9,0.4c-0.7,0-1.4-0.1-1.9-0.4c0,0,1.7-2.7,1.9-2.7
						C102.2,12.4,103.9,15.1,103.9,15.1"/>
					<path fill="#0079B4" d="M111.5,6.9h-5.2V1.6h-8.3v5.2h-5.2v8.4h5.2l0,5.2l8.3,0v-5.2h5.2V6.9z M98.4,7.4
						c0.9-0.9,2.2-1.5,3.7-1.5c1.4,0,2.6,0.5,3.6,1.4c0.5,0.4,0.9,1,1.1,1.6l-3.6,0c-0.3,0-0.6-0.1-0.8-0.3
						c-0.2-0.2-0.2-0.5,0.1-0.9c0.5-0.6,0.1-1.2-0.5-1.2c-0.5,0-1,0.6-0.5,1.2c0.3,0.3,0.3,0.7,0.1,0.9c-0.2,0.2-0.4,0.3-0.8,0.3
						l-3.5,0C97.6,8.3,98,7.8,98.4,7.4 M96.9,11c0-0.6,0.1-1.2,0.3-1.8c1.3,0,2.4,0.2,3.1,0.3c0.7,0,1.3,0.4,0.8,1.4
						c-0.5,0.8-1.9,3.5-2.2,4.2C97.6,14.1,96.9,12.7,96.9,11 M102.1,16.2c-1.1,0-2.1-0.3-2.9-0.9c0.4-0.6,2.3-3.3,2.4-3.5
						c0.1-0.2,0.2-0.4,0.5-0.4c0.2,0,0.3,0.1,0.5,0.4c0.1,0.2,2.5,3.6,2.5,3.6C104.1,15.9,103.1,16.2,102.1,16.2 M105.2,15.1
						c-0.1-0.1-1.7-3.3-2.3-4.2c-0.5-0.9,0-1.3,0.8-1.4c0.7,0,1.9-0.2,3.2-0.3c0.2,0.6,0.3,1.1,0.3,1.8
						C107.2,12.7,106.5,14.2,105.2,15.1"/>
					<path fill="#0079B4" d="M125.1,19.1c0-0.8,0.6-1.4,1.4-1.4c0.8,0,1.4,0.6,1.4,1.4c0,0.8-0.6,1.4-1.4,1.4
						C125.8,20.5,125.1,19.9,125.1,19.1 M127.8,19.1c0-0.7-0.5-1.2-1.2-1.2c-0.7,0-1.2,0.5-1.2,1.2c0,0.7,0.5,1.2,1.2,1.2
						C127.3,20.3,127.8,19.8,127.8,19.1 M126.2,19.9H126v-1.6h0.7c0.4,0,0.6,0.2,0.6,0.5c0,0.3-0.2,0.4-0.5,0.5l0.5,0.7h-0.2
						l-0.5-0.7h-0.3V19.9z M126.5,19c0.2,0,0.5,0,0.5-0.3c0-0.2-0.2-0.3-0.4-0.3h-0.4V19H126.5z"/>
					<path fill="#0079B4" d="M127.7,1.5c-1.8,1-3.6,1.5-6.3,1.5c-2.7,0-4.5-0.5-6.3-1.5c-0.7,1.3-1.2,3.1-1.2,5.4
						c0,6.1,3.4,10.2,4.3,11.1c0.8,0.9,2.5,2.3,3.2,2.4c0.6-0.1,2.3-1.5,3.2-2.4c0.8-0.9,4.3-5,4.3-11.1
						C128.9,4.6,128.4,2.8,127.7,1.5 M124.3,16.4c-0.5,0.6-2.5,2.4-2.8,2.5c-0.4-0.1-2.3-1.8-2.8-2.5c-0.4-0.5-3.3-4-3.3-9.5
						c0-1.2,0.2-2.9,0.6-3.5c1.1,0.6,3.2,1.1,5.5,1.1c2.3,0,4.4-0.6,5.5-1.1c0.4,0.6,0.6,2.3,0.6,3.5
						C127.5,12.3,124.7,15.9,124.3,16.4"/>
					<path fill="#0079B4" d="M120.7,6.6c0,0,0,0.1-0.1,0.1c-0.1,0-0.1,0-0.2-0.1c-0.2-0.1-0.3-0.1-0.3-0.1S120.4,6.5,120.7,6.6"/>
					<path fill="#0079B4" d="M126.6,4.3c-1,0.5-3.1,0.8-5.2,0.8c-2,0-4.2-0.3-5.2-0.8c-0.4,0.6-0.4,2-0.4,3c0.2,5.5,2.7,8.1,3,8.6
						c0.5,0.6,2.2,2.2,2.6,2.3c0.3-0.1,2.1-1.7,2.6-2.3c0.4-0.4,2.9-3.1,3-8.6C127,6.2,127,4.8,126.6,4.3 M120.8,16.7
						C120.7,16.7,120.7,16.7,120.8,16.7c-0.2,0-0.2-0.3-0.2-0.3c0-0.3,0.2-0.6,0.4-0.7l0,0.5C120.8,16.3,120.8,16.6,120.8,16.7
						 M121.6,17c0,0-0.2,0.1-0.4,0c0-0.1,0-0.5,0-0.8c0-0.3,0-0.9-0.1-1.4c0.1,0,0.1,0,0.2,0.1c0.2,0,0.3,0.1,0.3,0.2
						c0.1,0.1,0.1,0.6,0.1,0.9C121.6,16.5,121.6,17,121.6,17 M121.7,15.8v-0.6c0-0.1-0.1-0.2-0.1-0.3c-0.1-0.1-0.1-0.1-0.3-0.2
						c-0.1,0-0.1-0.1-0.3-0.1c-1.3-0.3-1-1.6-0.2-1.6c0,0.1,0,0.2,0,0.3c0,0.1,0,0.2,0,0.4c-0.2,0.1-0.1,0.1,0,0.2
						c0.1,0,0.3,0.2,0.5,0.2c0.1,0,0.3,0.1,0.4,0.2C122.6,14.5,122.5,15.4,121.7,15.8 M121,13c0-0.1,0-0.4,0-0.5c0.1,0,0.2,0,0.3,0
						c0.3,0,0.3,0,0.4,0c0,0,0,0.2,0,0.3c0,0.1,0,0.2,0,0.3c0,0.2,0,0.2,0,0.4c0,0.1,0,0.3,0,0.4c-0.1,0-0.2-0.1-0.4-0.1
						c-0.2-0.1-0.2-0.1-0.3-0.2c0,0,0-0.2,0-0.2l0-0.2L121,13z M121.8,13.6c0-0.2,0-0.3,0-0.5c0-0.1,0-0.1,0-0.2
						c0.1-0.1,0.3-0.1,0.1-0.3c-0.1-0.1-0.4-0.1-0.6-0.1c-0.1,0-0.3,0-0.7-0.1c-1.1-0.2-1-1.6-0.3-1.8l0.2,0.5l0.2,0.4
						c0.3,0,0.4,0,0.8,0.1c0.1,0,0.2,0,0.4,0.1C123.3,11.9,122.9,13.5,121.8,13.6 M120.4,10.2l0.3-0.5l0.9,0.1l0,1.6l-0.8-0.1
						l-0.2-0.5L120.4,10.2z M121.9,11.2c-0.1-0.5-0.1-1-0.1-1c0.4,0,0.1-0.5,0-0.5c-0.2,0-0.3,0-0.6-0.1c-0.2,0-0.5,0-0.7-0.1
						c-2.8-0.4-2.4-2.9-1-3.1c1-0.2,1.5,0.2,1.7,0.6c0,0-0.3,0.1-0.5,0.1c-0.5-0.1-0.7,0-0.7,0c0.2,0.1,0.7,0.2,0.9,0.4
						c-0.2,0.1-0.5,0.1-0.7,0.1c-0.2,0-0.4-0.1-0.6-0.2c-0.1,0.3-0.2,0.8,1,1.1c0.2,0,0.4,0.1,0.6,0.1c0.2,0,0.5,0.1,0.6,0.1
						c0.1,0,0.2,0.1,0.2,0.1C123.7,9.2,123.2,11.2,121.9,11.2 M123.2,7c-0.7,0.7-1.1,1.1-1.3,1.3c0,0-0.1,0.2-0.2,0.2l-1-0.2
						c0-0.2,0-0.5,0-0.7c0.2,0,0.3,0,0.4-0.1l0-0.1c0.3,0.1,0.6,0.1,0.7,0.1l-0.1-0.1c-0.1,0-0.3-0.1-0.5-0.2c0.2,0,0.3-0.1,0.3-0.1
						s0-0.1-0.1-0.3c-0.2-0.3-0.5-0.5-0.5-0.5c-0.1-0.1,0-0.2,0-0.2c0-0.4,0.2-0.3,0.6-0.2c0.1,0,0.1,0.1,0.1,0.1
						c0.2,0.1,0.5,0.2,0.5,0.3c0,0,0,0.9,0.1,0.8c0.2-0.1,0.6-0.5,0.8-0.6C123,6.4,123.4,6.8,123.2,7"/>
					<path fill="#231F20" d="M86.4,19.1c0-0.8,0.6-1.4,1.4-1.4c0.8,0,1.4,0.6,1.4,1.4c0,0.8-0.6,1.4-1.4,1.4
						C87,20.5,86.4,19.9,86.4,19.1 M89,19.1c0-0.7-0.5-1.2-1.2-1.2c-0.7,0-1.2,0.5-1.2,1.2c0,0.7,0.5,1.2,1.2,1.2
						C88.5,20.3,89,19.8,89,19.1 M87.5,19.9h-0.2v-1.6H88c0.4,0,0.6,0.2,0.6,0.5c0,0.3-0.2,0.4-0.5,0.5l0.5,0.7h-0.2l-0.5-0.7h-0.3
						V19.9z M87.8,19c0.2,0,0.5,0,0.5-0.3c0-0.2-0.2-0.3-0.4-0.3h-0.4V19H87.8z"/>
					<path fill="#231F20" d="M63.6,10.4c-0.9-0.8-2.1-1.2-3.6-1.2c-1.3,0-2.6,0.6-3.6,1.6c-1,1.1-1.6,2.6-1.6,4.3
						c0,1.6,0.6,3.1,1.7,4.2c1,1,2.4,1.6,3.9,1.6c2.8,0,4.4-2.1,4.7-4l0-0.1h-0.1h-0.7h-0.1l0,0.1c-0.2,1.6-1.5,3.2-3.6,3.2
						c-1.7,0-2.6-1.1-2.6-3.1c0,0,0-2.2,0-2.6h7.2h0.1l0-0.1C65.1,12.6,64.6,11.3,63.6,10.4 M62.1,13.5h-4.2v-1.2
						c0-0.8,0.2-1.4,0.6-1.8c0.4-0.4,0.9-0.6,1.4-0.6c1.3,0,2.1,0.9,2.1,2.4V13.5z"/>
					<path fill="#231F20" d="M40.7,18.4h-0.1H40h-0.1l0,0.1c-0.1,0.5-0.4,1.4-1.5,1.4c-0.8,0-1.2-0.6-1.2-1.7v-7.9h2.6h0.1l0-0.1
						V9.6V9.5h-0.1h-2.6V6.2V6.1l-0.1,0c-0.6,0.1-1.9,0.2-2.6,0.2l-0.1,0v0.1v3.1h-1.7h-0.1v0.1v0.6v0.1h0.1h1.7v6.9
						c0,2.5,1.1,3.8,3.2,3.8c2.4,0,3-1.9,3.1-2.4L40.7,18.4z"/>
					<path fill="#231F20" d="M31,19.8v-7c0-1.1-0.3-2-1-2.7c-0.7-0.7-1.6-1-2.7-1c-1.5,0-2.6,0.6-3.5,1.8l0-1.4l0-0.1h-0.1h-4.2
						h-0.1v0.1v0.6v0.1h0.1h1.6v9.6h-3.1L11.7,1.7l0-0.1h-0.1H11h-0.1l0,0.1L4.7,19.8H3.1H3v0.1v0.6v0.1h0.1h5h0.1v-0.1v-0.6v-0.1
						H8.1H5.8l1.7-5.2H13l1.7,5.2h-2.3h-0.1v0.1v0.6v0.1h0.1h13h0.1v-0.1v-0.6v-0.1h-0.1h-1.6v-5.3c0-3.2,1.7-4.3,2.8-4.3
						c1.1,0,1.7,0.7,1.7,2.1v7.5h-1.5h-0.1v0.1v0.6v0.1h0.1h5.9h0.1v-0.1v-0.6v-0.1h-0.1H31z M10.2,6.5l2.6,7.4h-5L10.2,6.5z"/>
					<path fill="#231F20" d="M52.7,19.8v-7.1c0-1.7-1-3.6-3.8-3.6c-2.2,0-3.3,1.1-3.8,1.6v-9V1.7H45h-4.2h-0.1v0.1v0.6v0.1h0.1h1.6
						v17.4h-1.7h-0.1v0.1v0.6v0.1h0.1h6h0.1v-0.1v-0.6v-0.1h-0.1H45v-5.4c0-1.9,0.6-2.9,1.2-3.4c0.5-0.5,1.2-0.8,1.9-0.8
						c1.5,0,1.8,1.2,1.8,2.3v7.3h-1.6h-0.1v0.1v0.6v0.1h0.1h6h0.1v-0.1v-0.6v-0.1h-0.1H52.7z"/>
					<path fill="#231F20" d="M85.6,19.8h-1.7v-7.5c0-1.9-1.3-3.2-3.5-3.2c-2,0-3.1,1-3.6,1.7c-0.6-1.1-1.6-1.7-3.2-1.7
						c-1.4,0-2.7,0.5-3.6,1.5l0-1.1l0-0.1h-0.1h-4.3h-0.1v0.1v0.6v0.1h0.1h1.7v9.6h-1.7h-0.1v0.1v0.6v0.1h0.1h5.9h0.1v-0.1v-0.6
						v-0.1h-0.1h-1.5v-5.3c0.1-1.5,0.1-2.5,0.7-3.3c0.5-0.6,1.2-1,2-1c0.9,0,1.2,0.7,1.3,0.8c0.2,0.4,0.2,1.2,0.2,1.9v6.9h-1.5h-0.1
						v0.1v0.6v0.1h0.1h5.8h0.1v-0.1v-0.6v-0.1h-0.1H77v-5.3c0.1-1.5,0.1-2.5,0.7-3.3c0.5-0.6,1.2-1,2-1c0.9,0,1.2,0.7,1.3,0.8
						c0.2,0.4,0.2,1.2,0.2,1.9v6.9h-1.5h-0.1v0.1v0.6v0.1h0.1h5.9h0.1v-0.1L85.6,19.8L85.6,19.8L85.6,19.8z"/>
				</g>
			</g>
		</g>
	</g>
</g>
<g id="Layer_4">
</g>
</svg>
