<?xml version="1.0" encoding="utf-8"?>
<!-- Generator: Adobe Illustrator 18.0.0, SVG Export Plug-In . SVG Version: 6.00 Build 0)  -->
<!DOCTYPE svg PUBLIC "-//W3C//DTD SVG 1.1//EN" "http://www.w3.org/Graphics/SVG/1.1/DTD/svg11.dtd">
<svg version="1.1" xmlns="http://www.w3.org/2000/svg" xmlns:xlink="http://www.w3.org/1999/xlink" x="0px" y="0px"
	 viewBox="0 0 85.9 47.9" enable-background="new 0 0 85.9 47.9" xml:space="preserve">
<g id="Layer_1">
	<g id="Layer_2">
	</g>
</g>
<g id="Layer_5" display="none">
</g>
<g id="panel1">
	<g>
		<path fill="#0391D8" d="M30.6,11.4c0,0-5.4,0-5.4,0c-8.1,0-14.6,6.5-14.6,14.6c0,8.1,6.5,14.6,14.6,14.6l10.2,0
			c2.6,0,4.7-2.1,4.7-4.6l0-8.9l7.1,11.2c1,1.4,2.6,2.4,4.5,2.4c3,0,5.4-2.4,5.4-5.4l0-8.2l7.1,11.2c1,1.4,2.6,2.4,4.5,2.4
			c3,0,5.4-2.4,5.4-5.4l0-23.9h-3.6v23.9c0,0.9-0.8,1.7-1.7,1.7c-0.6,0-1.1-0.3-1.4-0.8L54.5,16.4c-0.1-0.2-0.3-0.3-0.5-0.3
			c-0.4,0-0.6,0.3-0.6,0.6l0,18.5c0,0.9-0.8,1.7-1.7,1.7c-0.6,0-1.1-0.3-1.4-0.8L37.6,16.4c-0.1-0.2-0.3-0.3-0.5-0.3
			c-0.4,0-0.6,0.3-0.6,0.6l0,19.2c0,0.6-0.5,1-1,1l-10.2,0c-6,0-11-4.9-11-11c0-6,4.9-11,11-11l5.4,0V11.4z"/>
		<path fill="#0391D8" d="M31.2,32.3c0.3,0,0.5-0.2,0.5-0.5l0-15c0-3,2.4-5.4,5.4-5.4c1.9,0,3.5,1,4.5,2.4l7.1,11.1l0-8.1
			c0-3,2.4-5.4,5.4-5.4c1.9,0,3.5,1,4.5,2.4l7.1,11.1V11.4h3.7l0,23.9c0,0.4-0.3,0.6-0.6,0.6c-0.2,0-0.4-0.1-0.5-0.3L55.4,15.8
			C55.1,15.3,54.6,15,54,15c-0.9,0-1.7,0.8-1.7,1.7l0,18.5c0,0.4-0.3,0.6-0.6,0.6c-0.2,0-0.4-0.1-0.5-0.3L38.5,15.8
			c-0.3-0.5-0.8-0.8-1.4-0.8c-0.9,0-1.7,0.8-1.7,1.7l0,18.7c0,0.3-0.2,0.5-0.5,0.5l-9.7,0c-5.5,0-9.9-4.5-9.9-9.9s4.4-9.9,9.9-9.9
			c0,0,5.4,0,5.4,0c0,0,0,3.7,0,3.7l-5.4,0c-3.5,0-6.2,2.8-6.2,6.2s2.8,6.3,6.2,6.3L31.2,32.3z"/>
	</g>
</g>
<g id="Layer_4">
</g>
</svg>
