<?xml version="1.0" encoding="utf-8"?>
<!-- Generator: Adobe Illustrator 18.0.0, SVG Export Plug-In . SVG Version: 6.00 Build 0)  -->
<!DOCTYPE svg PUBLIC "-//W3C//DTD SVG 1.1//EN" "http://www.w3.org/Graphics/SVG/1.1/DTD/svg11.dtd">
<svg version="1.1" xmlns="http://www.w3.org/2000/svg" xmlns:xlink="http://www.w3.org/1999/xlink" x="0px" y="0px"
	 viewBox="0 0 61.5 37.7" enable-background="new 0 0 61.5 37.7" xml:space="preserve">
<g id="Layer_1">
	<g id="Layer_2">
	</g>
</g>
<g id="Layer_5" display="none">
</g>
<g id="panel1">
	<g>
		<g>
			<g>
				<g>
					<g>
						<path fill="#387C42" d="M53.4,15.1c0,1-0.3,2.1,0,3.1c0.4,1.5-0.6,2.4-1.5,3.6c-1.2,1.7-2.7,3.1-3,5.3c-0.1,0.8,0,1.9,0.5,2.7
							c0.5,0.8,1,1.5,1.3,2.4c0.1,0.2,0.1,0.5,0.2,0.7c0.4,2,0,1.8-1.2-0.5c-0.2-1.9-0.9-3.7-3.2-3.6c-1.6,0-4.8-1-6.3,0.1
							c-0.5,0.4-1.1,0.8-1.1,1.6c0,0.3-3.7-0.3-4.4-0.3c-0.5,0-1.3,0.2-1.6,0.7c-0.4,0.7-1.5,0.5-2.2,0.9c-0.8,0.5-0.7,1.4-1.3,2.1
							c-0.6,0.8-0.3,1.9-0.2,2.8c0.3-0.4,0.5-0.7,0.8-1.1c-2.7,0.1-2.6-3.8-4.4-4.9c-0.8-0.5-1.6-0.7-2.5-0.2
							c-0.3,0.2-0.5,0.4-0.6,0.7c-0.2,0.3-0.9-1.5-1.1-1.6c-1.4-1.1-2.3-2.9-4.5-2.3c-2,0.5-4.1,0-5.9-1.1c-0.4-0.2-3.9-1.8-3.9-2
							c-0.2-0.9-1.8-0.7-1.7,0.2c0,0,0,0.1,0,0.1c0.5-0.2,1-0.4,1.5-0.6c-0.6-0.7-1.2-1.2-1.9-1.7c-0.5-0.2-0.9-0.5-1.2-1
							c0.1-0.3,0.1-0.8,0-1.2c-0.5-1.3-1.1-2.5-1.4-3.9c-0.2-0.8-1-3.5-0.4-4.2c0.2-0.3,0.5-0.8,0.5-1.1C2.8,9.4,3.1,8.4,3.7,7.2
							c0.4-0.9,0.8-1.8,0.9-2.8c0.1-0.6,0.1-1.1,0-1.7c0-0.3-0.9-0.5,0.7,0.3C5.9,3.2,6.6,3,6.7,2.4c0.1-0.6,0.1-0.8,0.1-1.3
							C6.4,1.4,6.1,1.7,5.9,1.9c2.5,0.2,5,1,7.5,1.3c2.6,0.4,5.3,0.7,7.9,0.8c2.9,0.2,5.8,0.1,8.7,0c2.5-0.1,4.7,0.7,7.2,1.1
							c0-0.5,0-1.1,0-1.6c-1.2,0.5-2,1-2.8,1.9c-0.4,0.4-0.3,1.3,0.4,1.4c0,0,1.2,0.3,0.9-0.1c0.3,0.3,0.5,0.5,1,0.4
							c0.4-0.1,2.7-1.1,2.7-1.2c0,0.5,0.4,0.9,0.8,0.8c1.9-0.1,1.5-2,0-0.6c-0.7,0.6-0.9,1.1-1,2c0,0.4,0.4,0.9,0.8,0.8
							c0.1,0,0.3,0,0.4,0c-0.2-0.4-0.5-0.9-0.7-1.3c-0.6,1.5-1.8,5.5,0.7,6.1c0.7,0.2,1.5-0.2,1.8-0.8c0.2-0.3,0.2-0.7,0.1-1.1
							c-0.1-0.4-0.2-0.8-0.3-1.2c-0.1-0.2-0.1-0.4-0.2-0.6c0-1.1,0.4-1.3,1.4-0.7c-0.1,0.7,0.6,1.4,1.2,1c0-0.1-0.1-0.2-0.1-0.3
							c0,0.3-0.1,0.6-0.2,1c-0.1,0.3-0.2,0.7-0.4,1c-0.2,0.5-0.1,1.1,0.5,1.2c2.1,0.6,4.8-0.1,5.4-2.5c0.1-0.3,0.1-0.7,0-1
							c-0.1-0.2,0.5,0.2,1-0.1c0.9-0.5,1.3-1.1,1-2.2c-0.1-0.3-0.3-0.5-0.6-0.6c-0.1,0-0.2,0-0.2-0.1c0.2,0.4,0.3,0.8,0.5,1.2
							c1.1-1.5,2.3-1.6,3.8-2.3c0.4-0.2,0.8-0.5,1-0.8c0.3-0.5,0.6-1,0.6-1.6c0.3-0.7,0.1-1.3-0.6-1.7c0.1,0.1,0.2,0.2,0.4,0.2
							c0.5,0.1,0.7,0.1,1.2-0.1c-0.4,0.1,0.5,1.4,0.6,1.5C59.1,4.3,56.9,6,56.5,7c-0.1,0.3-0.2,0.8,0.1,1c-0.8-0.6,0.5,1.5,0.5,1.8
							c0.2-0.3,0.4-0.5,0.6-0.8c-0.5,0.1-0.9,0-1.3,0.5c-0.6,0.6-1.7,0.8-2.1,1.5c-0.4,0.9-0.4,1-0.3,2
							C54.2,13.6,53.5,14.4,53.4,15.1c-0.1,1.1,1.6,1.1,1.7,0c0-0.3,0.8-1.1,0.7-2c-0.2-1.3,1.2-2.2,2.4-2.5
							c0.4-0.1,0.6-0.4,0.6-0.8c0-0.5-0.7-1.8-0.7-2c0.1-0.3,0-0.6-0.2-0.8c-0.1,0-0.1-0.1-0.2-0.1c0,0.3,0.1,0.7,0.1,1
							c0.6-1.3,3.6-2.7,2.5-4.5c-0.8-1.3-1.3-3.2-3.1-2.9c-1,0.2-1.8-0.6-2.1,1.1C55,2.6,55.7,4,54,4.7c-0.5,0.2-1.1,0.2-1.6,0.5
							c-1,0.6-1.8,1.2-2.4,2.2c-0.3,0.5,0,1.1,0.5,1.2c-0.5-0.1-1.8-0.5-2.4,0.5c-0.2,0.3-0.2,0.7-0.1,1c0.4,1.6-2.1,1.9-3.2,1.7
							c0.2,0.4,0.3,0.8,0.5,1.2c0.6-1.5,1.4-5.8-1.7-4c0.4,0.3,0.8,0.6,1.2,1c0.3-1.9-0.7-4.3-3-2.9c-0.9,0.5-1.8,1.8-1.8,2.9
							c0,0.6,0.3,1.2,0.5,1.8c-0.3-0.7,0.3-2.4,0.6-3.2c0.2-0.5,0-1.4-0.7-1.3c-0.1,0-0.3,0-0.4,0c0.3,0.3,0.6,0.6,0.8,0.9
							c0-0.7,1.4-0.8,2-0.9c0.3,0,0.5-0.3,0.6-0.6c0.6-2-2.3-1.6-3.3-1.6c0.3,0.3,0.6,0.6,0.9,0.8c0.3-3.4-3.8-0.6-4.9-0.4
							c0.3,0.1,0.6,0.3,1,0.4c-0.6-0.8-1.1-0.5-1.9-0.6c0.1,0.5,0.3,0.9,0.4,1.4c0.5-0.7,1.2-1.2,2-1.5c0.7-0.3,0.9-1.5,0-1.6
							c-1.2-0.2-2.4-0.4-3.6-0.7c-0.7-0.2-1.5-0.6-2.2-0.6c-3.2,0.2-6.4,0.3-9.6,0.2C19,2.3,15.9,2,12.8,1.5c-2.3-0.4-4.6-1.1-7-1.3
							C5.4,0.2,5,0.7,5,1.1C5,1.4,5,1.7,5,2c0.4-0.2,0.8-0.3,1.2-0.5c-0.7-0.3-1.4-0.8-2.1-1c-0.3-0.1-0.6,0-0.8,0.2
							C2.9,1.1,2.9,1.3,2.9,1.8c0,2.4-0.3,3.8-1.3,6C1.3,8.4,1,9.5,1.1,10.1c0,0.1-0.7,1.9-0.7,2.4c0,1,0.4,2.2,0.5,3.2
							c0.2,0.9,0.3,1.7,0.6,2.6c0.2,0.8,1.1,1.9,0.8,2.8c-0.1,0.4,0,0.9,0.3,1.2c0.9,1.1,2.4,1.6,3.4,2.7c0.5,0.5,1.5,0.1,1.5-0.6
							c0,0,0-0.1,0-0.1c-0.6,0.1-1.1,0.2-1.7,0.2c0.3,1.1,0.9,1.5,2,1.7c1.8,0.3,3,2.1,4.8,2.4c1.6,0.3,3.4,0.6,5,0.1
							c1.2-0.3,2.8,1.7,3.2,2.6c0.4,0.8,1.1,1.8,2.1,1.8c1.1,0,1.9-2.2,2.8,0.3c0.3,0.8,0.9,1.7,1.3,2.5c0.5,1.2,2.3,1.2,3.4,1.2
							c0.6,0,0.9-0.5,0.8-1.1c-0.3-1.4,0.4-2.9,1.6-3.1c0.5-0.1,1.2-0.2,1.5-0.7c0.8-1.1,2.3-0.1,3.3,0c1,0.1,1.8,0,2.7-0.4
							c0.3-0.2,0.5-0.7,0.5-1.1c0-1.2,3.7-0.2,4.4-0.2c3,0,2.6,3.8,4.9,5c1,0.5,2.5,0.2,2.6-1c0.4-2.9-2.5-5-2-7.7
							c0.3-2,3-4.4,4.2-6c0.5-0.7,0.9-1.4,0.6-2.3c-0.3-1.3-0.5-2.1-0.4-3.5C55.2,14,53.5,14,53.4,15.1z"/>
					</g>
				</g>
			</g>
		</g>
	</g>
</g>
<g id="Layer_4">
</g>
</svg>
