<?xml version="1.0" encoding="utf-8"?>
<!-- Generator: Adobe Illustrator 18.0.0, SVG Export Plug-In . SVG Version: 6.00 Build 0)  -->
<!DOCTYPE svg PUBLIC "-//W3C//DTD SVG 1.1//EN" "http://www.w3.org/Graphics/SVG/1.1/DTD/svg11.dtd">
<svg version="1.1" xmlns="http://www.w3.org/2000/svg" xmlns:xlink="http://www.w3.org/1999/xlink" x="0px" y="0px"
	 viewBox="0 0 153.9 52.8" enable-background="new 0 0 153.9 52.8" xml:space="preserve">
<g id="Layer_1">
	<g id="Layer_2">
	</g>
</g>
<g id="Layer_5" display="none">
</g>
<g id="panel1">
	<g>
		<path fill="#0391D8" d="M25.1,2.6C11.2,2.6,0,13.8,0,27.7c0,13.8,11.3,25.1,25.1,25c13.9,0,25.1-11.2,25.1-25.1
			C50.2,13.8,38.9,2.5,25.1,2.6z M16.6,36.5h-5v-2.2c-2,0.7-1.9,1.2-3.4,1.2c-4.3,0-7.4-3.5-7.4-7.7c0-4.3,3.6-7.8,8-7.8
			c4.2,0,7.8,3.9,7.8,8.2L16.6,36.5z M25.2,35.8c-4.4,0-7.9-3-7.9-7.3l-0.1-11h3.6l0.1,4.4c1.2-0.8,2.7-1.6,4.2-1.6
			c4.3,0,7.8,3.4,7.8,7.7C33.1,32.4,29.6,35.8,25.2,35.8z M48.9,28.5h-3.4c-0.4-2-2.1-4-4.2-4c-2.4,0-4.3,1.6-4.3,4
			c0,2.4,1.9,4.2,4.3,4.2c1.8,0,3.4-1.2,4-2.9l3.5-0.1c-0.7,3.5-3.8,6.1-7.5,6.1c-4.2,0-7.6-3.4-7.6-7.6c0-4.2,3.4-6.9,7.6-6.9
			C45.2,21.2,48.4,24.5,48.9,28.5z"/>
		<path fill="#0391D8" d="M8.9,23.5c-2.4,0-4.3,1.9-4.3,4.2c0,2.3,1.9,4.2,4.3,4.2c2.3,0,4.2-1.9,4.2-4.2
			C13.1,25.4,11.2,23.5,8.9,23.5z"/>
		<path fill="#0391D8" d="M25.4,23.6c-2.4,0-4.3,1.9-4.3,4.3c0,2.4,1.9,4.3,4.3,4.3c2.4,0,4.3-1.9,4.3-4.3
			C29.7,25.5,27.7,23.6,25.4,23.6z"/>
		<path fill="#0391D8" d="M79.7,16.5c-0.5,0-2.9,0.2-3.4,0.2c-0.3,0-3.9-0.2-4-0.2h-2.7v1h2.6c2.5,0,1.4-0.2,1.4,1.9v14.1l-14.2-17
			h-0.7c-0.3,0-1.9,0.2-2.5,0.2c-0.4,0-3.9-0.2-4.2-0.2h-2.4v1h2.5c0.8,0,0.5-0.4,2.5,0.8v19.2c0,2-2,2.5-4,2.8v1.2h2
			c0.6,0,3.4-0.1,3.8-0.1c0.7,0,3.6,0.1,4.2,0.1h1.1l0,0h-1c-2.8,0-5-2.1-5-5.5V20l20.9,21.5h-0.9V19.1c0-2,1.4-2.2,3.7-2.3l0.8-0.3
			H79.7z"/>
		<path fill="#0391D8" d="M96,40.5h-4.3c-1.5,0-4.1-1.8-4.1-3.3v-7.7h6c3,0,4.3,1,4.5,3h-0.6V24l-0.1,0.7c-0.2,2-0.7,3.7-2.8,3.7
			h-7.1v-10h7.9c3,0,4.3,1,4.4,4h0.6l-0.1-6h-1.7c-1.2,0-7.2,0.2-8.1,0.2c0,0-6.3-0.2-7.4-0.2h-3.7v1h2.6c2,0,1.4-0.6,1.4,1.1V38
			c0,1.7,0.6,2.5-1.4,3.5h-0.8l0,0h1.3c1.4,0,7.9-0.4,9.2-0.4c2,0,7.9,0.4,9.1,0.4l1.8-5h-0.8C100.8,39.5,98.7,40.5,96,40.5z"/>
		<path fill="#0391D8" d="M134.6,16.5h0.8c-0.8,0-2.5,0.2-2.9,0.2c-0.9,0-2.4-0.2-3-0.2h-1.9v1h2.4c1.3,0,1.9-0.1,1.9,1.1
			c0,0.7-0.3,1.6-0.8,3.3l-4.5,13.2L121,19.2c-0.3-0.6-0.4-0.8-0.4-1.2c0-0.8,0.7-0.5,2.1-0.5h-1v-1h1c-0.6,0-3.8,0.2-4.3,0.2
			c-0.7,0-3.8-0.2-4.4-0.2h-2.3v-0.1c2,0.1,3.7,0.7,4.6,3.3l2.6,6.1l-3.2,9L109.9,19c-0.2-0.6-1.2-1.2-1.2-1.6c0-0.7-0.1-1,0.9-1
			v0.1h1c-0.5,0-2.9,0.2-3.4,0.2c-0.6,0-2.9-0.2-3.4-0.2h-2.2v-0.1c1,0.2,2.5,1,3.1,2.7l9.1,22.4h1.2l5-13.3l4.9,13.3h1.2l6.7-21.4
			C133.5,17.5,133.6,16.7,134.6,16.5L134.6,16.5z"/>
		<path fill="#0391D8" d="M145.1,24.9c-4.1-1.9-5.2-2.9-5.2-4.9c0-2.1,2-3.6,5.1-3.6c2.4,0,4.3,1.5,5.5,2.8c0.6,0.7,0.8,2.2,1.2,3.2
			h0.6l-0.1-6h-0.7c-0.1,1-0.3,0-0.6,0c-0.4,0-1.1-0.2-1.8-0.4c-1.7-0.4-3.3-0.7-4.8-0.7c-4.8,0-8,2.5-8,6.5c0,1.7,0.6,3,1.9,4.4
			c0.9,0.8,1.9,1.9,6.2,3.9c4.5,2.1,5.6,3.2,5.6,5.3c0,2.8-2.5,4.7-6.1,4.7c-2.2,0-4-0.5-5.5-1.6c-1.2-0.8-1.8-1.7-2.4-3.2l-0.7,0.2
			c0.3,1.2,0.7,3.3,1.1,5.3l0.1,0.8h0.7c0.3,0,0.5-0.7,1-0.7c0.3,0,0.9,0,1.5,0.1c1.7,0.4,3.1,0.5,4.5,0.5c5.6,0,9.4-3.1,9.4-7.7
			C153.5,29.5,150.3,27.3,145.1,24.9z"/>
	</g>
</g>
<g id="Layer_4">
</g>
</svg>
