<?xml version="1.0" encoding="utf-8"?>
<!-- Generator: Adobe Illustrator 18.0.0, SVG Export Plug-In . SVG Version: 6.00 Build 0)  -->
<!DOCTYPE svg PUBLIC "-//W3C//DTD SVG 1.1//EN" "http://www.w3.org/Graphics/SVG/1.1/DTD/svg11.dtd">
<svg version="1.1" xmlns="http://www.w3.org/2000/svg" xmlns:xlink="http://www.w3.org/1999/xlink" x="0px" y="0px"
	 viewBox="0 0 281.2 43.3" enable-background="new 0 0 281.2 43.3" xml:space="preserve">
<g id="Layer_1">
	<g id="Layer_2">
	</g>
</g>
<g id="Layer_5" display="none">
</g>
<g id="panel1">
	<g>
		<path fill-rule="evenodd" clip-rule="evenodd" fill="#0391D8" d="M51,7.9c0.3,0.1,0.5,0.2,0.4,0.6c-0.1,0.7-1.1,0.4-1.7,0.6
			c-1.4,0.5-0.9,2.3-1.1,3.6v5.4c0,2.4,0,5.3,0,7.7v5.3c0,0.7-0.1,1.6,0.5,1.9c0.4,0.6,1.5,0.2,2.2,0.3c1.1-0.2,1.6-1.4,2.3-2
			c0.3-1,0.7-1.9,0.9-2.9c0.6-1.9,0.3-4.3,0.9-6.2c0.4-0.1,0.5,0.2,0.6,0.5v10.4c0.2,0.3-0.1,0.7-0.1,1l-0.8,0.2h-9.4
			c-0.1,0-0.7,0-0.9,0c-0.4-0.1-0.9,0-1.1-0.4c0.1-1,1.8-0.6,1.8-1.8V19c-0.1-1.7,0-3.8,0-5.4c0-1.6,0.5-3.7-0.7-4.6
			c-0.5-0.5-2,0.3-1.8-0.7C43,8.1,43.1,8,43.4,7.9H51L51,7.9z"/>
		<path fill-rule="evenodd" clip-rule="evenodd" fill="#0391D8" d="M88.4,9.3c0.4,0.3,0.8,0,1-0.1c0.4-0.4,0-1.3,0.7-1.2l0.5,0.1
			v9.8c-0.2,0.1,0,0.7-0.3,0.7h-0.6c-0.2-3.5-0.5-7.2-3.1-8.9c-0.5-0.3-1-0.5-1.6-0.5c-1.1,0.1-1.8,0.9-2.2,1.8
			c-0.7,1-0.5,3,0.1,3.9c1.4,2,3.6,3.1,5.3,4.7c1.7,1.8,3.6,3.6,3.7,6.6c0.3,3.3-0.8,6-3,7.7c-1.2,0.8-3.1,0.9-4.5,0.4l-2-1.3
			c-0.5-0.2-0.6,0.3-0.7,0.5c0,0.6-0.1,0.9-0.5,1.1l-0.7-0.2L80.7,29v-6.1c0.2-0.1,0.7-0.1,0.8,0c0.2,3.8,0.3,7.8,3.1,9.8
			c0.8,0.6,1.9,1,3.1,0.7c1.8-0.7,2.4-2.7,2.4-4.9c-0.2-1.9-0.9-3.3-2.2-4.3c-1.8-2.1-4.4-3.3-6.1-5.6c-0.5-0.6-0.5-1.3-0.8-2
			c-0.9-3.1,0.3-6.2,2.1-8c0.8-0.6,2.1-0.9,3.3-0.7C87.1,8.3,87.9,8.8,88.4,9.3L88.4,9.3z"/>
		<path fill-rule="evenodd" clip-rule="evenodd" fill="#0391D8" d="M14.7,8c0.2,0.1,0.5,0.1,0.6,0.5c-0.3,0.7-1.1,0.7-1.4,1.2
			c-0.3,0.6-0.3,1.6-0.1,2.2l1.1,6.6c0.5,2.1,0.9,4.4,1.5,6.5c0,0,0.2,0,0.3,0c0.7-3.2,1.3-6.3,1.9-9.5c-0.6-2.4-0.1-5.7-2.3-6.8
			C16,8.3,16.3,8,16.7,8c1.3,0.1,5.5,0,6.5,0.1c0.1,0.2,0.1,0.6,0,0.7c-0.7,0.3-1.6,0.2-2.1,0.8c-1,1.7,0.4,3.5,0.3,5.4l1.1,5.9
			c0.3,1.3,0.3,2.9,1,3.9h0.1l1.4-6.1c0.7-2.5,1.1-5.2,1.7-7.8c0.2-0.8-0.1-1.4-0.7-1.8c-0.4-0.4-1-0.3-1.6-0.4
			c-0.1-0.2-0.1-0.6,0-0.7c1.4,0,5.7-0.1,6.2,0c0.3,0.1,0.2,0.6,0.1,0.7c-0.8,0.2-1.7,0.4-2.1,0.9c-0.6,1.5-0.8,3.1-1.2,4.6L26,21.6
			c-0.9,4-2,8.1-2.9,12.2c-0.2,0.3-0.7,0.3-0.8,0.1c-0.6-0.7-0.6-2-0.8-3l-1.4-8l-0.7-3.4H19l-1.1,5.5c-0.6,2.7-1.1,5.4-1.7,8.2
			c-0.1,0.6-0.5,0.9-1.2,0.7c-0.7-0.2-0.4-1-0.6-1.6l-0.5-3l-1.4-7.4l-0.9-5.3c-0.3-2.1-0.8-4.3-1.3-6.3c-0.1-0.6-0.7-0.9-1-1.3
			C8.7,9,8.1,9.2,7.5,8.9C7.3,8.7,7.2,8.1,7.6,8H14.7L14.7,8z"/>
		<path fill-rule="evenodd" clip-rule="evenodd" fill="#0391D8" d="M35.9,8.7c0.4,2.5,1.1,4.8,1.5,7.4l2,9.6
			c0.5,2.1,0.7,4.3,1.2,6.2c0.3,0.8,0.8,1.4,1.8,1.5c0,0.3,0.3,0.5,0.1,0.7l-0.3,0.3h-5.5c-0.2-0.3-1.1,0-1.5-0.3
			c-0.3-1.4,1.8-0.3,2-1.3c0.5-0.5,0.3-1.4,0.2-2c-0.5-0.9-0.1-2.5-1-3.2h-3.7l-0.4,0.2c-0.1,1.7-1.3,3.5-0.3,5.2
			c0.4,0.3,1.1,0.2,1.4,0.5L33.2,34l-5.3,0.1c-0.6,0.2-0.5-0.7-0.3-0.8c1.1,0.1,1.8-0.5,2.3-1c0.7-1.5,0.7-3.4,1.1-5l1-6.5l0.9-5.4
			c0.5-2.2,0.7-4.6,1.2-6.9C34.3,7.9,36.1,7.6,35.9,8.7L35.9,8.7z"/>
		<path fill-rule="evenodd" clip-rule="evenodd" fill="#0391D8" d="M65.4,8c0.1,0.2,0.3,0.6,0.1,0.7c-0.8,0.4-2.2,0-2.4,1
			c-0.2,2.9-0.2,5-0.2,7.9l-0.1,11.4h-0.1c0.6,1.4-0.7,4.2,1.3,4.3c0.5,0.1,1.4,0.1,1.9-0.2c1.9-1.5,2.4-4,2.8-6.5
			c0.3-1.3,0.1-2.9,0.5-4.2c0.2-0.1,0.6-0.1,0.7,0v11.4l-0.1,0.5c-1.5,0-3.1,0-4.2,0.1l-5.3-0.1h-2.9c-0.5,0-0.3-0.7-0.2-0.9
			c0.9-0.1,2.1,0,2.5-0.7c0.4-1.4,0.1-3.3,0.3-4.8c-0.2-1.3,0.1-2.7-0.1-4.2l0.1-1.2V10.5c-0.1-0.5-0.4-1-0.7-1.3
			c-0.6-0.7-2.8,0.3-2-1.2H65.4L65.4,8z"/>
		<path fill-rule="evenodd" clip-rule="evenodd" fill="#0391D8" d="M104.9,8.1l0.2,0.5v10.7c-0.1,0.3-0.3,0.4-0.5,0.5l-0.5-0.2
			c0.1-3.4-0.4-6.3-1.3-9c-0.2-0.6-0.7-1-1.2-1.3c-0.5,0-0.9,0-1.1,0.4v10.4v9.4h-0.1c0.1,1.4-0.2,3.2,0.8,3.8
			c0.7,0.5,1.8-0.3,1.9,0.7c0,0.7-1,0.2-1.5,0.5c-0.5,0-1.6,0-2.1,0v-0.1c-0.7,0.3-1.3-0.2-1.9,0.1c-0.6-0.1-1.8-0.1-2.6-0.1
			c-0.3-0.1-0.2-0.7-0.1-0.8c1-0.2,2.1-0.3,2.5-1.4V9.8c-0.2-0.5-0.5-0.6-0.8-0.7c-1.4,0.4-1.8,1.9-2.1,3.3
			c-0.5,2.1-0.8,4.1-0.7,6.6c-0.2,0.3,0,0.7-0.5,0.7l-0.6-0.2V8.3C94,7.9,102,8,104.9,8.1L104.9,8.1z"/>
		<path fill-rule="evenodd" clip-rule="evenodd" fill="#0391D8" d="M116,8.1c1.6,0.5,2.9,1.5,3.6,2.9c0.7,2.1,1,5.4-0.3,7.2
			c-0.7,0.9-1.4,1.8-2.4,2.4c-0.2,0.7,0.5,0.7,0.8,1.2c1.3,0.9,1.5,3.1,1.5,4.8c0-0.2-0.2-0.4-0.3-0.2c-0.1,0.3,0.1,0.5,0.4,0.5
			c0.1,1.6-0.2,3.4,0.2,4.8c0.1,0.3,0.3,0.5,0.6,0.6c0.5-0.1,0.6-0.6,0.7-0.8c-0.1-0.8,0.1-1.8,0.2-2.6c0.3,0.2,0.6-0.4,0.7,0
			c0.2,2.1,0.1,4.4-1.3,5.4c-0.6,0.4-1.1,0.6-2,0.5c-0.9-0.3-1.6-0.8-2.1-1.6l-0.3-1.8v-6.7c-0.3-1.3-0.6-2.7-1.9-3.1
			c-0.6-0.2-1.5-0.4-2,0l-0.2,0.4v10.4c0.2,0.6,0.4,1,0.8,1.2c0.5,0.1,1.1,0,1,0.7l-0.2,0.3l-4.9,0.1c-0.2,0-0.5-0.2-0.6,0
			c-0.5-0.4-2.1,0.5-1.7-0.7c0-0.7,0.8-0.2,1.2-0.5c0.5-0.1,0.7-0.6,1-0.8c0-0.5,0.3-1,0.1-1.5l0.1-5.4c0-2.2-0.1-4.4,0-6.3
			c0-1.4,0-3.4-0.1-4.9c0.1-0.9,0-2.3,0.1-3.3c-0.2-0.8-0.4-1.7-1.1-2c-0.5-0.2-1.3,0.1-1.5-0.4c-0.1-0.4,0-0.7,0.4-0.7H116L116,8.1
			z"/>
		<path fill-rule="evenodd" clip-rule="evenodd" fill="#0391D8" d="M135.6,8.1c0.7,0.3,0.3,1.6,0.4,2.2c0.3,1.5-0.2,3.2,0.1,4.5
			c-0.3,0.6,0.1,0.9,0,1.5c-0.2,0.7,0,1.6-0.2,2.1c-1.3,0.1-0.7-1.6-0.8-2.4c-0.3-2.9-1.3-5.5-3.7-6.7c-0.8-0.3-2.2-0.3-2.8,0.4
			c-0.6,1.7-0.3,4.5-0.3,6.1c-0.2,0.6,0.1,0.7,0,1.4c0,0.8,0,1.8,0,2.6c0.1,0.3-0.1,1,0.6,0.9c2.2-1,2.5-3.6,2.5-6.2
			c0-0.4,0.2-0.6,0.7-0.5l0.1,0.6c-0.2,1.2,0.2,2.7-0.1,4c0,1.3,0,3.1,0.1,4.5c-0.1,1.7-0.1,3.2,0,4.9c0,0.4-0.2,0.6-0.6,0.6
			c-0.7-0.6-0.2-2.1-0.5-3c-0.4-1.6-0.7-3.5-2.5-3.8l-0.3,0.2c-0.2,2.1-0.1,3.5-0.1,5.4c0,1.7,0.1,3.8,0,5.5c0.6,1.1,2,0.7,3.3,0.7
			c2.3-1,3.2-3.8,3.6-6.4l1.1,0.3v6.9l-0.3,0.3l-10.8,0.1c-0.7-0.2-2.1,0.1-2.8-0.2c-0.3-1.5,1.5-0.5,2.1-1c0.4-0.2,0.6-0.6,0.7-0.9
			v-22c-0.2-0.5-0.5-0.9-0.8-1.1c-0.7-0.3-2.1,0.3-2-0.8l0.2-0.3H135.6L135.6,8.1z"/>
		<path fill-rule="evenodd" clip-rule="evenodd" fill="#0391D8" d="M149.2,8.1c0.5,0.3,1.8-0.2,2.1,0.4c0,3.5,0.1,6.4,0,9.8
			c-0.1,0.3-0.6,0.3-0.7,0.1c-0.4-3.6-0.3-7.9-3.6-9.2c-0.7-0.3-1.6,0.1-2.3,0.1c-0.5,0.5-0.8,0.8-0.8,1.6v9
			c0.1,0.3,0.2,0.5,0.5,0.5c2.5-0.7,2.3-3.7,2.7-6.2c0.1-0.2,0.6-0.2,0.7,0c0,1.2,0,2.9,0,3.8c0.2,0.2,0,0.2,0,0.6
			c0.2,0.8,0,1.5,0.1,2.5c0,0.7,0,1.7,0,2.5c-0.3,1.4,0.1,3.2-0.3,4.5c-0.2,0.2-0.6,0.1-0.7-0.2c-0.2-2.1-0.2-4.9-1.9-6.2
			c-0.2-0.2-0.7-0.2-1,0l-0.2,0.7v6.1h0.1c0.1,1.5-0.6,3.9,0.6,4.9c0.7,0.4,1.8,0.5,2.7,0.3c2.1-0.7,2.6-2.8,3.4-4.7
			c-0.2-0.7,0.3-1.5,0.3-2.3l0.2-3c0.2-0.2,0.4-0.3,0.7-0.1l0.2,0.2c-0.3,1.4,0.6,3.6-0.7,4.2c-0.1,0.4-0.6,0.4-0.6,0.8
			c0.4-0.4,0.8-0.7,1.2-1.3h0.2l-0.1,5.4c-0.2,0.7,0.3,1.7-0.5,1.9c-1.6,0.2-3.1,0.1-4.7,0.1c-3-0.2-5.8-0.1-8.7-0.1
			c-0.3-0.1-0.3-0.7-0.1-0.8c0.8-0.3,2-0.1,2.5-0.9c0.8-0.7,0.4-2.5,0.5-3.7c0.1-2.1-0.2-4.8,0-6.6l-0.1-5.3v-6.6
			c-0.3-0.7-0.8-1.4-1.8-1.4c-0.6,0-1.2,0.1-1-0.7C138,8,147.7,8.1,149.2,8.1L149.2,8.1z"/>
		<path fill-rule="evenodd" clip-rule="evenodd" fill="#0391D8" d="M196.7,10.8c1.2,1.7,1.6,4.1,2.1,6.4c0.7,4.9,0.2,10.4-1.7,14
			c-0.7,1.4-1.8,2.4-3,3.2c-1.1,0.3-2.8,0.4-3.5-0.4c-3.5-3.3-4.4-8.4-4.3-14.4c0.2-4,1.4-7.8,3.7-10.5c0.9-1,2.7-1.3,4.2-0.8
			C195.2,9,196.1,9.8,196.7,10.8L196.7,10.8z"/>
		<path fill-rule="evenodd" clip-rule="evenodd" fill="#0391D8" d="M165.5,8.4l0.2,0.3l0.1,7.2c-0.3,1.2,0,2.7-0.2,3.9
			c-0.3,0.3-0.6,0-0.7-0.1l-0.3-4.6c-0.4-2.1-0.7-4.1-2-5.6c-0.3-0.3-0.9-0.3-1.1,0l-0.4,0.4v6.6v0.1v5.3v10.6
			c0.2,1.3,2.1,0.6,2.8,1.1c0.1,0.5-0.1,0.7-0.5,0.8c-2.4,0.3-4.9-0.2-7.3,0c-0.6,0.1-0.6-0.6-0.4-0.8c0.8-0.2,1.9-0.1,2.1-0.9
			l0.1-10.4V10c-0.2-0.3-0.4-0.6-0.7-0.7c-1.7,0.2-1.8,1.9-2.2,3.1l-0.7,5c-0.2,0.8,0.2,2-0.3,2.4l-0.6-0.1l-0.1-5.2
			c0-1.9-0.1-4.2,0.1-6.1C154.1,8,163.9,8.3,165.5,8.4L165.5,8.4z"/>
		<path fill-rule="evenodd" clip-rule="evenodd" fill="#0391D8" d="M185.6,8.3c0.5-0.1,0.6,0.4,0.4,0.7c-0.9,0.2-1.9,0.2-2.4,0.8
			c-0.7,1.5,0.1,3.5-0.2,5c0.1,0.3-0.1,0.8,0,1.3c0.1,1.2,0,2.6,0,3.7c0,0.4,0,1,0,1.6v8.9c-0.6,1.9-1.4,3.7-3.3,4.2
			c-1.9,0.5-3.1-0.4-3.9-1.3c-1-1.5-2.1-3.5-1.3-5.7c0.4-0.8,1-1.3,2-1.4c0.5,0.2,1,0.4,1.2,0.8c-0.1,0.8,0.5,1.8-0.1,2.3
			c-0.1,0.7-1.1,0.7-1.1,1.6c0.1,1.1,0.6,2.1,1.5,2.4c0.8,0.2,1.3-0.2,1.8-0.7c0.7-1.9,0.3-4.9,0.3-6.9l0.1-5.4v-9.6
			c-0.2-0.6-0.4-1-0.8-1.5c-0.6-0.5-1.9,0.2-2.1-0.6l0.3-0.6C180.7,8.1,182.8,8.4,185.6,8.3L185.6,8.3z"/>
		<path fill-rule="evenodd" clip-rule="evenodd" fill="#0391D8" d="M206.1,8.4c0.4-0.2,1.1-0.3,1.4,0.2c0.1,0.6-0.3,0.7-0.7,0.7
			c-0.6,0-0.9,0.3-1.3,0.6c-0.4,0.7-0.4,1.6-0.4,2.5V23l-0.1,0.1c0.2,2.8,0,4.7,0.2,7.6c0.3,1.1,0.9,2.1,2,2.7
			c0.8,0.2,2,0.1,2.5-0.6c0.9-0.7,1.1-1.7,1.3-2.7v-9.3l-0.1-0.6L211,12c0.1-0.8-0.1-1.8-0.6-2.4c-0.5-0.4-1.3-0.4-1.9-0.5l0.1-0.7
			l4.9-0.1c0.3,0,0.5,0.3,0.5,0.5c0,0.5-0.7,0.2-0.9,0.4c-0.5,0.1-0.9,0.5-0.9,0.9l-0.3,1.5v18.7c-0.2,1.6-1.1,2.9-2.2,3.8
			c-0.7,0.7-2.2,0.4-3.1,0.6c-1.9-0.4-3.5-1.7-4-3.5c-1.1-2.3-0.4-6.2-0.7-8.7v-12c-0.2-0.6-0.5-0.9-0.9-1.2c-0.5-0.2-1.3,0-1.3-0.6
			c-0.1-0.6,0.6-0.3,0.8-0.5L206.1,8.4L206.1,8.4z"/>
		<path fill-rule="evenodd" clip-rule="evenodd" fill="#0391D8" d="M221.1,8.5c2.8-0.4,5.6,0.2,6.7,2.4c0.9,1.5,1.5,3.8,0.8,5.9
			c-0.8,1.5-1.5,3.4-3.2,4.1c0,0.8,0.9,1,1.3,1.7c0.4,0.7,0.7,1.4,0.7,2.4l0.2,4.8c0,0.8-0.1,2.2,0.7,2.6c1.1-0.4,0.8-2.1,1-3.3
			c0.1-0.1,0.5-0.1,0.6,0c0.3,2.1-0.2,4-1.4,5.2c-0.7,0.3-1.5,0.7-2.2,0.4c-0.8,0-0.8-0.9-1.4-1.4l-0.3-2.7v-5.4
			c-0.1-1.2-0.2-2.6-1.1-3.3c-0.7-0.6-1.9-0.7-2.8-0.4l-0.2,0.3c-0.4,3.6,0.1,6.6,0,10.4c0.1,0.6,0.2,1.2,0.8,1.5
			c0.6,0.1,0.8,0,1.5,0.2c0.1,0.2,0,0.5,0.1,0.7l-4.9,0.1l-2.7-0.2c-0.2-0.2-0.2-0.7,0-0.7c0.8,0,1.5-0.3,2-0.7l0.3-0.9V10.7
			c-0.2-0.6-0.3-1.1-0.8-1.4c-0.5-0.2-1.3,0.1-1.3-0.6c0.3-0.7,0.8-0.1,1.5-0.4C218.4,8.5,219.5,8.5,221.1,8.5L221.1,8.5z"/>
		<path fill-rule="evenodd" clip-rule="evenodd" fill="#0391D8" d="M234.8,8.4c0.2,0.2,0.6,0.3,0.7,0.6c1.9,5.2,3.3,10.6,5.4,15.7
			c0.6-0.1-0.2-0.7,0.2-0.9c-0.1-2,0.1-3.8-0.1-5.9c0.2-1.1,0-2,0.1-3.2c-0.3-0.2,0.2-0.5-0.1-0.6c0.2-1.1-0.1-2.7-0.1-4
			c-0.5-0.7-1.3-0.8-2.2-0.8c0-0.1-0.2-0.7,0.2-0.7c1.8,0,3.5,0,5.4,0c0.4,0.1,0.2,0.5,0.2,0.7c-0.6,0.3-1.4,0.2-1.8,0.7l-0.4,0.9
			l-0.1,5v14c0,0.5,0,1.5,0,2c-0.1,0.7,0.1,2-0.1,2.7c-0.2,0.2-0.7,0.3-0.8,0.1c-0.7-0.8-0.6-2.2-1.2-3.1c-1-2.5-1.6-5.4-2.6-7.8
			l-1.9-5.3c-0.3-0.9-0.7-1.7-1-2.5l-0.2,0.1c-0.3,1.1-0.3,2.1-0.1,3.2l-0.1,5v8.3c0.2,0.5,0.4,0.9,0.8,1.2c0.5,0.3,1.6-0.3,1.6,0.6
			l-0.1,0.4l-5.2,0.1c-0.4-0.1-0.8-0.1-0.8-0.6c0.4-0.7,2,0,2.3-0.9c0.4-0.7,0.4-1.8,0.4-2.8L233,19.8v-9c-0.2-1.3-1.5-1.4-2.5-1.7
			c-0.3-0.2,0-0.5,0-0.7C231.9,8.3,233.3,8.4,234.8,8.4L234.8,8.4z"/>
		<path fill-rule="evenodd" clip-rule="evenodd" fill="#0391D8" d="M253,13.1c0.4,2.6,1.2,4.9,1.5,7.6l1.7,7.7
			c0.6,1.9,0.5,4.3,2.2,5.2c0.5,0.1,1,0.1,0.7,0.8l-0.1,0.2c-2.1,0.1-5,0.2-7.3-0.1c-0.5-1.3,1.1-0.7,1.7-1.1c0.5-0.4,0.6-1.1,0.5-2
			c-0.3-1.3-0.5-2.7-1-3.7c-1.5-0.1-3.3-0.1-4.6,0.1c-0.4,0.5-0.5,1.2-0.6,2c-0.2,1.1-0.9,2.8,0.2,3.7c0.5,0.5,2.3-0.4,1.7,1
			c-1.5,0.3-3.3,0.2-4.8,0.2c-0.5-0.2-1.5,0.2-1.2-0.7c0-0.6,0.9-0.2,1.2-0.4c0.8-0.5,1.2-1.3,1.4-2.1l1.1-6.3l1.4-8l0.8-4.7
			c0.3-1.4,0.5-3,1.1-4.1l1.2,0.1L253,13.1L253,13.1z"/>
		<path fill-rule="evenodd" clip-rule="evenodd" fill="#0391D8" d="M267.2,8.5c0.4,0.1,0.7,0.2,0.7,0.7c-0.2,0.7-1.4,0.3-1.9,0.7
			c-0.7,0.3-0.7,1.1-0.8,1.7v20.8c-0.3,0.7,0.2,1.1,0.6,1.5c0.7,0.5,2.4,0.4,3.4,0.1c1.5-0.9,1.8-2.8,2.4-4.5l0.7-4.9
			c0.1-0.2,0.5-0.2,0.7,0v8.7h-0.1c0,0.5,0.1,1.2-0.1,1.7c-0.5,0.2-1.2,0-1.6,0.1l-0.3-0.1l-5,0.1c-2-0.1-4.1,0.2-5.7-0.3
			c-0.2-0.1-0.2-0.5-0.1-0.7c0.6-0.4,1.8,0.1,2.1-0.7l0.1-0.9v-22c-0.5-0.9-1.5-1-2.4-1c0-0.4-0.2-0.7,0.2-0.8H267.2L267.2,8.5z"/>
		<path fill-rule="evenodd" clip-rule="evenodd" fill="#0071B4" d="M195,10.9l0.2,1.8v5.9l0.1,0.1l-0.1,12.1
			c-0.2,0.9-0.7,1.6-1.1,2.3c-0.7,0.6-1.8,0.5-2.4,0.1c-1.4-0.9-1.7-2.7-1.6-4.3c-0.1-1.3,0.4-2.4,0-3.6c0.1-1.4,0-3,0.2-4.5
			c-0.2-0.1,0-0.7-0.2-0.7c0.4-0.5-0.1-0.7,0-1.2c0.1-2.3,0-4.1,0-6.8c0.4-1.2,0.9-2.6,2.2-2.9C193.7,9,194.4,9.9,195,10.9L195,10.9
			z"/>
		<path fill-rule="evenodd" clip-rule="evenodd" fill="#0071B4" d="M115.2,9.3c2.6,1.6,1.6,5.6,1.5,8.6c-0.2,0.8-0.7,1.5-1.3,2.1
			c-0.7,0.5-2.3,0.4-3.1,0.1l-0.1-9.5c0.1-0.7,0.4-1.3,1.2-1.3C114,9,114.6,9.3,115.2,9.3L115.2,9.3z"/>
		<path fill-rule="evenodd" clip-rule="evenodd" fill="#0071B4" d="M225.2,10.8c0.3,0.7,0.3,1.6,0.4,2.2l-0.1,4.9
			c-0.3,0.9-0.6,1.8-1.4,2.1c-0.7,0.3-2.4,0.3-3.4,0c-0.1-3.5-0.1-6.2-0.1-9.8c0.1-0.5,0.5-0.9,1-1.1
			C223.4,8.9,224.4,9.8,225.2,10.8L225.2,10.8z"/>
		<path fill-rule="evenodd" clip-rule="evenodd" fill="#0071B4" d="M250.7,16.3c0.6,3.5,1.7,6.7,2.1,10.4l-0.2,0.2l-3.7,0.1
			l-0.5-0.3c0.1-1,0.3-2.1,0.6-3.3l0.7-4.9c0.2-0.7,0.3-1.6,0.6-2.2L250.7,16.3L250.7,16.3z"/>
		<path fill-rule="evenodd" clip-rule="evenodd" fill="#0071B4" d="M35.4,21.3l0.9,5c-0.7,0.7-2,0-3,0.3l-0.7-0.1l0.1-1.2l0.8-5.3
			l0.7-3.5l0.2,0.1L35.4,21.3L35.4,21.3z"/>
	</g>
</g>
<g id="Layer_4">
</g>
</svg>
