<?xml version="1.0" encoding="utf-8"?>
<!-- Generator: Adobe Illustrator 18.0.0, SVG Export Plug-In . SVG Version: 6.00 Build 0)  -->
<!DOCTYPE svg PUBLIC "-//W3C//DTD SVG 1.1//EN" "http://www.w3.org/Graphics/SVG/1.1/DTD/svg11.dtd">
<svg version="1.1" xmlns="http://www.w3.org/2000/svg" xmlns:xlink="http://www.w3.org/1999/xlink" x="0px" y="0px"
	 viewBox="0 0 70.5 62" enable-background="new 0 0 70.5 62" xml:space="preserve">
<g id="Layer_1">
	<g id="Layer_2">
	</g>
</g>
<g id="Layer_5" display="none">
</g>
<g id="panel1">
	<g>
		<g>
			<path d="M3.5,46.8h1.2v-8.3H3.5v-0.4h4.8c1.6,0,2.8,0.3,2.8,1.9c0,1.4-1.1,2.1-2.4,2.2v0c1.5,0,3,0.8,3,2.5c0,1.4-1,2.5-3.1,2.5
				H3.5V46.8z M6.7,46.8h0.7c1.4,0,2.2-0.6,2.2-2.3c0-1.5-0.5-2.1-1.9-2.1H6.7V46.8z M6.7,42h0.8C8.6,42,9,41.5,9,40.2
				c0-1.3-0.4-1.8-1.6-1.8H6.7V42z"/>
			<path d="M11.9,46.8h0.9v-8.3h-0.9v-0.4h0.8c0.6,0,1.3,0,2-0.1v8.8h0.9v0.4h-3.7V46.8z"/>
			<path d="M22.4,46.8h0.9v0.4c-1.2,0-2,0-2.7,0.1v-1h0c-0.4,0.7-1.2,1-2,1c-1.3,0-2.2-0.5-2.2-2.1v-3.9h-0.9v-0.4h0.8
				c0.6,0,1.3,0,2-0.1v4.7c0,1,0.5,1.1,1,1.1c0.8,0,1.4-0.7,1.4-2v-3.3h-0.9v-0.4h0.8c0.6,0,1.3,0,2-0.1V46.8z"/>
			<path d="M25.5,43.7v0.5c0,1.1,0.2,2.5,1.6,2.5c1.1,0,1.7-0.6,2.2-1.5l0.3,0.2c-0.5,1.3-1.5,1.9-2.8,1.9c-2,0-3.3-1.3-3.3-3.3
				c0-1.9,1.4-3.3,3.3-3.3c1.6,0,2.9,1.1,2.9,2.9H25.5z M27.8,43.3v-0.6c0-0.7-0.2-1.6-1-1.6c-1.2,0-1.2,1.4-1.2,2.2H27.8z"/>
			<path d="M38.4,41.2h-0.4c-0.1-1.6-1.4-2.9-2.9-2.9c-2.5,0-2.8,2.5-2.8,4.3c0,1.6,0.2,4.3,2.7,4.3c1.5,0,2.8-1.4,3-2.9h0.4v2.6
				c-1,0.4-2.3,0.7-3.4,0.7c-2.9,0-4.8-2-4.8-4.7c0-2.7,1.9-4.7,4.8-4.7c1.1,0,2.2,0.3,3.4,0.7V41.2z"/>
			<path d="M38.8,46.8h0.9v-5.5h-0.9v-0.4h0.8c0.6,0,1.3,0,2-0.1v1h0c0.3-0.6,0.9-1.1,1.6-1.1c0.8,0,1.2,0.6,1.2,1.3
				c0,0.5-0.3,0.8-0.8,0.8c-0.5,0-0.8-0.3-0.8-0.7c0-0.4,0-0.4,0-0.6c0-0.2-0.1-0.3-0.2-0.3c-0.7,0-1,1.7-1,2.7v2.7h0.9v0.4h-3.7
				V46.8z"/>
			<path d="M47.6,47.3c-2,0-3.3-1.3-3.3-3.3c0-1.9,1.4-3.3,3.3-3.3c1.9,0,3.3,1.4,3.3,3.3C50.9,45.9,49.5,47.3,47.6,47.3z
				 M47.6,41.2c-1.3,0-1.3,1.4-1.3,2.9c0,1.5,0,2.9,1.3,2.9c1.3,0,1.3-1.4,1.3-2.9C48.9,42.6,48.9,41.2,47.6,41.2z"/>
			<path d="M51.3,44.8h0.4c0.1,1.1,0.8,2.1,1.9,2.1c0.6,0,1.3-0.3,1.3-0.9c0-1.5-3.5-0.8-3.5-3.3c0-1.3,1-2,2.2-2c1,0,1.5,0.2,2,0.4
				v1.6h-0.4c-0.1-0.9-0.8-1.7-1.7-1.7c-0.5,0-0.9,0.3-0.9,0.8c0,1.3,3.5,0.7,3.5,3.2c0,1.4-1.3,2.2-2.5,2.2c-1,0-1.8-0.3-2.2-0.4
				V44.8z"/>
			<path d="M56.5,44.8h0.4c0.1,1.1,0.8,2.1,1.9,2.1c0.6,0,1.3-0.3,1.3-0.9c0-1.5-3.5-0.8-3.5-3.3c0-1.3,1-2,2.2-2c1,0,1.5,0.2,2,0.4
				v1.6h-0.4c-0.1-0.9-0.8-1.7-1.7-1.7c-0.5,0-0.9,0.3-0.9,0.8c0,1.3,3.5,0.7,3.5,3.2c0,1.4-1.3,2.2-2.5,2.2c-1,0-1.8-0.3-2.2-0.4
				V44.8z"/>
			<path d="M3.5,59.4h1.2v-8.3H3.5v-0.4h4.8c1.6,0,2.8,0.3,2.8,1.9c0,1.4-1.1,2.1-2.4,2.2v0c1.5,0,3,0.8,3,2.5c0,1.4-1,2.5-3.1,2.5
				H3.5V59.4z M6.7,59.4h0.7c1.4,0,2.2-0.6,2.2-2.3c0-1.5-0.5-2.1-1.9-2.1H6.7V59.4z M6.7,54.7h0.8c1.1,0,1.6-0.5,1.6-1.8
				c0-1.3-0.4-1.8-1.6-1.8H6.7V54.7z"/>
			<path d="M11.9,59.4h0.9v-8.3h-0.9v-0.4h0.8c0.6,0,1.3,0,2-0.1v8.8h0.9v0.4h-3.7V59.4z"/>
			<path d="M22.4,59.4h0.9v0.4c-1.2,0-2,0-2.7,0.1v-1h0c-0.4,0.7-1.2,1-2,1c-1.3,0-2.2-0.5-2.2-2.1V54h-0.9v-0.4h0.8
				c0.6,0,1.3,0,2-0.1v4.7c0,1,0.5,1.1,1,1.1c0.8,0,1.4-0.7,1.4-2V54h-0.9v-0.4h0.8c0.6,0,1.3,0,2-0.1V59.4z"/>
			<path d="M25.5,56.4v0.5c0,1.1,0.2,2.5,1.6,2.5c1.1,0,1.7-0.6,2.2-1.5l0.3,0.2c-0.5,1.3-1.5,1.9-2.8,1.9c-2,0-3.3-1.3-3.3-3.3
				c0-1.9,1.4-3.3,3.3-3.3c1.6,0,2.9,1.1,2.9,2.9H25.5z M27.8,56v-0.6c0-0.7-0.2-1.6-1-1.6c-1.2,0-1.2,1.4-1.2,2.2H27.8z"/>
			<path d="M30.1,56.8h0.4c0.1,1.3,1.1,2.8,2.7,2.8c1,0,2-0.4,2-1.5c0-2.2-5-1.5-5-4.7c0-1.9,1.6-2.7,3-2.7c0.7,0,1.4,0.1,2.6,0.6
				l0.1,2.2h-0.4c-0.2-1.2-1.2-2.3-2.4-2.3c-0.8,0-1.4,0.6-1.4,1.4c0,2,4.9,1.2,4.9,4.8c0,1.6-1.4,2.8-3.3,2.8c-1,0-2-0.2-3-0.6
				L30.1,56.8z"/>
			<path d="M36.7,59.4h0.9v-8.3h-0.9v-0.4h0.8c0.6,0,1.3,0,2-0.1v3.8h0c0.4-0.7,1.1-1,2-1c1.3,0,2.2,0.7,2.2,2.1v3.9h0.9v0.4h-3.7
				v-0.4h0.9v-4.1c0-1-0.5-1.2-1-1.2c-0.7,0-1.4,0.7-1.4,1.7v3.6h0.9v0.4h-3.7V59.4z"/>
			<path d="M44.5,59.4h0.9V54h-0.9v-0.4h0.8c0.6,0,1.3,0,2-0.1v5.9h0.9v0.4h-3.7V59.4z M46.3,50.6c0.5,0,1,0.4,1,1c0,0.5-0.4,1-1,1
				c-0.5,0-1-0.4-1-1C45.3,51,45.8,50.6,46.3,50.6z"/>
			<path d="M50.3,56.4v0.5c0,1.1,0.2,2.5,1.6,2.5c1.1,0,1.7-0.6,2.2-1.5l0.3,0.2C54,59.3,53,60,51.7,60c-2,0-3.3-1.3-3.3-3.3
				c0-1.9,1.4-3.3,3.3-3.3c1.6,0,2.9,1.1,2.9,2.9H50.3z M52.6,56v-0.6c0-0.7-0.2-1.6-1-1.6c-1.2,0-1.2,1.4-1.2,2.2H52.6z"/>
			<path d="M54.7,59.4h0.9v-8.3h-0.9v-0.4h0.8c0.6,0,1.3,0,2-0.1v8.8h0.9v0.4h-3.7V59.4z"/>
			<path d="M63.2,59.1L63.2,59.1C62.7,59.8,62,60,61.3,60c-1.9,0-2.7-1.5-2.7-3.3c0-1.7,1-3.3,2.8-3.3c0.8,0,1.5,0.3,1.8,0.9h0v-3.2
				h-0.9v-0.4h0.8c0.6,0,1.3,0,2-0.1v8.8h0.9v0.4c-1.2,0-2,0-2.7,0.1V59.1z M61.8,54c-1.3,0-1.3,1.2-1.3,2.7c0,1.8,0.3,2.7,1.3,2.7
				c1.3,0,1.4-1.5,1.4-2.7C63.2,55.7,63.1,54,61.8,54z"/>
		</g>
		<path fill="#FFFFFF" d="M53.2,33.5c0,0,9.8-5.2,12-17.9c0.2-1.1,1.3-6.3-1.7-13.3c0,0-4.3,2.2-10.8,2.5c-6.5,0-10.7-2.5-10.7-2.5
			c-1.5,3.8-1.9,7.1-1.9,9.4"/>
		<path fill="#FFFFFF" d="M39.9,11.7c0,2.3,0.4,3.8,0.5,4.4c2.7,12.7,12.7,17.4,12.7,17.4"/>
		<g>
			<circle fill="#FFFFFF" cx="19.7" cy="18.3" r="8.4"/>
			<path fill="#FFFFFF" d="M19.7,18.3"/>
		</g>
		<path d="M19.8,18.4"/>
		<path d="M19.8,12.2"/>
		<path d="M19.8,18.4"/>
		<path d="M19.8,18.4"/>
		<path d="M19.8,18.4"/>
		<path d="M19.8,18.4"/>
		<path d="M19.8,18.4"/>
		<path d="M19.8,18.4"/>
		<g>
			<path fill="#0080B6" d="M17.6,11.7c-1.5,0.4-2.4,0.9-3.3,2.1l3.8,0c0-0.2-0.3-0.2-0.4-0.5c-0.2-0.5-0.2-0.8-0.1-1.1
				C17.8,11.7,17.6,11.7,17.6,11.7z"/>
		</g>
		<path d="M19.8,18.4"/>
		<path fill="#0080B6" d="M26.7,16.6c0.1,0.4,0.1,0.9,0.2,1.3c0,0.2,0,0.4,0,0.4c0,1.9-0.5,3.3-1.7,4.6c0,0-2.5-4.9-2.6-5.3
			c-0.2-0.4-0.5-0.5,0.3-0.6C23.3,17,26.7,16.6,26.7,16.6z"/>
		<g>
			<path fill="#0080B6" d="M19.8,25.4c1.1,0,1.8-0.2,2.8-0.7c0,0-2.1-3.2-2.3-3.5c-0.1-0.2-0.3-0.5-0.4-0.5c-0.1,0-0.3,0.3-0.4,0.5
				c-0.2,0.3-2.3,3.5-2.3,3.5C18,25.2,18.7,25.4,19.8,25.4z"/>
		</g>
		<path fill="#0080B6" d="M26.7,10.6v0.9h8.6v13.8h-8l-0.9-1.8c1.2-1.5,1.8-3.4,1.7-5.5c0-0.9-0.3-1.7-0.6-2.5L21.7,16
			c-0.9,0.1-1,0.8,0,2.6c0.7,1.4,3.2,6.4,3.2,6.4c0.5-0.4,1.1-1,1.6-1.6l0.9,1.8h-0.6v8.6H12.9V26l3-0.2c1,0.5,2.2,0.9,3.4,0.9
			c0.2,0,0.3,0,0.4,0c0.2,0,0.3,0,0.4,0c1.5-0.1,2.9-0.6,4.1-1.3l-3.4-5.5c-0.2-0.2-0.7-1-1.1-1c-0.5,0-0.9,0.7-1.1,0.9l-3.5,5.5
			c0.2,0.1,0.5,0.3,0.7,0.4l-3,0.2v-0.7H12l1-2c0.4,0.6,1.1,1.2,1.7,1.7c0,0,2.5-4.9,3.2-6.4c0.9-1.9,0.9-2.5,0-2.6L12,15.4
			c-0.3,0.8-0.5,1.6-0.6,2.5c-0.1,2,0.5,3.9,1.6,5.4l-1,2H4.3V11.5h7.8l1.2,1.7c-0.4,0.5-0.9,1.1-1.1,1.7l6.3,0
			c0.7,0,0.9-0.7,0.9-0.9c0-0.2-0.1-0.7-0.3-0.9c-0.1-0.2-0.3-0.5-0.3-0.7c0-0.7,0.4-1,1-1c0.6,0,1,0.4,1,1c0,0.3-0.1,0.5-0.3,0.7
			c-0.3,0.2-0.3,0.7-0.3,0.9c0,0.2,0.1,0.9,0.9,0.9l6.3,0c-0.5-1.1-1.4-2.2-2.4-3c-1.4-1.1-3.2-1.8-5.2-1.8c-2.6,0-4.9,1.2-6.4,3.1
			l-1.2-1.7h0.8V2.8h13.8V10.6z"/>
		<path fill="#0080B6" d="M13,16.7c-0.1,0.4-0.2,0.9-0.2,1.4c0,0.2,0,0.3,0,0.3c0,1.9,0.5,3.3,1.7,4.6c0,0,2.4-4.9,2.6-5.3
			c0.2-0.4,0.5-0.5-0.3-0.6C16.3,17,13,16.7,13,16.7"/>
		<path fill="#0080B6" d="M53.1,33.9c0,0,10.1-5.3,12.2-18.3c0.2-1.1,1.4-6.4-1.8-13.5c0,0-4.4,2.2-11.1,2.5
			c-6.7,0-10.9-2.5-10.9-2.5c-1.6,3.9-2,7.2-2,9.6l2.4,0.2c-0.1-2.2,0.2-4.9,1.1-6.4c0,0,4.1,1.6,9.4,1.6c5.4-0.2,9.4-1.7,9.4-1.7
			c1.6,3.6,1.5,7,0.8,10.9c-2,10.6-9.7,14.9-9.7,14.9s-7.9-4-10.3-14.5c-0.4-1.6-0.6-3.2-0.7-4.7l-2.4-0.2c0,2.4,0.4,3.9,0.5,4.5
			C42.8,29.1,53.1,33.9,53.1,33.9"/>
		<path fill="#0080B6" d="M51.3,10.8c0.1,0,0.2,0,0.2-0.1c0-0.1-0.1-0.2-0.2-0.2c-0.1,0-0.2,0.1-0.2,0.2
			C51.1,10.7,51.2,10.8,51.3,10.8l0.2,0c-0.1,0.1-0.2,0.1-0.3,0c-0.1-0.2-0.1-0.2-0.2-0.2c-0.1,0-0.1,0-0.2,0c-0.2,0,0-0.1,0-0.1
			c0.4,0,0.7,0,0.8,0.1c0.1,0.1,0,0.2-0.1,0.3L51.3,10.8z"/>
		<path fill="#FFFFFF" d="M51.3,10.6"/>
		<path fill="#0080B6" d="M61,18.2c0.6-2.4,1.7-6.5,0.3-11.4c0,0-4.7,1.5-8.7,1.5l0.6,1.3c0.2,0.1,0.3,0.1,0.3,0.1
			c0.1,0,0.2,0.1,0.2,0.4c0,0.2,0,0.8,0,0.9c0,0.3,0.1,0.4,0.4,0.2c0.3-0.2,0.9-0.7,1.2-0.9c0.2-0.2,0.5,0,0.7,0.1
			c0.1,0.1,0.4,0.6,0.1,0.9c-0.4,0.4-2,1.9-2.1,2.1c-0.1,0.1,0,0.3,0,0.3c0,0-0.2,0.1-0.3,0.1c-0.1,0-1.7-0.2-1.9-0.3
			c-0.1,0-0.1,0-0.1-0.2c0-0.2,0-0.6,0-0.8c0-0.1,0.1-0.1,0.3-0.1c0.1,0,0.2-0.1,0.3-0.1c0.1,0,0-0.2,0-0.2s-0.3-0.2-0.1-0.2
			c0.2,0,0.5,0.1,0.6,0.1C52.9,12,53,12,53.1,12c0.2,0,0.3,0,0.2,0c-0.1-0.1-0.5-0.2-0.6-0.2c-0.2-0.1-0.4-0.1-0.5-0.1
			c-0.1,0,0-0.1,0.1-0.1c0.1,0,0.3-0.1,0.3-0.1s0.1,0,0.2,0c0.1,0,0-0.1,0-0.2c0-0.1-0.3-0.3-0.5-0.6c-0.2-0.2-0.4-0.5-0.5-0.6
			c-0.1-0.1-0.1-0.2-0.1-0.3c0-0.1,0-0.2,0-0.2c0-0.3,0.3-0.4,0.5-0.3c0.3,0.1,0.6,0.2,1.1,0.4l-0.6-1.3c-0.7,0-1.5,0-2.2-0.1
			l-0.1,1.9c0.1,0,0.3,0,0.4,0c0.1,0,0.7,0.1,1,0.2c0.3,0.1,0.5,0.5,0.9,0.8c0.2,0.1,0.1,0.2-0.1,0.2c-0.4,0.1-1.3,0-1.6,0
			c-0.3,0,0,0.1,0.1,0.2c0.1,0.1,0.5,0.2,0.9,0.4c0.4,0.2,0.1,0.3-0.6,0.3c-0.5,0-1-0.2-1.3-0.2c-0.2-0.1-0.7-0.1-0.4,0.6
			c0.4,0.8,1,0.9,3.7,1.3c2.7,0.4,2.7,2,2.7,2.3c0,0.3-0.3,2-2.2,2l0-1.6c0.2-0.2,0.4-0.4,0.3-0.5c-0.1-0.3-0.1-0.5-2-0.6
			c-2.7-0.1-4.3-1.2-4.3-3.2c0-1.7,1.5-2.2,2.4-2.3l0.1-1.9C47,7.8,43.9,7,43.9,7c-0.6,1.5-0.6,3.2-0.6,4.8c0.1,2.5,0.7,4.8,1.2,6.4
			h5.8c0.1-0.5,0.5-0.9,0.8-1.1c0.2-0.2,0.3,0,0.3,0.1c0,0,0.1,0.2,0.2,0.4l0.2-0.1c-0.1-0.4-0.3-0.7-0.3-0.8
			c-0.1-0.2-0.1-0.2-0.1-0.4c0-0.2,0.3-0.3,0.4-0.3c0,0,0-0.1,0-0.1c0-0.2,0.1-0.1,0.2-0.1c0.2,0,1,0,1.5,0.1c0.1,0,0.1,0,0.1,0.1
			c0,0,0,1.6,0,2.2H61z"/>
		<path fill="#0080B6" d="M51.9,18.2c-0.1-0.2-0.2-0.4-0.3-0.7l-0.2,0.1c0.1,0.2,0.1,0.5,0.2,0.6H51.9z"/>
		<path fill="#0080B6" d="M44.4,18.2c0.1,0.2,0.1,0.3,0.1,0.5c2.1,6.6,8.4,11,8.4,11s0.3-0.3,0.7-0.6l-0.4-0.8c-0.1,0-0.4,0.1-0.5,0
			c-0.1,0-0.3-0.2-0.3-0.4c0-0.1,0-1,0-1.9l-0.2,0.1v0.5c0,0-0.2,0.1-0.2,0.3c0,0.1,0,0.2,0,0.6c0,0.4-0.6,0-0.6-0.6
			c0-0.9,0.5-1.3,0.8-1.3v0.5l0.2-0.1c0-0.7,0-1.4,0-1.4c0-0.2,0.1-0.2,0.1-0.2s0.1,0,0.3,0c0.1,0,0.7,0.3,0.7,0.4c0,0,0,0.3,0,0.7
			l0.2-0.1c0-0.3,0-0.6,0-0.7c0-0.2-0.1-0.3-1.5-0.8c-1.4-0.5-1.4-1.5-1.4-1.6s0.1-1.2,1.3-1.2l0,0.5l0.2,0c0-0.5,0-0.9,0-1
			c0-0.1,0-0.1,0.1-0.1c0,0,1,0,1.1,0c0.1,0,0.1,0,0.1,0.1c0,0,0,0.5,0,0.9l0.2-0.1v-0.6c0.1,0,0.2-0.2,0.2-0.3
			c0-0.1-0.1-0.2-1.3-0.2c-1.7,0-2.3-0.8-2.5-1.6c-0.1-0.2-0.1-0.3,0-0.5H44.4z"/>
		<path fill="#0080B6" d="M51.7,18.2C51.7,18.2,51.7,18.3,51.7,18.2c-0.1,0.1-0.1,0.2-0.1,0.3c0,0.2,0,0.4,1.3,0.4
			c2.6,0,2.6,1.5,2.6,1.8c0,0.3-0.1,1.4-1.6,1.4v-0.6l-0.2,0.1c0,0.6,0,1.2,0,1.2c0,0.1,0,0-0.1,0c-0.1,0-1-0.3-1.1-0.3
			c-0.1,0-0.1,0-0.1-0.1c0,0,0-0.4,0-0.8l-0.2,0l0,0.5c0,0,0,0-0.1,0.1c-0.1,0.1,0,0.3,0.1,0.4c0.1,0.1,0.8,0.2,1.4,0.5
			c0.6,0.3,1.1,0.8,1.1,1.5c0,0.6-0.3,1.1-1,1.4c0,0,0-0.3,0-0.6l-0.2,0.1c0,1-0.1,2.5-0.1,2.6c0,0.1-0.1,0.1-0.2,0.1l0.4,0.8
			c1.7-1.4,5.9-5.4,7.2-10.6c0-0.1,0-0.1,0-0.2h-7.4c0,0.1,0,0.2,0,0.2c0,0.2,0,0.2-0.1,0.2c0.1,0-1.4,0-1.3,0c-0.1,0-0.1,0-0.1-0.2
			c0,0,0-0.1-0.1-0.2H51.7z"/>
		<g>
			<path fill="#0080B6" d="M22,11.7c1.5,0.4,2.4,0.9,3.3,2.1l-3.8,0c0-0.2,0.3-0.2,0.4-0.5c0.2-0.5,0.2-0.8,0.1-1.1
				C21.8,11.7,22,11.7,22,11.7z"/>
		</g>
		<path d="M58.9,32.7c0-0.5,0.4-0.9,0.9-0.9c0.5,0,0.9,0.4,0.9,0.9c0,0.5-0.4,0.9-0.9,0.9C59.3,33.6,58.9,33.2,58.9,32.7z
			 M59.8,33.8c0.6,0,1.1-0.4,1.1-1.1c0-0.6-0.5-1.1-1.1-1.1c-0.6,0-1.1,0.4-1.1,1.1C58.7,33.3,59.2,33.8,59.8,33.8z M59.6,32.8h0.2
			l0.3,0.5h0.2l-0.3-0.5c0.2,0,0.3-0.1,0.3-0.3c0-0.2-0.1-0.3-0.4-0.3h-0.5v1.2h0.2V32.8z M59.6,32.6v-0.4h0.3c0.1,0,0.3,0,0.3,0.2
			c0,0.2-0.1,0.2-0.3,0.2H59.6z"/>
		<path d="M28.8,32.9c0-0.5,0.4-0.9,0.9-0.9c0.5,0,0.9,0.4,0.9,0.9c0,0.5-0.4,0.9-0.9,0.9C29.2,33.8,28.8,33.4,28.8,32.9z M29.7,34
			c0.6,0,1.1-0.4,1.1-1.1c0-0.6-0.5-1.1-1.1-1.1c-0.6,0-1.1,0.4-1.1,1.1C28.6,33.5,29.1,34,29.7,34z M29.5,33h0.2l0.3,0.5h0.2
			L29.9,33c0.2,0,0.3-0.1,0.3-0.3c0-0.2-0.1-0.3-0.4-0.3h-0.5v1.2h0.2V33z M29.5,32.9v-0.4h0.3c0.1,0,0.3,0,0.3,0.2
			c0,0.2-0.1,0.2-0.3,0.2H29.5z"/>
	</g>
</g>
<g id="Layer_4">
</g>
</svg>
