<?xml version="1.0" encoding="utf-8"?>
<!-- Generator: Adobe Illustrator 18.0.0, SVG Export Plug-In . SVG Version: 6.00 Build 0)  -->
<!DOCTYPE svg PUBLIC "-//W3C//DTD SVG 1.1//EN" "http://www.w3.org/Graphics/SVG/1.1/DTD/svg11.dtd">
<svg version="1.1" xmlns="http://www.w3.org/2000/svg" xmlns:xlink="http://www.w3.org/1999/xlink" x="0px" y="0px"
	 viewBox="0 0 29.7 33" enable-background="new 0 0 29.7 33" xml:space="preserve">
<g id="Layer_1">
	<g id="Layer_2">
	</g>
</g>
<g id="Layer_5" display="none">
</g>
<g id="panel1">
	<g>
		<g>
			<path fill="#0391D8" d="M2.8,9.1c5.3-0.1,10.5-0.1,15.8,0c0.7,0,0.7-1,0-1.1C13.3,7.9,8.1,7.9,2.8,8C2.1,8,2.1,9.1,2.8,9.1
				L2.8,9.1z"/>
			<path fill="#0391D8" d="M18.1,8.8c-0.1,4.6-0.2,9.1-0.1,13.7c0.1,2.7-0.5,6.4,2.1,8c2.2,1.4,4.2-0.9,4.5-2.8
				c0.3-2,0.1-4.1,0.1-6.2c0-2.8-0.1-5.6-0.1-8.4c0-0.7-1.1-0.7-1.1,0c0,3.1,0.1,6.2,0.1,9.3c0,1.4,0.1,2.9,0,4.3
				c-0.1,2.5-3.4,4.3-4.1,1.4c-0.8-3.1-0.5-6.7-0.5-9.9c0-3.1,0.1-6.3,0.2-9.4C19.2,8.1,18.1,8.1,18.1,8.8L18.1,8.8z"/>
			<path fill="#0391D8" d="M1.8,8.5c0,4-0.1,8.1,0,12.1c0,2.8-0.6,6.9,1,9.3c1.2,1.8,5,1.2,6.7,1.3c4,0.1,8,0.2,11.9,0
				c0.7,0,0.7-1.1,0-1.1c-2.8,0.1-5.7,0.2-8.5,0.1c-2.1,0-8.9,0.8-9.8-1.9c-0.5-1.4-0.2-3.4-0.3-4.9c0-1.5-0.1-3.1-0.1-4.6
				c0-3.4,0-6.8,0-10.2C2.9,7.8,1.8,7.8,1.8,8.5L1.8,8.5z"/>
			<path fill="#0391D8" d="M18.6,10.5c0.7,0,1.3,0,2,0c0.6,0,0.4,3,0.4,3.4c0,2.3-0.1,4.6-0.1,6.9c0,2.5-1,6.8,2.1,7.6
				c0.7,0.2,0.9-0.8,0.3-1c-2.1-0.6-1.4-5.9-1.3-7.5c0-2.3,0.1-4.6,0.1-6.9c0-0.8,0.4-2.7-0.3-3.3c-0.6-0.6-2.4-0.3-3.2-0.3
				C17.9,9.5,17.9,10.5,18.6,10.5L18.6,10.5z"/>
			<path fill="#0391D8" d="M24.1,12.6c-0.6,0-1.3-0.1-1.9-0.1c-0.7,0-0.7,1.1,0,1.1c0.6,0,1.3,0.1,1.9,0.1
				C24.8,13.7,24.8,12.6,24.1,12.6L24.1,12.6z"/>
			<path fill="#0391D8" d="M5,14c0,0,7,0,10,0l0,0C12,14,8,14,5,14C4,14,4,14,5,14z"/>
			<path fill="#0391D8" d="M5,26c0,0,7,0,10,0l0,0C12,26,8,26,5,26C4,26,4,26,5,26C5,26,4,26,5,26z"/>
			<path fill="#0391D8" d="M2.6,29c0,0,7,0,10,0v-1c-3,0-7,0-10,0C1.6,28,1.6,29,2.6,29C2.6,29,1.6,29,2.6,29z"/>
			<path fill="#0391D8" d="M3.9,14.2c0,0,4.9-0.3,4.9,0.3c0,1.6,0.5,3.2,0.5,4.8c0.1-0.1,0.5-0.2,0.6-0.4c-1.4,0-2.7,0.1-4.1,0
				c0.1,0.1,0.3,0.2,0.4,0.4c-0.1-1.9-0.1-3.7,0-5.6c0-0.5-0.7-0.5-0.7,0c0,1.9,0,3.7,0.1,5.6c0,0.2,0.2,0.4,0.4,0.4
				c1.4,0,2.8,0,4.3,0c0.2,0,0.4-0.2,0.4-0.4c0-1,0-2.1,0-3.1c0-0.8,0.1-1.7-0.1-2.5c0-0.1-0.1-0.2-0.2-0.2
				c-0.6-0.2-2.7-0.1-3.3-0.1c-0.8,0-3.3,0-3.3,0.2v0.7L3.9,14.2z"/>
			<path fill="#0391D8" d="M12,17h3l0,0C15,17,13,17,12,17L12,17L12,17z"/>
			<path fill="#0391D8" d="M9.6,20h3v-1c0,0-2,0-3,0V20L9.6,20z"/>
			<path fill="#0391D8" d="M9.6,23h3v-1c0,0-2,0-3,0V23L9.6,23z"/>
		</g>
	</g>
</g>
<g id="Layer_4">
</g>
</svg>
