<?xml version="1.0" encoding="utf-8"?>
<!-- Generator: Adobe Illustrator 18.0.0, SVG Export Plug-In . SVG Version: 6.00 Build 0)  -->
<!DOCTYPE svg PUBLIC "-//W3C//DTD SVG 1.1//EN" "http://www.w3.org/Graphics/SVG/1.1/DTD/svg11.dtd">
<svg version="1.1" xmlns="http://www.w3.org/2000/svg" xmlns:xlink="http://www.w3.org/1999/xlink" x="0px" y="0px"
	 viewBox="0 0 113.7 33.5" enable-background="new 0 0 113.7 33.5" xml:space="preserve">
<g id="Layer_1">
	<g id="Layer_2">
	</g>
</g>
<g id="Layer_5" display="none">
</g>
<g id="panel1">
	<g>
		<path fill="#7D3D8F" d="M62.5,26c-6.9,2.8-5-7.5-4.9-12.4c1.4,0,2.8,0,4.3,0c0-1.6,0-3.1,0-4.7c-1.4,0-2.8,0-4.3,0
			c0-2,0-3.9,0.2-5.7c-0.8-0.1-3.3,0-4.1,0C53.3,6.8,52,9.6,48.3,10c0,1.2,0,2.4,0,3.7c0.7,0.1,2-0.3,2.4,0.2c0.7,5.5-1.4,11.6,1,15
			c2,2.8,6.7,2.5,11,1.8C62.6,29.1,62.4,27.7,62.5,26z"/>
		<path fill="#7D3D8F" d="M44,9.7c-2.3-1.5-5.7-1.7-8.5-1.4c-5.6,0.5-8.9,4-9.5,9.3c-1.2-0.1-3,0.3-3.9-0.2
			c2-10.3-10.3-10.3-17.2-7.9c0.3,1.3,0.2,3,0.2,4.7c3.1-1.7,11.3-3.4,10.1,3.2c-5.5,0.3-10.8,0.5-12,4.7c-3,10.6,9.6,9.3,18.9,8.5
			c-0.1-2.9-0.5-6.5,0-9.3c1.4,0,2.7,0,4.1,0C25.5,31.1,37,32.6,45.5,30c0-1.6-0.3-2.9-0.2-4.7c-3.9,2-12.3,2.5-11.8-3.9
			c4.6,0,9.8,0,12-2.8C47.4,16.1,46.8,11.6,44,9.7z M15.2,26.8c-1.7,0.4-4,0.3-5.1-0.6c-1.8-3.5,1.7-5.9,5.1-4.9
			C15.2,23.1,15.2,25,15.2,26.8z M33.3,17.7c-1-4.1,4.3-7.3,6.3-4.5C41.7,16.2,37.1,19.1,33.3,17.7z"/>
		<path fill="#7D3D8F" d="M83.4,10c-4.2-3.3-11.3-0.7-17.9-1c0.3,6.9,0.3,14.8,0,21.7c2.4,0,4.9,0,7.3,0C72.4,24.9,72.5,19,72.7,13
			c9.7-3.9,5.2,11.9,6.1,17.7c2.4,0,4.7,0,7.1,0C84.4,23.6,88,13.6,83.4,10z"/>
		<path fill="#7D3D8F" d="M104.3,9.1c-3.4-1.6-9.9-0.9-13.8,0.4c0.3,1.3,0.2,3.1,0.2,4.7c3.2-1.7,11.2-3.4,10.1,3.2
			c-5.6,0.1-11.3,0.9-12.2,4.9c-2.3,10.5,10.5,9.1,19.3,8.1C106.1,23.2,110.7,12.1,104.3,9.1z M100.9,26.8c-1.7,0.4-4,0.3-5.1-0.6
			c-1.8-3.5,1.7-5.9,5.1-4.9C100.9,23.1,100.9,25,100.9,26.8z"/>
	</g>
</g>
<g id="Layer_4">
</g>
</svg>
