<?xml version="1.0" encoding="utf-8"?>
<!-- Generator: Adobe Illustrator 18.0.0, SVG Export Plug-In . SVG Version: 6.00 Build 0)  -->
<!DOCTYPE svg PUBLIC "-//W3C//DTD SVG 1.1//EN" "http://www.w3.org/Graphics/SVG/1.1/DTD/svg11.dtd">
<svg version="1.1" xmlns="http://www.w3.org/2000/svg" xmlns:xlink="http://www.w3.org/1999/xlink" x="0px" y="0px"
	 viewBox="0 0 203.4 166.4" enable-background="new 0 0 203.4 166.4" xml:space="preserve">
<g id="Layer_1">
	<g id="Layer_2">
	</g>
</g>
<g id="Layer_5" display="none">
</g>
<g id="panel1">
	<g>
		<g>
			<path fill="#E5E5E5" d="M172,158.5c-24.3-0.3-48.2-0.7-73.2-1.2c0,1.7,0.1,3.3,0.1,5c21,0,41.8-0.5,62.6-1.6c3.2-0.2,3.2-5,0-5
				c-1.6,0-3.1,0-4.7,0c-3.2,0-3,5,0.2,5c1.6,0,2.8,0,4.8,0c0-1.7-0.1-3.3-0.1-5c-21,1-41.7,1.5-62.5,1.5c-3.2,0-3.1,4.9,0.1,5
				c24.3,0.5,48.6,0.9,72.9,1.2C175.5,163.6,175.2,158.6,172,158.5L172,158.5z"/>
			<path fill="#E5E5E5" d="M81.9,159.9c-6.8,0-13.5-0.1-20.3-0.3c0-0.7-0.5-1.4-1.5-1.5c-6.1-0.3-12.2-0.5-18.4-0.7
				c-0.9,0-1.4,0.7-1.5,1.4c-0.2,0-0.3,0-0.5,0c-1.9,0.1-1.9,2.9,0.1,3c14,0.6,28,1,42,1C83.8,162.9,83.8,159.9,81.9,159.9z"/>
			<g>
				<path fill="#115175" d="M28.6,37.6c-0.1,0.2-0.2,0.4-0.2,0.6"/>
				<path fill="#B1B5B6" d="M27.4,37.3c-0.1,0.2-0.2,0.4-0.2,0.6c-0.2,0.6,0.3,1.4,0.9,1.5c0.7,0.2,1.3-0.2,1.5-0.9
					c0.1-0.2,0.2-0.4,0.2-0.6c0.2-0.6-0.3-1.4-0.9-1.5C28.2,36.2,27.6,36.7,27.4,37.3L27.4,37.3z"/>
			</g>
			<g>
				<path fill="#115175" d="M34.6,38.6c-0.1,0.2-0.2,0.4-0.2,0.6"/>
				<path fill="#B1B5B6" d="M33.4,38.3c-0.1,0.2-0.2,0.4-0.2,0.6c-0.2,0.6,0.3,1.4,0.9,1.5c0.7,0.2,1.3-0.2,1.5-0.9
					c0.1-0.2,0.2-0.4,0.2-0.6c0.2-0.6-0.3-1.4-0.9-1.5C34.2,37.2,33.6,37.7,33.4,38.3L33.4,38.3z"/>
			</g>
			<g>
				<path fill="#778386" d="M193,117l-0.2-0.4c2.7,0.1,5.4-0.5,8.1-0.6c-0.1-3.2-1-6.5-0.9-9.8l-0.4-0.6c-1.6-0.1-3.2,0.1-4.8,0.1
					c-0.9,0-3.2,0.7-3.7-0.4c-0.3-0.6-0.4-2.7-0.5-3.5c-0.3-1.4-0.9-2.5-1.3-3.8c1.3-1.5,3.6-3.3,5.3-3.9l0.1-0.3
					c-1.5-1.8-2.9-5.8-4.6-6.8c-0.9-0.6-1.9,0.6-2.8,1c-1.2,0.7-2.9,1.1-3.9,2.1l0.1-0.3c-2.1-1.4-4-4.5-6.3-5.6l0.3-0.9
					c-0.1,0.1-0.3,0.2-0.4,0.4c0.4-0.8,0.8-1.7,1.2-2.5c0.6-1.1,2.2-3,2.7-4.1c-1.1-0.8-2.4-0.9-3.5-1.6c-1.5-1-3.1-1.8-4.6-2.8
					c-1.4,2.7-3.6,6.2-5.5,8.2l-0.1,0.3c0.1,0.3-1-0.4-1.4-0.6c-0.9-0.3-1.8-0.7-2.7-1.2c-1.5-0.8-2.8-0.9-4.4-1.1
					c-0.3-2,0.9-6.6,0.8-8.7c-1.1-0.3-7.1-0.6-8.9-0.9c-0.2,0.8-1,3.8-1,4.7c-0.1,1.9-0.4,3.8-0.5,5.7c0,0-2.9,0.3-4,0.9
					c-0.7,0.4-1.9,1.5-2.5,0.9c-0.3-0.3-0.4-1.1-0.6-1.5c-0.9-2-3.9-4.5-5.4-5.1l-0.2-0.1c-0.5-0.2-2.7,2-3.5,2.5
					c-1.3,1-2.7,2.4-3.8,3.7c0.6,1.5,3.3,4.7,4.2,5.3c0,0-3.4,4.5-5.2,6.2l-0.5-0.1c0,0-0.1,0-0.1,0c-1.3-0.5-4.6-2.2-5.9-2.8
					c-0.6-0.3-1.4-1.1-2-1.1c-1,0-1.6,2.1-2.3,3.5c-0.9,1.9-1.3,4.7-2.3,6.4c2.1,0.9,6.1,0.5,8.2,2c-0.7,2.1-1.2,6.3-1.1,8.2
					c-2.1,0.7-4.1,1.1-6.4,1.3c-0.9,0.1-2.1,0.3-3,0c0,0,0.3,8.2,0.6,12c1.7-0.9,6.9-2.1,7.5-1.6c0.3-0.1,0.9,3.3,1.2,4.1
					c0.4,1,1,2,1.5,2.8c-1.8,0.5-3.5,2.4-5.1,3.8c-0.9,0.8-2.3,1.4-3.1,2.4c0.5,1.6,3.8,8.3,4.8,9.1c0.9,0.8,1.8-0.8,2.7-1.5
					c1.3-1,2.6-2.1,3.9-3.1c0.4-0.3,1.2-1.2,1.6-1.2c0.8,0,2,1.8,2.7,2.3c1.2,1.1,2.7,2.7,3.7,4.3c-1.2,0.9-2.1,3.1-3.1,4.5
					c-1,1.4-1.9,3.1-3,4.3c0.7,1.4,8.8,7.4,10.3,8.6c0.4-1.4,3.1-5.6,3.8-6.7c0.9-1.5,1.7-4.3,3-4.5c1.1-0.2,2.4,0.5,3.4,0.7
					c1.6,0.4,3.2,0.7,4.8,0.7c0.1,3.4,0.3,7.3,0.6,10.4c0,0,7.5-0.2,10.9-0.8c0.1-1.7-0.1-3.5-0.1-5.2c0-1.2-0.2-2.7-0.1-3.8
					c0.1-1.3,0.2-1.2,0.8-1.4c0.9-0.2,1.9,0.4,2.9,0.2c1.4-0.3,2.7-1.3,4.1-1.9c0,0,0,0,0,0l0.1,0c0,0,0.1,0,0.1,0c0,0,0,0.1,0,0.1
					l0.3,0.2c0.9,1.4,1.9,2.6,2.7,4c0.6,1,1,2.1,1.7,3c0.6,0.9,0.4,0.8,1.2,0.4c2.7-1.1,6.4-3.9,8.4-7.2c-1.2-2.6-3-4.8-4.4-7.1
					c1.8-0.9,3.1-4.7,4.3-7l0.2-0.4c0.5,1.6,2.3,2.7,3.4,3.4c1.5,1,3.1,1.7,4.6,2.3c0.4-1.6,1.5-3,2-4.6c0.6-1.9,2.7-6.4,2.7-6.4
					c-2.5-2.2-5.3-3.3-7.9-5.1C192.9,121.3,193,119.1,193,117z M171.3,123.5c-1.1,2-6.6,6.9-8.4,7.1c-3.3,0.3-6.8,0.9-10-0.5
					c-10.1-4.5-12.8-8.9-12.8-8.9c-0.4-0.9-0.7-0.9-1.1-2.4c-0.3-1.5-0.7-6.6,0.4-9.7c3.2-9,10.2-12.7,12.8-13.2
					c3.1-0.6,6.9-0.5,9.9,0.5c4.7,1.5,10.8,5.7,12.7,11C176.8,113.1,173.6,119.3,171.3,123.5z"/>
				<path fill="#778386" d="M142.4,50.9l-0.2-0.4c2.7,0.1,5.4-0.5,8.1-0.6c-0.1-3.2-1-6.5-0.9-9.8l-0.4-0.6
					c-1.6-0.1-3.2,0.1-4.8,0.1c-0.9,0-3.2,0.7-3.7-0.4c-0.3-0.6-0.4-2.7-0.5-3.5c-0.3-1.4-0.9-2.5-1.3-3.8c1.3-1.5,3.6-3.3,5.3-3.9
					l0.1-0.3c-1.5-1.8-2.9-5.8-4.6-6.8c-0.9-0.6-1.9,0.6-2.8,1c-1.2,0.7-2.9,1.1-3.9,2.1l0.1-0.3c-2.1-1.4-4-4.5-6.3-5.6l0.3-0.9
					c-0.1,0.1-0.3,0.2-0.4,0.4c0.4-0.8,0.8-1.7,1.2-2.5c0.6-1.1,2.2-3,2.7-4.1c-1.1-0.8-2.4-0.9-3.5-1.6c-1.5-1-3.1-1.8-4.6-2.8
					c-1.4,2.7-3.6,6.2-5.5,8.2l-0.1,0.3c0.1,0.3-1-0.4-1.4-0.6c-0.9-0.3-1.8-0.7-2.7-1.2c-1.5-0.8-2.8-0.9-4.4-1.1
					c-0.3-2,0.9-6.6,0.8-8.7c-1.1-0.3-7.1-0.6-8.9-0.9c-0.2,0.8-1,3.8-1,4.7c-0.1,1.9-0.4,3.8-0.5,5.7c0,0-2.9,0.3-4,0.9
					c-0.7,0.4-1.9,1.5-2.5,0.9c-0.3-0.3-0.4-1.1-0.6-1.5c-0.9-2-3.9-4.5-5.4-5.1l-0.2-0.1c-0.5-0.2-2.7,2-3.5,2.5
					c-1.3,1-2.7,2.4-3.8,3.7c0.6,1.5,3.3,4.7,4.2,5.3c0,0-3.4,4.5-5.2,6.2l-0.5-0.1c0,0-0.1,0-0.1,0c-1.3-0.5-4.6-2.2-5.9-2.8
					c-0.6-0.3-1.4-1.1-2-1.1c-1,0-1.6,2.1-2.3,3.5c-0.9,1.9-1.3,4.7-2.3,6.4c2.1,0.9,6.1,0.5,8.2,2c-0.7,2.1-1.2,6.3-1.1,8.2
					c-2.1,0.7-4.1,1.1-6.4,1.3c-0.9,0.1-2.1,0.3-3,0c0,0,0.3,8.2,0.6,12c1.7-0.9,6.9-2.1,7.5-1.6c0.3-0.1,0.9,3.3,1.2,4.1
					c0.4,1,1,2,1.5,2.8c-1.8,0.5-3.5,2.4-5.1,3.8c-0.9,0.8-2.3,1.4-3.1,2.4c0.5,1.6,3.8,8.3,4.8,9.1c0.9,0.8,1.8-0.8,2.7-1.5
					c1.3-1,2.6-2.1,3.9-3.1c0.4-0.3,1.2-1.2,1.6-1.2c0.8,0,2,1.8,2.7,2.3c1.2,1.1,2.7,2.7,3.7,4.3c-1.2,0.9-2.1,3.1-3.1,4.5
					c-1,1.4-1.9,3.1-3,4.3c0.7,1.4,8.8,7.4,10.3,8.6c0.4-1.4,3.1-5.6,3.8-6.7c0.9-1.5,1.7-4.3,3-4.5c1.1-0.2,2.4,0.5,3.4,0.7
					c1.6,0.4,3.2,0.7,4.8,0.7c0.1,3.4,0.3,7.3,0.6,10.4c0,0,7.5-0.2,10.9-0.8c0.1-1.7-0.1-3.5-0.1-5.2c0-1.2-0.2-2.7-0.1-3.8
					c0.1-1.3,0.2-1.2,0.8-1.4c0.9-0.2,1.9,0.4,2.9,0.2c1.4-0.3,2.7-1.3,4.1-1.9c0,0,0,0,0,0l0.1,0c0,0,0.1,0,0.1,0c0,0,0,0.1,0,0.1
					l0.3,0.2c0.9,1.4,1.9,2.6,2.7,4c0.6,1,1,2.1,1.7,3c0.6,0.9,0.4,0.8,1.2,0.4c2.7-1.1,6.4-3.9,8.4-7.2c-1.2-2.6-3-4.8-4.4-7.1
					c1.8-0.9,3.1-4.7,4.3-7l0.2-0.4c0.5,1.6,2.3,2.7,3.4,3.4c1.5,1,3.1,1.7,4.6,2.3c0.4-1.6,1.5-3,2-4.6c0.6-1.9,2.7-6.4,2.7-6.4
					c-2.5-2.2-5.3-3.3-7.9-5.1C142.3,55.3,142.4,53.1,142.4,50.9z M120.7,57.5c-1.1,2-6.6,6.9-8.4,7.1c-3.3,0.3-6.8,0.9-10-0.5
					c-10.1-4.5-12.8-8.9-12.8-8.9c-0.4-0.9-0.7-0.9-1.1-2.4c-0.3-1.5-0.7-6.6,0.4-9.7C92,34,99,30.3,101.6,29.8
					c3.1-0.6,6.9-0.5,9.9,0.5c4.7,1.5,10.8,5.7,12.7,11C126.2,47,123,53.3,120.7,57.5z"/>
				<path fill="#B1B5B6" d="M6.6,28.4c-3.1,4.2-5,8.7-4.5,14c0.5,4.7,2.4,10.2,6.4,13c4.4,3.1,10.4,3.7,15.6,3.3
					c5.5-0.4,10.2-3.1,13.4-7.5c5.7-7.8,5.3-23.6-3.8-28.8c-9-5.2-20.3-1.2-27,5.8c-1.2,1.3,0.7,3.2,1.9,1.9
					c5.6-5.9,13.1-8.7,21.1-6.4c9.9,2.8,10.4,17.1,6.3,24.8c-4.7,8.6-17.6,9.8-25.5,5.1c-3.9-2.3-5.4-7.7-5.9-11.8
					c-0.5-4.5,1.6-8.4,4.2-11.9C9.9,28.3,7.6,27,6.6,28.4z"/>
				<path fill="#B1B5B6" d="M15.6,71.3c3.4,2,7.3,3.1,10.9,4.4c4.9,1.7,9.6,3.7,14.3,5.8c3.2,1.4,6.4,2.9,9.7,4.3
					c2.6,1.1,4.7,1,7.4,0.2c6.6-2,13.2-4.2,19.8-6.2c1.6-0.5,0.9-3.1-0.7-2.6C71,79,65,80.9,59.1,82.8c-1.2,0.4-2.5,0.8-3.7,1.1
					c-2.2,0.6-4.4-0.8-6.4-1.7c-3.2-1.4-6.5-2.9-9.7-4.3c-3.8-1.7-7.5-3.2-11.4-4.6c-3.6-1.3-7.6-2.4-10.9-4.3
					C15.4,68.1,14.1,70.4,15.6,71.3L15.6,71.3z"/>
				<path fill="#B1B5B6" d="M34.6,106.1c9.9,7.1,21.1,12.1,32.1,17.2c1.2,0.5,2.3,1.1,3.5,1.6c2.2,1,2.3,1.4,1.5,3.6
					c-1.2,3.3-2.3,6.6-3.5,9.9c-2.3,6.6-4.7,13.2-7.1,19.8c-0.6,1.6,2,2.3,2.6,0.7c2.5-6.9,5-13.9,7.4-20.8
					c1.3-3.6,2.6-7.3,3.8-10.9c0.8-2.3-0.7-3.4-2.6-4.3C60,117,47.2,111.8,36,103.7C34.6,102.7,33.2,105.1,34.6,106.1L34.6,106.1z"
					/>
				<path fill="#B1B5B6" d="M62.4,161.2c5.2,0,10.4,0,15.6-0.1c1.5,0,1.9-2.3,0.4-2.6c-4.9-1-9.5-2.9-14.3-3.9
					c-1.7-0.4-2.4,2.2-0.7,2.6c4.9,1,9.5,2.9,14.3,3.9c0.1-0.9,0.2-1.8,0.4-2.6c-5.2,0-10.4,0-15.6,0.1
					C60.6,158.5,60.6,161.2,62.4,161.2L62.4,161.2z"/>
				<path fill="#B1B5B6" d="M41.5,104.3c26.5,0.6,53,1.1,79.5,2c1.7,0.1,1.7-2.6,0-2.7c-26.5-0.9-53-1.4-79.5-2
					C39.8,101.5,39.8,104.2,41.5,104.3L41.5,104.3z"/>
				<path fill="#B1B5B6" d="M117.2,105.7c3.9-3,8-5.7,12.2-8.1c-0.6-0.6-1.2-1.2-1.8-1.8c-1.3,2.8-4.5,5-6.7,7.1
					c-1.2,1.2,0.7,3.1,1.9,1.9c2.4-2.3,5.7-4.6,7.1-7.6c0.5-1.2-0.6-2.6-1.8-1.8c-4.2,2.4-8.3,5.2-12.2,8.1
					C114.5,104.4,115.8,106.8,117.2,105.7L117.2,105.7z"/>
				<path fill="#B1B5B6" d="M33.1,89.2c4.8-5.4,9.5-10.9,14.6-16.2c-0.6-0.6-1.3-1.3-1.9-1.9c-3,3.2-5.7,6.7-8.1,10.4
					c-1.3,2.1-2.5,4.2-3.6,6.4c-0.9,1.9-1.6,5.4-3.1,6.9c0.7,0.2,1.5,0.4,2.2,0.6c-1.9-5.1-4.6-9.8-8-14.1c-0.6,0.6-1.3,1.3-1.9,1.9
					c2.6,2.1,5.2,4.5,8.2,6.1c1.5,0.8,2.9-1.5,1.4-2.3c-2.8-1.5-5.2-3.7-7.6-5.7c-1.3-1.1-3,0.6-1.9,1.9c3.1,3.9,5.6,8.2,7.3,12.9
					c0.3,0.9,1.5,1.4,2.2,0.6c1.2-1.2,1.6-2.9,2.2-4.4c1-2.5,2.2-4.8,3.5-7.1c2.5-4.4,5.6-8.5,9.1-12.2c1.2-1.3-0.7-3.2-1.9-1.9
					c-5,5.2-9.8,10.7-14.6,16.2C30.1,88.6,32,90.5,33.1,89.2z"/>
				<path fill="#B1B5B6" d="M46.1,88.9c-0.1-0.2-0.2-0.3-0.2-0.5c-0.2-0.4-0.7-0.7-1.2-0.7c-1.4,0-2.2,1.1-3.2,2.1
					c-0.9,0.9-3.3,2.5-3.3,3.9c0,1.7-0.3,1.9-1.6,2.6c-1.4,0.7-2.8,1.2-4.2,1.7c-2.3,0.8-4.7,1.4-7,2.1c0.5,0.2,1,0.4,1.5,0.6
					c-1.8-3.9-4.3-7.4-5.6-11.6c-1.6-5.3-0.2-11.2,0.1-16.6c-0.3,0.4-0.7,0.9-1,1.3c2-0.7,4.3-1,6.4-1.4c1.6-0.3,7.1-2.4,8.1-0.2
					c0.7,1.5,2.7,1.2,4,1.1c1.2-0.1,3.6-0.1,4.3-1.4c0.8-1.6,0.4-3.1,0.1-4.8c-0.3-2.3-0.6-4.5-0.9-6.8c-0.1-0.8-1-1.1-1.7-0.9
					c-8.9,1.6-17.9,3-26.9,4.1c-0.6,0.1-1.2,0.4-1.3,1c-2.4,12-2.2,24.4,2.9,35.7c1,2.2,2.2,4.4,3.6,6.3c1.4,1.9,3.7,1.5,5.9,1.3
					c7.9-0.8,15.7-3.8,22.4-7.9c0.6-0.3,0.7-0.9,0.6-1.5c-0.5-3-1.1-6.1-1.6-9.1c-0.3-1.7-2.9-1-2.6,0.7c0.6,3,1.1,6.1,1.6,9.1
					c0.2-0.5,0.4-1,0.6-1.5c-6.1,3.6-12.7,6.2-19.7,7.4c-0.7,0.1-4.3,0.9-4.9,0.3c-0.4-0.5-0.7-1-1-1.5c-1.5-2.3-2.7-4.8-3.7-7.4
					c-3.8-9.8-3.6-20.9-1.5-31c-0.4,0.3-0.9,0.7-1.3,1c9.2-1.1,18.5-2.5,27.6-4.2c-0.6-0.3-1.1-0.6-1.7-0.9c0.2,1.6,0.4,3.2,0.7,4.8
					c0.1,1,0.3,2,0.4,3c0.5,1.1,0.2,1.7-1,1.7c-0.6,0.1-1.3,0.1-1.9,0.1c-0.9,0.1-1.2-0.6-1.6-1.1c-0.4-0.5-1.2-0.7-1.8-0.9
					c-0.7-0.2-1.5-0.1-2.2,0.1c-4.1,0.6-8.7,1.1-12.6,2.6c-0.6,0.2-0.9,0.7-1,1.3c-0.4,5.6-1.3,11.1-0.2,16.6
					c1,4.7,4.1,8.6,6.1,12.9c0.2,0.5,1,0.8,1.5,0.6c3.5-1,7.1-1.9,10.4-3.4c3-1.3,4.9-2.4,4.3-5.9c-0.1,0.4-0.2,0.9-0.3,1.3
					c0.6-0.6,1.3-1.3,1.9-1.9c0.3-0.3,1.9-2.3,2.3-2.3c-0.4-0.2-0.8-0.4-1.2-0.7c0.1,0.2,0.2,0.3,0.2,0.5
					C44.5,91.8,46.8,90.4,46.1,88.9z"/>
				<path fill="#B1B5B6" d="M70.1,56.8C70,56.8,70,57,69.9,57c0.2,0,0.5,0,0.7,0c0.1,0,0.2,0,0.3,0.1c-0.1-0.1-0.1-0.4-0.2-0.5
					c-0.1-0.2-0.1-0.4-0.1-0.6c0-0.1,0-0.4,0.1-0.4c1.5-0.9,0.1-3.3-1.4-2.3c-1.2,0.7-1.6,2-1.4,3.3c0.2,1.5,1,3.1,2.8,2.8
					C72.5,58.9,71.8,56.4,70.1,56.8L70.1,56.8z"/>
				<path fill="#B1B5B6" d="M78.1,77.8c0.6-2.5,1.5-4.8,2.8-7c-0.8-0.1-1.6-0.2-2.5-0.3c0.3,1.4,0.4,2.9,0.4,4.3
					c0,1.1,1.1,1.6,2,1.2c1.7-0.8,3.5-1.4,5.3-1.9c-0.5-0.7-1-1.3-1.5-2c-1.8,2.6-4.6,4.1-7.4,5.5c-1.5,0.8-0.2,3.1,1.4,2.3
					c3.2-1.7,6.3-3.4,8.3-6.5c0.7-1-0.4-2.3-1.5-2c-2,0.6-4,1.3-5.9,2.2c0.7,0.4,1.3,0.8,2,1.2c0-1.7-0.1-3.4-0.5-5
					c-0.2-1.2-1.9-1.3-2.5-0.3c-1.4,2.4-2.4,4.9-3.1,7.6C75.2,78.8,77.8,79.5,78.1,77.8L78.1,77.8z"/>
				<path fill="#B1B5B6" d="M41.4,61.8c10.3-0.5,20.5-2.4,30.8-2.9c1.7-0.1,1.7-2.8,0-2.7c-10.3,0.5-20.5,2.4-30.8,2.9
					C39.6,59.2,39.6,61.9,41.4,61.8L41.4,61.8z"/>
				<polygon fill="#B1B5B6" points="101.6,54.2 99.5,49.9 102.3,46 107.2,46.5 109.3,50.7 106.5,54.6 				"/>
				<path fill="#B1B5B6" d="M95.5,61.1c-0.8,1.4-2.5,2.8-3.7,3.9c-2.4,2.5-4.9,5-7.3,7.4c-3.7,3.7-7.6,7.2-11,11.1
					c0.4-0.1,0.8-0.1,1.2-0.2c-0.9-0.6-1.9-1.3-2.8-1.9C71.9,82,72,82.5,72,83c7.9-7.6,15.5-15.5,23.2-23.3c0.3-0.3,0.4-0.9,0.2-1.2
					c-0.8-1.1-1.6-2.3-2.3-3.4c-0.9-1.3,1.6-4.3,2.3-5.3c0.9-1.5,1.7-1.3,3.2-1.6c1.6-0.3,3.2-0.7,4.8-0.9c-0.2-0.6-0.5-1.1-0.7-1.7
					c-1.9,1.9-3.6,4-5,6.2c-0.3,0.4-0.1,1.2,0.4,1.4c1.9,0.9,3.6,2.1,5.2,3.5c0.3,0.3,0.8,0.4,1.2,0.2c2.2-1.6,4.2-3.8,6.3-5.5
					c-0.6-0.2-1.1-0.5-1.7-0.7c0,1.3-0.1,2.6-0.2,3.9c-0.2,2.3-1.1,3.5-2.6,5.2c-1.5,1.7-2.8,2.3-5.1,1.9c-1.5-0.2-3-0.7-4.5-1
					c-1.3-0.3-1.8,1.6-0.5,1.9c2.1,0.5,4.2,1,6.3,1.3c2.1,0.2,3.3-0.5,4.7-2c1.3-1.5,3.2-3,3.6-5c0.4-1.9,0.3-4.2,0.4-6.2
					c0-1-1.1-1.2-1.7-0.7c-2,1.7-3.8,3.7-5.9,5.2c0.4,0.1,0.8,0.1,1.2,0.2c-1.7-1.5-3.6-2.8-5.6-3.8c0.1,0.5,0.2,0.9,0.4,1.4
					c1.4-2.1,3-4,4.7-5.8c0.6-0.6,0.2-1.8-0.7-1.7c-2.3,0.3-4.6,0.9-6.9,1.2c-1.6,0.2-2.1,0.9-2.9,2.3c-1,1.7-2.9,3.7-2.9,5.8
					c0,1.7,2,3.7,2.9,5c0.1-0.4,0.1-0.8,0.2-1.2C86.1,66.1,78.6,74,70.6,81.6c-0.5,0.5-0.3,1.2,0.2,1.6c0.9,0.6,1.9,1.3,2.8,1.9
					c0.4,0.2,0.9,0.2,1.2-0.2c3.6-4,7.6-7.7,11.4-11.4c2.4-2.4,4.9-4.9,7.2-7.3c1.2-1.2,2.8-2.5,3.7-4C97.8,61,96.1,60,95.5,61.1z"
					/>
			</g>
		</g>
		<path fill="#B1B5B6" d="M10,43.4c-0.5,3.9,0.8,7.2,4.5,8.8c1.8,0.7,2.6-2.2,0.8-2.9c-2.4-1-2.6-3.6-2.3-5.9
			C13.3,41.5,10.3,41.5,10,43.4L10,43.4z"/>
	</g>
</g>
<g id="Layer_4">
</g>
</svg>
