<?xml version="1.0" encoding="utf-8"?>
<!-- Generator: Adobe Illustrator 18.0.0, SVG Export Plug-In . SVG Version: 6.00 Build 0)  -->
<!DOCTYPE svg PUBLIC "-//W3C//DTD SVG 1.1//EN" "http://www.w3.org/Graphics/SVG/1.1/DTD/svg11.dtd">
<svg version="1.1" xmlns="http://www.w3.org/2000/svg" xmlns:xlink="http://www.w3.org/1999/xlink" x="0px" y="0px"
	 viewBox="0 0 75.8 69" enable-background="new 0 0 75.8 69" xml:space="preserve">
<g id="Layer_1">
	<g id="Layer_2">
	</g>
</g>
<g id="Layer_5" display="none">
</g>
<g id="panel1">
	<g>
		<g id="Errthang_Else_3_">
			<g>
				<path fill="#387C42" d="M34.4,31.4v-2h-2.6v2h-0.6v-4.5h0.6v1.9h2.6v-1.9h0.6v4.5H34.4z"/>
				<path fill="#387C42" d="M36,31.4v-4.5h2.9v0.5h-2.4v1.4h2.3v0.5h-2.3v1.5h2.4v0.5H36z"/>
				<path fill="#387C42" d="M43,31.4l-0.4-1h-2.2l-0.4,1h-0.6l1.8-4.5h0.7l1.8,4.5H43z M41.4,27.5l-0.9,2.4h1.9L41.4,27.5z"/>
				<path fill="#387C42" d="M44.2,31.4v-4.5h0.6v4h2.1v0.5H44.2z"/>
				<path fill="#387C42" d="M48,31.4v-4h-1.4v-0.5H50v0.5h-1.4v4H48z"/>
				<path fill="#387C42" d="M53.9,31.4v-2h-2.6v2h-0.6v-4.5h0.6v1.9h2.6v-1.9h0.6v4.5H53.9z"/>
				<path fill="#387C42" d="M24.4,38.1v-4.5h0.9v4.5H24.4z"/>
				<path fill="#387C42" d="M29.3,38.1l-2.1-2.9v2.9h-0.9v-4.5h1l2.1,2.8v-2.8h0.9v4.5H29.3z"/>
				<path fill="#387C42" d="M30.8,37.5l0.5-0.7c0.3,0.3,0.8,0.6,1.4,0.6c0.5,0,0.8-0.2,0.8-0.5c0-0.8-2.6-0.2-2.6-1.9
					c0-0.7,0.6-1.4,1.7-1.4c0.7,0,1.3,0.2,1.7,0.6l-0.5,0.7c-0.4-0.3-0.8-0.5-1.3-0.5c-0.4,0-0.6,0.2-0.6,0.4c0,0.7,2.6,0.2,2.6,1.9
					c0,0.8-0.6,1.4-1.8,1.4C31.8,38.2,31.2,37.9,30.8,37.5z"/>
				<path fill="#387C42" d="M35.1,36.3v-2.7h1v2.6c0,0.6,0.4,1,1,1s1-0.4,1-1v-2.6h1v2.7c0,1.1-0.7,1.9-2,1.9
					C35.7,38.2,35.1,37.4,35.1,36.3z"/>
				<path fill="#387C42" d="M42.5,38.1l-0.9-1.6h-0.7v1.6H40v-4.5H42c0.9,0,1.5,0.6,1.5,1.4c0,0.8-0.5,1.2-1,1.3l1,1.7H42.5z
					 M42.6,35.1c0-0.4-0.3-0.6-0.7-0.6h-1v1.2h1C42.3,35.7,42.6,35.4,42.6,35.1z"/>
				<path fill="#387C42" d="M47.3,38.1l-0.3-0.8h-1.9l-0.3,0.8h-1.1l1.7-4.5h1.2l1.7,4.5H47.3z M46.1,34.6l-0.7,1.9h1.4L46.1,34.6z"
					/>
				<path fill="#387C42" d="M51.9,38.1l-2.1-2.9v2.9h-0.9v-4.5h1l2.1,2.8v-2.8h0.9v4.5H51.9z"/>
				<path fill="#387C42" d="M53.5,35.9c0-1.4,1-2.3,2.4-2.3c1,0,1.6,0.5,1.9,1.1L56.9,35c-0.2-0.4-0.6-0.6-1-0.6
					c-0.8,0-1.4,0.6-1.4,1.5s0.6,1.5,1.4,1.5c0.5,0,0.9-0.3,1-0.6l0.8,0.4c-0.3,0.6-0.9,1.1-1.9,1.1C54.5,38.2,53.5,37.2,53.5,35.9z
					"/>
				<path fill="#387C42" d="M58.3,38.1v-4.5h3.2v0.8h-2.2v0.9h2.2v0.8h-2.2v1h2.2v0.8H58.3z"/>
			</g>
			<g>
				<path fill="#387C42" d="M48,52.6l1.6-4.7H50l-1.6,4.7H48z"/>
				<path fill="#387C42" d="M54.4,52.5v-2.2c0-0.4-0.2-0.7-0.6-0.7c-0.3,0-0.7,0.2-0.9,0.5v2.4h-0.5v-2.2c0-0.4-0.2-0.7-0.6-0.7
					c-0.3,0-0.7,0.2-0.8,0.5v2.4h-0.5v-3.2H51v0.5c0.1-0.2,0.6-0.5,1-0.5c0.5,0,0.8,0.3,0.9,0.6c0.2-0.3,0.6-0.6,1.1-0.6
					c0.6,0,0.9,0.3,0.9,1v2.3H54.4z"/>
				<path fill="#387C42" d="M55.7,50.9c0-0.9,0.6-1.7,1.6-1.7s1.6,0.8,1.6,1.7s-0.6,1.7-1.6,1.7S55.7,51.8,55.7,50.9z M58.4,50.9
					c0-0.7-0.4-1.2-1.1-1.2c-0.7,0-1.1,0.6-1.1,1.2c0,0.7,0.4,1.2,1.1,1.2C58,52.1,58.4,51.5,58.4,50.9z"/>
			</g>
			<g>
				<path fill="#387C42" d="M30.1,52.6c-1.2-0.1-2-0.5-2.6-1.1l0.8-1.2c0.4,0.4,1,0.8,1.7,0.9v-1.7c-1.1-0.3-2.4-0.7-2.4-2.2
					c0-1.1,0.9-2.1,2.4-2.2v-1h1v1c0.9,0.1,1.6,0.4,2.2,1l-0.9,1.1c-0.4-0.4-0.9-0.6-1.4-0.7v1.5c1.1,0.3,2.4,0.7,2.4,2.2
					c0,1.2-0.8,2.2-2.4,2.3v1h-1V52.6z M30.1,47.8v-1.3c-0.5,0.1-0.8,0.3-0.8,0.7C29.3,47.5,29.6,47.7,30.1,47.8z M31.1,49.7v1.5
					c0.5-0.1,0.8-0.4,0.8-0.8C31.9,50.1,31.6,49.9,31.1,49.7z"/>
				<path fill="#387C42" d="M36.8,52.6c-1.2-0.1-2-0.5-2.6-1.1l0.8-1.2c0.4,0.4,1,0.8,1.7,0.9v-1.7c-1.1-0.3-2.4-0.7-2.4-2.2
					c0-1.1,0.9-2.1,2.4-2.2v-1h1v1c0.9,0.1,1.6,0.4,2.2,1l-0.9,1.1c-0.4-0.4-0.9-0.6-1.4-0.7v1.5c1.1,0.3,2.4,0.7,2.4,2.2
					c0,1.2-0.8,2.2-2.4,2.3v1h-1V52.6z M36.8,47.8v-1.3c-0.5,0.1-0.8,0.3-0.8,0.7C36,47.5,36.3,47.7,36.8,47.8z M37.8,49.7v1.5
					c0.5-0.1,0.8-0.4,0.8-0.8C38.7,50.1,38.3,49.9,37.8,49.7z"/>
				<path fill="#387C42" d="M43.5,52.6c-1.2-0.1-2-0.5-2.6-1.1l0.8-1.2c0.4,0.4,1,0.8,1.7,0.9v-1.7c-1.1-0.3-2.4-0.7-2.4-2.2
					c0-1.1,0.9-2.1,2.4-2.2v-1h1v1c0.9,0.1,1.6,0.4,2.2,1l-0.9,1.1c-0.4-0.4-0.9-0.6-1.4-0.7v1.5c1.1,0.3,2.4,0.7,2.4,2.2
					c0,1.2-0.8,2.2-2.4,2.3v1h-1V52.6z M43.5,47.8v-1.3c-0.5,0.1-0.8,0.3-0.8,0.7C42.8,47.5,43.1,47.7,43.5,47.8z M44.6,49.7v1.5
					c0.5-0.1,0.8-0.4,0.8-0.8C45.4,50.1,45.1,49.9,44.6,49.7z"/>
			</g>
		</g>
	</g>
	<path fill="#387C42" d="M23.6,11.7c16.8,0,33.4-0.2,50.2-0.1c-0.4-0.4-0.3-0.8-1.3-1.1c0,18.9,0,37.6,0,56.6c0,2,3,2,3,0
		c0-19,0-37.7,0-56.6c0-0.6-0.7-1.1-1.3-1.1C57.4,9.2,40.5,9.5,23.7,9.4C22.2,9.4,22.1,11.7,23.6,11.7L23.6,11.7z"/>
	<path fill="#387C42" d="M10.9,67.4c0.1-14.7,0-29.3,0-44.3c0-1-2.3-1-2.2,0c0,15,0.1,29.5,0,44.2C8.7,68.8,10.9,68.8,10.9,67.4
		L10.9,67.4z"/>
	<path fill="#387C42" d="M15.6,1C10-0.2,3.8,3.1,1.7,8.5c-0.9,2.3-1,7.2,0,9.4c1.3,2.9,4,5.3,7,6.3c7.1,2.4,14.2-0.7,15.6-8.3
		C25.8,8.2,22.8,3.6,15.6,1c-1.4-0.5-2,1.7-0.6,2.2c4.8,1.7,7.6,4.2,7.4,9.5c-0.2,7.1-4.8,11.3-11.9,9.7c-2.2-0.5-4-1.9-5.5-3.5
		c-2-2.1-1.5-5.4-1.3-8.1C3.9,5.6,10.2,2.2,15,3.2C16.4,3.5,17,1.3,15.6,1z"/>
	<path fill="#387C42" d="M12.1,9.8C10,7.3,6.8,9.6,6.9,12.3c0,1.1,1.4,1.7,2.4,1.5c1.8-0.4,2.6-1.8,2.9-3.5c0.1-0.6-0.8-0.9-1-0.3
		c-0.5,2.7-0.9,5.3-1.2,8c-0.1,0.6,0.9,0.6,1,0c0.3-2.6,0.7-5.2,1.2-7.7c-0.3-0.1-0.6-0.2-1-0.3c-0.1,0.8-0.3,1.4-0.9,2.1
		c-0.5,0.7-2.4,1.2-2.5-0.2c0-1.9,2.2-3,3.5-1.5C11.8,11,12.5,10.3,12.1,9.8L12.1,9.8z"/>
	<path fill="#387C42" d="M18,9.8c-2-2.4-5.3-0.3-5.2,2.5c0,1.1,1.4,1.7,2.4,1.5c1.8-0.4,2.6-1.8,2.9-3.5c0.1-0.6-0.8-0.9-1-0.3
		c-0.5,2.7-0.9,5.3-1.2,8c-0.1,0.6,0.9,0.6,1,0c0.3-2.6,0.7-5.2,1.2-7.7c-0.3-0.1-0.6-0.2-1-0.3c-0.1,0.8-0.3,1.4-0.9,2.1
		c-0.5,0.7-2.4,1.2-2.5-0.2c-0.1-2,2.3-2.9,3.5-1.5C17.7,11,18.4,10.3,18,9.8L18,9.8z"/>
</g>
<g id="Layer_4">
</g>
</svg>
