<?xml version="1.0" encoding="utf-8"?>
<!-- Generator: Adobe Illustrator 18.0.0, SVG Export Plug-In . SVG Version: 6.00 Build 0)  -->
<!DOCTYPE svg PUBLIC "-//W3C//DTD SVG 1.1//EN" "http://www.w3.org/Graphics/SVG/1.1/DTD/svg11.dtd">
<svg version="1.1" xmlns="http://www.w3.org/2000/svg" xmlns:xlink="http://www.w3.org/1999/xlink" x="0px" y="0px"
	 viewBox="0 0 44.3 44.3" enable-background="new 0 0 44.3 44.3" xml:space="preserve">
<g id="Layer_1">
	<g id="Layer_2">
	</g>
</g>
<g id="Layer_5" display="none">
</g>
<g id="panel1">
	<g>
		<path fill="#387C42" d="M43.6,37l-6-10c1.6-2.6,2.5-5.6,2.5-8.9C40.1,8.7,32.4,1,23,1S5.8,8.7,5.8,18.1c0,2.9,0.7,5.6,2,8
			L0.9,37.8c-0.1,0.2-0.1,0.5,0,0.8c0.2,0.2,0.4,0.3,0.7,0.3l6.5-1.3l1.9,5.8c0.1,0.3,0.3,0.4,0.6,0.5c0,0,0.1,0,0.1,0
			c0.2,0,0.5-0.1,0.6-0.3l6.3-9.1c1.7,0.5,3.4,0.8,5.2,0.8c1.6,0,3.2-0.2,4.7-0.7l5.4,8.9c0.1,0.2,0.4,0.3,0.6,0.3c0,0,0.1,0,0.1,0
			c0.3,0,0.5-0.2,0.6-0.5l2-5.9l6.6,0.7c0.3,0,0.5-0.1,0.7-0.3C43.7,37.6,43.7,37.3,43.6,37z M11.1,41.5l-1.7-5.1
			c-0.1-0.3-0.5-0.5-0.8-0.5L3,37.1l5.7-9.6c1.9,2.8,4.5,5.1,7.7,6.4L11.1,41.5z M7.3,18.1c0-8.7,7-15.7,15.7-15.7s15.7,7,15.7,15.7
			s-7,15.7-15.7,15.7S7.3,26.8,7.3,18.1z M35.9,36c-0.3,0-0.6,0.2-0.7,0.5l-1.7,5L29,34.1c3.1-1.2,5.7-3.2,7.7-5.8l4.9,8.2L35.9,36z
			"/>
		<path fill="#387C42" d="M30.8,15.3h-4.6l-2.7-5.3c-0.2-0.5-1-0.5-1.3,0l-2.7,5.3h-4.6c-0.3,0-0.6,0.2-0.7,0.5
			c-0.1,0.3,0,0.6,0.2,0.8l3.9,3.3l-2,6c-0.1,0.3,0,0.6,0.2,0.8c0.2,0.2,0.6,0.2,0.8,0l5.3-3.3l5.3,3.3c0.1,0.1,0.2,0.1,0.4,0.1
			c0.2,0,0.3-0.1,0.4-0.2c0.2-0.2,0.3-0.5,0.2-0.8l-2-6l3.9-3.3c0.2-0.2,0.3-0.5,0.2-0.8C31.4,15.5,31.1,15.3,30.8,15.3z M26.1,19
			c-0.2,0.2-0.3,0.5-0.2,0.8l1.5,4.5l-4-2.5c-0.1-0.1-0.2-0.1-0.4-0.1c-0.1,0-0.3,0-0.4,0.1l-4,2.5l1.5-4.5c0.1-0.3,0-0.6-0.2-0.8
			l-2.8-2.3h3c0.3,0,0.5-0.2,0.6-0.4l2.2-4.4l2.2,4.4c0.1,0.2,0.4,0.4,0.6,0.4h3L26.1,19z"/>
	</g>
</g>
<g id="Layer_4">
</g>
</svg>
