<?xml version="1.0" encoding="utf-8"?>
<!-- Generator: Adobe Illustrator 18.0.0, SVG Export Plug-In . SVG Version: 6.00 Build 0)  -->
<!DOCTYPE svg PUBLIC "-//W3C//DTD SVG 1.1//EN" "http://www.w3.org/Graphics/SVG/1.1/DTD/svg11.dtd">
<svg version="1.1" xmlns="http://www.w3.org/2000/svg" xmlns:xlink="http://www.w3.org/1999/xlink" x="0px" y="0px"
	 viewBox="0 0 136.5 124.4" enable-background="new 0 0 136.5 124.4" xml:space="preserve">
<g id="Layer_1">
	<g id="Layer_2">
	</g>
</g>
<g id="Layer_5" display="none">
</g>
<g id="panel1">
	<g>
		<g>
			<g id="Errthang_Else_3_">
				<g>
					<path fill="#387C42" d="M62.3,57.7V54h-4.7v3.7h-1v-8h1v3.4h4.7v-3.4h1v8H62.3z"/>
					<path fill="#387C42" d="M65.2,57.7v-8h5.2v0.9h-4.2v2.6h4.2v0.9h-4.2v2.8h4.2v0.9H65.2z"/>
					<path fill="#387C42" d="M77.7,57.7L77,55.9h-4l-0.7,1.8h-1.1l3.2-8h1.2l3.2,8H77.7z M75,50.7L73.3,55h3.4L75,50.7z"/>
					<path fill="#387C42" d="M79.9,57.7v-8h1v7.1h3.7v0.9H79.9z"/>
					<path fill="#387C42" d="M86.8,57.7v-7.1h-2.5v-0.9h6.1v0.9h-2.5v7.1H86.8z"/>
					<path fill="#387C42" d="M97.3,57.7V54h-4.7v3.7h-1v-8h1v3.4h4.7v-3.4h1v8H97.3z"/>
					<path fill="#387C42" d="M44.4,69.7v-8h1.7v8H44.4z"/>
					<path fill="#387C42" d="M53.2,69.7l-3.8-5.2v5.2h-1.7v-8h1.8l3.7,5v-5h1.7v8H53.2z"/>
					<path fill="#387C42" d="M55.8,68.6l0.9-1.3c0.6,0.6,1.4,1.1,2.5,1.1c0.9,0,1.4-0.4,1.4-0.9c0-1.4-4.6-0.4-4.6-3.5
						c0-1.3,1.2-2.4,3-2.4c1.3,0,2.3,0.4,3.1,1.1l-0.9,1.2c-0.6-0.6-1.5-0.9-2.3-0.9c-0.7,0-1.1,0.3-1.1,0.8c0,1.3,4.6,0.4,4.6,3.4
						c0,1.5-1,2.6-3.2,2.6C57.7,69.8,56.6,69.3,55.8,68.6z"/>
					<path fill="#387C42" d="M63.6,66.5v-4.8h1.7v4.7c0,1.1,0.6,1.9,1.9,1.9s1.9-0.8,1.9-1.9v-4.7h1.7v4.8c0,2-1.2,3.3-3.6,3.3
						C64.7,69.8,63.6,68.5,63.6,66.5z"/>
					<path fill="#387C42" d="M76.9,69.7l-1.6-2.8H74v2.8h-1.7v-8h3.7c1.7,0,2.7,1.1,2.7,2.6c0,1.4-0.9,2.2-1.8,2.4l1.8,3H76.9z
						 M77,64.3c0-0.7-0.5-1.1-1.2-1.1H74v2.2h1.8C76.5,65.4,77,64.9,77,64.3z"/>
					<path fill="#387C42" d="M85.6,69.7l-0.5-1.4h-3.4l-0.5,1.4h-1.9l3.1-8h2.1l3.1,8H85.6z M83.4,63.4l-1.2,3.4h2.5L83.4,63.4z"/>
					<path fill="#387C42" d="M93.8,69.7L90,64.5v5.2h-1.7v-8H90l3.7,5v-5h1.7v8H93.8z"/>
					<path fill="#387C42" d="M96.6,65.7c0-2.5,1.9-4.1,4.3-4.1c1.8,0,2.8,1,3.3,2l-1.5,0.7c-0.3-0.6-1.1-1.2-1.9-1.2
						c-1.5,0-2.5,1.1-2.5,2.6s1.1,2.6,2.5,2.6c0.8,0,1.5-0.5,1.9-1.2l1.5,0.7c-0.6,1-1.6,2-3.3,2C98.5,69.8,96.6,68.2,96.6,65.7z"/>
					<path fill="#387C42" d="M105.2,69.7v-8h5.7v1.5h-4v1.7h3.9v1.5h-3.9v1.8h4v1.5H105.2z"/>
				</g>
				<g>
					<path fill="#387C42" d="M86.8,95.8l2.8-8.5h0.7l-2.8,8.5H86.8z"/>
					<path fill="#387C42" d="M98.2,95.5v-3.9c0-0.7-0.3-1.2-1.1-1.2c-0.6,0-1.2,0.4-1.5,0.9v4.2h-0.9v-3.9c0-0.7-0.3-1.2-1.1-1.2
						c-0.6,0-1.2,0.4-1.5,0.9v4.2h-0.9v-5.8h0.9v0.8c0.2-0.4,1-1,1.9-1c0.9,0,1.4,0.5,1.6,1.1c0.3-0.5,1.1-1.1,1.9-1.1
						c1.1,0,1.6,0.6,1.6,1.8v4.2H98.2z"/>
					<path fill="#387C42" d="M100.6,92.6c0-1.7,1.1-3,2.9-3s2.9,1.4,2.9,3c0,1.7-1.1,3-2.9,3S100.6,94.3,100.6,92.6z M105.4,92.6
						c0-1.2-0.7-2.2-1.9-2.2c-1.2,0-1.9,1.1-1.9,2.2c0,1.2,0.7,2.2,1.9,2.2C104.7,94.9,105.4,93.8,105.4,92.6z"/>
				</g>
				<g>
					<path fill="#387C42" d="M54.6,95.7c-2.1-0.2-3.6-1-4.6-2l1.5-2.1c0.7,0.8,1.8,1.5,3.1,1.7v-3.1c-2-0.5-4.2-1.3-4.2-3.9
						c0-2,1.6-3.7,4.2-4v-1.8h1.9v1.9c1.6,0.2,2.9,0.8,4,1.8l-1.6,2c-0.7-0.6-1.6-1.1-2.4-1.3v2.8c2,0.5,4.3,1.3,4.3,4
						c0,2.2-1.4,3.9-4.3,4.2v1.8h-1.9V95.7z M54.6,87.1v-2.4c-0.9,0.1-1.4,0.6-1.4,1.3C53.2,86.5,53.8,86.9,54.6,87.1z M56.5,90.6
						v2.6c1-0.2,1.5-0.8,1.5-1.4C57.9,91.2,57.3,90.9,56.5,90.6z"/>
					<path fill="#387C42" d="M66.7,95.7c-2.1-0.2-3.6-1-4.6-2l1.5-2.1c0.7,0.8,1.8,1.5,3.1,1.7v-3.1c-2-0.5-4.2-1.3-4.2-3.9
						c0-2,1.6-3.7,4.2-4v-1.8h1.9v1.9c1.6,0.2,2.9,0.8,4,1.8l-1.6,2c-0.7-0.6-1.6-1.1-2.4-1.3v2.8c2,0.5,4.3,1.3,4.3,4
						c0,2.2-1.4,3.9-4.3,4.2v1.8h-1.9V95.7z M66.7,87.1v-2.4c-0.9,0.1-1.4,0.6-1.4,1.3C65.3,86.5,65.9,86.9,66.7,87.1z M68.6,90.6
						v2.6c1-0.2,1.5-0.8,1.5-1.4C70,91.2,69.4,90.9,68.6,90.6z"/>
					<path fill="#387C42" d="M78.8,95.7c-2.1-0.2-3.6-1-4.6-2l1.5-2.1c0.7,0.8,1.8,1.5,3.1,1.7v-3.1c-2-0.5-4.2-1.3-4.2-3.9
						c0-2,1.6-3.7,4.2-4v-1.8h1.9v1.9c1.6,0.2,2.9,0.8,4,1.8l-1.6,2c-0.7-0.6-1.6-1.1-2.4-1.3v2.8c2,0.5,4.3,1.3,4.3,4
						c0,2.2-1.4,3.9-4.3,4.2v1.8h-1.9V95.7z M78.8,87.1v-2.4c-0.9,0.1-1.4,0.6-1.4,1.3C77.4,86.5,78,86.9,78.8,87.1z M80.7,90.6v2.6
						c1-0.2,1.5-0.8,1.5-1.4C82.1,91.2,81.5,90.9,80.7,90.6z"/>
				</g>
			</g>
		</g>
		<path fill="#387C42" d="M43,22.4c30.1,0,59.8-0.4,89.9-0.1c-0.7-0.7-0.4-1.3-2.4-2c0,33.9,0,67.9,0,101.9c0,3,6,3,6,0
			c0-34,0-68,0-101.9c0-1.1-1.5-2-2.6-2c-30.1-0.3-60.5,0.1-90.6,0.1C40.7,18.3,40.4,22.4,43,22.4L43,22.4z"/>
		<path fill="#387C42" d="M20.3,122.3c0.1-26.4,0-52.5,0-79.4c0-1.8-4-1.8-4,0c0,26.9,0.1,52.9,0,79.2
			C16.2,124.7,20.3,124.9,20.3,122.3L20.3,122.3z"/>
		<path fill="#387C42" d="M28.7,3.2C18.5,1.1,7.5,7,3.8,16.7c-1.6,4.1-1.8,13,0,16.9c2.3,5.2,7.2,9.5,12.6,11.3
			c12.7,4.2,25.6-1.2,28-14.9C46.9,16,41.6,7.9,28.7,3.2c-2.5-0.9-3.5,3-1.1,3.9c8.6,3.1,13.6,7.5,13.3,17.1
			C40.5,37,32.3,44.6,19.5,41.6c-3.9-0.9-7.2-3.4-9.9-6.2C6,31.6,7.1,25.7,7.3,20.9C7.7,11.5,18.9,5.3,27.6,7.1
			C30.1,7.6,31.2,3.8,28.7,3.2z"/>
		<path fill="#387C42" d="M22.3,18.9c-3.7-4.4-9.4-0.4-9.3,4.5c0.1,2,2.6,3.1,4.3,2.7c3.2-0.8,4.7-3.3,5.2-6.3
			c0.2-1.1-1.5-1.6-1.7-0.5c-0.9,4.8-1.6,9.5-2.2,14.4c-0.1,1.1,1.7,1.1,1.8,0c0.6-4.6,1.3-9.3,2.1-13.9c-0.6-0.2-1.2-0.3-1.7-0.5
			c-0.3,1.5-0.5,2.6-1.6,3.9c-1,1.2-4.3,2.2-4.4-0.4c-0.1-3.3,3.9-5.3,6.2-2.6C21.8,21.1,23,19.8,22.3,18.9L22.3,18.9z"/>
		<path fill="#387C42" d="M33,18.9c-3.6-4.4-9.4-0.5-9.3,4.5c0.1,2,2.6,3.1,4.3,2.7c3.2-0.8,4.7-3.3,5.2-6.3
			c0.2-1.1-1.5-1.6-1.7-0.5c-0.9,4.8-1.6,9.5-2.2,14.4c-0.1,1.1,1.7,1.1,1.8,0c0.6-4.6,1.3-9.3,2.1-13.9c-0.6-0.2-1.2-0.3-1.7-0.5
			c-0.3,1.5-0.5,2.6-1.6,3.9c-1,1.2-4.3,2.2-4.4-0.4c-0.1-3.6,4.1-5.2,6.2-2.6C32.4,21.1,33.7,19.8,33,18.9L33,18.9z"/>
	</g>
</g>
<g id="Layer_4">
</g>
</svg>
