<?xml version="1.0" encoding="utf-8"?>
<!-- Generator: Adobe Illustrator 18.0.0, SVG Export Plug-In . SVG Version: 6.00 Build 0)  -->
<!DOCTYPE svg PUBLIC "-//W3C//DTD SVG 1.1//EN" "http://www.w3.org/Graphics/SVG/1.1/DTD/svg11.dtd">
<svg version="1.1" xmlns="http://www.w3.org/2000/svg" xmlns:xlink="http://www.w3.org/1999/xlink" x="0px" y="0px"
	 viewBox="0 0 43.2 36.5" enable-background="new 0 0 43.2 36.5" xml:space="preserve">
<g id="Layer_1">
	<g id="Layer_2">
	</g>
</g>
<g id="Layer_5" display="none">
</g>
<g id="panel1">
	<g>
		<g>
			<g>
				<g>
					<path fill="#0391D8" d="M8.8,20.3c0.5,0.2,0.4,0.5-0.2,0.8c-0.9,0.7-1.5,0.1-2.1-0.5c-0.5-0.5-1.1-1.1-1.6-1.6
						c-0.4-0.4-1.7-1.1-1.2-1.8c0.4-0.5,0.9-0.8,1.4-1.2c-0.3,0-0.6,0-0.9,0c0.2,0.2,0.5,0.4,0.8,0.6c0.6,0.5,1.5-0.4,0.9-0.9
						c-0.2-0.2-0.5-0.4-0.8-0.6c-0.3-0.2-0.6-0.2-0.9,0c-1,0.8-2.2,1.5-1.9,2.9c0.1,0.5,0.6,0.9,1.1,1.2C4.3,20,5,20.7,5.7,21.5
						c1.1,1.1,2.2,1.5,3.6,0.7c1.1-0.7,1.5-1.8,0.4-2.7C9,19,8.1,19.9,8.8,20.3L8.8,20.3z"/>
				</g>
			</g>
			<g>
				<g>
					<path fill="#0391D8" d="M6.2,16.1c1.5-1.5,3-3,4.6-4.5c0.5-0.5,1.1-1.1,1.6-1.7c0.6-0.7,1.2-1.4,1.9-2
						c-0.5,0.5,2.7-2.6,2.4-1.2c-0.2,0.9-0.5,1.6-0.4,2.6c0.4,1.9,0.9,2-0.6,3.5c-2.3,2.2-5,3.8-7,6.4c-0.5,0.6,0.4,1.5,0.9,0.9
						c2.5-3.2,6.2-5,8.7-8.2c0.2-0.2,0.2-0.5,0.1-0.8c-1.2-1.8-0.4-3-0.4-4.8c0-0.8-0.2-1-0.7-1.5c-0.2-0.2-0.5-0.2-0.8-0.1
						c-4.3,2.6-7.7,7-11.2,10.5C4.8,15.8,5.7,16.7,6.2,16.1L6.2,16.1z"/>
				</g>
			</g>
			<g>
				<g>
					<path fill="#0391D8" d="M14,15.8c1.2,0.9,1.9,2.3,2.9,3.3c1.2,1.2,2.5,2.3,3.6,3.5c0.6,0.5,1.5-0.3,0.9-0.9
						c-1.1-1.1-2.2-2.1-3.3-3.2c-1.2-1.1-2-2.6-3.3-3.6C14.3,14.4,13.4,15.3,14,15.8L14,15.8z"/>
				</g>
			</g>
			<g>
				<g>
					<path fill="#0391D8" d="M11.9,17.6c1.2,1.3,2.5,2.7,3.7,4c1.1,1.2,2.1,2.3,3.5,3.2c0.7,0.4,1.3-0.6,0.6-1.1
						c-1.3-0.8-2.3-1.9-3.3-3c-1.2-1.3-2.5-2.7-3.7-4C12.2,16.2,11.4,17.1,11.9,17.6L11.9,17.6z"/>
				</g>
			</g>
			<g>
				<g>
					<path fill="#0391D8" d="M18.7,26.2c1.6-0.9,2.5-2.5,3.8-3.6c0.6-0.5-0.3-1.3-0.9-0.9c-1.3,1.1-2,2.6-3.6,3.5
						C17.3,25.6,18,26.6,18.7,26.2L18.7,26.2z"/>
				</g>
			</g>
			<g>
				<g>
					<path fill="#0391D8" d="M17.8,26c2.3,3.2,5.6,5.7,8.7,8c0.2,0.2,0.5,0.1,0.8-0.1c1.3-1.1,2.6-2.1,3.7-3.4
						c0.5-0.6-0.4-1.5-0.9-0.9c-0.6,0.8-1.3,1.4-2,2c-0.4,0.4-0.8,0.6-1.2,0.9c-0.3,0.2-1.9-1.3-2.3-1.6c-2-1.6-4.2-3.5-5.7-5.6
						C18.4,24.7,17.3,25.4,17.8,26L17.8,26z"/>
				</g>
			</g>
			<g>
				<g>
					<path fill="#0391D8" d="M21.7,22.6c2.9,2.5,5.7,5.2,8.4,8c0.5,0.6,1.4-0.3,0.9-0.9c-2.6-2.8-5.5-5.4-8.4-8
						C22,21.2,21.1,22,21.7,22.6L21.7,22.6z"/>
				</g>
			</g>
			<g>
				<g>
					<path fill="#0391D8" d="M17.3,22.9c-1.6,1.7-7.1,6.6-5,9.4c2.6,3.4,7.1-1.3,8.7-3.5c0.5-0.6-0.6-1.2-1.1-0.6
						c-0.6,0.9-1.5,1.7-2.3,2.5c-0.6,0.6-1.2,1-2,1.3c-1.8,0.7-2.8-0.9-2.2-2.5c0.9-2.1,3-4.2,4.7-5.7
						C18.7,23.2,17.8,22.3,17.3,22.9L17.3,22.9z"/>
				</g>
			</g>
			<g>
				<g>
					<path fill="#0391D8" d="M20.7,20.9c1.6-1.5,3.3-2.9,5-4.3c0.2-0.1,0.2-0.4,0.2-0.6c-0.6-2.3-0.7-4.5-0.3-6.9
						c0.8-4.7,6.4-4.4,10-3.5c-0.1-0.4-0.2-0.7-0.3-1.1c-0.9,1-3.8,3-4,4.3C30.9,10.2,31,11.7,31,13c0,0.4,0.3,0.6,0.6,0.6
						c1.2,0.1,2.7,0.2,3.9-0.1c1.4-0.4,3.4-3,4.6-3.9c-0.3-0.2-0.6-0.4-0.9-0.5c0,1.3,0,2.7-0.1,4.1c-0.1,2-0.2,3.6-2,5
						c-1.8,1.2-5.8,1.7-7.7,0.8c-0.2-0.1-0.5-0.1-0.8,0.1c-1.5,1.5-2.9,3.1-4.4,4.6c-0.5,0.6,0.3,1.5,0.9,0.9
						c0.9-0.9,1.9-1.9,2.8-2.9c1.1-1.1,1.2-1.2,2.7-0.9c2.2,0.4,5.2-0.5,7.1-1.4c3.3-1.7,2.6-6.9,2.5-10.1c0-0.4-0.5-0.8-0.9-0.5
						c-1.1,0.8-2.1,1.7-3.1,2.6c-1.4,1.3-2.8,1.3-4.6,1.2c0.2,0.2,0.4,0.4,0.6,0.6c0.1-0.9,0.1-1.9,0.2-2.9c0.1-1.7,2.7-3.6,3.8-4.7
						c0.3-0.4,0.2-0.9-0.3-1.1C31.5,3.5,26.2,3.4,24.5,8c-0.8,2.2-0.6,4.7-0.2,7c0.3,1.9-3.2,3.7-4.5,5
						C19.2,20.6,20.1,21.5,20.7,20.9L20.7,20.9z"/>
				</g>
			</g>
		</g>
	</g>
</g>
<g id="Layer_4">
</g>
</svg>
