<?xml version="1.0" encoding="utf-8"?>
<!-- Generator: Adobe Illustrator 18.0.0, SVG Export Plug-In . SVG Version: 6.00 Build 0)  -->
<!DOCTYPE svg PUBLIC "-//W3C//DTD SVG 1.1//EN" "http://www.w3.org/Graphics/SVG/1.1/DTD/svg11.dtd">
<svg version="1.1" xmlns="http://www.w3.org/2000/svg" xmlns:xlink="http://www.w3.org/1999/xlink" x="0px" y="0px"
	 viewBox="0 0 67.3 53.6" enable-background="new 0 0 67.3 53.6" xml:space="preserve">
<g id="Layer_1">
	<g id="Layer_2">
	</g>
</g>
<g id="Layer_5" display="none">
</g>
<g id="panel1">
	<g>
		<g>
			<g>
				<g>
					<path fill="#0391D8" d="M11.4,29.1c0.8,0.3,0.7,0.8-0.3,1.4c-1.7,1.2-2.7,0.2-3.7-0.8c-0.9-0.9-1.9-1.9-2.8-2.8
						c-0.6-0.6-3-2-2.1-3.1c0.6-0.8,1.7-1.5,2.5-2.1c-0.5,0-1,0-1.6,0c0.4,0.3,0.9,0.7,1.4,1c1,0.8,2.6-0.6,1.6-1.6
						c-0.4-0.3-0.9-0.7-1.4-1c-0.5-0.4-1-0.4-1.6,0c-1.8,1.4-3.8,2.7-3.3,5.2c0.2,0.9,1.1,1.6,1.9,2.1c1.5,1.1,2.7,2.5,3.9,3.8
						c1.9,2,3.9,2.7,6.3,1.2c2-1.2,2.7-3.2,0.7-4.8C11.8,26.7,10.3,28.3,11.4,29.1L11.4,29.1z"/>
				</g>
			</g>
			<g>
				<g>
					<path fill="#0391D8" d="M6.8,21.6c2.7-2.7,5.4-5.3,8.1-8c0.9-0.9,2-2,2.8-3c1-1.2,2.2-2.5,3.4-3.6c-0.9,0.8,4.8-4.7,4.3-2.1
						c-0.3,1.6-0.9,2.9-0.6,4.6c0.6,3.3,1.7,3.6-1,6.2c-4.1,3.9-8.9,6.8-12.5,11.3c-0.8,1,0.6,2.6,1.6,1.6c4.5-5.6,11-8.9,15.5-14.6
						c0.3-0.4,0.4-0.9,0.2-1.4c-2.1-3.1-0.7-5.3-0.7-8.5c0-1.4-0.4-1.8-1.2-2.6c-0.3-0.3-0.9-0.4-1.4-0.2
						C17.6,5.9,11.5,13.7,5.4,20.1C4.3,21.1,5.9,22.7,6.8,21.6L6.8,21.6z"/>
				</g>
			</g>
			<g>
				<g>
					<path fill="#0391D8" d="M20.8,21c2.1,1.7,3.4,4.1,5.2,5.9c2.1,2.1,4.4,4.1,6.4,6.1c1,0.9,2.6-0.5,1.6-1.6
						c-2-1.9-3.9-3.7-5.9-5.6c-2.1-2-3.5-4.7-5.8-6.4C21.2,18.6,19.6,20.2,20.8,21L20.8,21z"/>
				</g>
			</g>
			<g>
				<g>
					<path fill="#0391D8" d="M17,24.3c2.2,2.4,4.4,4.8,6.7,7.2c2,2.1,3.7,4.2,6.2,5.6c1.2,0.7,2.3-1.1,1.1-1.9
						c-2.3-1.4-4.1-3.3-5.8-5.3c-2.2-2.4-4.4-4.8-6.7-7.2C17.5,21.7,16.1,23.3,17,24.3L17,24.3z"/>
				</g>
			</g>
			<g>
				<g>
					<path fill="#0391D8" d="M29,39.5c2.8-1.6,4.4-4.5,6.8-6.4c1-0.9-0.5-2.4-1.6-1.6c-2.3,1.9-3.6,4.7-6.3,6.1
						C26.6,38.4,27.7,40.2,29,39.5L29,39.5z"/>
				</g>
			</g>
			<g>
				<g>
					<path fill="#0391D8" d="M27.4,39.2c4.1,5.6,10,10.1,15.5,14.2c0.4,0.3,0.9,0.1,1.4-0.2c2.4-1.9,4.7-3.7,6.5-6
						c0.9-1-0.6-2.6-1.6-1.6c-1.1,1.4-2.3,2.5-3.6,3.6c-0.6,0.6-1.4,1.1-2.1,1.7c-0.5,0.4-3.3-2.4-4.1-2.9c-3.6-2.9-7.5-6.2-10.2-10
						C28.5,36.9,26.6,38.1,27.4,39.2L27.4,39.2z"/>
				</g>
			</g>
			<g>
				<g>
					<path fill="#0391D8" d="M34.4,33.1c5.1,4.5,10.2,9.1,14.9,14.1c0.9,1,2.5-0.5,1.6-1.6c-4.6-5-9.8-9.7-14.9-14.1
						C34.9,30.6,33.3,32.1,34.4,33.1L34.4,33.1z"/>
				</g>
			</g>
			<g>
				<g>
					<path fill="#0391D8" d="M26.6,33.7c-2.9,3-12.7,11.7-8.8,16.7c4.7,6,12.7-2.4,15.4-6.2c0.8-1.1-1-2.2-1.9-1.1
						c-1.1,1.7-2.6,3-4.1,4.4c-1,1-2.2,1.8-3.5,2.4c-3.1,1.2-5-1.6-3.8-4.4c1.6-3.7,5.4-7.4,8.3-10.2C29.1,34.2,27.5,32.7,26.6,33.7
						L26.6,33.7z"/>
				</g>
			</g>
			<g>
				<g>
					<path fill="#0391D8" d="M32.6,30.2c2.8-2.7,5.8-5.2,8.8-7.7c0.3-0.2,0.4-0.7,0.3-1c-1.1-4.1-1.2-8-0.5-12.2
						C42.7,1,52.6,1.5,58.9,3c-0.2-0.6-0.3-1.2-0.5-1.9c-1.7,1.8-6.8,5.3-7.2,7.6c-0.5,2.4-0.3,5-0.4,7.4c0,0.6,0.5,1,1.1,1.1
						c2.1,0.2,4.8,0.4,6.9-0.1c2.5-0.7,6-5.3,8.1-6.9c-0.5-0.3-1.1-0.6-1.7-0.9c0,2.4,0,4.8-0.1,7.3c-0.1,3.5-0.3,6.4-3.6,8.8
						c-3.1,2.2-10.3,3-13.6,1.4c-0.4-0.2-0.9-0.2-1.4,0.2c-2.6,2.7-5.2,5.5-7.8,8.1c-0.9,1,0.5,2.6,1.6,1.6c1.7-1.7,3.3-3.4,5-5.2
						c1.9-2,2.2-2.2,4.8-1.7c3.8,0.7,9.3-0.8,12.6-2.5c5.8-3,4.6-12.3,4.5-17.9c0-0.7-0.9-1.5-1.7-0.9c-2,1.5-3.7,3-5.5,4.7
						c-2.5,2.3-5,2.4-8.2,2.1c0.3,0.3,0.7,0.7,1,1c0.1-1.7,0.2-3.4,0.3-5.1c0.2-3,4.8-6.3,6.8-8.3c0.5-0.6,0.3-1.7-0.5-1.9
						c-7.6-1.9-16.9-2.1-20,6.2c-1.4,3.8-1,8.4-0.4,12.4c0.5,3.3-5.6,6.7-8,8.9C30,29.6,31.6,31.2,32.6,30.2L32.6,30.2z"/>
				</g>
			</g>
		</g>
	</g>
</g>
<g id="Layer_4">
</g>
</svg>
