<?xml version="1.0" encoding="utf-8"?>
<!-- Generator: Adobe Illustrator 18.0.0, SVG Export Plug-In . SVG Version: 6.00 Build 0)  -->
<!DOCTYPE svg PUBLIC "-//W3C//DTD SVG 1.1//EN" "http://www.w3.org/Graphics/SVG/1.1/DTD/svg11.dtd">
<svg version="1.1" xmlns="http://www.w3.org/2000/svg" xmlns:xlink="http://www.w3.org/1999/xlink" x="0px" y="0px"
	 viewBox="0 0 184.8 39.7" enable-background="new 0 0 184.8 39.7" xml:space="preserve">
<g id="Layer_1">
	<g id="Layer_2">
	</g>
</g>
<g id="Layer_5" display="none">
</g>
<g id="panel1">
	<g>
		<path fill-rule="evenodd" clip-rule="evenodd" fill="#007D9F" d="M23.7,14.8c-0.3-0.3-0.7-0.5-1.1-0.7L22,26.9l3.2-8.8
			C25.5,16.7,24.7,15.6,23.7,14.8L23.7,14.8z M20.4,13.2c2.3,0.1,3.2-1.6,3.2-3.1c0.1-2.4-1.4-3.4-3.2-3.4s-3.2,1-3.2,3.4
			C17.3,11.4,17.8,13.2,20.4,13.2L20.4,13.2z M13.6,12.5c0.2-3.9-5.9-3.7-5.7,0C7.8,16.4,14,16.4,13.6,12.5L13.6,12.5z M32.2,14.5
			c0.1-3.8-5.7-3.9-5.5,0C26.6,18,32.3,18.2,32.2,14.5L32.2,14.5L32.2,14.5z M32.2,14.5L32.2,14.5L32.2,14.5L32.2,14.5z M34.4,33.5
			v-2.6c-2.1,0.9-4,1.7-6,2.6H34.4L34.4,33.5z M5.7,33.5h6.5l-6.5-2.8V33.5L5.7,33.5z M34.4,30.3v-2.7c-2.1,1.4-4.2,2.7-6.1,4.1
			L34.4,30.3L34.4,30.3z M5.7,30.2c2.2,0.5,4.7,1.1,6.7,1.5l-6.7-4.4V30.2L5.7,30.2z M34.4,27v-3.5l-7,6.8
			C29.8,29.2,32,28.2,34.4,27L34.4,27z M5.7,26.8l7.3,3.4c-2.4-2.4-4.9-4.8-7.3-7.2V26.8L5.7,26.8z M33.9,20.5
			c-0.2-0.3-0.4-0.7-0.7-0.9l-7,9.5c2.8-2.1,5.4-4.1,8-6.2C34.4,22,34.3,21.2,33.9,20.5L33.9,20.5z M5.7,22.4
			c2.8,2.2,5.7,4.4,8.5,6.6L6.6,18.2C5.9,19.4,5.6,20.8,5.7,22.4L5.7,22.4z M29.5,17.8L24.9,28l8-8.7C32,18.3,30.9,17.9,29.5,17.8
			L29.5,17.8z M24.9,20.5l-1.4,6.9c1.8-3.2,3.7-6.4,5.5-9.6C27.3,18,25.5,18.6,24.9,20.5L24.9,20.5z M6.8,17.8l8.6,10.1L10.1,16
			C8.7,16.1,7.5,16.8,6.8,17.8L6.8,17.8z M10.6,16c2.1,3.7,4.3,7.7,6.4,11.2c-0.7-3.1-1.5-8.3-2.6-9.7C13.1,15.8,10.6,16,10.6,16
			L10.6,16z M17,14.8c-1,0.8-1.7,2-1.5,3.3l3.2,8.8l-0.6-12.7C17.7,14.2,17.3,14.5,17,14.8L17,14.8z M18.5,14l1.8,12.7L22.2,14
			C21.1,13.6,19.7,13.6,18.5,14L18.5,14z"/>
		<path fill-rule="evenodd" clip-rule="evenodd" fill="#007D9F" d="M54.1,33.5h1.7V23.4h-1.7V33.5L54.1,33.5z M63.6,30.6
			c0-1.4-0.9-2.4-2.7-3c-1.4-0.5-2-0.8-2-1.7c0-0.6,0.6-1.3,1.9-1.3c0.8,0,1.7,0.3,2.1,0.5v-1.4c-0.4-0.2-1.3-0.5-2.1-0.5
			c-2.2,0-3.6,1.2-3.6,2.8c0,1.5,1.1,2.4,2.8,3c1.3,0.5,1.9,0.9,1.9,1.7c0,0.8-0.8,1.4-2,1.4c-0.9,0-2.1-0.3-2.7-0.8v1.6
			c0.5,0.3,1.6,0.6,2.7,0.6C62.4,33.7,63.6,32.2,63.6,30.6L63.6,30.6z M73.6,29.3h0.9c0.8,1.2,2.5,4.3,2.5,4.3h2l-2.7-4.4
			c0.6-0.2,1.1-0.4,1.4-0.7c0.5-0.5,1-1.2,1-2.1c0-1-0.4-1.7-1-2.1c-0.6-0.5-1.4-0.8-2.9-0.8h-3v4.2l0,0v4.4h-5.4v-2.9h3.1v-1.4
			h-3.1v-2.9c0.5,0,3.9,0,3.9,0v-1.4c-1.1,0-5.5,0-5.5,0v10.1h8.8V29.3L73.6,29.3z M73.6,27.7v-2.8h1.5c1.3,0,1.8,0.5,1.8,1.4
			c0,1-0.5,1.4-1.8,1.4L73.6,27.7L73.6,27.7L73.6,27.7z M50.8,30.6l1,2.9h1.8l-3.5-10.1h-2.2l-3,8.6l-2.9-3.6l3.9-4.9h-2l-3.6,4.8
			v-4.8h-1.7v10.1h1.7v-4.9l3.7,4.9h0.4l0,0h1.7l1-2.9H50.8L50.8,30.6z M48.9,25L48.9,25l1.4,4.2h-2.8L48.9,25L48.9,25z"/>
		<path fill-rule="evenodd" clip-rule="evenodd" fill="#007D9F" d="M113.5,30.7l-1.7-7.4h-3.1v10.2c0.9,0,1.7,0,1.7,0v-8.7l2.2,8.7
			c0,0,0.8,0,1.8,0l2.2-8.7v8.7h1.7V23.4h-3L113.5,30.7L113.5,30.7z M170.5,30.8c0-1.3,1-2.2,2.2-2.2c1.3,0,2.2,1,2.2,2.2
			c0,1.3-1,2.2-2.2,2.2C171.5,33.1,170.5,32.1,170.5,30.8L170.5,30.8z M172.8,33.6c1.5,0,2.7-1.2,2.7-2.7c0-1.6-1.3-2.7-2.7-2.7
			c-1.5,0-2.7,1.2-2.7,2.7C170.1,32.4,171.3,33.6,172.8,33.6L172.8,33.6z M172.2,31h0.6l0.8,1.4h0.6l-1-1.4c0.5-0.1,0.9-0.3,0.9-0.9
			c0-0.6-0.4-0.9-1.2-0.9h-1.2v3.1h0.5V31L172.2,31z M172.2,30.6v-1h0.7c0.3,0,0.7,0.1,0.7,0.5c0,0.5-0.4,0.5-0.8,0.5H172.2
			L172.2,30.6z M91.1,24.1c-0.6-0.5-1.4-0.8-2.9-0.8h-3v10.2H87v-4.2h1.2c1.4,0,2.3-0.2,2.9-0.8c0.5-0.5,1-1.3,1-2.3
			C92.1,25.4,91.7,24.7,91.1,24.1L91.1,24.1z M88.5,27.8H87v-3h1.4c1.4,0,1.9,0.6,1.9,1.4C90.3,27.2,89.7,27.8,88.5,27.8L88.5,27.8z
			 M106.1,28.4c0.5-0.5,1-1.2,1-2.2c0-0.9-0.5-1.7-1-2.1c-0.6-0.5-1.4-0.8-3-0.8h-2.9v4.3l0,0V32h-5.4v-2.8H98v-1.5h-3.1v-2.8
			c0.4,0,3.8,0,3.8,0v-1.5c-1,0-5.5,0-5.5,0v10.2h8.9v-4.3h0.8c0.8,1.3,2.6,4.3,2.6,4.3h2l-2.7-4.5C105.4,29,105.8,28.7,106.1,28.4
			L106.1,28.4z M102,27.8v-2.9h1.4c1.4,0,1.9,0.5,1.9,1.4c0,1-0.5,1.5-1.9,1.5H102L102,27.8z M152.7,23.4L152.7,23.4h-0.3v7.9
			l-4-7.9h-2.4V32h-5.3v-2.8h3.1v-1.5h-3.1v-2.8c0.4,0,3.8,0,3.8,0v-1.5c-1,0-5.5,0-5.5,0v10.2h8.6l0,0c0.1,0,0.2,0,0.2,0v-7.7
			l4,7.7h2.4v-8.7c1.1,0,2.2,0,3.1,0v8.7h1.7v-8.7h3l-0.1-1.5H152.7L152.7,23.4z M168.7,32h-4.2v-2.8h3v-1.5h-3v-2.8
			c0.4,0,3.8,0,3.8,0v-1.5c-1.1,0-5.5,0-5.5,0v10.2h5.9V32L168.7,32z M135.5,31.2l-4-7.8h-2.4v10.2c0.8,0,1.7,0,1.7,0v-7.7l4,7.7
			h2.4V23.4h-1.7V31.2L135.5,31.2z M122.7,23.4l-3.5,10.2h1.7l0.9-3h3.7l1,3h1.8l-3.5-10.2H122.7L122.7,23.4z M122.3,29.2l1.4-4.2
			l0,0l1.4,4.2H122.3L122.3,29.2z"/>
	</g>
</g>
<g id="Layer_4">
</g>
</svg>
