<svg xmlns="http://www.w3.org/2000/svg" xmlns:xlink="http://www.w3.org/1999/xlink" width="99.1" height="344" viewBox="0 0 99.1 344"><svg viewBox="0 0 65.6 52.7" enable-background="new 0 0 65.6 52.7" width="65.6" height="52.7" id="icon_build" y="0"><path fill="#387C42" d="M11.4 28.5c.8.3.7.8-.3 1.3-1.6 1.2-2.6.2-3.6-.8l-2.7-2.7c-.6-.6-2.9-1.9-2-3 .6-.8 1.6-1.4 2.4-2H3.7c.4.3.9.7 1.3 1 1 .8 2.5-.6 1.5-1.5-.4-.3-.9-.7-1.3-1-.5-.4-1-.4-1.5 0C2 21.1 0 22.4.5 24.8c.2.9 1.1 1.5 1.8 2 1.4 1.1 2.6 2.4 3.8 3.7 1.8 1.9 3.8 2.6 6.1 1.2 1.9-1.2 2.6-3.1.7-4.6-1.1-.9-2.6.6-1.5 1.4zM7 21.3c2.6-2.6 5.2-5.1 7.8-7.7.9-.9 1.9-1.9 2.7-2.9 1-1.2 2.1-2.4 3.3-3.5-.9.8 4.6-4.5 4.1-2-.3 1.5-.9 2.8-.6 4.4.6 3.2 1.6 3.5-1 6-3.9 3.8-8.6 6.5-12 10.9-.8 1 .6 2.5 1.5 1.5 4.3-5.4 10.6-8.6 14.9-14 .3-.4.4-.9.2-1.3-2-3-.7-5.1-.7-8.2 0-1.3-.4-1.7-1.2-2.5-.3-.3-.9-.4-1.3-.2-7.3 4.4-13.2 11.9-19.1 18-1 1 .5 2.5 1.4 1.5zM20.4 20.7c2 1.6 3.3 3.9 5 5.7 2 2 4.2 3.9 6.2 5.9 1 .9 2.5-.5 1.5-1.5l-5.7-5.4c-2-1.9-3.4-4.5-5.6-6.2-1-.8-2.5.7-1.4 1.5zM16.8 23.9c2.1 2.3 4.2 4.6 6.4 6.9 1.9 2 3.6 4 6 5.4 1.2.7 2.2-1.1 1.1-1.8-2.2-1.3-3.9-3.2-5.6-5.1-2.1-2.3-4.2-4.6-6.4-6.9-1-1-2.4.5-1.5 1.5zM28.3 38.5c2.7-1.5 4.2-4.3 6.5-6.2 1-.9-.5-2.3-1.5-1.5-2.2 1.8-3.5 4.5-6.1 5.9-1.2.7-.1 2.5 1.1 1.8zM26.8 38.2c3.9 5.4 9.6 9.7 14.9 13.7.4.3.9.1 1.3-.2 2.3-1.8 4.5-3.6 6.3-5.8.9-1-.6-2.5-1.5-1.5-1.1 1.3-2.2 2.4-3.5 3.5-.6.6-1.3 1.1-2 1.6-.5.4-3.2-2.3-3.9-2.8-3.5-2.8-7.2-6-9.8-9.6-.8-1.1-2.6 0-1.8 1.1zM33.5 32.3c4.9 4.3 9.8 8.8 14.3 13.6.9 1 2.4-.5 1.5-1.5-4.4-4.8-9.4-9.3-14.3-13.6-1-.9-2.5.6-1.5 1.5zM26 32.9c-2.8 2.9-12.2 11.3-8.5 16.1 4.5 5.8 12.2-2.3 14.8-6 .8-1.1-1-2.1-1.8-1.1-1.1 1.6-2.5 2.9-3.9 4.2-1 1-2.1 1.7-3.4 2.3-3 1.2-4.8-1.5-3.7-4.2 1.5-3.6 5.2-7.1 8-9.8.9-1-.6-2.5-1.5-1.5zM31.8 29.5c2.7-2.6 5.6-5 8.5-7.4.3-.2.4-.7.3-1-1.1-3.9-1.2-7.7-.5-11.7 1.4-8 10.9-7.5 17-6-.2-.6-.3-1.2-.5-1.8-1.6 1.7-6.5 5.1-6.9 7.3-.5 2.3-.3 4.8-.4 7.1 0 .6.5 1 1.1 1.1 2 .2 4.6.4 6.6-.1 2.4-.7 5.8-5.1 7.8-6.6-.5-.3-1.1-.6-1.6-.9 0 2.3 0 4.6-.1 7-.1 3.4-.3 6.2-3.5 8.5-3 2.1-9.9 2.9-13.1 1.3-.4-.2-.9-.2-1.3.2-2.5 2.6-5 5.3-7.5 7.8-.9 1 .5 2.5 1.5 1.5 1.6-1.6 3.2-3.3 4.8-5 1.8-1.9 2.1-2.1 4.6-1.6 3.7.7 8.9-.8 12.1-2.4C66.3 23.9 65.1 15 65 9.6c0-.7-.9-1.4-1.6-.9-1.9 1.4-3.6 2.9-5.3 4.5-2.4 2.2-4.8 2.3-7.9 2l1 1c.1-1.6.2-3.3.3-4.9.2-2.9 4.6-6.1 6.5-8 .5-.6.3-1.6-.5-1.8-7.3-1.8-16.3-2-19.2 6-1.3 3.7-1 8.1-.4 11.9.5 3.2-5.4 6.4-7.7 8.6-.9 1 .6 2.5 1.6 1.5z"/></svg><svg viewBox="0 0 99.1 81.1" enable-background="new 0 0 99.1 81.1" width="99.1" height="81.1" id="icon_healthcard" y="53"><g><text transform="translate(39.172 40.992)"><tspan x="0" y="0" fill="#387C42" font-family="'ProximaNova-Regular'" font-size="8.989">HEALTH</tspan><tspan x="-8.7" y="9" fill="#387C42" font-family="'ProximaNova-Bold'" font-size="8.989">INSURANCE</tspan></text><text transform="translate(62.92 69.379)" fill="#387C42" font-family="'ProximaNova-Regular'" font-size="8.989">/mo</text><text transform="translate(34.852 69.379)" fill="#387C42" font-family="'ProximaNova-Bold'" font-size="14.768">$$$</text></g><path fill="#387C42" d="M30.1 14.1c22.6 0 45.2-.3 67.8-.1l-1.1-1.1v66.7c0 1.5 2.2 1.5 2.2 0V12.9c0-.6-.5-1.1-1.1-1.1-22.6-.2-45.2.1-67.8.1-1.5-.1-1.5 2.2 0 2.2zM12.6 80c.1-16.5 0-33.1 0-49.6 0-1.5-2.3-1.5-2.2 0 0 16.5.1 33.1 0 49.6 0 1.4 2.2 1.4 2.2 0zM19.2.5C11.7-1.2 2.2 3.8.8 11.7c-1.7 9.5 1.4 16.6 10.8 19.7 9.3 3.1 18-2.7 19.3-12 .6-4.3.9-9-1.8-12.6-2.2-3.1-6.5-5.1-9.9-6.3-1.4-.5-2 1.7-.6 2.2 3 1 5.4 2.5 7.8 4.6 3 2.6 2.6 6.7 2.4 10.3-.5 9.3-7.8 14-16.6 11.8-3.4-1-6.2-3.2-8.2-5.9-2-2.7-1.2-7-1.1-10.1.3-7.3 9-12.2 15.7-10.7 1.4.3 2-1.9.6-2.2zM14.6 11.9c-2.8-3.4-7.1-.3-7 3.4 0 1.6 2 2.3 3.3 2 2.4-.6 3.5-2.5 3.9-4.8.1-.9-1.2-1.3-1.3-.4-.7 3.6-1.2 7.2-1.6 10.8-.1.9 1.3.9 1.4 0 .4-3.5 1-6.9 1.6-10.4-.4-.1-.9-.2-1.3-.4-.2 1.1-.4 1.9-1.2 2.9-.7.9-3.2 1.6-3.3-.3-.1-2.5 2.9-4 4.6-1.9.4.8 1.4-.2.9-.9zM23.6 11.9c-2.7-3.3-7.1-.4-7 3.4 0 1.6 2 2.3 3.3 2 2.4-.6 3.5-2.5 3.9-4.8.1-.9-1.2-1.3-1.3-.4-.7 3.6-1.2 7.2-1.6 10.8-.1.9 1.3.9 1.4 0 .4-3.5 1-6.9 1.6-10.4-.4-.1-.9-.2-1.3-.4-.2 1.1-.4 1.9-1.2 2.9-.7.9-3.2 1.6-3.3-.3-.1-2.7 3-3.9 4.6-1.9.4.8 1.4-.2.9-.9z"/></svg><svg viewBox="0 0 50 49.8" enable-background="new 0 0 50 49.8" width="50" height="49.8" id="icon_news" y="135"><path fill="#387C42" d="M3.2 2.8c11.1-.3 22.1-.3 33.2.1 1.5 0 1.4-2.2 0-2.2C25.3.2 14.2.2 3.2.5c-1.5 0-1.5 2.3 0 2.3zM35.4 2.2c-.2 9.6-.4 19.2-.1 28.8.2 5.8-1 13.5 4.5 16.9 4.7 2.9 8.9-1.8 9.5-6 .6-4.2.2-8.7.1-13-.1-5.9-.2-11.8-.2-17.6 0-1.4-2.3-1.5-2.2 0l.3 19.6c0 3 .1 6 0 9-.2 5.2-7.1 9-8.7 2.9-1.7-6.5-1.1-14.2-1.1-20.9-.1-6.6.2-13.2.3-19.8-.1-1.3-2.3-1.3-2.4.1zM1.1 1.5C1 10 1 18.5 1.1 27c.1 5.9-1.3 14.5 2.1 19.6 2.5 3.8 10.5 2.5 14.1 2.6 8.4.2 16.8.4 25.1-.1 1.4-.1 1.5-2.3 0-2.2-6 .3-11.9.3-17.9.2-4.4 0-18.7 1.8-20.5-3.9-1-3-.5-7.3-.5-10.4-.1-3.3-.1-6.5-.1-9.8-.1-7.2 0-14.4.1-21.5C3.4.1 1.1.1 1.1 1.5zM36.5 5.8h4.2c1.3 0 .8 6.4.8 7.2 0 4.8-.1 9.7-.2 14.5-.1 5.2-2.1 14.3 4.5 16.1 1.4.4 2-1.8.6-2.2-4.4-1.2-2.9-12.4-2.8-15.7.1-4.9.2-9.7.2-14.6 0-1.7.8-5.6-.6-7-1.3-1.3-5.1-.6-6.7-.6-1.5.1-1.5 2.3 0 2.3zM48 10.2c-1.3 0-2.6-.1-4-.2-1.5 0-1.5 2.2 0 2.2 1.3 0 2.6.1 4 .2 1.5.1 1.5-2.2 0-2.2zM8.4 9.1h21.9c1 0 1-1.5 0-1.5H8.4c-1 0-1 1.5 0 1.5zM8.4 33.1h21.9c1 0 1-1.5 0-1.5H8.4c-1 0-1 1.5 0 1.5zM8.4 38.1h21.9c1 0 1-1.5 0-1.5H8.4c-1 0-1 1.5 0 1.5zM9.3 13.6c1.1 0 8.5-.6 8.5.7v10.2l.8-.8c-3 .1-6 .1-9 .1l.8.8c-.2-3.9-.2-7.8-.1-11.7 0-1-1.5-1-1.5 0-.1 3.9 0 7.8.1 11.7 0 .4.3.7.8.8 3 0 6 0 9-.1.4 0 .8-.3.8-.8V18c0-1.7.3-3.6-.1-5.2-.1-.3-.3-.4-.5-.5-1.3-.4-2.8-.2-4.2-.2H9.5c-1.2 0-1.2 1.5-.2 1.5zM23.7 14.5h7c1 0 1-1.5 0-1.5h-7c-.9 0-.9 1.5 0 1.5zM23.7 19.5h7c1 0 1-1.5 0-1.5h-7c-.9 0-.9 1.5 0 1.5zM23.7 25.5h7c1 0 1-1.5 0-1.5h-7c-.9 0-.9 1.5 0 1.5z"/></svg><svg viewBox="0 0 48.4 43.3" enable-background="new 0 0 48.4 43.3" width="48.4" height="43.3" id="icon_paper-plane" y="185"><path fill="#387C42" d="M1.6 19.7C17.2 14.8 32.5 9 47.4 2.3c1.3-.6.2-2.5-1.1-1.9C31.5 7 16.4 12.7 1 17.6c-1.3.4-.7 2.6.6 2.1zM46 1.7c-2.1 11.4-5 22.7-8.7 33.7-.5 1.4 1.7 2 2.2.6 3.7-11 6.6-22.3 8.7-33.7.2-1.5-1.9-2.1-2.2-.6zM1.1 20.3c12.2 5.5 24.3 10.9 36.6 16.3 1.3.6 2.5-1.4 1.1-1.9-12.2-5.4-24.4-10.9-36.5-16.4-1.4-.6-2.5 1.4-1.2 2zM19.9 26.8c9.9-7.1 17.6-17.3 27.5-24.4 1.2-.8 0-2.8-1.1-1.9-9.9 7.1-17.6 17.3-27.5 24.4-1.3.8-.1 2.7 1.1 1.9zM17.8 28v14.2c0 .9 1.3 1.6 1.9.8 2.8-3.5 5.5-7 7.1-11.2.5-1.4-1.7-1.9-2.2-.6-1.5 3.8-4 7-6.6 10.2.6.3 1.3.5 1.9.8V28c.2-1.5-2.1-1.5-2.1 0z"/></svg><svg viewBox="0 0 56.3 57.6" enable-background="new 0 0 56.3 57.6" width="56.3" height="57.6" id="icon_plant" y="229"><path fill="#387C42" d="M25.7 39.7c-3.1-.1-6.2 0-9.2.2-.7 0-1.3.7-1.1 1.4 1.1 3.3 2.3 6.5 3.5 9.8.6 1.6 1.2 4.2 2.5 5.5 1.3 1.3 4.8.6 6.3.6 1.9 0 4 .3 5.8-.3 1-.3 1.3-1.8 1.6-2.7.9-2.5 1.8-5 2.7-7.4.7-1.8 1.5-3.6 2.1-5.4.2-.7-.4-1.4-1.1-1.4-4.3-.2-8.7-.2-13.1-.3-1.5 0-1.4 2.2 0 2.2 4.4.1 8.8.1 13.2.1-.4-.5-.7-.9-1.1-1.4-1.3 3.8-3 7.5-4.3 11.4-.6 1.8-.8 2.8-2.8 2.8-1.1 0-7.3.6-7.9-.3-2.6-3.7-3.7-9.7-5.2-13.9-.4.5-.7.9-1.1 1.4 3.1-.2 6.2-.3 9.2-.2 1.5.2 1.5-2.1 0-2.1zM26.4 26.1c.3 4.5.5 9 .8 13.5.1 1.4 2.3 1.5 2.2 0-.3-4.5-.5-9-.8-13.5 0-1.4-2.3-1.4-2.2 0zM26.9 24.9c-5.6 0-11.1-.1-16.7-.1-3.1 0-6.8 1-7.2-3.8-.4-4.2 3.4-4.6 6.5-5.3.5-.1.9-.8 1.2-1.2.2-.3.3-.7.4-1.1 1-3.4 3.3-4 6.6-4 .7 0 1.7-.4 2.1-1 2.2-3.3 4.5-5.5 8.7-5.7 3.3-.2 6.3 2.1 8 4.7.6 1 1.2 2 2.5 2.2 2.7.4 4.8 1.5 6.3 4 .7 1.2 1 1.3 2.3 1.6 2.3.4 6.3-.5 6.4 3.7 0 5.3-7.2 5.3-10.8 5.6-5.7.5-11 .7-16.3.4-1.4-.1-1.4 2.2 0 2.2 8.2.5 17 .2 25.1-1.4 4.4-.8 5-7 3.1-10.2-.9-1.4-3.2-2.3-4.8-2.4-3.6-.3-4.3-2.9-7.2-4.7-1.5-.9-3.7-.6-4.9-2.2C37.3 5 36.5 4 35.4 3c-2-1.7-4.6-2.4-7.1-2.6-2.4-.2-5.3 1-7.1 2.5-1.2 1-2 2-2.8 3.3-.8 1.3-3.6.9-5 1.1-1.9.3-3.6 2.6-4.2 4.3-1.1 3-4.7 1.6-6.7 3.6-2.9 2.9-2.5 8.9 1 11.1 2.2 1.4 6.3.6 8.6.6 4.9 0 9.9.1 14.8.1 1.5.1 1.4-2.1 0-2.1zM18 27.5c2.1 2 4.3 3.9 6.4 5.9.9.8 2.4 2.9 3.8 2.7 4.2-.7 7.7-6.1 10-9.3.9-1.2-1.1-2.3-1.9-1.1-1.9 2.5-3.9 4.9-6.2 7-2.7 2.4-8.7-5.1-10.5-6.7-1.1-1.1-2.6.5-1.6 1.5z"/></svg><svg viewBox="0 0 92.4 56.5" enable-background="new 0 0 92.4 56.5" width="92.4" height="56.5" id="icon_usa" y="287"><path fill="#387C42" d="M81.8 22.9c-.1 1.5-.3 3.1 0 4.7.2 1.3 1.1 1.8 0 3.1-.5.6-1.1 1.2-1.6 1.8-1.9 2.6-4.4 5-5.1 8.3-.9 4 2.8 6.7 3.2 10.5.2 2.4-2.2 0-2.5-1-.3-.9 0-1.9-.3-2.8-.4-1.4-1.2-2.3-2.6-2.9-1.6-.7-3.4 0-5.1-.4-1.6-.3-3.5-.7-5.1-.2-1.3.3-2.1.8-2.6 2.1-.7 2-4 .3-5.6.1-.9-.1-2.4-.1-3.2.5-.3.2-.7 1-.9 1.1-.9.4-2 .5-3 .8-1.2.4-1 1.8-1.7 2.6-1.1 1.4-.9 2.8-.6 4.5l.9-1.2c-2 .1-3.3-.1-3.6-2.3-.1-.5-.3-1.1-.8-1.4-1-.6-.9-1.5-1.4-2.4-.5-.8-.9-1.3-1.7-1.8-1.2-.8-2.6-.2-3.5.7-.2.2-.3.5-.5.7-.6.6-.7.7-.2.4-1.4-.6-.9-2.2-1.8-3.1-1-1-1.8-2.5-3.1-3-.9-.4-2.8-.7-3.8-.4-2.9.8-6.3 0-8.8-1.5l-3-1.8c-.6-.4-3.4-.7-3.5-1.4H8.4v.2c.5-.2 1.1-.4 1.6-.7-.9-1.1-2-2-3.2-2.7-.5-.3-2-.7-1.7-1.7.2-.7.1-1.4-.1-2.1-.1-.6-.6-1.3-.8-1.8-.6-1.3-.9-2.7-1.2-4.1-.4-1.9-1.3-4.8-.3-6.6.9-1.1 1-1.7.9-2.7-.3-1.9 1.2-3.9 1.9-5.6.6-1.4.8-2.9.9-4.4 0-.6 0-1.3-.1-1.9-.6-.2-.5-.1.3.2.5.2.9.5 1.4.7.5.2 1.3.1 1.4-.6.2-.9.2-1 .1-2l-1 1c4 .3 7.9 1.5 11.9 2.1 3.9.6 7.8 1 11.7 1.2 4.1.2 8.3.2 12.4.1 2.1-.1 3.6-.2 5.7.3 2.1.6 4.2 1 6.4 1.3V5.6c-1.7.6-3 1.5-4.1 2.9-.3.4-.4 1.2.2 1.5.3.1 2 .3 1.8 0 .3.4.6.5 1.1.4.4-.1 4.7-2.2 4.6-1.5 0 .5.5 1 1 .9.7 0 1.3 0 2-.1 1.2.3 1.3-.1.5-1-.8 0-1.4.3-2.1.6-1.1.5-1.5 1.9-1.6 2.9 0 .5.4 1 1 .9.2 0 .4 0 .6-.1-.3-.5-.5-1-.8-1.4-.8 1.7-1.4 3.7-1.2 5.6.2 1.2.8 3.3 2.4 3.3 1 0 2.3-.8 2.2-2-.1-1-.4-1.8-.7-2.7-.4-1.3.3-2.2 1.1-3.1 1.6-1.9 1.7.8 1.6 1.6-.2 1 .8 1.5 1.6.9.2-.2-.6 3-.7 3.2-.2.6-.1 1.2.6 1.4 3 .9 8.4-.6 8-4.7-.1-.9.4-.4 1.2-.6.9-.3 1.4-.6 1.9-1.3.7-1-.1-2.3-1.1-2.5.2.5.4.9.6 1.4.9-1.4 2.1-2.3 3.7-2.9 1-.3 2-.4 3-1.3.7-.6 1-1.6 1.2-2.4.1-.5.2-1.2.2-1.7 0-.6-.6-1.4-.3-1.2.5.3 1 .3 1.6.1.4-.1 1.4 2.1 1.8 2.5 1.3 1.4-.1 1.7-1 2.6-.9.8-1.6 1.7-2.1 2.9-.2.4-.2.9.1 1.2-.1-.1-.2-.2-.2.7 0 .4.2.9.5 1.2.7.9.8-.1.1.3-.9.6-1.6 1.3-2.6 1.8-1.2.5-1.9 1.6-1.7 2.9.1 1.2.7 2.2-.5 3.2-.3.1-.3.6-.3.9-.1 1.2 1.8 1.2 1.9 0 0-.2 1-1.4 1.1-2.2.1-.6 0-1.2-.1-1.7-.3-1.6 1.3-1.7 2.1-2.3.7-.5 2.3-.8 2.6-1.7.6-1.5-1.4-1.9-1-3.4.1-.3 0-.7-.2-.9-.1-.1-.2-.1-.2-.2 0 .4.1.8.1 1.2C88.7 9.9 90 9 91.3 8c.7-.6 1.1-1.9.6-2.7-.2-.4-.4-.7-.8-1-.5-.8-.7-1.5-1.1-2.3-.4-.9-1.3-1.7-2.3-1.3-.8.3-1.2-.5-2.1-.3-1.2.3-1.1 1.7-1.1 2.7 0 2-.2 3.6-2.4 4.2-.8.2-1.5.5-2.3.8-1.4.6-2.5 1.9-3.4 3.1-.3.5 0 1.2.6 1.4.6.1.2.2-1.1.2-.6.2-.9.2-1.4.3-.4.1-.9.6-1.1 1-.2.7.2 1.5-.1 2.1-.9 2-3.4 2.4-5.3 1.8.2.5.4.9.6 1.4.6-1.4 1.5-3.2 1.1-4.8-.4-1.7-2.2-1.7-3.4-.7.5.3 1.1.6 1.6.9.3-1.3.4-2.8-.6-3.9-1-1-2.6-.9-3.6-.1-1.3 1.1-2.7 2.9-2.2 4.8.1.4 1 4.3.1 2.1-.7-1.7.1-3.8.8-5.3.3-.6 0-1.5-.8-1.4-.2 0-.4 0-.6.1.3.3.6.6 1 .9 0-1.3 2.3-1.6 3.4-1.7.3-.1.6-.4.7-.7.8-2.7-3.4-2-4.8-1.9.3.3.6.6.9 1 .1-1.1-.4-2-1.6-2.3-2-.5-3.7 1.7-5.4 2 .1.3.5.5.8.6-.3-.4-.6-.8-1.1-.9-.4-.1-1.1.3-1.4.2.1.5.1 1 .2 1.5.9-1.1 1.9-1.9 3.3-2.4.8-.3 1-1.7 0-1.8-1.8-.3-3.7-.6-5.5-1.1-1.5-.4-2.7-.9-4.2-.8-4.4.3-8.9.3-13.4.2-4.7-.2-9.4-.6-14-1.3C16.1 2 12.4.8 8.5.5c-.5 0-1 .5-1 1V3c.5-.3 1-.5 1.4-.7-1-.5-2.1-1.1-3.2-1.5-.3-.1-.7 0-.9.2-.9 1-.4 2-.3 3.2.3 2.6-.9 4.9-2 7.2-.5 1-1.2 2.6-.9 3.8.4 1.3-1.2 2-1.1 3.2.5 3.9 1 8.1 2.8 11.6.9 1.7-.2 2.8 1 4.3.4.5 1.4.9 2 1.2 1.1.6 2 1.5 2.8 2.4.5.6 1.7.1 1.6-.7V37c-.1-1.2-2-1.2-1.9 0 .2 1.6 1.1 2.5 2.8 2.7 2.7.3 4.9 2.7 7.4 3.7 2 .8 5.4.9 7.4.2 1.9-.7 3 1.7 4.4 2.5.8.5 1 2.2 1.7 2.9.5.5 1.1 1 1.9 1.2.3.1.6 0 .9-.2.2-.2.4-.3.6-.5.6-.5 1.4-3.6 3 .1.4.8.5 1.4 1.1 2.1.7.9.7 1.5 1.1 2.5.8 2 3.3 2.1 5.1 2 .6 0 1-.6.9-1.2-.3-1.4-.1-2.3.8-3.5.2-.3.2-1.3.6-1.4 1-.3 2.5-.2 3.3-1 1.4-1.4 2.8-1.4 4.6-.7 1.3.5 3.1.5 4.3-.1 1.5-.7 1-2.6 3-2.8 2.1-.2 3.9.6 6 .4 3.6-.4 3.8 2.1 4.2 4.7.2 1.3 1.3 2.3 2.3 3 1.8 1.2 3.7.4 3.9-1.6.5-4.4-4-7.3-3.1-11.6.4-1.7 1.7-3.7 3.1-4.8.5-.4.8-1.1 1.2-1.7.6-1 1.4-1.7 2.2-2.6.6-.7 1.1-1.7 1-2.6-.2-.9-.9-1.7-.9-2.6 0-1.1.1-2.3.1-3.4 0-1-1.9-1-1.9.2z"/></svg></svg>