<svg xmlns="http://www.w3.org/2000/svg" xmlns:xlink="http://www.w3.org/1999/xlink" width="139.2" height="625" viewBox="0 0 139.2 625"><svg viewBox="0 0 86.2 22.9" enable-background="new 0 0 86.2 22.9" width="86.2" height="22.9" id="aetna" y="0"><g fill="#7E4098"><path d="M49 18.6c-5.7 2.3-4.1-6.2-4-10.2h3.5V4.6H45c0-1.6 0-3.2.2-4.7h-3.3c-.4 2.9-1.4 5.2-4.5 5.5v3c.6.1 1.7-.2 2 .2.6 4.5-1.1 9.5.8 12.3 1.6 2.3 5.5 2 9 1.5-.1-1.2-.3-2.3-.2-3.8zM33.8 5.3c-1.9-1.2-4.6-1.4-7-1.2-4.6.4-7.3 3.3-7.8 7.7-1-.1-2.4.2-3.2-.2 1.6-8.4-8.4-8.5-14.1-6.5.2 1.2.2 2.6.2 3.9 2.6-1.4 9.3-2.8 8.3 2.7-4.5.2-8.8.4-9.8 3.8-2.5 8.7 7.9 7.6 15.5 7-.1-2.3-.4-5.4 0-7.7h3.3c-.5 8 8.9 9.3 15.8 7.2 0-1.3-.3-2.4-.2-3.8-3.2 1.7-10.1 2-9.7-3.2 3.8 0 8 0 9.8-2.3 1.7-2.2 1.2-5.9-1.1-7.4zm-23.6 14c-1.4.3-3.3.2-4.2-.5-1.5-2.9 1.4-4.8 4.2-4v4.5zM25 11.8c-.8-3.3 3.5-6 5.2-3.7 1.7 2.5-2.1 4.9-5.2 3.7zM66.1 5.5c-3.5-2.7-9.3-.6-14.6-.8.3 5.6.3 12.2 0 17.8h6c-.4-4.8-.3-9.6-.2-14.5 8-3.2 4.3 9.8 5 14.5h5.8c-1.2-5.8 1.8-14-2-17zM83.2 4.8c-2.8-1.3-8.2-.7-11.3.3.3 1 .1 2.5.2 3.8 2.6-1.4 9.2-2.8 8.3 2.7-4.6.1-9.3.7-10 4-1.9 8.6 8.6 7.5 15.8 6.7-1.5-5.9 2.3-15-3-17.5zm-2.8 14.5c-1.4.3-3.3.2-4.2-.5-1.5-2.9 1.4-4.8 4.2-4v4.5z"/></g></svg><svg viewBox="0 0 103.1 15.6" enable-background="new 0 0 103.1 15.6" width="103.1" height="15.6" id="anthem-bluecross" y="23"><path fill="none" d="M-.1 0h103.2v15.9H-.1zM-.1 0h103.2v15.9H-.1z"/><path fill="#fff" d="M97 2.2s3.2 0 4.7-1.1c0 0 .7.8.7 3.5s-1.1 7.6-5.3 9.8c0 0-4.9-1.8-5.3-10 0 0-.2-1.8.7-3.4 0 .1 1.8 1 4.5 1.2"/><path fill="#0579BF" d="M85.3 14.5c0-.6.5-1.2 1.2-1.2.6 0 1.2.5 1.2 1.2 0 .6-.5 1.2-1.2 1.2-.6-.1-1.2-.6-1.2-1.2m2.2 0c0-.6-.4-1-1-1s-1 .4-1 1 .4 1 1 1c.6-.1 1-.5 1-1m-1.3.6H86v-1.3h.6c.3 0 .5.1.5.4 0 .3-.2.4-.4.4l.4.6h-.2l-.4-.6h-.3v.5zm.3-.7c.2 0 .4 0 .4-.2s-.2-.2-.3-.2h-.4v.4h.3z"/><path fill="#fff" d="M81.2 12.4c2.5 0 4.5-2 4.5-4.5s-2-4.5-4.5-4.5-4.5 2-4.5 4.5c-.1 2.4 2 4.5 4.5 4.5"/><path fill="#0579BF" d="M82 5.5c0-.3.4-.4.2-1.1.7.1 1.2.7 1.7 1.1H82zM80.3 5.5h-2c.4-.6 1.1-1 1.7-1.1-.2.7.3.8.3 1.1M84.7 7c.2 1.4-.2 2.4-.8 3.2 0 0-1.3-2.5-1.5-2.7-.1-.3 0-.3.2-.3.1 0 2.1-.2 2.1-.2M77.5 7s2 .2 2.1.2c.2 0 .3 0 .2.3-.1.3-1.5 2.7-1.5 2.7-.6-.8-1-1.8-.8-3.2M82.7 11.1c-.4.2-.9.3-1.5.3s-1.1-.1-1.5-.3c0 0 1.4-2.2 1.5-2.2.1 0 1.5 2.2 1.5 2.2M88.9 4.4h-4.3V.1h-6.8v4.3h-4.3v6.9h4.3v4.3h6.8v-4.3h4.3V4.4zm-10.7.4c.8-.8 1.8-1.2 3-1.2 1.1 0 2.2.4 2.9 1.2.4.4.7.8.9 1.3h-2.9c-.3 0-.5-.1-.6-.2-.2-.2-.2-.4 0-.7.4-.5.1-1-.4-1-.4 0-.8.5-.4 1 .2.3.2.5 0 .7-.1.1-.4.2-.6.2h-2.8c.2-.5.5-.9.9-1.3m-1.3 3c0-.5.1-1 .2-1.4 1 0 2 .2 2.5.2.6 0 1.1.4.6 1.1-.4.7-1.6 2.9-1.8 3.4-.8-.7-1.5-1.9-1.5-3.3m4.3 4.3c-.9 0-1.7-.3-2.4-.7.4-.5 1.9-2.7 2-2.9.1-.2.2-.3.4-.3s.3.1.4.3c.1.2 2 2.9 2 2.9-.7.4-1.6.7-2.4.7m2.6-.9c-.1-.1-1.4-2.7-1.8-3.5-.4-.8 0-1.1.6-1.1s1.5-.2 2.6-.2c.2.5.3.9.3 1.5-.1 1.3-.7 2.5-1.7 3.3"/><path fill="#0579BF" d="M100.1 14.5c0-.6.5-1.2 1.2-1.2.6 0 1.2.5 1.2 1.2 0 .6-.5 1.2-1.2 1.2-.7-.1-1.2-.6-1.2-1.2m2.2 0c0-.6-.4-1-1-1s-1 .4-1 1 .4 1 1 1c.5-.1 1-.5 1-1m-1.3.6h-.2v-1.3h.6c.3 0 .5.1.5.4 0 .3-.2.4-.4.4l.4.6h-.2l-.4-.6h-.3v.5zm.2-.7c.2 0 .4 0 .4-.2s-.2-.2-.3-.2h-.3v.4h.2zM102.2 0c-1.5.8-2.9 1.2-5.1 1.2-2.2 0-3.7-.4-5.1-1.2-.6 1.1-1 2.6-1 4.4 0 5 2.8 8.3 3.5 9.1.7.7 2.1 1.9 2.6 2 .5-.1 1.9-1.2 2.6-2 .7-.7 3.5-4.1 3.5-9.1-.1-1.8-.4-3.3-1-4.4m-2.8 12.2c-.4.5-2 2-2.3 2-.3-.1-1.9-1.5-2.3-2-.3-.4-2.7-3.3-2.7-7.8 0-1 .1-2.4.5-2.9.8.5 2.6 1 4.4 1 1.9 0 3.6-.5 4.5-.9.3.5.5 1.9.5 2.9 0 4.4-2.3 7.3-2.6 7.7M96.4 4.2s0 .1-.1.1-.1 0-.2-.1H96s.2-.1.4 0M101.3 2.3c-.8.4-2.6.7-4.3.7-1.7 0-3.4-.2-4.2-.7-.3.5-.4 1.6-.3 2.5.1 4.5 2.2 6.7 2.5 7 .4.5 1.8 1.8 2.1 1.9.3-.1 1.7-1.4 2.1-1.9.3-.4 2.3-2.5 2.5-7-.1-.9-.1-2.1-.4-2.5m-4.8 10.2c-.2 0-.2-.2-.2-.3 0-.2.2-.5.3-.6v.4c0 .1 0 .4-.1.5m.7.3s-.2.1-.4 0v-1.9h.2c.1 0 .2.1.3.2.1.1.1.5.1.7-.2.5-.2.9-.2 1m.1-1.1v-.5c0-.1 0-.2-.1-.3l-.2-.2c-.1 0-.1 0-.3-.1-1.1-.3-.8-1.3-.2-1.3v.6c-.2.1 0 .1 0 .1.1 0 .3.1.4.2.1 0 .3.1.4.1.7.4.6 1.1 0 1.4m-.6-2.3V9h.6v1.1c-.1 0-.2-.1-.3-.1-.1 0-.2-.1-.3-.2v-.4zm.7.5V9.3c.1-.1.2-.1.1-.3H97c-.1 0-.2 0-.6-.1-.9-.2-.8-1.3-.2-1.5l.2.4.1.3h.6c.1 0 .1 0 .3.1 1.2.3.9 1.7 0 1.7m-1.2-2.7l.3-.4.8.1v1.3l-.7-.2-.2-.4-.2-.4zm1.2.8c-.1-.4 0-.8 0-.8.4 0 .1-.4 0-.4h-.5c-.2 0-.4 0-.6-.1-2.3-.3-2-2.4-.8-2.6.8-.1 1.3.2 1.4.5 0 0-.2.1-.4.1h-.6c.1.1.5.2.7.3h-.7c-.2 0-.3-.1-.5-.1-.1.2-.2.7.8.9.1 0 .3.1.5.1s.4.1.5.1c.1 0 .1 0 .2.1 1.5.2 1.1 1.9 0 1.9m1.1-3.4l-1 1s-.1.2-.2.2l-.8-.1v-.6c.2 0 .2 0 .3-.1v-.1c.3.1.5.1.6.1l-.1-.1c-.1 0-.2-.1-.4-.1.1-.1.1-.2.1-.2s0-.1-.1-.2c-.1-.3-.4-.4-.4-.4-.1-.1 0-.1 0-.2 0-.3.2-.2.5-.1.2.1.4.2.4.3 0 0 0 .7.1.7.1-.1.5-.4.6-.5.2-.2.6.1.4.4"/><path fill="#231F20" d="M68.3 14.5c0-.6.5-1.2 1.2-1.2.6 0 1.2.5 1.2 1.2 0 .6-.5 1.2-1.2 1.2-.7-.1-1.2-.6-1.2-1.2m2.2 0c0-.6-.4-1-1-1s-1 .4-1 1 .4 1 1 1c.6-.1 1-.5 1-1m-1.3.6H69v-1.3h.6c.3 0 .5.1.5.4 0 .3-.2.4-.4.4l.4.6h-.2l-.4-.6h-.3v.5zm.3-.7c.2 0 .4 0 .4-.2s-.2-.2-.3-.2h-.4v.4h.3zM49.6 7.3c-.7-.7-1.8-1-3-1-1.1 0-2.1.5-2.9 1.3-.8.9-1.3 2.2-1.3 3.5 0 1.3.5 2.6 1.4 3.4.8.8 2 1.3 3.2 1.3 2.3 0 3.6-1.7 3.8-3.3v-.1H50v.1c-.2 1.3-1.3 2.7-3 2.7-1.4 0-2.1-.9-2.2-2.6v-2.2h6v-.1c.1-1.2-.3-2.3-1.2-3m-1.2 2.6H45v-1c0-.6.2-1.2.5-1.5.3-.3.7-.5 1.2-.5 1.1 0 1.7.7 1.7 2v1zM30.9 13.9h-.7v.1c-.1.3-.4 1-1.2 1-.7 0-1-.5-1-1.4V7.2h2.2v-.6H28V3.8h-.1c-.5.1-1.6.1-2.1.1h-.1v2.7h-1.5v.7h1.5v5.6c0 2.1.9 3.1 2.6 3.1 2.1-.1 2.5-1.6 2.6-2.1zM22.9 15V9.3c0-.9-.3-1.6-.8-2.2-.5-.5-1.3-.8-2.2-.8-1.2 0-2.2.5-2.9 1.4V6.5h-3.7v.7H14.7v7.9h-2.5L7.1.2h-.7l-5 14.9H-.1v.7H4.2v-.7h-2l1.4-4.2h4.5l1.4 4.2H7.6v.7H18.5V15H17v-4.4c0-2.6 1.4-3.5 2.3-3.5.9 0 1.4.6 1.4 1.7V15H19.3v.7H24.3V15H22.9zM5.8 4.1l2.1 6.1H3.8l2-6.1zM40.7 15V9.2c0-1.4-.8-2.9-3.1-2.9-1.8 0-2.7.9-3.1 1.3V.2h-3.7v.7H32.2V15h-1.5v.7H35.9V15H34.5v-4.4c0-1.5.5-2.4 1-2.8.4-.4 1-.7 1.5-.7 1.2 0 1.5 1 1.5 1.9v6H37v.7H42.2V15h-1.5zM67.7 15h-1.4V8.9c0-1.6-1.1-2.6-2.8-2.6-1.7 0-2.6.8-3 1.4-.5-.9-1.3-1.4-2.6-1.4-1.2 0-2.2.5-3 1.2v-1h-3.7v.7h1.5V15h-1.5v.7H56.2V15H55v-4.3c0-1.3.1-2.1.6-2.7.4-.5 1-.8 1.6-.8.8 0 1 .6 1 .6.2.4.2 1 .2 1.6V15H57v.7H62V15h-1.3v-4.3c0-1.3.1-2.1.6-2.7.4-.5 1-.8 1.6-.8.8 0 1 .6 1 .6.2.4.2 1 .2 1.6V15H62.7v.7h5.1v-.1l-.1-.6z"/></svg><svg viewBox="0 0 88.7 17.1" enable-background="new 0 0 88.7 17.1" width="88.7" height="17.1" id="humana" y="39"><path fill="#87C546" d="M88.7 15.6c0 .9-.7 1.6-1.5 1.6-.9 0-1.5-.7-1.5-1.6 0-.9.7-1.6 1.5-1.6.8.1 1.5.8 1.5 1.6m-2.8 0c0 .7.5 1.3 1.2 1.3s1.2-.6 1.2-1.3c0-.7-.5-1.3-1.2-1.3-.6 0-1.2.6-1.2 1.3m1.2-.8c.4 0 .7.1.7.5 0 .3-.1.4-.3.5l.1.2c.1.1.2.3.3.5H87.6c-.1-.1-.2-.2-.2-.3l-.1-.3h-.2v.6H86.8v-1.7h.3zm-.2.8h.2c.2 0 .3-.1.3-.3 0-.2-.2-.2-.4-.2h-.2v.5zM23.4 4.1c-.2 0-.5.2-.5.5v9.8c-.7.2-1.5.3-2.3.3-1.7 0-2.3-.6-2.3-2.5V4.6c0-.3-.2-.5-.5-.5h-2.6v8.1c0 3.8 2 5 5.3 5 2.6 0 5.2-.7 5.4-.8V4.1h-2.5zm39.5 13c.2 0 .5-.2.5-.5V6.7c.7-.2 1.5-.3 2.3-.3 1.7 0 2.3.6 2.3 2.5v7.7c0 .3.2.5.5.5H71V8.9c0-3.8-2-5-5.3-5-2.6 0-5.2.7-5.4.8v12.4h2.6zM52.6 3.9c-3.3 0-5.5 1.8-5.5 5.7v1.9c0 4.3 2.3 5.7 4.8 5.7 1.2 0 2.5-.9 2.9-1.4v.8c0 .2.2.5.5.5h2.6V4.6c-.1 0-2.7-.7-5.3-.7m2.1 10c-.6.5-1 .8-2.2.8-1.7 0-2.4-1-2.4-3.2V9.7c0-2.5.9-3.2 2.4-3.2 1.2 0 1.9.1 2.2.2v7.2zm23.8-10c-3.3 0-5.5 1.8-5.5 5.7v1.9c0 4.3 2.3 5.7 4.8 5.7 1.2 0 2.5-.9 2.9-1.4v.8c0 .2.2.5.5.5h2.6V4.6s-2.6-.7-5.3-.7m2.2 10c-.6.5-1 .8-2.2.8-1.7 0-2.4-1-2.4-3.2V9.7c0-2.5.9-3.2 2.4-3.2 1.3 0 1.9.1 2.2.2v7.2zM0 17.1h2.7c.2 0 .5-.2.5-.5V9.4h5c.8 0 1.5.7 1.5 1.4v5.8c0 .2.2.5.5.5h2.7V0h-2.7c-.3 0-.5.2-.5.4v6.4H4.4c-.7 0-1.3-.6-1.3-1.2V.4C3.2.3 3 0 2.7 0H0v17.1zM40.3 3.9c-1.4 0-2.8.6-3.4 1-.9-.7-2.2-1-3.8-1-2.4 0-4.4.7-4.7.9v12.4H31c.3 0 .5-.2.5-.5v-10c.5-.2 1-.2 1.5-.2 1.8 0 2.2.7 2.2 2.5v7.7c0 .2.2.5.5.5h2.1c.3 0 .5-.2.5-.5V7c.5-.4 1.2-.6 1.8-.6 1.3 0 1.9.6 1.9 2.3v7.9c0 .2.2.5.5.5H45V8.3c0-3.3-2.1-4.4-4.7-4.4"/></svg><svg viewBox="0 0 65.6 52.7" enable-background="new 0 0 65.6 52.7" width="65.6" height="52.7" id="icon_build" y="57"><path fill="#387C42" d="M11.4 28.5c.8.3.7.8-.3 1.3-1.6 1.2-2.6.2-3.6-.8l-2.7-2.7c-.6-.6-2.9-1.9-2-3 .6-.8 1.6-1.4 2.4-2H3.7c.4.3.9.7 1.3 1 1 .8 2.5-.6 1.5-1.5-.4-.3-.9-.7-1.3-1-.5-.4-1-.4-1.5 0C2 21.1 0 22.4.5 24.8c.2.9 1.1 1.5 1.8 2 1.4 1.1 2.6 2.4 3.8 3.7 1.8 1.9 3.8 2.6 6.1 1.2 1.9-1.2 2.6-3.1.7-4.6-1.1-.9-2.6.6-1.5 1.4zM7 21.3c2.6-2.6 5.2-5.1 7.8-7.7.9-.9 1.9-1.9 2.7-2.9 1-1.2 2.1-2.4 3.3-3.5-.9.8 4.6-4.5 4.1-2-.3 1.5-.9 2.8-.6 4.4.6 3.2 1.6 3.5-1 6-3.9 3.8-8.6 6.5-12 10.9-.8 1 .6 2.5 1.5 1.5 4.3-5.4 10.6-8.6 14.9-14 .3-.4.4-.9.2-1.3-2-3-.7-5.1-.7-8.2 0-1.3-.4-1.7-1.2-2.5-.3-.3-.9-.4-1.3-.2-7.3 4.4-13.2 11.9-19.1 18-1 1 .5 2.5 1.4 1.5zM20.4 20.7c2 1.6 3.3 3.9 5 5.7 2 2 4.2 3.9 6.2 5.9 1 .9 2.5-.5 1.5-1.5l-5.7-5.4c-2-1.9-3.4-4.5-5.6-6.2-1-.8-2.5.7-1.4 1.5zM16.8 23.9c2.1 2.3 4.2 4.6 6.4 6.9 1.9 2 3.6 4 6 5.4 1.2.7 2.2-1.1 1.1-1.8-2.2-1.3-3.9-3.2-5.6-5.1-2.1-2.3-4.2-4.6-6.4-6.9-1-1-2.4.5-1.5 1.5zM28.3 38.5c2.7-1.5 4.2-4.3 6.5-6.2 1-.9-.5-2.3-1.5-1.5-2.2 1.8-3.5 4.5-6.1 5.9-1.2.7-.1 2.5 1.1 1.8zM26.8 38.2c3.9 5.4 9.6 9.7 14.9 13.7.4.3.9.1 1.3-.2 2.3-1.8 4.5-3.6 6.3-5.8.9-1-.6-2.5-1.5-1.5-1.1 1.3-2.2 2.4-3.5 3.5-.6.6-1.3 1.1-2 1.6-.5.4-3.2-2.3-3.9-2.8-3.5-2.8-7.2-6-9.8-9.6-.8-1.1-2.6 0-1.8 1.1zM33.5 32.3c4.9 4.3 9.8 8.8 14.3 13.6.9 1 2.4-.5 1.5-1.5-4.4-4.8-9.4-9.3-14.3-13.6-1-.9-2.5.6-1.5 1.5zM26 32.9c-2.8 2.9-12.2 11.3-8.5 16.1 4.5 5.8 12.2-2.3 14.8-6 .8-1.1-1-2.1-1.8-1.1-1.1 1.6-2.5 2.9-3.9 4.2-1 1-2.1 1.7-3.4 2.3-3 1.2-4.8-1.5-3.7-4.2 1.5-3.6 5.2-7.1 8-9.8.9-1-.6-2.5-1.5-1.5zM31.8 29.5c2.7-2.6 5.6-5 8.5-7.4.3-.2.4-.7.3-1-1.1-3.9-1.2-7.7-.5-11.7 1.4-8 10.9-7.5 17-6-.2-.6-.3-1.2-.5-1.8-1.6 1.7-6.5 5.1-6.9 7.3-.5 2.3-.3 4.8-.4 7.1 0 .6.5 1 1.1 1.1 2 .2 4.6.4 6.6-.1 2.4-.7 5.8-5.1 7.8-6.6-.5-.3-1.1-.6-1.6-.9 0 2.3 0 4.6-.1 7-.1 3.4-.3 6.2-3.5 8.5-3 2.1-9.9 2.9-13.1 1.3-.4-.2-.9-.2-1.3.2-2.5 2.6-5 5.3-7.5 7.8-.9 1 .5 2.5 1.5 1.5 1.6-1.6 3.2-3.3 4.8-5 1.8-1.9 2.1-2.1 4.6-1.6 3.7.7 8.9-.8 12.1-2.4C66.3 23.9 65.1 15 65 9.6c0-.7-.9-1.4-1.6-.9-1.9 1.4-3.6 2.9-5.3 4.5-2.4 2.2-4.8 2.3-7.9 2l1 1c.1-1.6.2-3.3.3-4.9.2-2.9 4.6-6.1 6.5-8 .5-.6.3-1.6-.5-1.8-7.3-1.8-16.3-2-19.2 6-1.3 3.7-1 8.1-.4 11.9.5 3.2-5.4 6.4-7.7 8.6-.9 1 .6 2.5 1.6 1.5z"/></svg><svg viewBox="0 0 99.1 81.1" enable-background="new 0 0 99.1 81.1" width="99.1" height="81.1" id="icon_healthcard" y="110"><g><text transform="translate(39.172 40.992)"><tspan x="0" y="0" fill="#387C42" font-family="'ProximaNova-Regular'" font-size="8.989">HEALTH</tspan><tspan x="-8.7" y="9" fill="#387C42" font-family="'ProximaNova-Bold'" font-size="8.989">INSURANCE</tspan></text><text transform="translate(62.92 69.379)" fill="#387C42" font-family="'ProximaNova-Regular'" font-size="8.989">/mo</text><text transform="translate(34.852 69.379)" fill="#387C42" font-family="'ProximaNova-Bold'" font-size="14.768">$$$</text></g><path fill="#387C42" d="M30.1 14.1c22.6 0 45.2-.3 67.8-.1l-1.1-1.1v66.7c0 1.5 2.2 1.5 2.2 0V12.9c0-.6-.5-1.1-1.1-1.1-22.6-.2-45.2.1-67.8.1-1.5-.1-1.5 2.2 0 2.2zM12.6 80c.1-16.5 0-33.1 0-49.6 0-1.5-2.3-1.5-2.2 0 0 16.5.1 33.1 0 49.6 0 1.4 2.2 1.4 2.2 0zM19.2.5C11.7-1.2 2.2 3.8.8 11.7c-1.7 9.5 1.4 16.6 10.8 19.7 9.3 3.1 18-2.7 19.3-12 .6-4.3.9-9-1.8-12.6-2.2-3.1-6.5-5.1-9.9-6.3-1.4-.5-2 1.7-.6 2.2 3 1 5.4 2.5 7.8 4.6 3 2.6 2.6 6.7 2.4 10.3-.5 9.3-7.8 14-16.6 11.8-3.4-1-6.2-3.2-8.2-5.9-2-2.7-1.2-7-1.1-10.1.3-7.3 9-12.2 15.7-10.7 1.4.3 2-1.9.6-2.2zM14.6 11.9c-2.8-3.4-7.1-.3-7 3.4 0 1.6 2 2.3 3.3 2 2.4-.6 3.5-2.5 3.9-4.8.1-.9-1.2-1.3-1.3-.4-.7 3.6-1.2 7.2-1.6 10.8-.1.9 1.3.9 1.4 0 .4-3.5 1-6.9 1.6-10.4-.4-.1-.9-.2-1.3-.4-.2 1.1-.4 1.9-1.2 2.9-.7.9-3.2 1.6-3.3-.3-.1-2.5 2.9-4 4.6-1.9.4.8 1.4-.2.9-.9zM23.6 11.9c-2.7-3.3-7.1-.4-7 3.4 0 1.6 2 2.3 3.3 2 2.4-.6 3.5-2.5 3.9-4.8.1-.9-1.2-1.3-1.3-.4-.7 3.6-1.2 7.2-1.6 10.8-.1.9 1.3.9 1.4 0 .4-3.5 1-6.9 1.6-10.4-.4-.1-.9-.2-1.3-.4-.2 1.1-.4 1.9-1.2 2.9-.7.9-3.2 1.6-3.3-.3-.1-2.7 3-3.9 4.6-1.9.4.8 1.4-.2.9-.9z"/></svg><svg viewBox="0 0 50 49.8" enable-background="new 0 0 50 49.8" width="50" height="49.8" id="icon_news" y="192"><path fill="#387C42" d="M3.2 2.8c11.1-.3 22.1-.3 33.2.1 1.5 0 1.4-2.2 0-2.2C25.3.2 14.2.2 3.2.5c-1.5 0-1.5 2.3 0 2.3zM35.4 2.2c-.2 9.6-.4 19.2-.1 28.8.2 5.8-1 13.5 4.5 16.9 4.7 2.9 8.9-1.8 9.5-6 .6-4.2.2-8.7.1-13-.1-5.9-.2-11.8-.2-17.6 0-1.4-2.3-1.5-2.2 0l.3 19.6c0 3 .1 6 0 9-.2 5.2-7.1 9-8.7 2.9-1.7-6.5-1.1-14.2-1.1-20.9-.1-6.6.2-13.2.3-19.8-.1-1.3-2.3-1.3-2.4.1zM1.1 1.5C1 10 1 18.5 1.1 27c.1 5.9-1.3 14.5 2.1 19.6 2.5 3.8 10.5 2.5 14.1 2.6 8.4.2 16.8.4 25.1-.1 1.4-.1 1.5-2.3 0-2.2-6 .3-11.9.3-17.9.2-4.4 0-18.7 1.8-20.5-3.9-1-3-.5-7.3-.5-10.4-.1-3.3-.1-6.5-.1-9.8-.1-7.2 0-14.4.1-21.5C3.4.1 1.1.1 1.1 1.5zM36.5 5.8h4.2c1.3 0 .8 6.4.8 7.2 0 4.8-.1 9.7-.2 14.5-.1 5.2-2.1 14.3 4.5 16.1 1.4.4 2-1.8.6-2.2-4.4-1.2-2.9-12.4-2.8-15.7.1-4.9.2-9.7.2-14.6 0-1.7.8-5.6-.6-7-1.3-1.3-5.1-.6-6.7-.6-1.5.1-1.5 2.3 0 2.3zM48 10.2c-1.3 0-2.6-.1-4-.2-1.5 0-1.5 2.2 0 2.2 1.3 0 2.6.1 4 .2 1.5.1 1.5-2.2 0-2.2zM8.4 9.1h21.9c1 0 1-1.5 0-1.5H8.4c-1 0-1 1.5 0 1.5zM8.4 33.1h21.9c1 0 1-1.5 0-1.5H8.4c-1 0-1 1.5 0 1.5zM8.4 38.1h21.9c1 0 1-1.5 0-1.5H8.4c-1 0-1 1.5 0 1.5zM9.3 13.6c1.1 0 8.5-.6 8.5.7v10.2l.8-.8c-3 .1-6 .1-9 .1l.8.8c-.2-3.9-.2-7.8-.1-11.7 0-1-1.5-1-1.5 0-.1 3.9 0 7.8.1 11.7 0 .4.3.7.8.8 3 0 6 0 9-.1.4 0 .8-.3.8-.8V18c0-1.7.3-3.6-.1-5.2-.1-.3-.3-.4-.5-.5-1.3-.4-2.8-.2-4.2-.2H9.5c-1.2 0-1.2 1.5-.2 1.5zM23.7 14.5h7c1 0 1-1.5 0-1.5h-7c-.9 0-.9 1.5 0 1.5zM23.7 19.5h7c1 0 1-1.5 0-1.5h-7c-.9 0-.9 1.5 0 1.5zM23.7 25.5h7c1 0 1-1.5 0-1.5h-7c-.9 0-.9 1.5 0 1.5z"/></svg><svg viewBox="0 0 48.4 43.3" enable-background="new 0 0 48.4 43.3" width="48.4" height="43.3" id="icon_paper-plane" y="242"><path fill="#387C42" d="M1.6 19.7C17.2 14.8 32.5 9 47.4 2.3c1.3-.6.2-2.5-1.1-1.9C31.5 7 16.4 12.7 1 17.6c-1.3.4-.7 2.6.6 2.1zM46 1.7c-2.1 11.4-5 22.7-8.7 33.7-.5 1.4 1.7 2 2.2.6 3.7-11 6.6-22.3 8.7-33.7.2-1.5-1.9-2.1-2.2-.6zM1.1 20.3c12.2 5.5 24.3 10.9 36.6 16.3 1.3.6 2.5-1.4 1.1-1.9-12.2-5.4-24.4-10.9-36.5-16.4-1.4-.6-2.5 1.4-1.2 2zM19.9 26.8c9.9-7.1 17.6-17.3 27.5-24.4 1.2-.8 0-2.8-1.1-1.9-9.9 7.1-17.6 17.3-27.5 24.4-1.3.8-.1 2.7 1.1 1.9zM17.8 28v14.2c0 .9 1.3 1.6 1.9.8 2.8-3.5 5.5-7 7.1-11.2.5-1.4-1.7-1.9-2.2-.6-1.5 3.8-4 7-6.6 10.2.6.3 1.3.5 1.9.8V28c.2-1.5-2.1-1.5-2.1 0z"/></svg><svg viewBox="0 0 56.3 57.6" enable-background="new 0 0 56.3 57.6" width="56.3" height="57.6" id="icon_plant" y="286"><path fill="#387C42" d="M25.7 39.7c-3.1-.1-6.2 0-9.2.2-.7 0-1.3.7-1.1 1.4 1.1 3.3 2.3 6.5 3.5 9.8.6 1.6 1.2 4.2 2.5 5.5 1.3 1.3 4.8.6 6.3.6 1.9 0 4 .3 5.8-.3 1-.3 1.3-1.8 1.6-2.7.9-2.5 1.8-5 2.7-7.4.7-1.8 1.5-3.6 2.1-5.4.2-.7-.4-1.4-1.1-1.4-4.3-.2-8.7-.2-13.1-.3-1.5 0-1.4 2.2 0 2.2 4.4.1 8.8.1 13.2.1-.4-.5-.7-.9-1.1-1.4-1.3 3.8-3 7.5-4.3 11.4-.6 1.8-.8 2.8-2.8 2.8-1.1 0-7.3.6-7.9-.3-2.6-3.7-3.7-9.7-5.2-13.9-.4.5-.7.9-1.1 1.4 3.1-.2 6.2-.3 9.2-.2 1.5.2 1.5-2.1 0-2.1zM26.4 26.1c.3 4.5.5 9 .8 13.5.1 1.4 2.3 1.5 2.2 0-.3-4.5-.5-9-.8-13.5 0-1.4-2.3-1.4-2.2 0zM26.9 24.9c-5.6 0-11.1-.1-16.7-.1-3.1 0-6.8 1-7.2-3.8-.4-4.2 3.4-4.6 6.5-5.3.5-.1.9-.8 1.2-1.2.2-.3.3-.7.4-1.1 1-3.4 3.3-4 6.6-4 .7 0 1.7-.4 2.1-1 2.2-3.3 4.5-5.5 8.7-5.7 3.3-.2 6.3 2.1 8 4.7.6 1 1.2 2 2.5 2.2 2.7.4 4.8 1.5 6.3 4 .7 1.2 1 1.3 2.3 1.6 2.3.4 6.3-.5 6.4 3.7 0 5.3-7.2 5.3-10.8 5.6-5.7.5-11 .7-16.3.4-1.4-.1-1.4 2.2 0 2.2 8.2.5 17 .2 25.1-1.4 4.4-.8 5-7 3.1-10.2-.9-1.4-3.2-2.3-4.8-2.4-3.6-.3-4.3-2.9-7.2-4.7-1.5-.9-3.7-.6-4.9-2.2C37.3 5 36.5 4 35.4 3c-2-1.7-4.6-2.4-7.1-2.6-2.4-.2-5.3 1-7.1 2.5-1.2 1-2 2-2.8 3.3-.8 1.3-3.6.9-5 1.1-1.9.3-3.6 2.6-4.2 4.3-1.1 3-4.7 1.6-6.7 3.6-2.9 2.9-2.5 8.9 1 11.1 2.2 1.4 6.3.6 8.6.6 4.9 0 9.9.1 14.8.1 1.5.1 1.4-2.1 0-2.1zM18 27.5c2.1 2 4.3 3.9 6.4 5.9.9.8 2.4 2.9 3.8 2.7 4.2-.7 7.7-6.1 10-9.3.9-1.2-1.1-2.3-1.9-1.1-1.9 2.5-3.9 4.9-6.2 7-2.7 2.4-8.7-5.1-10.5-6.7-1.1-1.1-2.6.5-1.6 1.5z"/></svg><svg viewBox="0 0 92.4 56.5" enable-background="new 0 0 92.4 56.5" width="92.4" height="56.5" id="icon_usa" y="344"><path fill="#387C42" d="M81.8 22.9c-.1 1.5-.3 3.1 0 4.7.2 1.3 1.1 1.8 0 3.1-.5.6-1.1 1.2-1.6 1.8-1.9 2.6-4.4 5-5.1 8.3-.9 4 2.8 6.7 3.2 10.5.2 2.4-2.2 0-2.5-1-.3-.9 0-1.9-.3-2.8-.4-1.4-1.2-2.3-2.6-2.9-1.6-.7-3.4 0-5.1-.4-1.6-.3-3.5-.7-5.1-.2-1.3.3-2.1.8-2.6 2.1-.7 2-4 .3-5.6.1-.9-.1-2.4-.1-3.2.5-.3.2-.7 1-.9 1.1-.9.4-2 .5-3 .8-1.2.4-1 1.8-1.7 2.6-1.1 1.4-.9 2.8-.6 4.5l.9-1.2c-2 .1-3.3-.1-3.6-2.3-.1-.5-.3-1.1-.8-1.4-1-.6-.9-1.5-1.4-2.4-.5-.8-.9-1.3-1.7-1.8-1.2-.8-2.6-.2-3.5.7-.2.2-.3.5-.5.7-.6.6-.7.7-.2.4-1.4-.6-.9-2.2-1.8-3.1-1-1-1.8-2.5-3.1-3-.9-.4-2.8-.7-3.8-.4-2.9.8-6.3 0-8.8-1.5l-3-1.8c-.6-.4-3.4-.7-3.5-1.4H8.4v.2c.5-.2 1.1-.4 1.6-.7-.9-1.1-2-2-3.2-2.7-.5-.3-2-.7-1.7-1.7.2-.7.1-1.4-.1-2.1-.1-.6-.6-1.3-.8-1.8-.6-1.3-.9-2.7-1.2-4.1-.4-1.9-1.3-4.8-.3-6.6.9-1.1 1-1.7.9-2.7-.3-1.9 1.2-3.9 1.9-5.6.6-1.4.8-2.9.9-4.4 0-.6 0-1.3-.1-1.9-.6-.2-.5-.1.3.2.5.2.9.5 1.4.7.5.2 1.3.1 1.4-.6.2-.9.2-1 .1-2l-1 1c4 .3 7.9 1.5 11.9 2.1 3.9.6 7.8 1 11.7 1.2 4.1.2 8.3.2 12.4.1 2.1-.1 3.6-.2 5.7.3 2.1.6 4.2 1 6.4 1.3V5.6c-1.7.6-3 1.5-4.1 2.9-.3.4-.4 1.2.2 1.5.3.1 2 .3 1.8 0 .3.4.6.5 1.1.4.4-.1 4.7-2.2 4.6-1.5 0 .5.5 1 1 .9.7 0 1.3 0 2-.1 1.2.3 1.3-.1.5-1-.8 0-1.4.3-2.1.6-1.1.5-1.5 1.9-1.6 2.9 0 .5.4 1 1 .9.2 0 .4 0 .6-.1-.3-.5-.5-1-.8-1.4-.8 1.7-1.4 3.7-1.2 5.6.2 1.2.8 3.3 2.4 3.3 1 0 2.3-.8 2.2-2-.1-1-.4-1.8-.7-2.7-.4-1.3.3-2.2 1.1-3.1 1.6-1.9 1.7.8 1.6 1.6-.2 1 .8 1.5 1.6.9.2-.2-.6 3-.7 3.2-.2.6-.1 1.2.6 1.4 3 .9 8.4-.6 8-4.7-.1-.9.4-.4 1.2-.6.9-.3 1.4-.6 1.9-1.3.7-1-.1-2.3-1.1-2.5.2.5.4.9.6 1.4.9-1.4 2.1-2.3 3.7-2.9 1-.3 2-.4 3-1.3.7-.6 1-1.6 1.2-2.4.1-.5.2-1.2.2-1.7 0-.6-.6-1.4-.3-1.2.5.3 1 .3 1.6.1.4-.1 1.4 2.1 1.8 2.5 1.3 1.4-.1 1.7-1 2.6-.9.8-1.6 1.7-2.1 2.9-.2.4-.2.9.1 1.2-.1-.1-.2-.2-.2.7 0 .4.2.9.5 1.2.7.9.8-.1.1.3-.9.6-1.6 1.3-2.6 1.8-1.2.5-1.9 1.6-1.7 2.9.1 1.2.7 2.2-.5 3.2-.3.1-.3.6-.3.9-.1 1.2 1.8 1.2 1.9 0 0-.2 1-1.4 1.1-2.2.1-.6 0-1.2-.1-1.7-.3-1.6 1.3-1.7 2.1-2.3.7-.5 2.3-.8 2.6-1.7.6-1.5-1.4-1.9-1-3.4.1-.3 0-.7-.2-.9-.1-.1-.2-.1-.2-.2 0 .4.1.8.1 1.2C88.7 9.9 90 9 91.3 8c.7-.6 1.1-1.9.6-2.7-.2-.4-.4-.7-.8-1-.5-.8-.7-1.5-1.1-2.3-.4-.9-1.3-1.7-2.3-1.3-.8.3-1.2-.5-2.1-.3-1.2.3-1.1 1.7-1.1 2.7 0 2-.2 3.6-2.4 4.2-.8.2-1.5.5-2.3.8-1.4.6-2.5 1.9-3.4 3.1-.3.5 0 1.2.6 1.4.6.1.2.2-1.1.2-.6.2-.9.2-1.4.3-.4.1-.9.6-1.1 1-.2.7.2 1.5-.1 2.1-.9 2-3.4 2.4-5.3 1.8.2.5.4.9.6 1.4.6-1.4 1.5-3.2 1.1-4.8-.4-1.7-2.2-1.7-3.4-.7.5.3 1.1.6 1.6.9.3-1.3.4-2.8-.6-3.9-1-1-2.6-.9-3.6-.1-1.3 1.1-2.7 2.9-2.2 4.8.1.4 1 4.3.1 2.1-.7-1.7.1-3.8.8-5.3.3-.6 0-1.5-.8-1.4-.2 0-.4 0-.6.1.3.3.6.6 1 .9 0-1.3 2.3-1.6 3.4-1.7.3-.1.6-.4.7-.7.8-2.7-3.4-2-4.8-1.9.3.3.6.6.9 1 .1-1.1-.4-2-1.6-2.3-2-.5-3.7 1.7-5.4 2 .1.3.5.5.8.6-.3-.4-.6-.8-1.1-.9-.4-.1-1.1.3-1.4.2.1.5.1 1 .2 1.5.9-1.1 1.9-1.9 3.3-2.4.8-.3 1-1.7 0-1.8-1.8-.3-3.7-.6-5.5-1.1-1.5-.4-2.7-.9-4.2-.8-4.4.3-8.9.3-13.4.2-4.7-.2-9.4-.6-14-1.3C16.1 2 12.4.8 8.5.5c-.5 0-1 .5-1 1V3c.5-.3 1-.5 1.4-.7-1-.5-2.1-1.1-3.2-1.5-.3-.1-.7 0-.9.2-.9 1-.4 2-.3 3.2.3 2.6-.9 4.9-2 7.2-.5 1-1.2 2.6-.9 3.8.4 1.3-1.2 2-1.1 3.2.5 3.9 1 8.1 2.8 11.6.9 1.7-.2 2.8 1 4.3.4.5 1.4.9 2 1.2 1.1.6 2 1.5 2.8 2.4.5.6 1.7.1 1.6-.7V37c-.1-1.2-2-1.2-1.9 0 .2 1.6 1.1 2.5 2.8 2.7 2.7.3 4.9 2.7 7.4 3.7 2 .8 5.4.9 7.4.2 1.9-.7 3 1.7 4.4 2.5.8.5 1 2.2 1.7 2.9.5.5 1.1 1 1.9 1.2.3.1.6 0 .9-.2.2-.2.4-.3.6-.5.6-.5 1.4-3.6 3 .1.4.8.5 1.4 1.1 2.1.7.9.7 1.5 1.1 2.5.8 2 3.3 2.1 5.1 2 .6 0 1-.6.9-1.2-.3-1.4-.1-2.3.8-3.5.2-.3.2-1.3.6-1.4 1-.3 2.5-.2 3.3-1 1.4-1.4 2.8-1.4 4.6-.7 1.3.5 3.1.5 4.3-.1 1.5-.7 1-2.6 3-2.8 2.1-.2 3.9.6 6 .4 3.6-.4 3.8 2.1 4.2 4.7.2 1.3 1.3 2.3 2.3 3 1.8 1.2 3.7.4 3.9-1.6.5-4.4-4-7.3-3.1-11.6.4-1.7 1.7-3.7 3.1-4.8.5-.4.8-1.1 1.2-1.7.6-1 1.4-1.7 2.2-2.6.6-.7 1.1-1.7 1-2.6-.2-.9-.9-1.7-.9-2.6 0-1.1.1-2.3.1-3.4 0-1-1.9-1-1.9.2z"/></svg><svg viewBox="0 0 41.8 34.6" enable-background="new 0 0 41.8 34.6" width="41.8" height="34.6" id="icons_ambulance" y="401"><g fill="#ccc"><path d="M40.1 6.1H24.2v-.8c0-2.3-1.9-4.2-4.2-4.2S15.8 3 15.8 5.3v4.2H9.1c-.3 0-.6.2-.7.4l-4.1 7.4L1 20.6c-.2.2-.2.4-.2.6v9.2c0 .5.4.8.8.8H5c.4 1.9 2.1 3.3 4.1 3.3s3.7-1.4 4.1-3.3h15.2c.4 1.9 2.1 3.3 4.1 3.3s3.7-1.4 4.1-3.3H40c.5 0 .8-.4.8-.8V7c.1-.5-.2-.9-.7-.9zm-.8 20.1H17.5V7.8h21.8v18.4zm-10.8 3.4H13.2c-.1-.6-.4-1.2-.8-1.7h16.8c-.3.5-.6 1-.7 1.7zm-11-24.3c0-1.4 1.1-2.5 2.5-2.5s2.5 1.1 2.5 2.5v.8h-5v-.8zm-12 13.1c.1-.1.1-.1.1-.2l3.9-7.1h6.2v15.1H2.4v-4.7l3.1-3.1zm-3.1 9.5h3.4c-.4.5-.6 1.1-.8 1.7H2.4v-1.7zm6.7 5c-1.4 0-2.5-1.1-2.5-2.5s1.1-2.5 2.5-2.5 2.5 1.1 2.5 2.5-1.1 2.5-2.5 2.5zm23.5 0c-1.4 0-2.5-1.1-2.5-2.5s1.1-2.5 2.5-2.5 2.5 1.1 2.5 2.5-1.2 2.5-2.5 2.5zm4.1-3.3c-.1-.6-.4-1.2-.8-1.7h3.4v1.7h-2.6zM7.9 19.4c.1.1.2.1.4.1.3 0 .6-.2.7-.5l2.3-4.6h2c.5 0 .8-.4.8-.8s-.4-.8-.8-.8h-2.5c-.3 0-.6.2-.7.5l-2.5 5c-.3.4-.1.9.3 1.1zM22.5 15.3v3.3c0 .5.4.8.8.8h2.5V22c0 .5.4.8.8.8H30c.5 0 .8-.4.8-.8v-2.5h2.5c.5 0 .8-.4.8-.8v-3.3c0-.5-.4-.8-.8-.8h-2.5V12c0-.5-.4-.8-.8-.8h-3.3c-.5 0-.8.4-.8.8v2.5h-2.5c-.5 0-.9.4-.9.8zm1.7.9h2.5c.5 0 .8-.4.8-.8v-2.5h1.7v2.5c0 .5.4.8.8.8h2.5v1.7H30c-.5 0-.8.4-.8.8v2.5h-1.7v-2.5c0-.5-.4-.8-.8-.8h-2.5v-1.7z"/></g></svg><svg viewBox="0 0 34.4 32.9" enable-background="new 0 0 34.4 32.9" width="34.4" height="32.9" id="icons_heart" y="436"><g fill="#ccc"><path d="M33.7 18.7H23c-.3 0-.5.2-.6.4L21 21.7l-2.4-8.3c-.1-.3-.3-.5-.6-.5s-.6.1-.7.4l-3 6.1-2.2-3.3c-.1-.2-.3-.3-.6-.3-.2 0-.5.1-.6.3L9 18.7H.7c-.4 0-.7.3-.7.7 0 .4.3.7.7.7h8.6c.2 0 .4-.1.6-.3l1.5-2.1 2.3 3.5c.1.2.4.3.6.3.3 0 .5-.2.6-.4l2.8-5.5 2.4 8.3c.1.3.3.5.6.5h.1c.3 0 .5-.2.6-.4l2-3.9h10.3c.4 0 .7-.3.7-.7 0-.4-.3-.7-.7-.7zM3.5 17.2c.1 0 .2 0 .3-.1.4-.1.5-.6.4-.9-.8-2-1.3-4-1.3-5.9 0-5.7 3.2-8.5 6.3-8.7 3.1-.2 6.5 1.9 7.3 7.2.1.3.4.6.7.6.4 0 .7-.3.7-.6.8-5.3 4.4-7.5 7.5-7.2 3 .2 6.1 2.8 6.1 8 0 2.1-.6 4.4-1.7 6.8-.2.4 0 .8.3 1 .4.2.8 0 1-.3C32.3 14.5 33 12 33 9.7c0-4.3-2.3-9-7.4-9.4-3.1-.2-6.7 1.5-8.3 5.7C15.7 1.8 12.2.1 9.2.3c-3.9.1-7.8 3.4-7.8 10 0 2.1.5 4.3 1.4 6.5.1.3.4.4.7.4zM26.4 21.8c-3.5 4.7-7.9 8.3-9.2 9.4-1.4-1-6.2-4.6-9.8-9.4-.2-.3-.7-.4-1-.1-.3.2-.4.7-.1 1 4.5 6 10.4 9.9 10.6 10.1.1.1.3.1.4.1.2 0 .3-.1.4-.1.2-.2 5.5-4.3 9.9-10 .2-.3.2-.8-.1-1-.4-.4-.9-.3-1.1 0z"/></g></svg><svg viewBox="0 0 45.3 44.2" enable-background="new 0 0 45.3 44.2" width="45.3" height="44.2" id="icons_umbrella" y="469"><path fill="#ccc" d="M37.9 11.2C34 7.1 28.8 4.8 23.2 4.5V1.8c0-.5-.4-.9-.9-.9s-.9.4-.9.9v2.7c-5.6.2-10.8 2.6-14.7 6.6C2.6 15.4.5 21 .7 26.9c0 .5.4.9.9.9s.9-.4.9-.9c0-.3.1-2.7 3.6-2.7 3.7 0 4.5 2.8 4.5 2.9.1.4.5.7.9.7s.8-.3.9-.7c0 0 .8-2.9 4.5-2.9 3.4 0 4.3 2.3 4.5 2.8v13.4c0 1.9 1.6 2.9 3.1 2.9s3.1-1 3.1-2.9c0-.5-.4-.9-.9-.9s-.9.4-.9.9c0 1.1-1.2 1.1-1.3 1.1s-1.3 0-1.3-1.1V27.2c.4-.6 1.9-2.9 4.5-2.9 3 0 4.6 3.1 4.6 3.1.2.3.5.5.8.5.3 0 .7-.2.8-.5 0 0 1.6-3.1 4.6-3.1 2.8 0 3.6 2.8 3.6 2.9.1.4.5.7.9.7h.1c.4 0 .8-.4.8-.9.3-5.9-1.9-11.5-6-15.8zm.6 11.3c-2.7 0-4.4 1.7-5.4 2.9-.9-1.2-2.7-2.9-5.4-2.9-2.5 0-4.3 1.5-5.3 2.7-.9-1.3-2.6-2.7-5.5-2.7-2.7 0-4.5 1.2-5.4 2.5-.9-1.3-2.7-2.5-5.4-2.5-1.4 0-2.5.3-3.4.9.5-4.1 2.4-7.9 5.3-11 3.8-3.9 8.8-6.1 14.3-6.1 5.4 0 10.5 2.2 14.3 6.1 3 3.2 4.9 7.1 5.3 11.3-.8-.7-1.9-1.2-3.4-1.2z"/></svg><svg viewBox="0 0 38.2 42" enable-background="new 0 0 38.2 42" width="38.2" height="42" id="icons_vision" y="514"><g fill="#ccc"><path d="M26.3 30.1c-2.6 0-4.8 1.6-5.6 3.9-.5-.4-1-.6-1.7-.6-.6 0-1.2.2-1.7.6-.8-2.3-3-3.9-5.6-3.9-3.3 0-6 2.7-6 6s2.7 6 6 6 6-2.7 6-6c0-.7.6-1.3 1.3-1.3.7 0 1.3.6 1.3 1.3 0 3.3 2.7 6 6 6s6-2.7 6-6c-.1-3.3-2.8-6-6-6zM11.7 40.7C9.1 40.7 7 38.6 7 36s2.1-4.6 4.6-4.6 4.6 2.1 4.6 4.6c.1 2.6-2 4.7-4.5 4.7zm14.6 0c-2.6 0-4.6-2.1-4.6-4.6 0-2.6 2.1-4.6 4.6-4.6s4.6 2.1 4.6 4.6c0 2.5-2.1 4.6-4.6 4.6zM4.7 32.1c-.3-.2-.7 0-.9.3-.5 1.2-.8 2.4-.8 3.6 0 .4.3.7.7.7s.7-.3.7-.7c0-1 .2-2 .6-3 .2-.3 0-.7-.3-.9zM34.1 32.5c-.2-.3-.5-.5-.9-.3-.3.2-.5.5-.3.9.4 1 .7 2 .7 3 0 .4.3.7.7.7.4 0 .7-.3.7-.7-.1-1.3-.4-2.5-.9-3.6zM36.6 16.9c-.4 0-.8.3-.8.8 0 2.9-2 5.2-4.6 5.9V13.1C31.2 6.3 25.7.8 18.9.8S6.7 6.3 6.7 13.1v10.5c-2.6-.7-4.6-3.1-4.6-5.9 0-.4-.3-.8-.8-.8s-.8.3-.8.8c0 4.2 3.4 7.7 7.7 7.7h21.5c4.2 0 7.7-3.4 7.7-7.7 0-.4-.4-.8-.8-.8zM19 2.3c5.9 0 10.7 4.8 10.7 10.7v6.1H8.2V13C8.2 7.2 13 2.3 19 2.3zM8.2 23.8v-3.1h21.5v3.1H8.2z"/></g></svg><svg viewBox="0 0 29.3 45.2" enable-background="new 0 0 29.3 45.2" width="29.3" height="45.2" id="icons_watch" y="556"><g fill="#ccc"><path d="M29.3 22.6c0-5-2.6-9.4-6.6-11.9V.9c0-.5-.4-.9-.9-.9H8.6c-.6 0-1 .4-1 .9v9.7c-3.9 2.6-6.6 7-6.6 12S3.7 32 7.6 34.5v9.7c0 .5.4.9.9.9h13.2c.5 0 .9-.4.9-.9v-9.7c4-2.5 6.7-6.9 6.7-11.9zM9.5 1.9h11.3v7.8c-1.7-.8-3.6-1.2-5.6-1.2-2 0-3.9.4-5.6 1.2V1.9zm11.3 41.4H9.5v-7.8c1.7.8 3.6 1.2 5.6 1.2 2 0 3.9-.4 5.6-1.2v7.8zm-5.6-8.5C8.5 34.8 3 29.3 3 22.6s5.5-12.2 12.2-12.2c6.7 0 12.2 5.5 12.2 12.2s-5.5 12.2-12.2 12.2zM15.2 22.2V17c0-.5-.4-.9-.9-.9s-.9.4-.9.9v5.6c0 .3.1.5.3.7l6.6 5.6c.2.2.4.2.6.2.3 0 .5-.1.7-.3.3-.4.3-1-.1-1.3l-6.3-5.3z"/></g></svg><svg viewBox="0 0 139.2 22.1" enable-background="new 0 0 139.2 22.1" width="139.2" height="22.1" id="kaiserpermanente" y="602"><g fill-rule="evenodd" clip-rule="evenodd" fill="#027DAA"><path d="M14.8 6.6c-.3-.2-.6-.4-.9-.5l-.5 10.5L16 9.4c.2-1.2-.4-2.1-1.2-2.8zM12 5.3c1.9 0 2.6-1.3 2.6-2.6C14.7.8 13.5 0 12 0S9.4.8 9.4 2.8c0 1 .5 2.5 2.6 2.5zm-5.5-.6c.1-3.2-4.8-3.1-4.6 0-.3 3.2 4.9 3.3 4.6 0zm15.2 1.7c.1-3.2-4.6-3.2-4.5 0-.1 2.9 4.6 3 4.5 0zm0 0zM23.5 22v-2.1c-1.7.8-3.3 1.4-4.9 2.1h4.9zM0 22h5.3L0 19.7V22zm23.5-2.6v-2.2c-1.7 1.1-3.5 2.2-5 3.3l5-1.1zM0 19.2c1.8.4 3.8.9 5.5 1.2L0 16.9v2.3zm23.5-2.5v-2.9l-5.7 5.6c1.9-.9 3.7-1.8 5.7-2.7zM0 16.5l6 2.8c-2-2-4-3.9-6-5.9v3.1zm23.1-5.1c-.1-.3-.3-.5-.5-.8l-5.7 7.8c2.3-1.7 4.5-3.4 6.6-5.1 0-.7-.1-1.4-.4-1.9zM0 12.9c2.3 1.8 4.6 3.6 7 5.4L.7 9.4c-.6 1-.8 2.2-.7 3.5zm19.5-3.8l-3.7 8.4 6.6-7.2c-.8-.8-1.8-1.1-2.9-1.2zm-3.8 2.3L14.6 17c1.5-2.6 3-5.2 4.5-7.9-1.5.2-2.9.7-3.4 2.3zM.9 9.1L8 17.4 3.6 7.7c-1.1 0-2.1.6-2.7 1.4zM4 7.6c1.7 3 3.5 6.3 5.2 9.2-.6-2.5-1.2-6.8-2.1-8C6.1 7.4 4 7.6 4 7.6zm5.2-1c-.8.7-1.4 1.6-1.2 2.7l2.6 7.2-.5-10.4c-.3.1-.7.3-.9.5zm1.3-.6L12 16.4 13.5 6c-.9-.3-2-.3-3 0zM39.7 22h1.4v-8.3h-1.4V22zm7.8-2.4c0-1.2-.7-1.9-2.2-2.5-1.1-.4-1.7-.7-1.7-1.4 0-.5.5-1.1 1.6-1.1.7 0 1.4.2 1.7.4v-1c-.3-.2-1.1-.4-1.7-.4-1.8 0-3 1-3 2.3 0 1.2.9 1.9 2.3 2.4 1.1.4 1.6.7 1.6 1.4s-.6 1.2-1.6 1.2c-.7 0-1.7-.2-2.2-.6v1.3c.4.2 1.3.5 2.2.5 2 0 3-1.2 3-2.5zm8.1-1.1h.7l2.1 3.5h1.7l-2.2-3.6c.5-.1.9-.3 1.1-.6.4-.4.8-1 .8-1.7 0-.8-.3-1.4-.8-1.7-.5-.4-1.2-.6-2.4-.6h-2.4v7.1h-4.4v-2.4h2.6v-1.2h-2.6v-2.4H53v-1.2h-4.5V22h7.2v-3.5h-.1zm0-1.3v-2.3h1.2c1.1 0 1.5.4 1.5 1.2 0 .8-.4 1.2-1.5 1.2l-1.2-.1zm-18.7 2.4l.8 2.4h1.5l-2.9-8.3h-1.8l-2.4 7-2.4-3 3.2-4h-1.7l-2.9 3.9v-3.9h-1.4V22h1.4v-4l3 4H33l.8-2.4h3.1zM35.4 15l1.2 3.4h-2.3l1.1-3.4zM88.4 19.7l-1.4-6h-2.6V22h1.4v-7.1l1.8 7.1h1.5l1.8-7.1V22h1.4v-8.3h-2.4l-1.5 6zm46.8.1c0-1 .8-1.8 1.8-1.8s1.8.8 1.8 1.8-.8 1.8-1.8 1.8-1.8-.8-1.8-1.8zM137 22c1.2 0 2.2-1 2.2-2.2 0-1.3-1-2.2-2.2-2.2-1.2 0-2.2 1-2.2 2.2 0 1.3 1 2.2 2.2 2.2zm-.5-2h.5l.6 1.1h.5l-.8-1.1c.4-.1.7-.2.7-.7 0-.5-.3-.7-1-.7h-1v2.6h.4V20h.1zm0-.4v-.8h.6c.2 0 .6.1.6.4 0 .4-.3.4-.6.4h-.6zM70 14.3c-.5-.4-1.2-.6-2.4-.6h-2.4V22h1.4v-3.4h1c1.2 0 1.9-.2 2.4-.6.4-.4.8-1.1.8-1.9 0-.8-.3-1.4-.8-1.8zm-2.2 3h-1.2v-2.4h1.2c1.1 0 1.6.5 1.6 1.2s-.5 1.2-1.6 1.2zm14.5.5c.4-.4.8-1 .8-1.8 0-.7-.4-1.4-.8-1.7-.5-.4-1.2-.6-2.4-.6h-2.4v7h-4.4v-2.3h2.6v-1.2h-2.6v-2.3h3.1v-1.2h-4.5V22H79v-3.5h.7c.7 1.1 2.1 3.5 2.1 3.5h1.7l-2.2-3.7c.4 0 .7-.2 1-.5zm-3.3-.5v-2.4h1.2c1.1 0 1.6.4 1.6 1.1 0 .8-.4 1.2-1.6 1.2H79v.1zm41.6-3.6h-.2v6.5l-3.3-6.5h-1.9v7.1h-4.4v-2.3h2.6v-1.2h-2.6V15h3.1v-1.2h-4.5V22h7.1v-6.3l3.3 6.3h1.9v-7.1h2.6V22h1.4v-7.1h2.5l-.1-1.2h-7.5zm13.1 7.1h-3.4v-2.3h2.5v-1.2h-2.5V15h3.1v-1.2h-4.5V22h4.9v-1.2h-.1zm-27.3-.7l-3.3-6.4h-1.9V22h1.4v-6.3l3.3 6.3h1.9v-8.3h-1.4v6.4zm-10.5-6.4L93 22h1.4l.7-2.4h3l.8 2.4h1.5l-2.9-8.3h-1.6zm-.3 4.8l1.1-3.5 1.2 3.5h-2.3z"/></g></svg></svg>