<?xml version="1.0" encoding="utf-8"?>
<!-- Generator: Adobe Illustrator 18.0.0, SVG Export Plug-In . SVG Version: 6.00 Build 0)  -->
<!DOCTYPE svg PUBLIC "-//W3C//DTD SVG 1.1//EN" "http://www.w3.org/Graphics/SVG/1.1/DTD/svg11.dtd">
<svg version="1.1" xmlns="http://www.w3.org/2000/svg" xmlns:xlink="http://www.w3.org/1999/xlink" x="0px" y="0px"
	 viewBox="0 0 127.2 36" enable-background="new 0 0 127.2 36" xml:space="preserve">
<g id="Layer_1">
	<g id="Layer_2">
	</g>
</g>
<g id="Layer_5" display="none">
</g>
<g id="panel1">
	<g>
		<path fill-rule="evenodd" clip-rule="evenodd" fill="#0391D8" d="M75.5,13.8c-1.9,0-3.4,0.4-5,1.2c0-4.4,0-8.4,0.1-9.8l-9.2,1.7
			v0.8l1,0.1c1.2,0.3,1.7,1,1.9,2.6c0.3,3.3,0.1,20.9,0,23.8c2.5,0.6,5.1,1,7.7,1c7.3,0,11.7-4.5,11.7-11.7
			C83.8,17.9,80.2,13.8,75.5,13.8L75.5,13.8z M72.3,33.7c-0.6,0-1.2,0-1.7-0.1c-0.1-1.9-0.3-10.1-0.1-17.2c0.8-0.3,1.4-0.4,2.1-0.4
			c3,0,4.7,3.6,4.7,8C77.3,29.5,75.2,33.7,72.3,33.7L72.3,33.7z"/>
		<path fill-rule="evenodd" clip-rule="evenodd" fill="#0391D8" d="M26.7,5.8H2.5V7l1.4,0.1c1.8,0.3,2.5,1.4,2.8,4
			c0.4,5,0.3,13.9,0,18.2c-0.3,2.6-1,3.9-2.8,4l-1.4,0.3v1.1H18v-1.1l-1.7-0.3c-1.8-0.1-2.5-1.4-2.8-4c-0.1-1.8-0.3-4.7-0.3-8.3
			l3.3,0.1c2.1,0,3,1.7,3.4,4h1.2v-9.8h-1.2c-0.4,2.3-1.4,4-3.4,4l-3.3,0.1c0-4.7,0.1-9.1,0.3-11.7h4.8c3.7,0,5.6,2.3,7,6.5l1.4-0.4
			L26.7,5.8L26.7,5.8z"/>
		<path fill-rule="evenodd" clip-rule="evenodd" fill="#0391D8" d="M34.6,13.5c6.9,0,10.3,4.7,10.3,10.9c0,5.9-3.9,10.9-10.7,10.9
			c-6.9,0-10.3-4.7-10.3-10.9C23.8,18.5,27.7,13.5,34.6,13.5L34.6,13.5z M34.2,14.9c-3,0-3.9,4.1-3.9,9.5c0,5.2,1.4,9.5,4.1,9.5
			c3.2,0,4-4.1,4-9.5C38.4,19.1,37,14.9,34.2,14.9L34.2,14.9z"/>
		<path fill-rule="evenodd" clip-rule="evenodd" fill="#0391D8" d="M85.5,24.5c0-5.6,3.6-11,10.6-11c5.8,0,8.5,4.3,8.5,9.9H91.9
			c-0.1,5.1,2.3,8.8,7.3,8.8c2.2,0,3.3-0.6,4.7-1.5l0.6,0.7c-1.4,1.9-4.4,3.9-8.3,3.9C90,35.3,85.5,30.9,85.5,24.5L85.5,24.5z
			 M91.9,21.9l6.5-0.1c0-2.8-0.4-6.9-2.8-6.9C93.3,14.9,92,18.7,91.9,21.9L91.9,21.9z"/>
		<path fill-rule="evenodd" clip-rule="evenodd" fill="#0391D8" d="M121.1,14.6c-1.7-0.7-3.9-1.1-6.3-1.1c-5.1,0-8.3,3-8.3,6.6
			c0,3.6,2.3,5.1,5.6,6.2c3.4,1.2,4.4,2.2,4.4,3.9c0,1.7-1.2,3.2-3.4,3.2c-2.6,0-4.5-1.5-6.1-5.6l-1,0.3l0.1,6.1
			c1.7,0.7,4.7,1.2,7.3,1.2c5.4,0,8.8-2.8,8.8-7c0-2.9-1.5-4.5-5.1-5.9c-3.9-1.5-5.2-2.5-5.2-4.3c0-1.8,1.2-3,2.9-3
			c2.5,0,4.1,1.5,5.4,5.2l1-0.3L121.1,14.6L121.1,14.6z"/>
		<path fill-rule="evenodd" clip-rule="evenodd" fill="#0391D8" d="M62.8,14c-2.3-1.4-6.5-0.7-8.7,4.3l0.1-4.8L45,15.3v0.8l1,0.1
			c1.2,0.1,1.8,0.8,1.9,2.6c0.3,3.3,0.1,9.1,0,12c-0.1,1.7-0.7,2.5-1.9,2.6l-1,0.1v1.1h12.8v-1.1l-1.7-0.1c-1.4-0.1-1.8-1-1.9-2.6
			C54,28.2,54,23,54.1,19.7c0.7-1,3.7-1.8,6.5,0L62.8,14L62.8,14z"/>
	</g>
</g>
<g id="Layer_4">
</g>
</svg>
