<?xml version="1.0" encoding="utf-8"?>
<!-- Generator: Adobe Illustrator 18.0.0, SVG Export Plug-In . SVG Version: 6.00 Build 0)  -->
<!DOCTYPE svg PUBLIC "-//W3C//DTD SVG 1.1//EN" "http://www.w3.org/Graphics/SVG/1.1/DTD/svg11.dtd">
<svg version="1.1" xmlns="http://www.w3.org/2000/svg" xmlns:xlink="http://www.w3.org/1999/xlink" x="0px" y="0px"
	 viewBox="0 0 26.4 25" enable-background="new 0 0 26.4 25" xml:space="preserve">
<g id="Layer_1">
	<g id="Layer_2">
	</g>
</g>
<g id="Layer_5" display="none">
</g>
<g id="panel1">
	<g>
		<g>
			<path fill="#FFFFFF" d="M25.9,14.6H18c-0.2,0-0.4,0.1-0.5,0.3l-1,1.9l-1.7-6.1c-0.1-0.2-0.2-0.4-0.5-0.4c-0.2,0-0.4,0.1-0.5,0.3
				l-2.2,4.5L10,12.7c-0.1-0.1-0.3-0.2-0.4-0.2c-0.2,0-0.3,0.1-0.4,0.2l-1.4,1.9H1.7c-0.3,0-0.5,0.2-0.5,0.5c0,0.3,0.2,0.5,0.5,0.5
				H8c0.2,0,0.3-0.1,0.4-0.2l1.1-1.5l1.7,2.5c0.1,0.2,0.3,0.2,0.5,0.2c0.2,0,0.4-0.1,0.4-0.3l2-4.1l1.7,6.1c0.1,0.2,0.2,0.4,0.5,0.4
				c0,0,0,0,0,0c0.2,0,0.4-0.1,0.5-0.3l1.4-2.9h7.6c0.3,0,0.5-0.2,0.5-0.5C26.4,14.8,26.2,14.6,25.9,14.6z"/>
			<path fill="#FFFFFF" d="M3.7,13.5c0.1,0,0.1,0,0.2,0c0.3-0.1,0.4-0.4,0.3-0.7c-0.6-1.5-0.9-3-0.9-4.4c0-4.2,2.3-6.2,4.6-6.4
				c2.2-0.2,4.8,1.4,5.4,5.2c0,0.3,0.3,0.4,0.5,0.4c0.3,0,0.5-0.2,0.5-0.4c0.6-3.9,3.2-5.5,5.5-5.3c2.2,0.2,4.5,2,4.5,5.9
				c0,1.5-0.4,3.2-1.3,5c-0.1,0.3,0,0.6,0.3,0.7c0.3,0.1,0.6,0,0.7-0.3c0.9-1.9,1.4-3.7,1.4-5.4c0-3.1-1.7-6.6-5.5-6.9
				C17.6,0.7,15,2,13.8,5.1C12.6,2,10,0.8,7.8,0.9C5,1.2,2.2,3.6,2.2,8.4c0,1.5,0.3,3.1,1,4.8C3.3,13.4,3.5,13.5,3.7,13.5z"/>
			<path fill="#FFFFFF" d="M20.5,16.9c-2.6,3.4-5.8,6.1-6.7,6.9c-1.1-0.7-4.5-3.4-7.2-6.9c-0.2-0.2-0.5-0.3-0.7-0.1
				c-0.2,0.2-0.3,0.5-0.1,0.7c3.3,4.4,7.6,7.3,7.8,7.4c0.1,0.1,0.2,0.1,0.3,0.1c0.1,0,0.2,0,0.3-0.1c0.2-0.1,4-3.2,7.2-7.4
				c0.2-0.2,0.1-0.6-0.1-0.7C21,16.6,20.7,16.6,20.5,16.9z"/>
		</g>
	</g>
</g>
<g id="Layer_4">
</g>
</svg>
