<?xml version="1.0" encoding="utf-8"?>
<!-- Generator: Adobe Illustrator 18.0.0, SVG Export Plug-In . SVG Version: 6.00 Build 0)  -->
<!DOCTYPE svg PUBLIC "-//W3C//DTD SVG 1.1//EN" "http://www.w3.org/Graphics/SVG/1.1/DTD/svg11.dtd">
<svg version="1.1" xmlns="http://www.w3.org/2000/svg" xmlns:xlink="http://www.w3.org/1999/xlink" x="0px" y="0px"
	 viewBox="0 0 22.5 34.8" enable-background="new 0 0 22.5 34.8" xml:space="preserve">
<g id="Layer_1">
	<g id="Layer_2">
	</g>
</g>
<g id="Layer_5" display="none">
</g>
<g id="panel1">
	<g>
		<g>
			<path fill="#FFFFFF" d="M21.7,17.3c0-3.7-1.9-6.9-4.8-8.8V1.5c0-0.4-0.3-0.7-0.7-0.7H6.5c-0.4,0-0.7,0.3-0.7,0.7v7.1
				c-2.9,1.8-4.8,5.1-4.8,8.8s1.9,6.9,4.8,8.8v7.1c0,0.4,0.3,0.7,0.7,0.7h9.7c0.4,0,0.7-0.3,0.7-0.7v-7.1
				C19.7,24.3,21.7,21,21.7,17.3z M7.1,2.1h8.3v5.7C14.2,7.3,12.8,7,11.3,7C9.8,7,8.4,7.3,7.1,7.8V2.1z M15.4,32.5H7.1v-5.7
				c1.3,0.6,2.7,0.9,4.1,0.9c1.5,0,2.9-0.3,4.1-0.9V32.5z M11.3,26.3c-5,0-9-4-9-9s4-9,9-9c5,0,9,4,9,9S16.2,26.3,11.3,26.3z"/>
			<path fill="#FFFFFF" d="M11.3,17v-3.8c0-0.4-0.3-0.7-0.7-0.7c-0.4,0-0.7,0.3-0.7,0.7v4.1c0,0.2,0.1,0.4,0.2,0.5L15,22
				c0.1,0.1,0.3,0.2,0.4,0.2c0.2,0,0.4-0.1,0.5-0.2c0.2-0.3,0.2-0.7-0.1-1L11.3,17z"/>
		</g>
	</g>
</g>
<g id="Layer_4">
</g>
</svg>
