<?xml version="1.0" encoding="utf-8"?>
<!-- Generator: Adobe Illustrator 18.0.0, SVG Export Plug-In . SVG Version: 6.00 Build 0)  -->
<!DOCTYPE svg PUBLIC "-//W3C//DTD SVG 1.1//EN" "http://www.w3.org/Graphics/SVG/1.1/DTD/svg11.dtd">
<svg version="1.1" xmlns="http://www.w3.org/2000/svg" xmlns:xlink="http://www.w3.org/1999/xlink" x="0px" y="0px"
	 viewBox="0 0 31.5 25.5" enable-background="new 0 0 31.5 25.5" xml:space="preserve">
<g id="Layer_1">
	<g id="Layer_2">
	</g>
</g>
<g id="Layer_5" display="none">
</g>
<g id="panel1">
	<g>
		<g>
			<path fill="#FFFFFF" d="M30.1,3.7H18.4V3.1C18.4,1.4,17,0,15.3,0s-3.1,1.4-3.1,3.1v1.2v1.8H7.4c-0.2,0-0.4,0.1-0.5,0.3l-3,5.5
				l-2.4,2.4c-0.1,0.1-0.2,0.3-0.2,0.4v6.8c0,0.3,0.3,0.6,0.6,0.6h2.5c0.3,1.4,1.5,2.5,3,2.5s2.7-1.1,3-2.5h11.2
				c0.3,1.4,1.5,2.5,3,2.5c1.5,0,2.7-1.1,3-2.5h2.5c0.3,0,0.6-0.3,0.6-0.6V4.3C30.7,4,30.4,3.7,30.1,3.7z M29.5,18.4h-16V6.8V4.9
				h4.3h11.7V18.4z M21.5,20.9H10.4c-0.1-0.5-0.3-0.9-0.6-1.2h12.3C21.8,20,21.6,20.4,21.5,20.9z M13.5,3.1c0-1,0.8-1.8,1.8-1.8
				s1.8,0.8,1.8,1.8v0.6h-3.7V3.1z M4.7,12.7c0,0,0.1-0.1,0.1-0.1l2.9-5.2h4.6v11.1H2.4V15L4.7,12.7z M2.4,19.7h2.5
				c-0.3,0.4-0.5,0.8-0.6,1.2H2.4V19.7z M7.4,23.3c-1,0-1.8-0.8-1.8-1.8c0-1,0.8-1.8,1.8-1.8s1.8,0.8,1.8,1.8
				C9.2,22.5,8.4,23.3,7.4,23.3z M24.6,23.3c-1,0-1.8-0.8-1.8-1.8c0-1,0.8-1.8,1.8-1.8c1,0,1.8,0.8,1.8,1.8
				C26.4,22.5,25.6,23.3,24.6,23.3z M27.6,20.9c-0.1-0.5-0.3-0.9-0.6-1.2h2.5v1.2H27.6z"/>
			<path fill="#FFFFFF" d="M6.5,13.5c0.1,0,0.2,0.1,0.3,0.1c0.2,0,0.4-0.1,0.6-0.3L9,9.8h1.5c0.3,0,0.6-0.3,0.6-0.6
				s-0.3-0.6-0.6-0.6H8.6C8.3,8.6,8.1,8.7,8,8.9l-1.8,3.7C6,12.9,6.2,13.3,6.5,13.5z"/>
			<path fill="#FFFFFF" d="M17.2,10.4v2.5c0,0.3,0.3,0.6,0.6,0.6h1.8v1.8c0,0.3,0.3,0.6,0.6,0.6h2.5c0.3,0,0.6-0.3,0.6-0.6v-1.8h1.8
				c0.3,0,0.6-0.3,0.6-0.6v-2.5c0-0.3-0.3-0.6-0.6-0.6h-1.8V8c0-0.3-0.3-0.6-0.6-0.6h-2.5c-0.3,0-0.6,0.3-0.6,0.6v1.8h-1.8
				C17.5,9.8,17.2,10.1,17.2,10.4z M18.4,11.1h1.8c0.3,0,0.6-0.3,0.6-0.6V8.6h1.2v1.8c0,0.3,0.3,0.6,0.6,0.6h1.8v1.2h-1.8
				c-0.3,0-0.6,0.3-0.6,0.6v1.8h-1.2v-1.8c0-0.3-0.3-0.6-0.6-0.6h-1.8V11.1z"/>
		</g>
	</g>
</g>
<g id="Layer_4">
</g>
</svg>
