<?xml version="1.0" encoding="utf-8"?>
<!-- Generator: Adobe Illustrator 18.0.0, SVG Export Plug-In . SVG Version: 6.00 Build 0)  -->
<!DOCTYPE svg PUBLIC "-//W3C//DTD SVG 1.1//EN" "http://www.w3.org/Graphics/SVG/1.1/DTD/svg11.dtd">
<svg version="1.1" xmlns="http://www.w3.org/2000/svg" xmlns:xlink="http://www.w3.org/1999/xlink" x="0px" y="0px"
	 viewBox="0 0 27.2 29.7" enable-background="new 0 0 27.2 29.7" xml:space="preserve">
<g id="Layer_1">
	<g id="Layer_2">
	</g>
</g>
<g id="Layer_5" display="none">
</g>
<g id="panel1">
	<g>
		<path fill="#FFFFFF" d="M9.1,29.7c-0.7,0-1.6-0.6-2.8-1.8C4,25.5,4,23.8,4,22.1c0-0.3,0-0.6,0-1c-0.1-1.9-1-3.8-2-6.1l-0.2-0.5
			c-1-2.3-2.6-5.7-1.2-9.6c1.3-3.7,4.8-4.3,7.7-3.3c1.3,0.5,2.1,1.2,2.8,1.9c0.7,0.7,1.3,1.3,2.2,1.4c2.3,0.4,4.4-0.8,4.4-0.9
			c0.2-0.1,0.5-0.1,0.7,0.2c0.1,0.2,0.1,0.5-0.2,0.7c-0.1,0.1-2.4,1.4-5.1,1c-1.2-0.2-2-1-2.7-1.7C9.7,3.7,9,3,7.9,2.6
			C5.7,1.8,2.6,2,1.4,5.3C0.2,8.8,1.7,12,2.6,14.1l0.2,0.5c1.1,2.3,2,4.3,2.1,6.4c0,0.4,0,0.7,0,1c0,1.7,0,3,2,5.1
			c1.7,1.7,2.2,1.5,2.2,1.5c0.1,0,0.3-0.4,0.3-1.2c0-0.4,0-0.8-0.1-1.3c-0.1-1.5-0.1-3,0.1-4.6c0.1-1.2,0.9-2.2,2-2.8
			c1.3-0.7,2.9-0.6,4.3,0.2c2.5,1.3,1.9,4,1.5,6.1c-0.1,0.6-0.3,1.2-0.3,1.7c-0.1,1.2,0,1.6,0,1.7c0.1,0,0.4-0.1,1-0.6
			c1.4-1,2.9-4.1,3.7-6.4c0.3-1,0.3-1.6,0.3-2.3c0-0.9,0-1.8,0.6-3.4c0.3-0.8,0.7-1.6,1-2.3c0.9-1.9,1.8-3.9,1.9-6.5
			c0.1-2.6-1.7-3.9-5.8-4.4c-1.8-0.2-3.2,0.2-4,0.5c-0.9,0.4-1.4,0.8-1.4,0.8c-0.2,0.2-0.5,0.2-0.7,0c-0.2-0.2-0.2-0.5,0-0.7
			c0.1-0.1,2.2-2,6.1-1.6c1.7,0.2,6.8,0.7,6.6,5.3c-0.1,2.8-1.1,4.8-2,6.8c-0.4,0.8-0.7,1.5-1,2.3c-0.6,1.5-0.6,2.2-0.5,3.1
			c0,0.7,0,1.5-0.3,2.6c-0.8,2.4-2.4,5.6-4,6.9c-0.7,0.5-1.4,1-2.1,0.7c-0.6-0.3-0.6-1.3-0.5-2.6c0.1-0.6,0.2-1.2,0.3-1.8
			c0.5-2.5,0.7-4.2-1-5.1c-1.2-0.6-2.4-0.7-3.4-0.2c-0.8,0.4-1.4,1.2-1.5,2.1c-0.2,1.6-0.1,3,0,4.5c0,0.4,0,0.9,0.1,1.3
			c0,1.2-0.2,1.9-0.8,2.1C9.4,29.6,9.2,29.7,9.1,29.7z"/>
		<path fill="#FFFFFF" d="M3.5,6.3c-0.6,2-0.1,4.2,1.5,5.6c0.5,0.4,1.1-0.3,0.7-0.7c-1.3-1.2-1.8-3-1.2-4.6C4.6,5.9,3.7,5.7,3.5,6.3
			L3.5,6.3z"/>
	</g>
</g>
<g id="Layer_4">
</g>
</svg>
