<?xml version="1.0" encoding="utf-8"?>
<!-- Generator: Adobe Illustrator 18.0.0, SVG Export Plug-In . SVG Version: 6.00 Build 0)  -->
<!DOCTYPE svg PUBLIC "-//W3C//DTD SVG 1.1//EN" "http://www.w3.org/Graphics/SVG/1.1/DTD/svg11.dtd">
<svg version="1.1" xmlns="http://www.w3.org/2000/svg" xmlns:xlink="http://www.w3.org/1999/xlink" x="0px" y="0px"
	 viewBox="0 0 29 31.4" enable-background="new 0 0 29 31.4" xml:space="preserve">
<g id="Layer_1">
	<g id="Layer_2">
	</g>
</g>
<g id="Layer_5" display="none">
</g>
<g id="panel1">
	<g>
		<g>
			<g>
				<path fill="#FFFFFF" d="M19.8,22.3c-1.9,0-3.5,1.2-4.1,2.9c-0.3-0.3-0.8-0.5-1.2-0.5c-0.5,0-0.9,0.2-1.2,0.5
					c-0.6-1.7-2.2-2.9-4.1-2.9c-2.4,0-4.4,2-4.4,4.4c0,2.4,2,4.4,4.4,4.4s4.4-2,4.4-4.4c0-0.5,0.4-1,1-1s1,0.4,1,1
					c0,2.4,2,4.4,4.4,4.4s4.4-2,4.4-4.4C24.1,24.2,22.2,22.3,19.8,22.3z M9,30.1c-1.9,0-3.4-1.5-3.4-3.4c0-1.9,1.5-3.4,3.4-3.4
					s3.4,1.5,3.4,3.4C12.5,28.5,10.9,30.1,9,30.1z M19.8,30.1c-1.9,0-3.4-1.5-3.4-3.4c0-1.9,1.5-3.4,3.4-3.4c1.9,0,3.4,1.5,3.4,3.4
					C23.2,28.5,21.6,30.1,19.8,30.1z"/>
				<path fill="#FFFFFF" d="M3.9,23.8c-0.2-0.1-0.5,0-0.6,0.2c-0.4,0.8-0.6,1.7-0.6,2.6c0,0.3,0.2,0.5,0.5,0.5s0.5-0.2,0.5-0.5
					c0-0.8,0.2-1.5,0.5-2.2C4.3,24.2,4.2,23.9,3.9,23.8z"/>
				<path fill="#FFFFFF" d="M25.5,24c-0.1-0.2-0.4-0.4-0.6-0.2c-0.2,0.1-0.4,0.4-0.2,0.6c0.3,0.7,0.5,1.5,0.5,2.2
					c0,0.3,0.2,0.5,0.5,0.5s0.5-0.2,0.5-0.5C26.1,25.7,25.9,24.9,25.5,24z"/>
			</g>
			<path fill="#FFFFFF" d="M27.3,12.6c-0.3,0-0.6,0.3-0.6,0.6c0,2.1-1.4,3.9-3.4,4.4V9.8c0-5-4-9-9-9s-9,4-9,9v7.7
				C3.5,17,2,15.3,2,13.2c0-0.3-0.3-0.6-0.6-0.6s-0.6,0.3-0.6,0.6c0,3.1,2.5,5.6,5.6,5.6h15.8c3.1,0,5.6-2.5,5.6-5.6
				C27.9,12.9,27.7,12.6,27.3,12.6z M14.4,1.9c4.3,0,7.9,3.5,7.9,7.9v4.5H6.5V9.8C6.5,5.5,10.1,1.9,14.4,1.9z M6.5,17.7v-2.3h15.8
				v2.3H6.5z"/>
		</g>
	</g>
</g>
<g id="Layer_4">
</g>
</svg>
