<?xml version="1.0" encoding="utf-8"?>
<!-- Generator: Adobe Illustrator 18.0.0, SVG Export Plug-In . SVG Version: 6.00 Build 0)  -->
<!DOCTYPE svg PUBLIC "-//W3C//DTD SVG 1.1//EN" "http://www.w3.org/Graphics/SVG/1.1/DTD/svg11.dtd">
<svg version="1.1" xmlns="http://www.w3.org/2000/svg" xmlns:xlink="http://www.w3.org/1999/xlink" x="0px" y="0px"
	 viewBox="0 0 123.3 37.3" enable-background="new 0 0 123.3 37.3" xml:space="preserve">
<g id="Layer_1">
	<g id="Layer_2">
	</g>
</g>
<g id="Layer_5" display="none">
</g>
<g id="panel1">
	<g>
		<path fill="#87C546" d="M121.5,29.5c0,1.1-0.8,1.9-1.9,1.9c-1,0-1.9-0.8-1.9-1.9c0-1.1,0.8-1.9,1.9-1.9
			C120.7,27.6,121.5,28.5,121.5,29.5 M118.1,29.5c0,0.9,0.6,1.6,1.5,1.6c0.8,0,1.5-0.7,1.5-1.6c0-0.9-0.6-1.6-1.5-1.6
			C118.8,27.9,118.1,28.6,118.1,29.5 M119.6,28.5c0.5,0,0.8,0.1,0.8,0.6c0,0.3-0.1,0.5-0.4,0.6l0.1,0.2c0.1,0.2,0.2,0.4,0.4,0.6
			c0,0,0,0.1-0.1,0.1h-0.1c-0.1,0-0.2,0-0.2,0c-0.1-0.1-0.2-0.3-0.3-0.4l-0.2-0.3h-0.3v0.7c0,0,0,0-0.1,0H119c-0.1,0-0.1,0-0.1,0v-2
			H119.6z M119.3,29.4h0.3c0.3,0,0.4-0.1,0.4-0.3c0-0.2-0.2-0.3-0.4-0.3h-0.3V29.4z M41.9,15.4c-0.3,0-0.6,0.2-0.6,0.6v12
			c-0.9,0.2-1.8,0.3-2.8,0.3c-2.1,0-2.8-0.8-2.8-3V16c0-0.4-0.3-0.6-0.6-0.6H32v9.9c0,4.6,2.4,6.1,6.4,6.1c3.2,0,6.3-0.9,6.6-1v-15
			H41.9z M90.1,31.3c0.3,0,0.6-0.2,0.6-0.6V18.6c0.9-0.2,1.8-0.3,2.8-0.3c2.1,0,2.8,0.8,2.8,3v9.4c0,0.4,0.3,0.6,0.6,0.6h3.2v-10
			c0-4.6-2.4-6.1-6.4-6.1c-3.2,0-6.3,0.9-6.6,1v15.1H90.1z M77.5,15.2c-4.1,0-6.7,2.2-6.7,6.9v2.4c0,5.2,2.8,6.9,5.8,6.9
			c1.5,0,3-1,3.5-1.7v1c0,0.3,0.2,0.6,0.6,0.6h3.1V16.1C83.8,16.1,80.7,15.2,77.5,15.2 M80.1,27.4c-0.7,0.6-1.2,0.9-2.7,1
			c-2.1,0-3-1.3-3-4v-2.2c0-3.1,1.1-4,3-4c1.5,0,2.4,0.1,2.7,0.2V27.4z M109.2,15.2c-4.1,0-6.7,2.2-6.7,6.9v2.4
			c0,5.2,2.8,6.9,5.8,6.9c1.5,0,3-1,3.5-1.7v1c0,0.3,0.2,0.6,0.6,0.6h3.1V16.1C115.5,16.1,112.4,15.2,109.2,15.2 M111.8,27.4
			c-0.7,0.6-1.2,0.9-2.7,1c-2.1,0-3-1.3-3-4v-2.2c0-3.1,1.1-4,3-4c1.5,0,2.4,0.1,2.7,0.2V27.4z M13.4,31.3h3.3
			c0.2,0,0.6-0.2,0.6-0.6V22h6.1c1,0,1.8,0.8,1.8,1.7v7.1c0,0.3,0.3,0.6,0.6,0.6H29V10.5h-3.3c-0.3,0-0.6,0.2-0.6,0.5v7.8h-6.4
			c-0.8,0-1.5-0.7-1.5-1.5V11c0-0.2-0.2-0.5-0.6-0.5h-3.3V31.3z M62.6,15.2c-1.8,0-3.4,0.7-4.2,1.2c-1.1-0.9-2.7-1.2-4.6-1.2
			c-2.9,0-5.3,0.9-5.7,1v15.1h3.1c0.3,0,0.6-0.3,0.6-0.6V18.6c0.7-0.2,1.3-0.3,1.8-0.3c2.2,0,2.7,0.9,2.7,3v9.4
			c0,0.3,0.2,0.6,0.6,0.6h2.6c0.4,0,0.6-0.3,0.6-0.6V19c0.6-0.5,1.4-0.7,2.2-0.7c1.7,0,2.4,0.8,2.4,2.8v9.6c0,0.2,0.2,0.6,0.6,0.6
			h3.1V20.6C68.3,16.6,65.7,15.2,62.6,15.2"/>
	</g>
</g>
<g id="Layer_4">
</g>
</svg>
