<?xml version="1.0" encoding="utf-8"?>
<!-- Generator: Adobe Illustrator 18.0.0, SVG Export Plug-In . SVG Version: 6.00 Build 0)  -->
<!DOCTYPE svg PUBLIC "-//W3C//DTD SVG 1.1//EN" "http://www.w3.org/Graphics/SVG/1.1/DTD/svg11.dtd">
<svg version="1.1" xmlns="http://www.w3.org/2000/svg" xmlns:xlink="http://www.w3.org/1999/xlink" x="0px" y="0px"
	 viewBox="0 0 42 44" enable-background="new 0 0 42 44" xml:space="preserve">
<g id="Layer_1">
	<g id="Layer_2">
	</g>
</g>
<g id="Layer_5" display="none">
</g>
<g id="panel1">
	<g>
		<g>
			<path fill="#0391D8" d="M2.9,3.7c9.3-0.2,18.6-0.2,28,0c1.2,0,1.2-1.9,0-1.9c-9.3-0.3-18.6-0.3-28,0C1.6,1.8,1.6,3.7,2.9,3.7
				L2.9,3.7z"/>
			<path fill="#0391D8" d="M30,3.2c-0.2,8.1-0.4,16.2-0.1,24.2c0.1,4.8-0.9,11.4,3.8,14.3c4,2.5,7.5-1.5,8-5
				c0.5-3.6,0.2-7.4,0.1-10.9c-0.1-5-0.1-9.9-0.2-14.9c0-1.2-1.9-1.2-1.9,0c0.1,5.5,0.2,11,0.2,16.5c0,2.5,0.1,5.1,0,7.6
				c-0.1,4.4-6,7.6-7.4,2.5c-1.4-5.5-0.9-11.9-0.9-17.6c0-5.6,0.2-11.1,0.3-16.7C32,2,30.1,2,30,3.2L30,3.2z"/>
			<path fill="#0391D8" d="M1.1,2.6C1.1,9.8,1,16.9,1.1,24.1C1.1,29,0,36.3,2.8,40.6c2.1,3.2,8.9,2.1,11.9,2.2
				c7.1,0.2,14.1,0.3,21.2-0.1c1.2-0.1,1.2-2,0-1.9c-5,0.3-10,0.3-15.1,0.2C17.1,41,5.1,42.5,3.5,37.8c-0.8-2.5-0.4-6.1-0.5-8.8
				C3,26.3,3,23.5,3,20.8c0-6,0-12.1,0.1-18.1C3,1.4,1.2,1.4,1.1,2.6L1.1,2.6z"/>
			<path fill="#0391D8" d="M30.9,6.2c1.2,0,2.4,0,3.5,0c1.1,0,0.6,5.4,0.6,6c0,4.1-0.1,8.2-0.2,12.2c-0.1,4.4-1.8,12,3.8,13.5
				c1.2,0.3,1.7-1.5,0.5-1.8c-3.7-1-2.4-10.5-2.4-13.2c0.1-4.1,0.2-8.2,0.2-12.3c0-1.4,0.7-4.7-0.5-5.9c-1.1-1.1-4.3-0.5-5.6-0.5
				C29.7,4.4,29.7,6.3,30.9,6.2L30.9,6.2z"/>
			<path fill="#0391D8" d="M40.7,9.9c-1.1,0-2.2-0.1-3.3-0.1c-1.2,0-1.2,1.9,0,1.9c1.1,0,2.2,0.1,3.3,0.1
				C41.9,11.8,41.9,9.9,40.7,9.9L40.7,9.9z"/>
			<path fill="#0391D8" stroke="#0391D8" stroke-linecap="round" stroke-linejoin="round" stroke-miterlimit="10" d="M7.3,22.5h19
				v-1c0,0-12,0-19,0V22.5L7.3,22.5z"/>
			<path fill="#0391D8" stroke="#0391D8" stroke-linecap="round" stroke-linejoin="round" stroke-miterlimit="10" d="M7.3,17.5h19
				v-1c0,0-12,0-19,0V17.5L7.3,17.5z"/>
			<path fill="#0391D8" stroke="#0391D8" stroke-linecap="round" stroke-linejoin="round" stroke-miterlimit="10" d="M7.3,27.5h19
				v-1c0,0-12,0-19,0V27.5L7.3,27.5z"/>
		</g>
	</g>
</g>
<g id="Layer_4">
</g>
</svg>
