<?xml version="1.0" encoding="utf-8"?>
<!-- Generator: Adobe Illustrator 18.0.0, SVG Export Plug-In . SVG Version: 6.00 Build 0)  -->
<!DOCTYPE svg PUBLIC "-//W3C//DTD SVG 1.1//EN" "http://www.w3.org/Graphics/SVG/1.1/DTD/svg11.dtd">
<svg version="1.1" xmlns="http://www.w3.org/2000/svg" xmlns:xlink="http://www.w3.org/1999/xlink" x="0px" y="0px"
	 viewBox="0 0 42 44" enable-background="new 0 0 42 44" xml:space="preserve">
<g id="Layer_1">
	<g id="Layer_2">
	</g>
</g>
<g id="Layer_5" display="none">
</g>
<g id="panel1">
	<g>
		<g>
			<path fill="#0391D8" d="M2.8,5.4c8.9-0.2,17.8-0.2,26.7,0c1.2,0,1.2-1.8,0-1.8c-8.9-0.3-17.8-0.3-26.7,0C1.6,3.6,1.6,5.4,2.8,5.4
				L2.8,5.4z"/>
			<path fill="#0391D8" d="M28.8,5c-0.2,7.7-0.3,15.4-0.1,23.2c0.1,4.6-0.8,10.9,3.6,13.6c3.8,2.4,7.1-1.5,7.6-4.8
				c0.5-3.4,0.2-7,0.1-10.5c-0.1-4.7-0.1-9.5-0.2-14.2c0-1.2-1.8-1.2-1.8,0c0.1,5.3,0.1,10.5,0.2,15.8c0,2.4,0.1,4.9,0,7.3
				c-0.1,4.2-5.7,7.2-7,2.4c-1.4-5.2-0.9-11.4-0.9-16.8c0-5.3,0.1-10.6,0.3-15.9C30.6,3.8,28.8,3.8,28.8,5L28.8,5z"/>
			<path fill="#0391D8" d="M1.1,4.4c-0.1,6.8-0.1,13.7,0,20.5C1.1,29.6,0,36.6,2.7,40.7c2,3,8.5,2,11.4,2.1
				c6.7,0.2,13.5,0.3,20.2-0.1c1.2-0.1,1.2-1.9,0-1.8c-4.8,0.3-9.6,0.3-14.4,0.2c-3.6-0.1-15,1.3-16.5-3.2c-0.8-2.4-0.4-5.8-0.4-8.4
				c-0.1-2.6-0.1-5.3-0.1-7.9c0-5.8,0-11.6,0.1-17.3C3,3.2,1.1,3.2,1.1,4.4L1.1,4.4z"/>
			<path fill="#0391D8" d="M29.6,7.8c1.1,0,2.3,0,3.4,0c1.1,0,0.6,5.1,0.6,5.8c0,3.9-0.1,7.8-0.2,11.7c-0.1,4.2-1.7,11.5,3.6,12.9
				c1.1,0.3,1.6-1.4,0.5-1.7c-3.5-1-2.3-10-2.3-12.6c0.1-3.9,0.1-7.8,0.2-11.7c0-1.4,0.7-4.5-0.4-5.6C33.9,5.4,30.9,6,29.6,6
				C28.5,6.1,28.5,7.9,29.6,7.8L29.6,7.8z"/>
			<path fill="#0391D8" d="M38.9,11.4c-1.1,0-2.1-0.1-3.2-0.1c-1.2,0-1.2,1.8,0,1.8c1.1,0,2.1,0.1,3.2,0.1
				C40.1,13.2,40.1,11.4,38.9,11.4L38.9,11.4z"/>
			<path fill="#0391D8" stroke="#0391D8" stroke-linecap="round" stroke-linejoin="round" stroke-miterlimit="10" d="M7.5,23.5h18
				v-1c0,0-12,0-18,0V23.5L7.5,23.5z"/>
			<path fill="#0391D8" stroke="#0391D8" stroke-linecap="round" stroke-linejoin="round" stroke-miterlimit="10" d="M7.5,18.5h18
				v-1c0,0-12,0-18,0V18.5L7.5,18.5z"/>
			<path fill="#0391D8" stroke="#0391D8" stroke-linecap="round" stroke-linejoin="round" stroke-miterlimit="10" d="M7.5,27.5h18
				v-1c0,0-12,0-18,0V27.5L7.5,27.5z"/>
		</g>
	</g>
</g>
<g id="Layer_4">
</g>
</svg>
