<?xml version="1.0" encoding="utf-8"?>
<!-- Generator: Adobe Illustrator 18.0.0, SVG Export Plug-In . SVG Version: 6.00 Build 0)  -->
<!DOCTYPE svg PUBLIC "-//W3C//DTD SVG 1.1//EN" "http://www.w3.org/Graphics/SVG/1.1/DTD/svg11.dtd">
<svg version="1.1" xmlns="http://www.w3.org/2000/svg" xmlns:xlink="http://www.w3.org/1999/xlink" x="0px" y="0px"
	 viewBox="0 0 286.3 108.5" enable-background="new 0 0 286.3 108.5" xml:space="preserve">
<g id="Layer_1">
	<g id="Layer_2">
	</g>
</g>
<g id="Layer_5" display="none">
</g>
<g id="panel1">
	<g>
		<path fill="#778386" d="M226.6,5.7c5.4,30.4,11.5,60.8,18.2,91c0.7,3.1,1.4,6.3,2.2,9.4c0.4,1.4,2.5,0.9,2.2-0.5
			c-3.5-13.7-6.1-27.6-8.9-41.4c-3.3-16.5-6.6-33-9.7-49.5c-0.6-3.2-1.2-6.3-1.7-9.5C228.6,3.8,226.4,4.2,226.6,5.7L226.6,5.7z"/>
		<path fill="#B1B5B6" d="M114.3,97.3c-0.8-5.8-4.7-11.3-8.1-15.9c-0.2,0.6-0.4,1.2-0.6,1.8c18.7-6.1,39.9-6.6,59.2-3.2
			c-0.3-0.3-0.7-0.6-1-0.9c0.4,1.3,1.2,2.3,2,3.4c1.5,2,3,4.1,4.5,6.1c0-0.5-0.1-0.9-0.1-1.4c-0.2,0.3-0.4,0.7-0.6,1
			c0-0.1-3.2,0.4-3.6,0.5c-2.7,0.5-5.3,1-8,1.5c-4.9,0.9-9.9,1.7-14.9,2.5c-10,1.6-20.1,2.7-30.2,3.6c-1.4,0.1-1,2.3,0.5,2.2
			c10.6-1,21.1-2.2,31.6-3.9c5-0.8,10-1.7,15-2.6c2.7-0.5,5.4-1,8.1-1.5c2.1-0.4,2.9-0.4,3.9-2.1c0.3-0.5,0.2-0.9-0.1-1.4
			c-1.2-1.6-2.4-3.2-3.5-4.8c-0.8-1.1-2.1-2.4-2.5-3.7c-0.2-0.5-0.5-0.8-1-0.9c-10-1.8-20.2-2.2-30.3-1.7c-9.9,0.5-19.9,1.9-29.4,5
			c-0.8,0.3-1.2,1.1-0.6,1.8c3.2,4.2,6.9,9.5,7.6,14.8C112.4,99.2,114.5,98.7,114.3,97.3L114.3,97.3z"/>
		<path fill="#B1B5B6" d="M118.8,88.7c6.2-1.1,12.4-2,18.6-2.8c3.1-0.4,6.2-0.7,9.4-0.9c1.9-0.2,3.9-0.3,5.8-0.4
			c1.4-0.1,6,0.3,4.1,2.7c-0.9,1.1,1,2.4,1.9,1.2c1.6-2,0.4-4.5-1.7-5.6c-1.5-0.8-3.4-0.6-5-0.5c-2.1,0.1-4.3,0.3-6.4,0.5
			c-9.1,0.8-18.2,2-27.1,3.6C116.9,86.8,117.4,88.9,118.8,88.7L118.8,88.7z"/>
		<path fill="#B1B5B6" d="M117.5,88.8c0.4,1.3,0.4,2.6-0.1,3.9c-0.5,1.3,1.6,2.1,2.1,0.7c0.7-1.6,0.7-3.4,0.2-5.1
			C119.2,86.9,117,87.4,117.5,88.8L117.5,88.8z"/>
		<path fill="#B1B5B6" d="M110.4,93.3c-24.8-1-42.6,2-67.4,3.1c-1.4,0.1-1.6,2.3-0.1,2.2c24.8-1.1,42.6-4.1,67.4-3.1
			C111.7,95.6,111.8,93.4,110.4,93.3L110.4,93.3z"/>
		<path fill="#B1B5B6" d="M109.4,86.8c-20.6,1.1-34.3,2.4-54.9,3c-10.4,0.3-20.9,0.5-31.3,0.3c-2.2,0-4.5-0.2-6.8-0.2
			c-1.3,0-1.9,0-3,0.9c-4.3,3.5-8.6,7-13,10.5c-1,0.8,0.1,2.4,1.2,1.8c6.8-3.6,13.6-7.3,20.3-10.9c1.3-0.7,0.3-2.7-1-2
			c-6.8,3.6-13.6,7.3-20.3,10.9c0.4,0.6,0.8,1.2,1.2,1.8c3.9-3.1,7.7-6.2,11.6-9.4c0.4-0.4,1.3-1.4,1.7-1.4c0.7,0,1.3,0,2,0
			c2.5,0.1,5,0.1,7.5,0.2c10.2,0.1,20.3,0,30.5-0.3c20.4-0.6,33.7-1.9,54.1-3C110.6,89,110.8,86.8,109.4,86.8L109.4,86.8z"/>
		<path fill="#B1B5B6" d="M42.3,97.1c-3.5,3.3-7.1,6.4-10.9,9.4c-1,0.8,0.2,2.5,1.2,1.8c6.3-4.2,13.1-7.4,20.4-9.7
			c1.4-0.4,0.9-2.6-0.5-2.2c-7.4,2.3-14.4,5.6-20.9,9.9c0.4,0.6,0.8,1.2,1.2,1.8c3.8-2.9,7.4-6.1,10.9-9.4
			C44.8,97.8,43.3,96.1,42.3,97.1L42.3,97.1z"/>
		<path fill="#B1B5B6" d="M175.7,82.9"/>
		<path fill="#B1B5B6" d="M205.2,83.8c22.6-0.7,45.2-0.5,67.9,0.5c1.4,0.1,1.6-2.2,0.1-2.2c-22-0.9-44.1-1.1-66.1-0.5L205.2,83.8z"
			/>
		<path fill="#B1B5B6" d="M175.7,82.9c-1.2,0.1-2.5,0.2-3.7,0.2c-1.4,0.1-1.6,2.3-0.1,2.2l0,0c2.1-0.1,4.1-0.3,6.2-0.4L175.7,82.9z"
			/>
		<path fill="#B1B5B6" d="M158.2,89c27.6,2.1,55,5.9,82.2,11.5c1.4,0.3,2.1-1.8,0.7-2.1c-27.3-5.7-54.9-9.6-82.7-11.7
			C156.9,86.7,156.8,88.9,158.2,89L158.2,89z"/>
		<g>
			<path fill="#B1B5B6" d="M171.1,65.1c-2.5,3.9-2.7,8.4-0.9,12.7c2,4.9,6.7,7.8,11.6,9.4c8.6,2.7,21.6,2.9,26.8-6
				c2.7-4.7,3.1-10.7,1-15.7c-2.1-4.9-7.2-7.9-12.3-8.8C188,55,177.2,57.8,171.1,65.1c-0.9,1.1,1,2.3,1.9,1.2
				c5-6.1,13.4-8.1,21.1-7.8c5,0.2,10.1,2.4,12.8,6.8c2.7,4.4,2.1,10.2-0.2,14.6c-4.1,7.8-15.6,7.1-22.8,5.5
				c-4.6-1-8.8-3.4-11.2-7.6c-2-3.6-1.9-8,0.3-11.5C173.8,65.1,171.9,63.9,171.1,65.1z"/>
		</g>
		<path fill="#B1B5B6" d="M271,84.5c4-0.1,8-0.6,12.1-0.9c1-0.1,1-0.3,0.7,0.6c-0.3,1-0.8,3.2-2.3,2.7c-2.2-0.7-4.3-1.6-6.5-2.3
			c-0.6-0.2-1.2,0.1-1.4,0.7c-0.7,0.6-1.4,0.8-2.2,0.6c-0.4,0-0.9-0.1-1.3-0.3c1.3-0.6,0.3-2.6-1-2c-1.7,0.8-1.6,3.4,0.2,4.1
			c2.2,0.8,5.3,0.8,6.4-1.7c-0.5,0.2-0.9,0.5-1.4,0.7c1.6,0.6,3.2,1.2,4.8,1.8c1.4,0.5,2.6,1.2,4,0.7c1.7-0.6,3.2-3.9,3.1-5.5
			c-0.1-2.7-2.6-2.2-4.6-2.1c-3.5,0.2-7,0.7-10.5,0.8C269.7,82.3,269.6,84.6,271,84.5L271,84.5z"/>
		<path fill="#B1B5B6" d="M241.3,100.6c3.2,0.3,6.4,0.7,9.6,1c1.3,0.1,3.8,0.6,3.5-1.6c-0.2-1.4-0.9-3.5-2.4-3.9
			c-2.2-0.7-5-0.1-7.3,0.2c0.4,0.4,0.9,0.8,1.3,1.2c0-0.6,0-1.2,0.3-1.7c0.4-0.9-0.5-1.5-1.3-1.5c-2.4,0.3-4.5,1.6-6.8,2.4
			c-1.4,0.5-0.3,2.5,1,2c2.1-0.8,4-1.9,6.3-2.2c-0.4-0.5-0.9-1-1.3-1.5c-0.3,0.7-0.3,1.5-0.4,2.3c-0.1,0.8,0.6,1.3,1.3,1.2
			c1.6-0.2,3.2-0.4,4.8-0.4c1,0,1.7,0.5,2.1,1.4c0,0.2,0.1,0.3,0.1,0.5c-0.1-0.6-0.5-0.8-1.2-0.6c-3.2-0.3-6.4-0.7-9.6-1
			C240,98.2,239.8,100.4,241.3,100.6L241.3,100.6z"/>
		<path fill="#B1B5B6" d="M170.6,72.3c3.3-0.1,6.6-0.6,9.8-1.2c1.5-0.2,3.1-0.4,4.7-0.6c1.9-0.2,3.8,0.1,5.6-0.1
			c1.6-0.2,3.3-1.3,4.9-0.9c1.6,0.4,3,1.2,4.7,1.4c0.9,0.1,2.2,0.4,3.1,0c1.2-0.6,3.6-2.7,5-1.6c1.1,0.9,2.4-1,1.2-1.9
			c-1.9-1.5-5.2,0-6.9,1.2c-1.1,0.8-3.7-0.2-4.9-0.6c-1.5-0.6-2.5-1-4.1-0.8c-0.6,0.1-1.4,0.5-1.9,0.6c-1.2,0.4-2.4,0.3-3.6,0.3
			c-1.7,0-3.4,0.1-5,0.3c-4.1,0.5-8.2,1.4-12.3,1.6C169.3,70.2,169.2,72.4,170.6,72.3L170.6,72.3z"/>
		<path fill="#B1B5B6" d="M171,73.9c0,0,7.6,0.3,11.6,0.2c2,0,3.8-0.2,5.8-0.3c0.9-0.1,2.2,1.7,3.2,2c1.1,0.3,2.3,0.1,3.3-0.3
			c1.9-0.8,3.6-1.6,5.7-1.8c2.9-0.2,5.4,1,8.2,0.7c1.4-0.1,1-2.3-0.5-2.2c-1.4,0.1-2.4-0.3-3.8-0.6c-1.3-0.3-2.6-0.2-3.9-0.2
			c-1.4,0-2.9,0.3-4.3,0.8c-2,0.9-3.8,2.2-5.6,0.3c-0.7-0.8-1.4-1-2.5-1c-2,0-3.7,0.2-5.7,0.3c-4,0.1-8.6,0-11.6-0.2
			C169.2,71.5,169.1,73.8,171,73.9C171,73.9,169.1,73.8,171,73.9z"/>
		<path fill="#B1B5B6" d="M181.3,82.1c1.4,1.2,3.1,2,5,2.2c1.4,0.2,1.6-2,0.1-2.2c-1.5-0.2-2.8-0.9-3.9-1.9
			c-0.5-0.4-1.2-0.2-1.6,0.3C180.6,81.1,180.9,81.7,181.3,82.1L181.3,82.1z"/>
		<path fill="#778386" d="M228.6,4.4c-15.3,0.7-30.7,0.6-46,0.6c-19.9-0.1-39.9-0.4-59.8-0.9C96.5,3.5,70.2,2.8,43.9,1.8
			c-1,0-1.5,1.1-0.9,1.9c2.4,2.8,6.6,4.1,10,5.2c4.8,1.6,9.7,2.5,14.5,4.8c0-0.6,0.1-1.3,0.1-1.9c-3.1,1.7-6.6,3.9-9.8,5.8
			c-3.1,1.9-6.6,4.3-10.2,5.2c-1.3,0.3-1.1,2,0.1,2.2C59.8,26.8,72,27.4,84,28c17.6,1,35.2,1.7,52.9,2.3c31,1.1,62,1.6,93,3.2
			c1,0.1,2,0.1,3,0.2c1.4,0.1,1.6-2.1,0.1-2.2c-29.7-1.8-59.5-2.1-89.2-3.1c-17.9-0.6-35.9-1.3-53.8-2.2c-13-0.7-26.1-1.3-39-3
			c-1-0.1-2-0.3-2.9-0.4c0.1,0.7,0.1,1.5,0.2,2.2c3.6-0.9,7-3.1,10.2-5c3.4-2.1,6.6-4.4,10.1-6.1c0.7-0.3,0.9-1.5,0.1-1.9
			c-3.9-2-8-3.1-12.1-4.3c-3.8-1.1-9.1-2.2-11.8-5.4c-0.3,0.6-0.6,1.2-0.9,1.9C79,5.3,114.3,6.2,149.5,6.8c26.3,0.4,52.6,1,78.9-0.2
			C229.9,6.5,230,4.3,228.6,4.4L228.6,4.4z"/>
		<path fill="#778386" d="M88.9,10.8c-5.6-2.4-11.6,8-5.3,10.3c2.8,1,5.4,0.7,7.1-1.9c0.5-0.8,1.2-2,0.4-2.8c-0.8-0.9-3-0.5-4-0.6
			c-1.4-0.1-1.6,2.2-0.1,2.2c0.9,0,2.1-0.1,3,0.1c-0.2-0.3-0.5-0.6-0.7-0.8c0.2,0.5-1.3,1.8-1.6,2C86.4,19.9,84,19,83.4,18
			c-1.5-2.4,2.4-6.1,4.7-5.1C89.5,13.4,90.2,11.3,88.9,10.8L88.9,10.8z"/>
		<path fill="#778386" d="M111.8,11.3c-2.8,0.1-5.7-0.1-8.5,0c-1.4,0.1-1.6,2.2-0.1,2.2c1.4,0,2.7,0.1,4.1,0.1
			c-0.3-0.4-0.7-0.7-1.1-1.1c-0.1,3.2-0.2,5.8-0.4,9.8c-0.1,1,2.2,1.1,2.2,0.1c0.2-4,0.3-6.6,0.4-9.8c0-0.6-0.2-1.2-0.8-1.2
			c-1.4,0-3.9-0.2-3.9-0.1c0,0.7-0.1,1.5-0.1,2.2c3-0.1,5.4,0.1,8.2,0C113.3,13.5,113.2,11.3,111.8,11.3L111.8,11.3z"/>
		<g>
			<path fill="#778386" d="M117.5,13.3c0.6,1.3,1.2,2.5,1.9,3.7c0.7,1.2,2.7,0.2,2-1c-0.7-1.2-1.3-2.5-1.9-3.7
				C118.8,11,116.8,12,117.5,13.3L117.5,13.3z"/>
			<path fill="#778386" d="M122.3,12.4c-0.8,1.5-2,3-2.6,4.6c-0.6,1.6-0.3,4-0.4,5.8c-0.1,1.4,2.2,1.6,2.2,0.1
				c0.1-1.6,0.1-3.3,0.2-4.9c0.1-1.4,1.7-3.1,2.4-4.3C124.9,12.4,123,11.1,122.3,12.4L122.3,12.4z"/>
		</g>
		<path fill="#778386" d="M126.5,14c-0.7,2.4-1.5,5.1-0.3,7.4c0.9,1.8,3.1,2.7,4.9,2c2.2-0.9,2.7-3.4,2.7-5.5
			c-0.1-2.3-2.4-4.5-4.7-4.4c-1.4,0-1.6,2.3-0.1,2.2c2.9-0.1,3.6,5.1,1,5.7c-1.5,0.3-2.2-1.5-2.2-2.6c0-1.3,0.4-2.8,0.8-4.1
			C129,13.3,126.9,12.6,126.5,14L126.5,14z"/>
		<path fill="#778386" d="M134.7,14.7c0.1,2.8-0.3,9.4,4.3,8.9c3.9-0.4,4.3-6.3,3.6-9.2c-0.3-1.4-2.5-0.9-2.2,0.5
			c0.4,1.9,0.4,4.7-1,6.2c-1.5,1.6-2.3-1.9-2.4-2.7c-0.1-1.2-0.1-2.4-0.1-3.5C136.9,13.4,134.7,13.3,134.7,14.7L134.7,14.7z"/>
		<path fill="#778386" d="M153.2,11.6c-4.8-2.8-6.9,5.5-6.9,8.7c0.1,2.5,1.5,3.8,3.8,4.4c2.4,0.6,4-2,5.1-3.7
			c0.8-1.2-1.1-2.5-1.9-1.2c-0.6,0.9-1.1,1.7-1.8,2.5c-1,0.5-1.9,0.3-2.7-0.6c-0.4-0.6-0.3-1.6-0.3-2.3c0-1,1.3-7,3.4-5.7
			C153.2,14.2,154.5,12.3,153.2,11.6L153.2,11.6z"/>
		<path fill="#778386" d="M157.2,14.3c-1.1,3-1.5,7,0.8,9.5c2.2,2.4,5.3,0.9,6.8-1.4c1.5-2.4,2.1-6.4,0.1-8.7
			c-2.4-2.7-5.2-1.9-6.8,1c-0.7,1.3,1.2,2.5,1.9,1.2c1-1.9,3-1.9,3.8,0.3c0.5,1.6-0.1,3.5-0.8,4.9c-1.4,2.7-3.8,1.3-4.3-1.1
			c-0.3-1.6,0.1-3.6,0.7-5C159.8,13.7,157.7,12.9,157.2,14.3L157.2,14.3z"/>
		<path fill="#778386" d="M166.7,13.5c0.2,2.5,0.6,5.1,0.9,7.6c0.2,1.4,0.1,3.1,1.6,3.8c0.6,0.3,1.2-0.2,1.4-0.7
			c1.3-3.5,1.4-7.2,2.4-10.7c0.4-1.4-1.7-2.1-2.1-0.7c-1,3.5-1.1,7.3-2.4,10.7c0.5-0.2,0.9-0.5,1.4-0.7c0.3,0.1-0.1-2.1-0.1-2.1
			c-0.1-0.8-0.3-1.7-0.4-2.5c-0.2-1.7-0.4-3.4-0.6-5.1C168.7,11.6,166.5,12,166.7,13.5L166.7,13.5z"/>
		<g>
			<path fill="#778386" d="M175.1,13.8c-0.4,3.3-0.9,7.3-0.1,10.5c0.2,0.6,0.7,0.9,1.3,0.9c1.2-0.2,2.5-0.3,3.7-0.5
				c1.4-0.2,1-2.4-0.5-2.2c-1.2,0.2-2.5,0.3-3.7,0.5c0.4,0.3,0.9,0.6,1.3,0.9c-0.8-3.1-0.2-6.8,0.1-9.9
				C177.5,12.5,175.3,12.3,175.1,13.8L175.1,13.8z"/>
			<path fill="#778386" d="M176.6,15.1c1.3,0.1,2.7,0,4-0.2c1.4-0.2,1-2.4-0.5-2.2c-1.1,0.2-2.2,0.2-3.4,0.2
				C175.3,12.7,175.1,15,176.6,15.1L176.6,15.1z"/>
			<path fill="#778386" d="M176.1,20.3c1.1,0.1,2.2,0,3.3-0.1c0.6-0.1,1-0.8,0.9-1.3c-0.1-0.6-0.7-0.9-1.3-0.9
				c-0.9,0.1-1.8,0.1-2.7,0.1C174.8,18,174.6,20.2,176.1,20.3L176.1,20.3z"/>
		</g>
		<g>
			<path fill="#778386" d="M195,12.7c-0.4,3.8-0.9,8.2-0.2,12c0.1,0.6,0.7,1,1.3,0.9c1.2-0.2,2.5-0.4,3.7-0.6c1.4-0.2,1-2.4-0.5-2.2
				c-1.2,0.2-2.5,0.4-3.7,0.6c0.4,0.3,0.9,0.6,1.3,0.9c-0.7-3.6-0.2-7.8,0.2-11.4C197.4,11.4,195.2,11.3,195,12.7L195,12.7z"/>
			<path fill="#778386" d="M196.5,14c1.3,0.1,2.7,0,4-0.3c1.4-0.3,1-2.5-0.5-2.2c-1.1,0.2-2.2,0.3-3.4,0.2
				C195.2,11.7,195,13.9,196.5,14L196.5,14z"/>
			<path fill="#778386" d="M195.9,20c1.1,0.1,2.2,0,3.3-0.2c1.4-0.2,1-2.4-0.5-2.2c-0.9,0.1-1.8,0.2-2.7,0.1
				C194.6,17.7,194.5,19.9,195.9,20L195.9,20z"/>
		</g>
		<g>
			<path fill="#778386" d="M185,13.6c-0.3,3.7-0.4,7.3-0.5,11c-0.1,1.4,2.2,1.6,2.2,0.1c0.2-3.7,0.2-7.3,0.5-11
				C187.3,12.3,185.1,12.2,185,13.6L185,13.6z"/>
			<path fill="#778386" d="M186.2,13.3c1.5-0.2,2.9,0.6,3.6,1.9c1.1,1.9-1.7,2.6-2.9,3c-1.4,0.4-0.9,2.6,0.5,2.2
				c2.6-0.8,5.9-2.2,4.7-5.5c-0.9-2.6-3.7-4-6.3-3.7C184.3,11.3,184.8,13.5,186.2,13.3L186.2,13.3z"/>
			<path fill="#778386" d="M187.6,20c0.8,1.6,1.4,3.2,2.3,4.8c0.7,1.3,2.7,0.3,2-1c-0.8-1.6-1.4-3.2-2.3-4.8
				C188.9,17.7,186.9,18.7,187.6,20L187.6,20z"/>
		</g>
		<g>
			<path fill="#778386" d="M203.6,13.7c-0.2,3.7-0.3,7.4-0.5,11.1c-0.1,1.4,2.2,1.6,2.2,0.1c0.2-3.7,0.3-7.4,0.5-11.1
				C205.9,12.4,203.7,12.3,203.6,13.7L203.6,13.7z"/>
			<path fill="#778386" d="M204.8,14c2.7,0.2,4.9,1.9,5.7,4.5c1.2,3.9-3.6,4.7-6.1,5.5c-1.4,0.4-0.9,2.6,0.5,2.2
				c4-1.3,8.5-2.4,8-7.5c-0.4-3.8-4.3-6.6-7.8-6.9C203.5,11.7,203.4,13.9,204.8,14L204.8,14z"/>
		</g>
		<path fill="#778386" d="M216.9,14.2c-0.2,2.6-0.5,5.2-0.8,7.8c-0.2,1.4,2.1,1.6,2.2,0.1c0.3-2.6,0.6-5.2,0.8-7.8
			C219.3,12.9,217.1,12.8,216.9,14.2L216.9,14.2z"/>
		<path fill="#778386" d="M217.1,25.2c0,0-0.1,0-0.1,0c-0.6,0-1.1,0.3-1.2,0.9s0.4,1,1.1,1.1c0,0,0.1,0,0.1,0c0.6,0,1.1-0.3,1.2-0.9
			C218.1,25.7,217.7,25.2,217.1,25.2L217.1,25.2z"/>
		<path fill="#B1B5B6" d="M130.4,87.5c-1.9,1.7-4.4,2.7-6.4,4.4c-0.7,0.6-0.3,2,0.7,2c9.8-0.3,19.6,0.7,29.4,1.4
			c1.4,0.1,1.6-2.1,0.1-2.2c-9.8-0.7-19.6-1.7-29.4-1.4c0.2,0.7,0.4,1.3,0.7,2c1.9-1.7,4.4-2.7,6.4-4.4
			C133,88.3,131.5,86.6,130.4,87.5L130.4,87.5z"/>
		<path fill="#B1B5B6" d="M130.5,88.1c-0.6,1.2-2.2,1.7-2.8,2.9c-0.3,0.7,0.3,1.4,1,1.5c4.2,0.4,8.3,0.8,12.5,1.2
			c4.1,0.4,8.7,0.4,12.6,1.5c1.4,0.4,2.1-1.7,0.7-2.1c-4-1.2-8.6-1.2-12.7-1.6c-4.3-0.4-8.7-0.8-13-1.2c0.3,0.5,0.7,1,1,1.5
			c0.6-1.2,2.2-1.7,2.8-2.9C133.2,87.5,131.1,86.8,130.5,88.1L130.5,88.1z"/>
		<path fill="#778386" d="M94,13.3c-1,2.7-1.3,6.3,0.7,8.6c2,2.1,4.8,0.8,6.1-1.3c1.4-2.2,1.9-5.8,0.1-7.9c-2.1-2.5-5.7-1.7-7.1,0.9
			c-0.6,1.1,1.1,2.3,1.7,1.1c0.9-1.8,3.7-1.7,4.4,0.2c0.5,1.4-0.1,3.1-0.7,4.4c-1.2,2.5-3.5,1.2-3.9-1c-0.3-1.4,0.1-3.2,0.6-4.6
			C96.4,12.7,94.5,12.1,94,13.3L94,13.3z"/>
	</g>
</g>
<g id="Layer_4">
</g>
</svg>
