<?xml version="1.0" encoding="utf-8"?>
<!-- Generator: Adobe Illustrator 18.0.0, SVG Export Plug-In . SVG Version: 6.00 Build 0)  -->
<!DOCTYPE svg PUBLIC "-//W3C//DTD SVG 1.1//EN" "http://www.w3.org/Graphics/SVG/1.1/DTD/svg11.dtd">
<svg version="1.1" xmlns="http://www.w3.org/2000/svg" xmlns:xlink="http://www.w3.org/1999/xlink" x="0px" y="0px"
	 viewBox="0 0 33.5 30.2" enable-background="new 0 0 33.5 30.2" xml:space="preserve">
<g id="Layer_1">
	<g id="Layer_2">
	</g>
</g>
<g id="Layer_5" display="none">
</g>
<g id="panel1">
	<g>
		<g>
			<path fill="#0391D8" d="M1.1,14.4c9.7-3.1,19.2-6.7,28.5-10.8c0.8-0.4,0.1-1.6-0.7-1.2C19.7,6.5,10.3,10,0.7,13.1
				C-0.1,13.3,0.2,14.7,1.1,14.4L1.1,14.4z"/>
			<path fill="#0391D8" d="M28.8,3.1c-1.3,7.1-3.1,14.1-5.4,21c-0.3,0.9,1.1,1.2,1.4,0.4c2.3-6.9,4.1-13.9,5.4-21
				C30.3,2.6,28.9,2.3,28.8,3.1L28.8,3.1z"/>
			<path fill="#0391D8" d="M0.8,14.8c7.6,3.4,15.2,6.8,22.8,10.1c0.8,0.4,1.5-0.9,0.7-1.2c-7.6-3.3-15.2-6.7-22.8-10.1
				C0.7,13.2-0.1,14.4,0.8,14.8L0.8,14.8z"/>
			<path fill="#0391D8" d="M12.5,18.8c6.2-4.4,11-10.8,17.2-15.2c0.7-0.5,0-1.7-0.7-1.2c-6.2,4.4-11,10.8-17.2,15.2
				C11,18.1,11.7,19.3,12.5,18.8L12.5,18.8z"/>
			<path fill="#0391D8" d="M7.1,22.1c0,0,0,3.3,0,6.3c0,0.6,2.9,1,3.3,0.5c1.8-2.2,4.5-4.4,5.5-7c0.3-0.8-0.5-1.2-0.8-0.4
				c-0.9,2.4-4,4.4-5.6,6.4c0.4,0.2-0.3,0.3-0.3,0.5c0-2.9,0-3.3,0-6.3C9.1,21.1,7.1,21.1,7.1,22.1C7.1,22.1,7.1,21.1,7.1,22.1z"/>
		</g>
	</g>
</g>
<g id="Layer_4">
</g>
</svg>
