<?xml version="1.0" encoding="utf-8"?>
<!-- Generator: Adobe Illustrator 18.0.0, SVG Export Plug-In . SVG Version: 6.00 Build 0)  -->
<!DOCTYPE svg PUBLIC "-//W3C//DTD SVG 1.1//EN" "http://www.w3.org/Graphics/SVG/1.1/DTD/svg11.dtd">
<svg version="1.1" xmlns="http://www.w3.org/2000/svg" xmlns:xlink="http://www.w3.org/1999/xlink" x="0px" y="0px"
	 viewBox="0 0 80.2 80" enable-background="new 0 0 80.2 80" xml:space="preserve">
<g id="Layer_1">
	<g id="Layer_2">
	</g>
</g>
<g id="Layer_5" display="none">
</g>
<g id="panel1">
	<g>
		<path fill="#387C42" d="M78.6,66.1L67.9,48.2c2.9-4.7,4.5-10.1,4.5-16c0-17-13.8-30.8-30.8-30.8S10.9,15.2,10.9,32.2
			c0,5.2,1.3,10,3.5,14.3l-12.3,21c-0.3,0.4-0.2,1,0.1,1.4c0.3,0.4,0.8,0.6,1.3,0.5L15.2,67l3.5,10.5c0.2,0.5,0.6,0.8,1,0.9
			c0.1,0,0.1,0,0.2,0c0.4,0,0.8-0.2,1.1-0.6l11.3-16.3c3,1,6.1,1.5,9.4,1.5c2.9,0,5.7-0.4,8.4-1.2l9.6,16c0.2,0.4,0.7,0.6,1.1,0.6
			c0,0,0.1,0,0.1,0c0.5-0.1,0.9-0.4,1.1-0.9l3.6-10.6l11.8,1.2c0.5,0,1-0.2,1.2-0.6C78.9,67.1,78.9,66.6,78.6,66.1z M20.3,74.2
			l-3-9.1c-0.2-0.6-0.8-1-1.5-0.9l-10,2L15.9,49c3.3,5.1,8.2,9.2,13.8,11.6L20.3,74.2z M13.5,32.2C13.5,16.7,26.1,4,41.7,4
			s28.2,12.6,28.2,28.2S57.2,60.4,41.7,60.4S13.5,47.8,13.5,32.2z M64.9,64.2c-0.6,0-1.1,0.3-1.3,0.9L60.5,74l-7.9-13.1
			c5.5-2.1,10.3-5.7,13.8-10.4l8.8,14.7L64.9,64.2z"/>
		<path fill="#387C42" d="M55.8,27.1h-8.2l-4.8-9.5c-0.4-0.9-1.9-0.9-2.3,0l-4.8,9.5h-8.2c-0.5,0-1,0.3-1.2,0.8
			c-0.2,0.5,0,1.1,0.4,1.4l7,5.8l-3.6,10.7c-0.2,0.5,0,1.1,0.4,1.4c0.4,0.3,1,0.4,1.5,0.1l9.6-6l9.6,6c0.2,0.1,0.4,0.2,0.7,0.2
			c0.3,0,0.6-0.1,0.8-0.3c0.4-0.3,0.6-0.9,0.4-1.4l-3.6-10.7l7-5.8c0.4-0.3,0.6-0.9,0.4-1.4C56.8,27.4,56.3,27.1,55.8,27.1z
			 M47.3,33.8c-0.4,0.3-0.6,0.9-0.4,1.4l2.7,8.1l-7.2-4.5c-0.2-0.1-0.4-0.2-0.7-0.2c-0.2,0-0.5,0.1-0.7,0.2l-7.2,4.5l2.7-8.1
			c0.2-0.5,0-1.1-0.4-1.4l-5-4.1h5.4c0.5,0,0.9-0.3,1.1-0.7l4-8l4,8c0.2,0.4,0.7,0.7,1.1,0.7h5.4L47.3,33.8z"/>
	</g>
</g>
<g id="Layer_4">
</g>
</svg>
