<?xml version="1.0" encoding="utf-8"?>
<!-- Generator: Adobe Illustrator 18.0.0, SVG Export Plug-In . SVG Version: 6.00 Build 0)  -->
<!DOCTYPE svg PUBLIC "-//W3C//DTD SVG 1.1//EN" "http://www.w3.org/Graphics/SVG/1.1/DTD/svg11.dtd">
<svg version="1.1" xmlns="http://www.w3.org/2000/svg" xmlns:xlink="http://www.w3.org/1999/xlink" x="0px" y="0px"
	 viewBox="0 0 54.5 43.8" enable-background="new 0 0 54.5 43.8" xml:space="preserve">
<g id="Layer_1">
	<g id="Layer_2">
	</g>
</g>
<g id="Layer_5" display="none">
</g>
<g id="panel1">
	<g>
		<g>
			<g>
				<g>
					<path fill="#0391D8" d="M9.1,24.4c0.7,0.2,0.6,0.7-0.2,1.1c-1.3,1-2.1,0.2-3-0.7c-0.7-0.7-1.5-1.5-2.2-2.2
						C3.1,22.1,1.2,21,2,20.1c0.5-0.7,1.3-1.2,2-1.7c-0.4,0-0.8,0-1.2,0C3,18.7,3.5,19,3.8,19.2C4.6,19.9,5.8,18.7,5,18
						c-0.3-0.2-0.7-0.6-1.1-0.8c-0.4-0.3-0.8-0.3-1.2,0c-1.4,1.1-3.1,2.1-2.6,4.1C0.2,22.1,1,22.5,1.6,23c1.2,0.9,2.1,2,3.1,3.1
						c1.5,1.6,3.1,2.1,5,1c1.6-1,2.1-2.6,0.6-3.8C9.4,22.5,8.2,23.7,9.1,24.4L9.1,24.4z"/>
				</g>
			</g>
			<g>
				<g>
					<path fill="#0391D8" d="M5.4,18.4c2.1-2.1,4.3-4.2,6.4-6.4c0.7-0.7,1.6-1.6,2.2-2.4c0.8-1,1.7-2,2.7-2.9
						c-0.7,0.7,3.8-3.7,3.4-1.7c-0.2,1.2-0.7,2.3-0.5,3.6c0.5,2.6,1.3,2.9-0.8,5c-3.2,3.1-7.1,5.4-9.9,9c-0.7,0.8,0.5,2.1,1.2,1.2
						c3.6-4.5,8.8-7.1,12.3-11.6c0.2-0.3,0.3-0.7,0.2-1.1c-1.7-2.5-0.6-4.2-0.6-6.8c0-1.1-0.3-1.4-1-2.1c-0.2-0.2-0.7-0.3-1.1-0.2
						C14,5.9,9.2,12.1,4.3,17.2C3.5,18,4.7,19.2,5.4,18.4L5.4,18.4z"/>
				</g>
			</g>
			<g>
				<g>
					<path fill="#0391D8" d="M16.5,17.9c1.7,1.3,2.7,3.2,4.1,4.7c1.7,1.7,3.5,3.2,5.1,4.9c0.8,0.7,2.1-0.4,1.2-1.2
						c-1.6-1.5-3.1-3-4.7-4.5c-1.7-1.6-2.8-3.7-4.6-5.1C16.8,16,15.6,17.3,16.5,17.9L16.5,17.9z"/>
				</g>
			</g>
			<g>
				<g>
					<path fill="#0391D8" d="M13.5,20.6c1.7,1.9,3.5,3.8,5.3,5.7c1.6,1.7,3,3.3,5,4.5c1,0.6,1.8-0.9,0.9-1.5
						c-1.8-1.1-3.2-2.6-4.6-4.2c-1.7-1.9-3.5-3.8-5.3-5.7C13.9,18.5,12.8,19.7,13.5,20.6L13.5,20.6z"/>
				</g>
			</g>
			<g>
				<g>
					<path fill="#0391D8" d="M23,32.6c2.2-1.2,3.5-3.6,5.4-5.1c0.8-0.7-0.4-1.9-1.2-1.2c-1.8,1.5-2.9,3.7-5,4.9
						C21.1,31.7,22,33.2,23,32.6L23,32.6z"/>
				</g>
			</g>
			<g>
				<g>
					<path fill="#0391D8" d="M21.8,32.4c3.2,4.5,7.9,8,12.3,11.3c0.3,0.2,0.7,0.1,1.1-0.2c1.9-1.5,3.7-3,5.2-4.8
						c0.7-0.8-0.5-2.1-1.2-1.2c-0.9,1.1-1.8,2-2.9,2.9c-0.5,0.5-1.1,0.9-1.7,1.3c-0.4,0.3-2.6-1.9-3.2-2.3c-2.9-2.3-5.9-5-8.1-7.9
						C22.6,30.6,21.1,31.5,21.8,32.4L21.8,32.4z"/>
				</g>
			</g>
			<g>
				<g>
					<path fill="#0391D8" d="M27.3,27.5c4,3.6,8.1,7.3,11.8,11.2c0.7,0.8,2-0.4,1.2-1.2c-3.6-4-7.8-7.7-11.8-11.2
						C27.7,25.5,26.5,26.8,27.3,27.5L27.3,27.5z"/>
				</g>
			</g>
			<g>
				<g>
					<path fill="#0391D8" d="M21.1,28c-2.3,2.4-10.1,9.3-7,13.3c3.7,4.8,10.1-1.9,12.2-5c0.7-0.9-0.8-1.7-1.5-0.9
						c-0.9,1.3-2.1,2.4-3.2,3.5c-0.8,0.8-1.7,1.4-2.8,1.9c-2.5,1-4-1.2-3.1-3.5c1.2-3,4.3-5.9,6.6-8.1C23.1,28.4,21.9,27.2,21.1,28
						L21.1,28z"/>
				</g>
			</g>
			<g>
				<g>
					<path fill="#0391D8" d="M25.9,25.2c2.2-2.1,4.6-4.1,7-6.1c0.2-0.2,0.3-0.6,0.2-0.8c-0.9-3.2-1-6.4-0.4-9.7c1.2-6.6,9-6.2,14-5
						c-0.2-0.5-0.2-1-0.4-1.5c-1.3,1.4-5.4,4.2-5.7,6c-0.4,1.9-0.2,4-0.3,5.9c0,0.5,0.4,0.8,0.9,0.9c1.7,0.2,3.8,0.3,5.5-0.1
						c2-0.6,4.8-4.2,6.4-5.5c-0.4-0.2-0.9-0.5-1.3-0.7c0,1.9,0,3.8-0.1,5.8c-0.1,2.8-0.2,5.1-2.9,7c-2.5,1.7-8.2,2.4-10.8,1.1
						c-0.3-0.2-0.7-0.2-1.1,0.2c-2.1,2.1-4.1,4.4-6.2,6.4c-0.7,0.8,0.4,2.1,1.2,1.2c1.3-1.3,2.6-2.7,4-4.1c1.5-1.6,1.7-1.7,3.8-1.3
						c3.1,0.6,7.4-0.7,10-2c4.6-2.4,3.6-9.8,3.6-14.2c0-0.6-0.7-1.2-1.3-0.7c-1.6,1.2-3,2.4-4.4,3.7c-2,1.8-4,1.9-6.5,1.7
						c0.2,0.2,0.6,0.6,0.8,0.8c0.1-1.3,0.2-2.7,0.2-4c0.2-2.4,3.8-5,5.4-6.6C48,3,47.8,2.2,47.2,2.1c-6-1.5-13.5-1.7-15.9,5
						c-1.1,3.1-0.8,6.7-0.3,9.8c0.4,2.6-4.5,5.3-6.4,7.1C23.9,24.8,25.1,26,25.9,25.2L25.9,25.2z"/>
				</g>
			</g>
		</g>
	</g>
</g>
<g id="Layer_4">
</g>
</svg>
