<?xml version="1.0" encoding="utf-8"?>
<!-- Generator: Adobe Illustrator 18.0.0, SVG Export Plug-In . SVG Version: 6.00 Build 0)  -->
<!DOCTYPE svg PUBLIC "-//W3C//DTD SVG 1.1//EN" "http://www.w3.org/Graphics/SVG/1.1/DTD/svg11.dtd">
<svg version="1.1" xmlns="http://www.w3.org/2000/svg" xmlns:xlink="http://www.w3.org/1999/xlink" x="0px" y="0px"
	 viewBox="0 0 53.5 47.7" enable-background="new 0 0 53.5 47.7" xml:space="preserve">
<g id="Layer_1">
	<g id="Layer_2">
	</g>
</g>
<g id="Layer_5" display="none">
</g>
<g id="panel1">
	<g>
		<g>
			<path fill="#0391D8" d="M1.5,21.6C18.8,16.2,35.6,9.7,52.2,2.4c1.5-0.7,0.2-2.8-1.3-2.2c-16.3,7.3-33,13.6-50,19
				C-0.7,19.7,0,22.1,1.5,21.6L1.5,21.6z"/>
			<path fill="#0391D8" d="M50.6,1.6c-2.3,12.7-5.6,25.1-9.7,37.3c-0.5,1.5,1.9,2.2,2.4,0.7C47.5,27.4,50.7,15,53,2.3
				C53.3,0.7,50.9,0.1,50.6,1.6L50.6,1.6z"/>
			<path fill="#0391D8" d="M1,22.2c13.5,6,26.9,12.1,40.5,18c1.5,0.6,2.7-1.5,1.3-2.2c-13.5-5.9-27-12-40.5-18
				C0.8,19.4-0.5,21.6,1,22.2L1,22.2z"/>
			<path fill="#0391D8" d="M21.7,29.4c11-7.9,19.5-19.2,30.5-27c1.3-0.9,0.1-3.1-1.3-2.2c-11,7.9-19.5,19.2-30.5,27
				C19.1,28.2,20.4,30.4,21.7,29.4L21.7,29.4z"/>
			<path fill="#0391D8" d="M12.3,35.6c0,0,0,5.6,0,10.9c0,1,5,1.8,5.7,0.9c3.1-3.9,7.9-7.7,9.7-12.4c0.6-1.5-0.9-2.1-1.5-0.7
				c-1.6,4.3-7.3,7.8-10.1,11.3c0.7,0.3-0.7,0.6-0.7,0.9c0-5.2,0-5.9,0-10.9C15.3,33.6,12.3,33.6,12.3,35.6
				C12.3,35.6,12.3,33.6,12.3,35.6z"/>
		</g>
	</g>
</g>
<g id="Layer_4">
</g>
</svg>
