<?xml version="1.0" encoding="utf-8"?>
<!-- Generator: Adobe Illustrator 18.0.0, SVG Export Plug-In . SVG Version: 6.00 Build 0)  -->
<!DOCTYPE svg PUBLIC "-//W3C//DTD SVG 1.1//EN" "http://www.w3.org/Graphics/SVG/1.1/DTD/svg11.dtd">
<svg version="1.1" id="Layer_1" xmlns="http://www.w3.org/2000/svg" xmlns:xlink="http://www.w3.org/1999/xlink" x="0px" y="0px"
	 viewBox="0 0 196.6 196.9" enable-background="new 0 0 196.6 196.9" xml:space="preserve">
<g>
	<g>
		<g>
			<path fill="#BCBEC0" d="M81.5,23.4c-41.3,9.3-67.5,50.4-58.2,91.8c9.3,41.4,50.4,67.5,91.8,58.2c41.4-9.3,67.5-50.4,58.2-91.8
				C164,40.3,122.9,14.2,81.5,23.4z M113.7,167.2c-38,8.5-75.7-15.4-84.2-53.4c-8.5-38,15.4-75.7,53.4-84.2S158.6,45,167.1,83
				C175.6,121,151.7,158.7,113.7,167.2z"/>
			<path fill="#BCBEC0" d="M184.3,86.5l10.1-9.6l-13.3-4.4l8.4-11.1l-13.8-2.1l6.5-12.4l-14,0.2l4.3-13.3l-13.7,2.5l2.1-13.8
				l-13.2,4.7l-0.2-14L135.4,20l-2.5-13.7l-10.9,8.7l-4.7-13.2l-9.3,10.4L101,0l-7.5,11.8L84.8,0.9l-5.4,12.9L68.9,4.5L65.7,18
				l-11.8-7.5l-1,13.9L40,19.1L41.3,33l-13.6-3.2l3.6,13.5l-13.9-0.9L23.2,55L9.3,56.4L17.1,68L3.6,71.6l9.6,10.2L0.4,87.6L11.6,96
				L0,103.8l12.4,6.5l-10.1,9.6l13.3,4.4l-8.4,11.1l13.8,2.1L14.4,150l14-0.2L24,163.1l13.7-2.5l-2.1,13.8l13.2-4.7l0.2,14l12.2-6.8
				l2.5,13.7l10.9-8.7l4.7,13.2l9.3-10.4l6.8,12.2l7.5-11.8l8.8,10.9l5.4-12.9l10.4,9.3l3.3-13.6l11.8,7.5l1-13.9l12.9,5.4
				l-1.3-13.9l13.6,3.2l-3.6-13.5l13.9,0.9l-5.8-12.7l13.9-1.3l-7.8-11.6l13.5-3.6l-9.6-10.2l12.7-5.8l-11.1-8.4l11.6-7.8
				L184.3,86.5z M115.4,175c-42.2,9.4-84.2-17.2-93.7-59.4C12.3,73.4,39,31.4,81.2,21.9c42.2-9.4,84.2,17.2,93.7,59.4
				C184.3,123.5,157.6,165.5,115.4,175z"/>
		</g>
	</g>
	<g>
		<path fill="#BCBEC0" d="M41.6,97l-2,0.4l-0.5-12.3l2.5-0.6l4.8,11.3l-2,0.4l-0.9-2.5l-2.2,0.5L41.6,97z M41.3,92.4l1.6-0.4
			L41,87.2l0,0L41.3,92.4z"/>
		<path fill="#BCBEC0" d="M51.1,85.6l2,8.8l-1.7,0.4l-0.2-0.9c-0.6,0.8-0.9,1.3-2,1.5c-1,0.2-1.7-0.4-2-1.5l-1.6-7.1l1.8-0.4
			l1.5,6.8c0.1,0.4,0.4,0.6,0.8,0.5c0.4-0.1,0.7-0.4,1.1-0.8L49.3,86L51.1,85.6z"/>
		<path fill="#BCBEC0" d="M52.5,86.9l-0.3-1.5l1-0.2l-0.5-2.4l1.8-0.4l0.5,2.4l1.2-0.3l0.3,1.5l-1.2,0.3l1.1,5.1
			c0.1,0.5,0.4,0.7,0.8,0.6l0.6-0.1l0.4,1.6c-0.2,0.1-0.4,0.2-0.9,0.3c-1.4,0.3-2.3-0.2-2.6-1.5l-1.2-5.5L52.5,86.9z"/>
		<path fill="#BCBEC0" d="M59.4,93l-2.6-11.8l1.8-0.4l0.9,3.8c0.5-0.7,0.8-1.2,1.9-1.5c1-0.2,1.7,0.4,2,1.5l1.6,7.1L63,92.2
			l-1.5-6.8c-0.1-0.4-0.4-0.6-0.8-0.5c-0.4,0.1-0.7,0.4-1.1,0.8l1.5,6.9L59.4,93z"/>
		<path fill="#BCBEC0" d="M65.3,85.7c-0.4-1.9,0-3.4,2.1-3.9c2.1-0.5,3.1,0.7,3.6,2.6l0.6,2.6c0.4,1.9,0,3.4-2.1,3.9
			c-2.1,0.5-3.1-0.7-3.6-2.6L65.3,85.7z M69.1,84.5c-0.2-1-0.7-1.4-1.3-1.2c-0.7,0.1-0.9,0.7-0.7,1.7l0.7,3.2c0.2,1,0.7,1.4,1.3,1.2
			c0.7-0.1,0.9-0.7,0.7-1.7L69.1,84.5z"/>
		<path fill="#BCBEC0" d="M73.9,89.7l-2-8.8l1.7-0.4l0.2,1l0,0c0.3-0.9,0.9-1.5,1.8-1.7l0.4-0.1l0.4,1.9c-0.3,0-0.7,0-1.2,0.1
			c-0.6,0.1-1.1,0.7-1,1.5l1.4,6.1L73.9,89.7z"/>
		<path fill="#BCBEC0" d="M77.1,78.4l-0.4-1.7l1.8-0.4l0.4,1.7L77.1,78.4z M79.4,88.5l-2-8.8l1.8-0.4l2,8.8L79.4,88.5z"/>
		<path fill="#BCBEC0" d="M81.2,80.4l-0.3-1.5l5.2-1.2l0.3,1.5l-2.1,6.6l3.4-0.8l0.3,1.5l-5.4,1.2l-0.3-1.5l2.1-6.5L81.2,80.4z"/>
		<path fill="#BCBEC0" d="M94,81l-3.9,0.9l0.3,1.3c0.2,1,0.7,1.4,1.3,1.2c0.7-0.1,0.9-0.7,0.7-1.7l0-0.2l1.8-0.4
			c0.4,1.9-0.1,3.3-2.1,3.8c-2.1,0.5-3.1-0.7-3.6-2.6L88,80.6c-0.4-1.9,0-3.4,2.1-3.9c2.1-0.5,3.1,0.7,3.6,2.6L94,81z M91.9,79.9
			l-0.1-0.5c-0.2-1-0.7-1.4-1.3-1.2c-0.7,0.1-0.9,0.7-0.7,1.7l0.1,0.5L91.9,79.9z"/>
		<path fill="#BCBEC0" d="M100.4,83.8l-0.2-0.9l0,0c-0.4,0.9-0.8,1.3-1.7,1.5c-1.1,0.3-2.1-0.4-2.4-2L95,78.2
			c-0.4-1.6,0.2-2.6,1.3-2.9c0.8-0.2,1.3,0.1,2.1,0.5L97.6,72l1.8-0.4l2.6,11.8L100.4,83.8z M98.7,76.8c-0.4-0.2-0.8-0.3-1.1-0.2
			c-0.5,0.1-0.8,0.5-0.6,1.6l0.7,3.3c0.3,1.2,0.7,1.3,1.2,1.2c0.4-0.1,0.6-0.3,0.9-0.7L98.7,76.8z"/>
		<path fill="#BCBEC0" d="M107.6,82.2l-2.6-11.8l2.9-0.7c2.5-0.6,3.9,0.1,4.4,2.7c0.6,2.5-0.4,3.7-2.9,4.3l-0.9,0.2l1.1,4.8
			L107.6,82.2z M108.2,75.2l0.8-0.2c1.3-0.3,1.6-0.8,1.3-2.2c-0.3-1.4-0.8-1.7-2.1-1.4l-0.8,0.2L108.2,75.2z"/>
		<path fill="#BCBEC0" d="M114.1,74.2c-0.3-1.8,0.6-3,2.3-3.4c1.7-0.4,2.8,0.2,3.2,1.8l1.3,5.6c0.1,0.3,0.2,0.6,0.3,0.9l-1.7,0.4
			c-0.1-0.2-0.2-0.5-0.3-0.7c-0.6,0.7-1.1,1.1-2,1.3c-1.2,0.3-2.1-0.4-2.3-1.6c-0.4-1.9,0.6-3.3,3-4.9l-0.1-0.5
			c-0.2-0.7-0.5-1.1-1.2-0.9c-0.8,0.2-0.9,0.7-0.8,1.5L114.1,74.2z M118.2,75.1c-1.5,1.3-1.7,2-1.6,2.8c0.1,0.6,0.5,0.7,1,0.6
			c0.5-0.1,0.8-0.6,1-1.1L118.2,75.1z"/>
		<path fill="#BCBEC0" d="M122.9,78.7l-2-8.8l1.7-0.4l0.2,1l0,0c0.3-0.9,0.9-1.5,1.8-1.7l0.4-0.1l0.4,1.9c-0.3,0-0.7,0-1.2,0.1
			c-0.6,0.1-1.1,0.7-1,1.5l1.4,6.1L122.9,78.7z"/>
		<path fill="#BCBEC0" d="M126,70.4l-0.3-1.5l1-0.2l-0.5-2.4l1.8-0.4l0.5,2.4l1.2-0.3l0.3,1.5l-1.2,0.3l1.1,5.1
			c0.1,0.5,0.4,0.7,0.8,0.6l0.6-0.1l0.4,1.6c-0.2,0.1-0.4,0.2-0.9,0.3c-1.4,0.3-2.3-0.2-2.6-1.5l-1.2-5.5L126,70.4z"/>
		<path fill="#BCBEC0" d="M132.9,76.5l-2-8.8l1.7-0.4l0.2,0.9c0.6-0.8,0.9-1.3,2-1.5c1-0.2,1.7,0.4,2,1.5l1.6,7.1l-1.8,0.4l-1.5-6.8
			c-0.1-0.4-0.4-0.6-0.8-0.5c-0.4,0.1-0.7,0.4-1.1,0.8l1.5,6.9L132.9,76.5z"/>
		<path fill="#BCBEC0" d="M144.9,69.6l-3.9,0.9l0.3,1.3c0.2,1,0.7,1.4,1.3,1.2c0.7-0.1,0.9-0.7,0.7-1.7l0-0.2l1.8-0.4
			c0.4,1.9-0.1,3.3-2.1,3.8c-2.1,0.5-3.1-0.7-3.6-2.6l-0.6-2.6c-0.4-1.9,0-3.4,2.1-3.9c2.1-0.5,3.1,0.7,3.6,2.6L144.9,69.6z
			 M142.7,68.5l-0.1-0.5c-0.2-1-0.7-1.4-1.3-1.2c-0.7,0.1-0.9,0.7-0.7,1.7l0.1,0.5L142.7,68.5z"/>
		<path fill="#BCBEC0" d="M147.4,73.3l-2-8.8l1.7-0.4l0.2,1l0,0c0.3-0.9,0.9-1.5,1.8-1.7l0.4-0.1l0.4,1.9c-0.3,0-0.7,0-1.2,0.1
			c-0.6,0.1-1.1,0.7-1,1.5l1.4,6.1L147.4,73.3z"/>
	</g>
	<g>
		<path fill="#BCBEC0" d="M54.9,134.3l-1.1-4.9l-5.8,1.3l1.1,4.9l-2,0.4l-2.5-11.2l2-0.4l1,4.6l5.8-1.3l-1-4.6l2-0.4l2.5,11.2
			L54.9,134.3z"/>
		<path fill="#BCBEC0" d="M57.8,129.4c-0.5-2.3,0.8-4.6,3.2-5.2c2.4-0.5,4.4,1,5,3.5l0.1,0.4l-6.2,1.4c0.4,1.2,1.6,2,3.1,1.7
			c0.8-0.2,1.7-0.7,2.1-1.4l1.1,1c-0.6,1-1.7,1.6-3,1.9C60.6,133.3,58.4,132,57.8,129.4z M61.3,125.7c-1.5,0.3-1.9,1.6-1.8,2.7
			l4.6-1C63.8,126.4,62.9,125.3,61.3,125.7z"/>
		<path fill="#BCBEC0" d="M73.5,130.2l-0.2-0.9c-0.4,0.8-1.3,1.4-2.4,1.7c-1.3,0.3-3-0.3-3.4-2.1c-0.4-1.9,0.9-3,2.2-3.3
			c1.1-0.2,2.1-0.1,2.8,0.5l-0.3-1.2c-0.2-0.9-1.1-1.3-2.2-1.1c-0.9,0.2-1.6,0.7-2.2,1.6l-1-1.1c0.7-1.1,1.8-1.8,3.1-2.1
			c1.8-0.4,3.5,0,4,2.2l1.2,5.4L73.5,130.2z M73.1,128.3l-0.3-1.2c-0.5-0.5-1.3-0.6-2.1-0.4c-1,0.2-1.6,1-1.4,1.8
			c0.2,0.9,1.1,1.3,2,1.1C72.1,129.4,72.8,129,73.1,128.3z"/>
		<path fill="#BCBEC0" d="M77.5,129.3L75,118.1l1.8-0.4l2.5,11.2L77.5,129.3z"/>
		<path fill="#BCBEC0" d="M81.5,126.4l-1-4.7l-1.3,0.3l-0.3-1.5l1.3-0.3l-0.5-2.2l1.8-0.4l0.5,2.2l1.6-0.4l0.3,1.5l-1.6,0.4l0.9,4.2
			c0.1,0.6,0.5,0.9,1,0.8c0.3-0.1,0.6-0.3,0.7-0.5l0.7,1.2c-0.3,0.4-0.7,0.7-1.5,0.9C82.7,128.3,81.8,127.7,81.5,126.4z"/>
		<path fill="#BCBEC0" d="M92.4,125.9l-1.1-5.1c-0.3-1.3-1-1.5-2-1.3c-0.9,0.2-1.5,0.9-1.8,1.6l1.3,5.6l-1.8,0.4L84.4,116l1.8-0.4
			l0.9,4.2c0.4-0.8,1.3-1.7,2.6-1.9c1.7-0.4,2.8,0.3,3.2,2l1.3,5.7L92.4,125.9z"/>
		<path fill="#BCBEC0" d="M94.7,119.6c-0.8-3.4,1.3-6.4,4.6-7.1c2.3-0.5,3.9,0.4,5.1,1.5l-1.5,1.2c-0.7-0.8-2-1.3-3.2-1
			c-2.2,0.5-3.5,2.6-2.9,4.9c0.5,2.3,2.5,3.7,4.8,3.2c1.2-0.3,2.1-1.2,2.5-2.3l1.9,0.5c-0.6,1.5-1.7,3-3.9,3.5
			C98.6,124.8,95.5,123,94.7,119.6z"/>
		<path fill="#BCBEC0" d="M112.8,121.4l-0.2-0.9c-0.4,0.8-1.3,1.4-2.4,1.7c-1.3,0.3-3-0.3-3.4-2.1c-0.4-1.9,0.9-3,2.2-3.3
			c1.1-0.2,2.1-0.1,2.8,0.5l-0.3-1.2c-0.2-0.9-1.1-1.3-2.2-1.1c-0.9,0.2-1.6,0.7-2.2,1.6l-1-1.1c0.7-1.1,1.8-1.8,3.1-2.1
			c1.8-0.4,3.5,0,4,2.2l1.2,5.4L112.8,121.4z M112.3,119.5l-0.3-1.2c-0.5-0.5-1.3-0.6-2.1-0.4c-1,0.2-1.6,1-1.4,1.8
			c0.2,0.9,1.1,1.3,2,1.1C111.4,120.6,112.1,120.2,112.3,119.5z"/>
		<path fill="#BCBEC0" d="M116.8,120.5l-1.8-8.1l1.8-0.4l0.3,1.2c0.4-0.9,1.3-1.7,2.3-2l0.4,1.7c-0.2,0-0.3,0-0.6,0.1
			c-0.7,0.2-1.6,0.9-1.8,1.5l1.2,5.5L116.8,120.5z"/>
		<path fill="#BCBEC0" d="M121.2,115.2c-0.5-2.3,0.8-4.6,3.2-5.2c2.4-0.5,4.4,1,5,3.5l0.1,0.4l-6.2,1.4c0.4,1.2,1.6,2,3.1,1.7
			c0.8-0.2,1.7-0.7,2.1-1.4l1.1,1c-0.6,1-1.7,1.6-3,1.9C124,119.1,121.8,117.8,121.2,115.2z M124.7,111.5c-1.5,0.3-1.9,1.6-1.8,2.7
			l4.6-1C127.2,112.2,126.3,111.2,124.7,111.5z"/>
		<path fill="#BCBEC0" d="M131.7,116.5c-0.1-0.4,0.2-0.8,0.6-0.9c0.4-0.1,0.8,0.2,0.9,0.6c0.1,0.4-0.2,0.8-0.6,0.9
			C132.3,117.2,131.8,116.9,131.7,116.5z"/>
		<path fill="#BCBEC0" d="M136.1,118.3l0.4-0.8c0.9,0.7,1.7,0.8,2.9,0.5c1.5-0.3,2.6-1.4,2.2-3.2l-0.3-1.3c-0.4,0.9-1.3,1.9-2.5,2.1
			c-2.1,0.5-4-0.8-4.6-3.4c-0.6-2.6,0.5-4.6,2.7-5c1.2-0.3,2.3,0.1,3.2,0.9l-0.3-1.3l0.9-0.2l1.8,8c0.6,2.5-0.9,3.7-2.9,4.2
			C138.2,119.1,137.3,119.1,136.1,118.3z M141.2,112.8l-0.9-3.9c-0.6-0.7-1.9-1.1-3-0.9c-1.8,0.4-2.5,2.1-2.1,4.1
			c0.4,2,1.8,3.2,3.6,2.8C139.9,114.6,140.9,113.7,141.2,112.8z"/>
		<path fill="#BCBEC0" d="M143.8,110.2c-0.5-2.4,0.6-4.6,2.9-5.1c2.4-0.5,4.3,1,4.9,3.4s-0.6,4.6-3,5.1
			C146.3,114.1,144.4,112.5,143.8,110.2z M150.7,108.6c-0.4-1.8-1.8-3.2-3.7-2.8c-1.9,0.4-2.6,2.3-2.2,4.1c0.4,1.8,1.8,3.2,3.7,2.8
			C150.4,112.3,151.1,110.4,150.7,108.6z"/>
		<path fill="#BCBEC0" d="M157,111.5l-5.2-7.3l1-0.2l4.5,6.4l1.3-7.7l1-0.2l-1.6,8.9L157,111.5z"/>
	</g>
	<g>
		<g>
			<g>
				<path fill="#BCBEC0" d="M99.5,100.4c0-0.1,0.1-0.2,0.4-0.3c0.1,0,0.2-0.1,0.3-0.1c0.1,0,0.1,0,0.1,0c-0.1,1.3-0.6,2.1-1.4,2.4
					c-0.3,0.1-0.6,0.2-1,0.2c-0.2,0.5-0.5,0.8-0.9,1.1c-0.6,0.4-1.1,0.5-1.6,0.4c-0.6-0.1-1-0.5-1.2-1.2c-0.3-0.9-0.5-1.7-0.4-2.6
					c0.1-1,0.4-1.7,1-2.3c0.3-0.3,0.6-0.5,0.9-0.6c0.4-0.2,0.8-0.2,1,0c0,0,0,0-0.1,0.1c-0.1,0.1-0.1,0.1-0.2,0.2
					c-0.2,0.2-0.4,0.2-0.5,0.2c-0.3-0.2-0.5-0.2-0.7,0c-0.2,0.2-0.3,0.5-0.4,0.9c-0.2,0.7-0.3,1.3-0.3,1.8c0.1,1.3,0.4,2.2,0.8,2.6
					c0.5,0.5,0.9,0.6,1.2,0.5c0.3-0.1,0.5-0.5,0.7-1.1c-0.5-0.1-0.9-0.4-1.3-0.7c-0.4-0.4-0.6-0.8-0.7-1.3c-0.1-0.6,0-1.2,0.3-1.6
					c0.3-0.5,0.7-0.8,1.3-0.9c0.5-0.2,0.9,0.1,1.1,0.8c0.1,0.4,0.2,1,0.2,1.6c0,0.7,0,1.2-0.2,1.7c0.6,0.2,1,0,1.1-0.5
					C99.4,101.3,99.5,100.8,99.5,100.4z M96.5,101.3c0.2,0.2,0.5,0.4,0.8,0.6c0.1-0.7,0.1-1.2,0-1.7c-0.1-0.5-0.1-0.8-0.2-1
					c-0.1-0.4-0.3-0.7-0.6-0.7c-0.3-0.1-0.5,0-0.6,0.3c-0.1,0.2-0.1,0.5-0.1,0.9c0,0.3,0.1,0.7,0.2,1
					C96.3,100.9,96.4,101.2,96.5,101.3z"/>
				<path fill="#BCBEC0" d="M96.2,104.2c-0.3,0.1-0.6,0.1-0.9,0c-0.6-0.1-1-0.6-1.3-1.3c-0.3-0.9-0.5-1.8-0.4-2.6
					c0.1-1,0.4-1.8,1-2.4c0.3-0.3,0.6-0.5,1-0.6c0.5-0.2,0.9-0.2,1.2,0c0.1,0.1,0,0.3-0.1,0.3c-0.1,0.1-0.2,0.1-0.2,0.2
					c-0.3,0.2-0.5,0.2-0.6,0.2c-0.2-0.2-0.3-0.2-0.5,0c-0.2,0.1-0.3,0.4-0.4,0.8c-0.2,0.7-0.3,1.3-0.3,1.8c0.1,1.2,0.4,2.1,0.8,2.5
					c0.4,0.4,0.8,0.6,1.1,0.4c0.2-0.1,0.4-0.4,0.6-0.9c-0.5-0.1-0.9-0.4-1.2-0.7c-0.4-0.4-0.6-0.9-0.7-1.4c-0.1-0.7,0-1.2,0.3-1.7
					c0.3-0.5,0.8-0.8,1.4-1c0.4-0.1,1-0.1,1.3,0.9c0.2,0.5,0.2,1,0.3,1.7c0,0.6,0,1.2-0.1,1.6c0.2,0,0.3,0,0.4,0l0,0
					c0.2,0,0.3-0.2,0.4-0.4c0.2-0.4,0.3-0.9,0.3-1.3c0-0.2,0.2-0.3,0.5-0.4c0.2-0.1,0.4-0.2,0.5-0.1l0.1,0l0,0.1
					c-0.1,1.3-0.6,2.2-1.5,2.5c-0.3,0.1-0.6,0.2-0.9,0.2c-0.2,0.4-0.5,0.8-0.9,1.1C96.7,104,96.4,104.2,96.2,104.2z M94.9,98.1
					C94.8,98.1,94.8,98.1,94.9,98.1c-0.6,0.6-1,1.4-1,2.3c-0.1,0.8,0.1,1.7,0.4,2.5c0.2,0.6,0.6,1,1.1,1.1c0.3,0.1,0.7,0,1-0.1
					c-0.4,0.1-0.7-0.1-1.2-0.6c-0.5-0.5-0.8-1.4-0.9-2.7c0-0.5,0.1-1.2,0.3-1.9C94.7,98.4,94.8,98.2,94.9,98.1z M95.9,98.7
					c-0.1,0.1-0.2,0.2-0.3,0.3c-0.3,0.4-0.4,0.9-0.3,1.5c0.1,0.5,0.3,0.9,0.6,1.3c0.3,0.3,0.7,0.6,1.2,0.7l0.1,0l0,0.1
					c-0.1,0.5-0.3,0.9-0.6,1.1c0,0,0.1,0,0.1-0.1c0.4-0.2,0.7-0.6,0.8-1l0-0.1l0.1,0c0.3,0,0.5,0,0.8-0.1c-0.2,0-0.4,0-0.6-0.1
					l-0.1,0l0-0.1c0.1-0.5,0.2-1,0.2-1.7c0-0.6-0.1-1.2-0.2-1.6c-0.3-0.8-0.6-0.8-0.9-0.8c0,0,0,0-0.1,0c-0.2,0-0.3,0.1-0.5,0.2
					c0.1,0,0.2,0,0.2,0c0.3,0.1,0.5,0.3,0.7,0.8c0.1,0.2,0.1,0.5,0.2,1c0.1,0.5,0.1,1.1,0,1.8l0,0.2l-0.2-0.1
					c-0.4-0.2-0.6-0.4-0.8-0.6c-0.1-0.1-0.2-0.4-0.4-0.7c-0.1-0.4-0.2-0.7-0.2-1C95.8,99.2,95.8,98.9,95.9,98.7
					C95.9,98.7,95.9,98.7,95.9,98.7z M100.1,100.2c0,0-0.1,0-0.2,0.1c-0.3,0.1-0.3,0.2-0.3,0.2c0,0.4-0.1,0.9-0.3,1.4
					c-0.1,0.2-0.2,0.3-0.3,0.4C99.6,101.8,100,101.2,100.1,100.2z M96.4,98.6c-0.1,0-0.2,0.1-0.2,0.2c-0.1,0.2-0.1,0.4,0,0.8
					c0,0.3,0.1,0.6,0.2,1c0.1,0.4,0.2,0.5,0.3,0.6c0.1,0.2,0.3,0.3,0.6,0.5c0.1-0.6,0.1-1.1,0-1.5c-0.1-0.5-0.1-0.8-0.2-1
					c-0.1-0.4-0.3-0.6-0.5-0.6C96.5,98.6,96.4,98.6,96.4,98.6z M95.6,97.6c0.1,0,0.2,0.1,0.3,0.2c0.1,0,0.1-0.1,0.3-0.2
					c0.1,0,0.1-0.1,0.2-0.1C96.2,97.4,96,97.4,95.6,97.6C95.6,97.6,95.6,97.6,95.6,97.6z"/>
			</g>
			<g>
				<path fill="#BCBEC0" d="M103.7,99.4c0-0.1,0.1-0.2,0.4-0.3c0.3-0.1,0.4-0.1,0.4,0.2c-0.1,0.7-0.3,1.3-0.5,1.8
					c-0.3,0.6-0.8,1-1.5,1.4c0.6,0.7,0.9,1.4,1,2.2c0.1,0.9-0.2,1.6-0.9,2.1c-0.5,0.4-0.9,0.5-1.3,0.3c-0.4-0.1-0.6-0.5-0.8-1.1
					c-1-3.8-1.4-7.5-1.2-10.9c0.1-0.9,0.1-1.5,0.2-2c0.2-0.7,0.5-1.3,0.9-1.7c0.2-0.2,0.5-0.4,0.9-0.5c0.4-0.2,0.8-0.2,1,0
					c0.4,0.4,0.6,1.1,0.6,2.2c0,0.4-0.1,1.2-0.3,2.3c-0.3,1.9-0.8,4-1.5,6.3c0,0.1-0.2,0.2-0.4,0.3c0.1,0.6,0.2,1.2,0.3,1.7
					c0,0.1,0.1,0.3,0.1,0.6c0,0.3,0.1,0.5,0.1,0.7c0.1,0.6,0.3,1,0.5,1.2c0.3,0.3,0.5,0.4,0.6,0.3c0.1-0.1,0.2-0.3,0.3-0.7
					c0.1-0.8,0-1.5-0.2-1.9c-0.3-0.5-0.5-0.9-0.8-1.1c0,0,0-0.1,0.3-0.3c0.2-0.1,0.3-0.2,0.4-0.2c0.4-0.3,0.7-0.7,1-1.1
					C103.5,100.6,103.7,100,103.7,99.4z M100.2,95.5c0,1.8,0.1,3.7,0.4,5.6c0.9-3.2,1.4-5.6,1.5-7.4c0-0.5-0.1-1.1-0.3-1.8
					c-0.3-0.9-0.6-0.9-1,0C100.3,92.8,100.2,94,100.2,95.5z"/>
				<path fill="#BCBEC0" d="M102,107.3c-0.2,0-0.4,0-0.6,0c-0.4-0.1-0.7-0.5-0.9-1.2c-1-3.8-1.4-7.5-1.2-10.9c0.1-0.9,0.1-1.6,0.2-2
					c0.2-0.8,0.5-1.4,0.9-1.8c0.2-0.2,0.6-0.4,0.9-0.6c0.5-0.2,0.9-0.2,1.1,0.1c0.5,0.4,0.7,1.2,0.6,2.3c0,0.4-0.1,1.2-0.3,2.4
					c-0.3,1.9-0.8,4-1.5,6.3c0,0.1-0.2,0.2-0.4,0.3c0.1,0.6,0.2,1.1,0.3,1.6c0,0.1,0.1,0.3,0.1,0.6c0,0.3,0.1,0.5,0.1,0.7
					c0.1,0.6,0.3,1,0.5,1.2c0.2,0.3,0.4,0.3,0.4,0.3c0,0,0,0,0,0c0.1,0,0.2-0.2,0.2-0.6c0.1-0.8,0-1.4-0.2-1.8
					c-0.3-0.5-0.5-0.9-0.8-1.1l0,0l0-0.1c0-0.1,0.1-0.2,0.3-0.3c0.2-0.1,0.3-0.2,0.4-0.2c0.4-0.3,0.7-0.7,0.9-1.1
					c0.3-0.6,0.5-1.2,0.5-1.8c0-0.2,0.2-0.3,0.5-0.4c0.2-0.1,0.4-0.1,0.5,0c0.1,0.1,0.1,0.2,0.1,0.3c-0.1,0.7-0.3,1.3-0.5,1.9
					c-0.3,0.6-0.8,1-1.4,1.4c0.5,0.7,0.8,1.4,0.9,2.1c0.1,1-0.2,1.7-0.9,2.2C102.5,107.1,102.2,107.2,102,107.3z M100.8,91.4
					c-0.1,0.1-0.1,0.1-0.2,0.2c-0.4,0.4-0.7,1-0.9,1.7c-0.1,0.4-0.2,1.1-0.2,1.9c-0.2,3.4,0.2,7,1.2,10.8c0.1,0.5,0.4,0.9,0.7,1
					c0.3,0.1,0.7,0,1.1-0.3c0.6-0.5,0.9-1.1,0.8-2c-0.1-0.8-0.4-1.5-1-2.1l-0.1-0.1l0,0c0,0-0.1,0.1-0.4,0.2c-0.1,0-0.1,0.1-0.2,0.1
					c0.2,0.3,0.5,0.6,0.7,1.1c0.3,0.5,0.3,1.1,0.3,2c0,0.4-0.1,0.7-0.3,0.8c-0.2,0.2-0.5,0.1-0.8-0.3c-0.2-0.3-0.4-0.7-0.5-1.3
					c0-0.2-0.1-0.4-0.1-0.7c0-0.3-0.1-0.5-0.1-0.6c-0.1-0.5-0.2-1.1-0.3-1.8l0-0.1l0.1,0c0.3-0.1,0.3-0.2,0.3-0.2
					c0.7-2.3,1.2-4.4,1.5-6.2c0.2-1.2,0.3-2,0.3-2.3c0.1-1-0.1-1.7-0.5-2.1c-0.2-0.2-0.4-0.1-0.8,0c0,0-0.1,0-0.1,0.1
					c0.3,0.1,0.4,0.4,0.5,0.7c0.3,0.7,0.4,1.4,0.3,1.9c-0.1,1.8-0.6,4.3-1.5,7.5l-0.2,0.6l-0.1-0.7c-0.3-2-0.4-3.9-0.4-5.6
					c0-1.5,0.2-2.8,0.6-3.7C100.7,91.6,100.7,91.5,100.8,91.4z M104.3,99.2c0,0-0.1,0-0.1,0c-0.3,0.1-0.3,0.2-0.3,0.2
					c0,0.6-0.2,1.2-0.5,1.9c-0.2,0.4-0.5,0.7-0.8,1c0.7-0.3,1.1-0.8,1.4-1.3C104.1,100.5,104.3,99.9,104.3,99.2
					C104.4,99.2,104.4,99.2,104.3,99.2L104.3,99.2C104.4,99.2,104.4,99.2,104.3,99.2z M101.2,91.4c0,0-0.2,0.1-0.4,0.6
					c-0.4,0.9-0.5,2.1-0.5,3.6c0,1.6,0.1,3.2,0.3,4.9c0.8-2.8,1.2-5.1,1.3-6.7c0-0.5-0.1-1.1-0.3-1.8
					C101.4,91.5,101.3,91.4,101.2,91.4z"/>
			</g>
		</g>
		<path fill="#BCBEC0" d="M87,102.9l-31.1,7c-0.3,0.1-0.6-0.1-0.7-0.4c-0.1-0.3,0.1-0.6,0.4-0.7l31.1-7c0.3-0.1,0.6,0.1,0.7,0.4
			C87.5,102.5,87.3,102.8,87,102.9z"/>
		<path fill="#BCBEC0" d="M142.3,90.5l-31.1,7c-0.3,0.1-0.6-0.1-0.7-0.4c-0.1-0.3,0.1-0.6,0.4-0.7l31.1-7c0.3-0.1,0.6,0.1,0.7,0.4
			C142.8,90.1,142.6,90.4,142.3,90.5z"/>
	</g>
</g>
</svg>
