<?xml version="1.0" encoding="utf-8"?>
<!-- Generator: Adobe Illustrator 18.0.0, SVG Export Plug-In . SVG Version: 6.00 Build 0)  -->
<!DOCTYPE svg PUBLIC "-//W3C//DTD SVG 1.1//EN" "http://www.w3.org/Graphics/SVG/1.1/DTD/svg11.dtd">
<svg version="1.1" xmlns="http://www.w3.org/2000/svg" xmlns:xlink="http://www.w3.org/1999/xlink" x="0px" y="0px"
	 viewBox="0 0 296 50.2" enable-background="new 0 0 296 50.2" xml:space="preserve">
<g id="Layer_1">
	<g id="Layer_2">
	</g>
</g>
<g id="Layer_5" display="none">
</g>
<g id="panel1">
	<g>
		<path fill-rule="evenodd" clip-rule="evenodd" fill="#434952" d="M55,12.8c0.3,0.1,0.5,0.2,0.4,0.6c-0.1,0.7-1.1,0.4-1.7,0.6
			c-1.4,0.5-0.9,2.3-1.1,3.6V23c0,2.4,0,5.3,0,7.7v5.3c0,0.7-0.1,1.6,0.5,1.9c0.4,0.6,1.5,0.2,2.2,0.3c1.1-0.2,1.6-1.4,2.3-2
			c0.3-1,0.7-1.9,0.9-2.9c0.6-1.9,0.3-4.3,0.9-6.2c0.4-0.1,0.5,0.2,0.6,0.5V38c0.2,0.3-0.1,0.7-0.1,1l-0.8,0.2h-9.4
			c-0.1,0-0.7,0-0.9,0c-0.4-0.1-0.9,0-1.1-0.4c0.1-1,1.8-0.6,1.8-1.8V23.9c-0.1-1.7,0-3.8,0-5.4c0-1.6,0.5-3.7-0.7-4.6
			c-0.5-0.5-2,0.3-1.8-0.7c0.1-0.2,0.2-0.3,0.5-0.4H55L55,12.8z"/>
		<path fill-rule="evenodd" clip-rule="evenodd" fill="#434952" d="M92.5,14.2c0.4,0.3,0.8,0,1-0.1c0.4-0.4,0-1.3,0.7-1.2l0.5,0.1
			v9.8c-0.2,0.1,0,0.7-0.3,0.7h-0.6c-0.2-3.5-0.5-7.2-3.1-8.9c-0.5-0.3-1-0.5-1.6-0.5c-1.1,0.1-1.8,0.9-2.2,1.8
			c-0.7,1-0.5,3,0.1,3.9c1.4,2,3.6,3.1,5.3,4.7c1.7,1.8,3.6,3.6,3.7,6.6c0.3,3.3-0.8,6-3,7.7c-1.2,0.8-3.1,0.9-4.5,0.4l-2-1.3
			c-0.5-0.2-0.6,0.3-0.7,0.5c0,0.6-0.1,0.9-0.5,1.1l-0.7-0.2l-0.1-5.4v-6.1c0.2-0.1,0.7-0.1,0.8,0c0.2,3.8,0.3,7.8,3.1,9.8
			c0.8,0.6,1.9,1,3.1,0.7c1.8-0.7,2.4-2.7,2.4-4.9c-0.2-1.9-0.9-3.3-2.2-4.3c-1.8-2.1-4.4-3.3-6.1-5.6c-0.5-0.6-0.5-1.3-0.8-2
			c-0.9-3.1,0.3-6.2,2.1-8c0.8-0.6,2.1-0.9,3.3-0.7C91.2,13.2,91.9,13.7,92.5,14.2L92.5,14.2z"/>
		<path fill-rule="evenodd" clip-rule="evenodd" fill="#434952" d="M18.7,12.9c0.2,0.1,0.5,0.1,0.6,0.5c-0.3,0.7-1.1,0.7-1.4,1.2
			c-0.3,0.6-0.3,1.6-0.1,2.2l1.1,6.6c0.5,2.1,0.9,4.4,1.5,6.5c0,0,0.2,0,0.3,0c0.7-3.2,1.3-6.3,1.9-9.5c-0.6-2.4-0.1-5.7-2.3-6.8
			c-0.2-0.5,0.1-0.7,0.6-0.7c1.3,0.1,5.5,0,6.5,0.1c0.1,0.2,0.1,0.6,0,0.7c-0.7,0.3-1.6,0.2-2.1,0.8c-1,1.7,0.4,3.5,0.3,5.4l1.1,5.9
			c0.3,1.3,0.3,2.9,1,3.9h0.1l1.4-6.1c0.7-2.5,1.1-5.2,1.7-7.8c0.2-0.8-0.1-1.4-0.7-1.8c-0.4-0.4-1-0.3-1.6-0.4
			c-0.1-0.2-0.1-0.6,0-0.7c1.4,0,5.7-0.1,6.2,0c0.3,0.1,0.2,0.6,0.1,0.7c-0.8,0.2-1.7,0.4-2.1,0.9c-0.6,1.5-0.8,3.1-1.2,4.6L30,26.5
			c-0.9,4-2,8.1-2.9,12.2c-0.2,0.3-0.7,0.3-0.8,0.1c-0.6-0.7-0.6-2-0.8-3l-1.4-8l-0.7-3.4h-0.2L22,30c-0.6,2.7-1.1,5.4-1.7,8.2
			c-0.1,0.6-0.5,0.9-1.2,0.7c-0.7-0.2-0.4-1-0.6-1.6l-0.5-3L16.7,27l-0.9-5.3c-0.3-2.1-0.8-4.3-1.3-6.3c-0.1-0.6-0.7-0.9-1-1.3
			c-0.7-0.2-1.2,0.1-1.9-0.3c-0.2-0.2-0.3-0.7,0.1-0.8H18.7L18.7,12.9z"/>
		<path fill-rule="evenodd" clip-rule="evenodd" fill="#434952" d="M69.5,12.9c0.1,0.2,0.3,0.6,0.1,0.7c-0.8,0.4-2.2,0-2.4,1
			c-0.2,2.9-0.2,5-0.2,7.9L66.8,34h-0.1c0.6,1.4-0.7,4.2,1.3,4.3c0.5,0.1,1.4,0.1,1.9-0.2c1.9-1.5,2.4-4,2.8-6.5
			c0.3-1.3,0.1-2.9,0.5-4.2c0.2-0.1,0.6-0.1,0.7,0v11.4l-0.1,0.5c-1.5,0-3.1,0-4.2,0.1l-5.3-0.1h-2.9c-0.5,0-0.3-0.7-0.2-0.9
			c0.9-0.1,2.1,0,2.5-0.7c0.4-1.4,0.1-3.3,0.3-4.8c-0.2-1.3,0.1-2.7-0.1-4.2l0.1-1.2V15.4c-0.1-0.5-0.4-1-0.7-1.3
			c-0.6-0.7-2.8,0.3-2-1.2H69.5L69.5,12.9z"/>
		<path fill-rule="evenodd" clip-rule="evenodd" fill="#434952" d="M108.9,13l0.2,0.5v10.7c-0.1,0.3-0.3,0.4-0.5,0.5l-0.5-0.2
			c0.1-3.4-0.4-6.3-1.3-9c-0.2-0.6-0.7-1-1.2-1.3c-0.5,0-0.9,0-1.1,0.4V25v9.4h-0.1c0.1,1.4-0.2,3.2,0.8,3.8
			c0.7,0.5,1.8-0.3,1.9,0.7c0,0.7-1,0.2-1.5,0.5c-0.5,0-1.6,0-2.1,0v-0.1c-0.7,0.3-1.3-0.2-1.9,0.1c-0.6-0.1-1.8-0.1-2.6-0.1
			c-0.3-0.1-0.2-0.7-0.1-0.8c1-0.2,2.1-0.3,2.5-1.4V14.7c-0.2-0.5-0.5-0.6-0.8-0.7c-1.4,0.4-1.8,1.9-2.1,3.3
			c-0.5,2.1-0.8,4.1-0.7,6.6c-0.2,0.3,0,0.7-0.5,0.7l-0.6-0.2V13.2C98.1,12.8,106,12.9,108.9,13L108.9,13z"/>
		<path fill-rule="evenodd" clip-rule="evenodd" fill="#434952" d="M139.7,13c0.7,0.3,0.3,1.6,0.4,2.2c0.3,1.5-0.2,3.2,0.1,4.5
			c-0.3,0.6,0.1,0.9,0,1.5c-0.2,0.7,0,1.6-0.2,2.1c-1.3,0.1-0.7-1.6-0.8-2.4c-0.3-2.9-1.3-5.5-3.7-6.7c-0.8-0.3-2.2-0.3-2.8,0.4
			c-0.6,1.7-0.3,4.5-0.3,6.1c-0.2,0.6,0.1,0.7,0,1.4c0,0.8,0,1.8,0,2.6c0.1,0.3-0.1,1,0.6,0.9c2.2-1,2.5-3.6,2.5-6.2
			c0-0.4,0.2-0.6,0.7-0.5l0.1,0.6c-0.2,1.2,0.2,2.7-0.1,4c0,1.3,0,3.1,0.1,4.5c-0.1,1.7-0.1,3.2,0,4.9c0,0.4-0.2,0.6-0.6,0.6
			c-0.7-0.6-0.2-2.1-0.5-3c-0.4-1.6-0.7-3.5-2.5-3.8l-0.3,0.2c-0.2,2.1-0.1,3.5-0.1,5.4c0,1.7,0.1,3.8,0,5.5c0.6,1.1,2,0.7,3.3,0.7
			c2.3-1,3.2-3.8,3.6-6.4l1.1,0.3V39l-0.3,0.3l-10.8,0.1c-0.7-0.2-2.1,0.1-2.8-0.2c-0.3-1.5,1.5-0.5,2.1-1c0.4-0.2,0.6-0.6,0.7-0.9
			v-22c-0.2-0.5-0.5-0.9-0.8-1.1c-0.7-0.3-2.1,0.3-2-0.8l0.2-0.3H139.7L139.7,13z"/>
		<path fill-rule="evenodd" clip-rule="evenodd" fill="#434952" d="M153.2,13c0.5,0.3,1.8-0.2,2.1,0.4c0,3.5,0.1,6.4,0,9.8
			c-0.1,0.3-0.6,0.3-0.7,0.1c-0.4-3.6-0.3-7.9-3.6-9.2c-0.7-0.3-1.6,0.1-2.3,0.1c-0.5,0.5-0.8,0.8-0.8,1.6v9
			c0.1,0.3,0.2,0.5,0.5,0.5c2.5-0.7,2.3-3.7,2.7-6.2c0.1-0.2,0.6-0.2,0.7,0c0,1.2,0,2.9,0,3.8c0.2,0.2,0,0.2,0,0.6
			c0.2,0.8,0,1.5,0.1,2.5c0,0.7,0,1.7,0,2.5c-0.3,1.4,0.1,3.2-0.3,4.5c-0.2,0.2-0.6,0.1-0.7-0.2c-0.2-2.1-0.2-4.9-1.9-6.2
			c-0.2-0.2-0.7-0.2-1,0l-0.2,0.7v6.1h0.1c0.1,1.5-0.6,3.9,0.6,4.9c0.7,0.4,1.8,0.5,2.7,0.3c2.1-0.7,2.6-2.8,3.4-4.7
			c-0.2-0.7,0.3-1.5,0.3-2.3l0.2-3c0.2-0.2,0.4-0.3,0.7-0.1l0.2,0.2c-0.3,1.4,0.6,3.6-0.7,4.2c-0.1,0.4-0.6,0.4-0.6,0.8
			c0.4-0.4,0.8-0.7,1.2-1.3h0.2l-0.1,5.4c-0.2,0.7,0.3,1.7-0.5,1.9c-1.6,0.2-3.1,0.1-4.7,0.1c-3-0.2-5.8-0.1-8.7-0.1
			c-0.3-0.1-0.3-0.7-0.1-0.8c0.8-0.3,2-0.1,2.5-0.9c0.8-0.7,0.4-2.5,0.5-3.7c0.1-2.1-0.2-4.8,0-6.6l-0.1-5.3v-6.6
			c-0.3-0.7-0.8-1.4-1.8-1.4c-0.6,0-1.2,0.1-1-0.7C142,12.9,151.7,13,153.2,13L153.2,13z"/>
		<path fill-rule="evenodd" clip-rule="evenodd" fill="#434952" d="M169.5,13.3l0.2,0.3l0.1,7.2c-0.3,1.2,0,2.7-0.2,3.9
			c-0.3,0.3-0.6,0-0.7-0.1l-0.3-4.6c-0.4-2.1-0.7-4.1-2-5.6c-0.3-0.3-0.9-0.3-1.1,0l-0.4,0.4v6.6v0.1v5.3v10.6
			c0.2,1.3,2.1,0.6,2.8,1.1c0.1,0.5-0.1,0.7-0.5,0.8c-2.4,0.3-4.9-0.2-7.3,0c-0.6,0.1-0.6-0.6-0.4-0.8c0.8-0.2,1.9-0.1,2.1-0.9
			l0.1-10.4V14.9c-0.2-0.3-0.4-0.6-0.7-0.7c-1.7,0.2-1.8,1.9-2.2,3.1l-0.7,5c-0.2,0.8,0.2,2-0.3,2.4l-0.6-0.1l-0.1-5.2
			c0-1.9-0.1-4.2,0.1-6.1C158.2,12.9,168,13.2,169.5,13.3L169.5,13.3z"/>
		<path fill-rule="evenodd" clip-rule="evenodd" fill="#434952" d="M189.7,13.2c0.5-0.1,0.6,0.4,0.4,0.7c-0.9,0.2-1.9,0.2-2.4,0.8
			c-0.7,1.5,0.1,3.5-0.2,5c0.1,0.3-0.1,0.8,0,1.3c0.1,1.2,0,2.6,0,3.7c0,0.4,0,1,0,1.6v8.9c-0.6,1.9-1.4,3.7-3.3,4.2
			c-1.9,0.5-3.1-0.4-3.9-1.3c-1-1.5-2.1-3.5-1.3-5.7c0.4-0.8,1-1.3,2-1.4c0.5,0.2,1,0.4,1.2,0.8c-0.1,0.8,0.5,1.8-0.1,2.3
			c-0.1,0.7-1.1,0.7-1.1,1.6c0.1,1.1,0.6,2.1,1.5,2.4c0.8,0.2,1.3-0.2,1.8-0.7c0.7-1.9,0.3-4.9,0.3-6.9l0.1-5.4v-9.6
			c-0.2-0.6-0.4-1-0.8-1.5c-0.6-0.5-1.9,0.2-2.1-0.6l0.3-0.6C184.7,13,186.8,13.3,189.7,13.2L189.7,13.2z"/>
		<path fill-rule="evenodd" clip-rule="evenodd" fill="#434952" d="M210.1,13.3c0.4-0.2,1.1-0.3,1.4,0.2c0.1,0.6-0.3,0.7-0.7,0.7
			c-0.6,0-0.9,0.3-1.3,0.6c-0.4,0.7-0.4,1.6-0.4,2.5v10.6l-0.1,0.1c0.2,2.8,0,4.7,0.2,7.6c0.3,1.1,0.9,2.1,2,2.7
			c0.8,0.2,2,0.1,2.5-0.6c0.9-0.7,1.1-1.7,1.3-2.7v-9.3l-0.1-0.6l0.1-8.2c0.1-0.8-0.1-1.8-0.6-2.4c-0.5-0.4-1.3-0.4-1.9-0.5l0.1-0.7
			l4.9-0.1c0.3,0,0.5,0.3,0.5,0.5c0,0.5-0.7,0.2-0.9,0.4c-0.5,0.1-0.9,0.5-0.9,0.9l-0.3,1.5v18.7c-0.2,1.6-1.1,2.9-2.2,3.8
			c-0.7,0.7-2.2,0.4-3.1,0.6c-1.9-0.4-3.5-1.7-4-3.5c-1.1-2.3-0.4-6.2-0.7-8.7v-12c-0.2-0.6-0.5-0.9-0.9-1.2c-0.5-0.2-1.3,0-1.3-0.6
			c-0.1-0.6,0.6-0.3,0.8-0.5L210.1,13.3L210.1,13.3z"/>
		<path fill-rule="evenodd" clip-rule="evenodd" fill="#434952" d="M238.8,13.3c0.2,0.2,0.6,0.3,0.7,0.6c1.9,5.2,3.3,10.6,5.4,15.7
			c0.6-0.1-0.2-0.7,0.2-0.9c-0.1-2,0.1-3.8-0.1-5.9c0.2-1.1,0-2,0.1-3.2c-0.3-0.2,0.2-0.5-0.1-0.6c0.2-1.1-0.1-2.7-0.1-4
			c-0.5-0.7-1.3-0.8-2.2-0.8c0-0.1-0.2-0.7,0.2-0.7c1.8,0,3.5,0,5.4,0c0.4,0.1,0.2,0.5,0.2,0.7c-0.6,0.3-1.4,0.2-1.8,0.7l-0.4,0.9
			l-0.1,5v14c0,0.5,0,1.5,0,2c-0.1,0.7,0.1,2-0.1,2.7c-0.2,0.2-0.7,0.3-0.8,0.1c-0.7-0.8-0.6-2.2-1.2-3.1c-1-2.5-1.6-5.4-2.6-7.8
			l-1.9-5.3c-0.3-0.9-0.7-1.7-1-2.5l-0.2,0.1c-0.3,1.1-0.3,2.1-0.1,3.2l-0.1,5v8.3c0.2,0.5,0.4,0.9,0.8,1.2c0.5,0.3,1.6-0.3,1.6,0.6
			l-0.1,0.4l-5.2,0.1c-0.4-0.1-0.8-0.1-0.8-0.6c0.4-0.7,2,0,2.3-0.9c0.4-0.7,0.4-1.8,0.4-2.8l-0.1-10.7v-9c-0.2-1.3-1.5-1.4-2.5-1.7
			c-0.3-0.2,0-0.5,0-0.7C236,13.2,237.4,13.3,238.8,13.3L238.8,13.3z"/>
		<path fill-rule="evenodd" clip-rule="evenodd" fill="#434952" d="M271.2,13.4c0.4,0.1,0.7,0.2,0.7,0.7c-0.2,0.7-1.4,0.3-1.9,0.7
			c-0.7,0.3-0.7,1.1-0.8,1.7v20.8c-0.3,0.7,0.2,1.1,0.6,1.5c0.7,0.5,2.4,0.4,3.4,0.1c1.5-0.9,1.8-2.8,2.4-4.5l0.7-4.9
			c0.1-0.2,0.5-0.2,0.7,0v8.7h-0.1c0,0.5,0.1,1.2-0.1,1.7c-0.5,0.2-1.2,0-1.6,0.1l-0.3-0.1l-5,0.1c-2-0.1-4.1,0.2-5.7-0.3
			c-0.2-0.1-0.2-0.5-0.1-0.7c0.6-0.4,1.8,0.1,2.1-0.7l0.1-0.9v-22c-0.5-0.9-1.5-1-2.4-1c0-0.4-0.2-0.7,0.2-0.8H271.2L271.2,13.4z"/>
		<g>
			<path fill="#434952" d="M202.8,22.2c-0.6-2.3-0.9-4.8-2.1-6.4c-0.6-1-1.5-1.9-2.4-2.5c-1.5-0.5-3.3-0.2-4.2,0.8
				c-2.3,2.7-3.5,6.5-3.7,10.5c-0.1,6,0.7,11.1,4.3,14.4c0.7,0.7,2.4,0.7,3.5,0.4c1.2-0.7,2.2-1.8,3-3.2
				C203,32.6,203.5,27,202.8,22.2z M199.2,35.7c-0.2,0.9-0.7,1.6-1.1,2.3c-0.7,0.6-1.8,0.5-2.4,0.1c-1.4-0.9-1.7-2.7-1.6-4.3
				c-0.1-1.3,0.4-2.4,0-3.6c0.1-1.4,0-3,0.2-4.5c-0.2-0.1,0-0.7-0.2-0.7c0.4-0.5-0.1-0.7,0-1.2c0.1-2.3,0-4.1,0-6.8
				c0.4-1.2,0.9-2.6,2.2-2.9c1.4-0.1,2,0.7,2.6,1.8l0.1,1.8v5.9l0.2,0.1L199.2,35.7z"/>
		</g>
		<g>
			<path fill="#434952" d="M125.8,33.6c-0.2-0.4-0.5,0.2-0.7,0c-0.1,0.8-0.3,1.8-0.2,2.6c-0.2,0.3-0.3,0.7-0.7,0.8
				c-0.3-0.1-0.5-0.3-0.6-0.6c-0.4-1.4-0.1-3.2-0.2-4.8c-0.3,0-0.5-0.2-0.4-0.5c0.1-0.2,0.3,0,0.3,0.2c0-1.7-0.2-3.8-1.5-4.8
				c-0.4-0.6-1-0.6-0.8-1.2c1-0.7,1.8-1.5,2.4-2.4c1.3-1.8,0.9-5.2,0.3-7.3c-0.7-1.4-2.1-2-3.6-3h-9c-0.4,0-0.5,0.4-0.4,0.8
				c0.2,0.5,1,0.2,1.5,0.4c0.7,0.3,0.9,1.1,1.1,2c-0.1,0.9,0,2.3-0.1,3.3c0.1,1.5,0.1,3.5,0.1,4.9c-0.1,2,0,4.1,0,6.3l-0.1,5.4
				c0.2,0.5-0.1,1-0.1,1.5c-0.3,0.3-0.6,0.7-1,0.8c-0.4,0.3-1.2-0.2-1.2,0.5c-0.4,1.1,1.2,0.3,1.7,0.7c0.1-0.2,0.4,0,0.6,0l4.9-0.1
				l0.2-0.3c0.1-0.7-0.7-0.7-1.1-0.7c-0.5-0.2-0.9-0.7-0.9-1.2V26.7l0.3-0.4c0.5-0.4,1.3-0.2,1.9,0c1.3,0.4,1.8,1.8,1.8,3.1v6.7
				l0.4,1.8c0.5,0.7,1.2,1.3,2.1,1.6c0.8,0.1,1.4-0.1,2-0.5C125.9,38,126,35.8,125.8,33.6z M120.8,22.8c-0.2,0.8-0.7,1.5-1.3,2.1
				c-0.7,0.5-2.3,0.4-3.1,0.1l-0.1-9.5c0.1-0.7,0.4-1.3,1.2-1.3c0.6-0.2,1.1,0.1,1.8,0.1C121.9,15.8,120.9,19.8,120.8,22.8z"/>
		</g>
		<g>
			<path fill="#434952" d="M234.1,34c-0.1-0.1-0.5-0.1-0.6,0c-0.2,1.2,0.1,2.9-1,3.3c-0.8-0.4-0.7-1.8-0.7-2.6l-0.2-4.8
				c0-1-0.4-1.7-0.7-2.4c-0.4-0.7-1.3-0.8-1.3-1.7c1.7-0.7,2.3-2.6,3.2-4.1c0.7-2.1,0.1-4.4-0.8-5.9c-1.1-2.2-3.9-2.8-6.7-2.4
				c-1.6,0-2.7,0-4.1-0.1c-0.7,0.3-1.2-0.3-1.5,0.4c0,0.7,1,0.4,1.5,0.6c0.6,0.3,0,0.8,1,1.4v21.5l-0.4,0.9c-0.5,0.5-1.2,0.7-2,0.7
				c-0.2,0.1-0.2,0.6,0,0.7l2.7,0.2l4.9-0.1c-0.1-0.3,0-0.6-0.1-0.7c-0.7-0.2-0.9-0.1-1.5-0.2c-0.7-0.3-0.7-0.9-0.8-1.5
				c0.1-3.8-0.4-6.8,0-10.4l0.2-0.3c0.9-0.4,2.3-0.2,2.9,0.4c0.9,0.7,1.2,2.1,1.2,3.3v5.4l0.2,2.7c0.6,0.5,0.5,1.4,1.3,1.4
				c0.7,0.3,1.6-0.1,2.2-0.4C233.9,38,234.4,36.1,234.1,34z M228.1,25.1c-0.7,0.3-2.4,0.3-3.4,0c-0.1-3.5-0.1-6.2-0.1-9.8
				c0.1-0.5,0.5-0.9,1-1.1c1.8-0.4,2.7,0.6,3.5,1.6c0.3,0.7,0.3,1.6,0.4,2.2l-0.1,4.9C229.2,23.8,229,24.7,228.1,25.1z"/>
		</g>
		<g>
			<path fill="#434952" d="M262.4,38.7c-1.8-0.9-1.7-3.4-2.2-5.2l-1.7-7.7c-0.3-2.7-1.1-5-1.5-7.6l-1-4.6l-1.2-0.1
				c-0.7,1.1-0.8,2.7-1.1,4.1l-0.8,4.7l-1.4,8l-1.1,6.3c-0.2,0.8-0.6,1.7-1.4,2.1c-0.3,0.2-1.2-0.2-1.2,0.4
				c-0.3,0.9,0.7,0.6,1.2,0.7c1.5,0,3.3,0.1,4.8-0.2c0.7-1.4-1.2-0.6-1.7-1c-1.1-0.9-0.4-2.6-0.2-3.7c0.1-0.7,0.2-1.5,0.6-2
				c1.3-0.2,3.1-0.2,4.6-0.1c0.6,1,0.7,2.4,1,3.7c0.1,0.8,0,1.6-0.5,2c-0.6,0.4-2.1-0.2-1.7,1.1c2.2,0.3,5.1,0.2,7.3,0.1l0.1-0.2
				C263.5,38.8,262.9,38.8,262.4,38.7z M256.7,31.8l-3.7,0.1l-0.5-0.3c0.1-1,0.3-2.1,0.6-3.3l0.7-4.9c0.2-0.7,0.3-1.6,0.6-2.2
				l0.4,0.1c0.6,3.5,1.7,6.7,2.1,10.4L256.7,31.8z"/>
		</g>
		<g>
			<path fill="#434952" d="M46.4,38.3c-0.9-0.1-1.5-0.7-1.8-1.5c-0.6-2-0.7-4.1-1.2-6.2l-2-9.6c-0.4-2.6-1.1-4.9-1.5-7.4
				c0.2-1-1.6-0.7-1.7-0.3c-0.5,2.3-0.7,4.7-1.2,6.9l-0.9,5.4l-1,6.5c-0.5,1.7-0.5,3.5-1.1,5c-0.6,0.6-1.2,1.1-2.3,1
				c-0.2,0.2-0.3,1,0.3,0.8l5.3-0.1l0.1-0.6c-0.3-0.3-1-0.2-1.4-0.5c-1-1.7,0.2-3.4,0.3-5l0.4,0h3.7c0.9,0,0.6,2.1,1,3
				c0.1,0.6,0.3,1.4-0.2,1.9c-0.2,1-2.2-0.3-2,1.1c0.4,0.3,1.3,0.1,1.5,0.1h5.5l0.3-0.1C46.7,38.6,46.4,38.6,46.4,38.3z M37.4,31.5
				l-0.7-0.1l0.1-1.2l0.8-5.3l0.7-3.5l0.2,0.1l1,4.7l0.9,5C39.7,32,38.4,31.2,37.4,31.5z"/>
		</g>
	</g>
</g>
<g id="Layer_4">
</g>
</svg>
